%TF.GenerationSoftware,KiCad,Pcbnew,7.0.8*%
%TF.CreationDate,2023-11-01T10:58:51-04:00*%
%TF.ProjectId,destinationWeatherStation_v5,64657374-696e-4617-9469-6f6e57656174,01*%
%TF.SameCoordinates,Original*%
%TF.FileFunction,Soldermask,Bot*%
%TF.FilePolarity,Negative*%
%FSLAX46Y46*%
G04 Gerber Fmt 4.6, Leading zero omitted, Abs format (unit mm)*
G04 Created by KiCad (PCBNEW 7.0.8) date 2023-11-01 10:58:51*
%MOMM*%
%LPD*%
G01*
G04 APERTURE LIST*
G04 APERTURE END LIST*
G36*
X120912664Y-117301602D02*
G01*
X121075000Y-117373878D01*
X121218761Y-117478327D01*
X121337664Y-117610383D01*
X121426514Y-117764274D01*
X121481425Y-117933275D01*
X121500000Y-118110000D01*
X121481425Y-118286725D01*
X121426514Y-118455726D01*
X121337664Y-118609617D01*
X121218761Y-118741673D01*
X121075000Y-118846122D01*
X120912664Y-118918398D01*
X120738849Y-118955344D01*
X120561151Y-118955344D01*
X120387336Y-118918398D01*
X120225000Y-118846122D01*
X120081239Y-118741673D01*
X119962336Y-118609617D01*
X119873486Y-118455726D01*
X119818575Y-118286725D01*
X119800000Y-118110000D01*
X119818575Y-117933275D01*
X119873486Y-117764274D01*
X119962336Y-117610383D01*
X120081239Y-117478327D01*
X120225000Y-117373878D01*
X120387336Y-117301602D01*
X120561151Y-117264656D01*
X120738849Y-117264656D01*
X120912664Y-117301602D01*
G37*
G36*
X123452664Y-117301602D02*
G01*
X123615000Y-117373878D01*
X123758761Y-117478327D01*
X123877664Y-117610383D01*
X123966514Y-117764274D01*
X124021425Y-117933275D01*
X124040000Y-118110000D01*
X124021425Y-118286725D01*
X123966514Y-118455726D01*
X123877664Y-118609617D01*
X123758761Y-118741673D01*
X123615000Y-118846122D01*
X123452664Y-118918398D01*
X123278849Y-118955344D01*
X123101151Y-118955344D01*
X122927336Y-118918398D01*
X122765000Y-118846122D01*
X122621239Y-118741673D01*
X122502336Y-118609617D01*
X122413486Y-118455726D01*
X122358575Y-118286725D01*
X122340000Y-118110000D01*
X122358575Y-117933275D01*
X122413486Y-117764274D01*
X122502336Y-117610383D01*
X122621239Y-117478327D01*
X122765000Y-117373878D01*
X122927336Y-117301602D01*
X123101151Y-117264656D01*
X123278849Y-117264656D01*
X123452664Y-117301602D01*
G37*
G36*
X125992664Y-117301602D02*
G01*
X126155000Y-117373878D01*
X126298761Y-117478327D01*
X126417664Y-117610383D01*
X126506514Y-117764274D01*
X126561425Y-117933275D01*
X126580000Y-118110000D01*
X126561425Y-118286725D01*
X126506514Y-118455726D01*
X126417664Y-118609617D01*
X126298761Y-118741673D01*
X126155000Y-118846122D01*
X125992664Y-118918398D01*
X125818849Y-118955344D01*
X125641151Y-118955344D01*
X125467336Y-118918398D01*
X125305000Y-118846122D01*
X125161239Y-118741673D01*
X125042336Y-118609617D01*
X124953486Y-118455726D01*
X124898575Y-118286725D01*
X124880000Y-118110000D01*
X124898575Y-117933275D01*
X124953486Y-117764274D01*
X125042336Y-117610383D01*
X125161239Y-117478327D01*
X125305000Y-117373878D01*
X125467336Y-117301602D01*
X125641151Y-117264656D01*
X125818849Y-117264656D01*
X125992664Y-117301602D01*
G37*
G36*
X128532664Y-117301602D02*
G01*
X128695000Y-117373878D01*
X128838761Y-117478327D01*
X128957664Y-117610383D01*
X129046514Y-117764274D01*
X129101425Y-117933275D01*
X129120000Y-118110000D01*
X129101425Y-118286725D01*
X129046514Y-118455726D01*
X128957664Y-118609617D01*
X128838761Y-118741673D01*
X128695000Y-118846122D01*
X128532664Y-118918398D01*
X128358849Y-118955344D01*
X128181151Y-118955344D01*
X128007336Y-118918398D01*
X127845000Y-118846122D01*
X127701239Y-118741673D01*
X127582336Y-118609617D01*
X127493486Y-118455726D01*
X127438575Y-118286725D01*
X127420000Y-118110000D01*
X127438575Y-117933275D01*
X127493486Y-117764274D01*
X127582336Y-117610383D01*
X127701239Y-117478327D01*
X127845000Y-117373878D01*
X128007336Y-117301602D01*
X128181151Y-117264656D01*
X128358849Y-117264656D01*
X128532664Y-117301602D01*
G37*
G36*
X131072664Y-117301602D02*
G01*
X131235000Y-117373878D01*
X131378761Y-117478327D01*
X131497664Y-117610383D01*
X131586514Y-117764274D01*
X131641425Y-117933275D01*
X131660000Y-118110000D01*
X131641425Y-118286725D01*
X131586514Y-118455726D01*
X131497664Y-118609617D01*
X131378761Y-118741673D01*
X131235000Y-118846122D01*
X131072664Y-118918398D01*
X130898849Y-118955344D01*
X130721151Y-118955344D01*
X130547336Y-118918398D01*
X130385000Y-118846122D01*
X130241239Y-118741673D01*
X130122336Y-118609617D01*
X130033486Y-118455726D01*
X129978575Y-118286725D01*
X129960000Y-118110000D01*
X129978575Y-117933275D01*
X130033486Y-117764274D01*
X130122336Y-117610383D01*
X130241239Y-117478327D01*
X130385000Y-117373878D01*
X130547336Y-117301602D01*
X130721151Y-117264656D01*
X130898849Y-117264656D01*
X131072664Y-117301602D01*
G37*
G36*
X133612664Y-117301602D02*
G01*
X133775000Y-117373878D01*
X133918761Y-117478327D01*
X134037664Y-117610383D01*
X134126514Y-117764274D01*
X134181425Y-117933275D01*
X134200000Y-118110000D01*
X134181425Y-118286725D01*
X134126514Y-118455726D01*
X134037664Y-118609617D01*
X133918761Y-118741673D01*
X133775000Y-118846122D01*
X133612664Y-118918398D01*
X133438849Y-118955344D01*
X133261151Y-118955344D01*
X133087336Y-118918398D01*
X132925000Y-118846122D01*
X132781239Y-118741673D01*
X132662336Y-118609617D01*
X132573486Y-118455726D01*
X132518575Y-118286725D01*
X132500000Y-118110000D01*
X132518575Y-117933275D01*
X132573486Y-117764274D01*
X132662336Y-117610383D01*
X132781239Y-117478327D01*
X132925000Y-117373878D01*
X133087336Y-117301602D01*
X133261151Y-117264656D01*
X133438849Y-117264656D01*
X133612664Y-117301602D01*
G37*
G36*
X136152664Y-117301602D02*
G01*
X136315000Y-117373878D01*
X136458761Y-117478327D01*
X136577664Y-117610383D01*
X136666514Y-117764274D01*
X136721425Y-117933275D01*
X136740000Y-118110000D01*
X136721425Y-118286725D01*
X136666514Y-118455726D01*
X136577664Y-118609617D01*
X136458761Y-118741673D01*
X136315000Y-118846122D01*
X136152664Y-118918398D01*
X135978849Y-118955344D01*
X135801151Y-118955344D01*
X135627336Y-118918398D01*
X135465000Y-118846122D01*
X135321239Y-118741673D01*
X135202336Y-118609617D01*
X135113486Y-118455726D01*
X135058575Y-118286725D01*
X135040000Y-118110000D01*
X135058575Y-117933275D01*
X135113486Y-117764274D01*
X135202336Y-117610383D01*
X135321239Y-117478327D01*
X135465000Y-117373878D01*
X135627336Y-117301602D01*
X135801151Y-117264656D01*
X135978849Y-117264656D01*
X136152664Y-117301602D01*
G37*
G36*
X138692664Y-117301602D02*
G01*
X138855000Y-117373878D01*
X138998761Y-117478327D01*
X139117664Y-117610383D01*
X139206514Y-117764274D01*
X139261425Y-117933275D01*
X139280000Y-118110000D01*
X139261425Y-118286725D01*
X139206514Y-118455726D01*
X139117664Y-118609617D01*
X138998761Y-118741673D01*
X138855000Y-118846122D01*
X138692664Y-118918398D01*
X138518849Y-118955344D01*
X138341151Y-118955344D01*
X138167336Y-118918398D01*
X138005000Y-118846122D01*
X137861239Y-118741673D01*
X137742336Y-118609617D01*
X137653486Y-118455726D01*
X137598575Y-118286725D01*
X137580000Y-118110000D01*
X137598575Y-117933275D01*
X137653486Y-117764274D01*
X137742336Y-117610383D01*
X137861239Y-117478327D01*
X138005000Y-117373878D01*
X138167336Y-117301602D01*
X138341151Y-117264656D01*
X138518849Y-117264656D01*
X138692664Y-117301602D01*
G37*
G36*
X141232664Y-117301602D02*
G01*
X141395000Y-117373878D01*
X141538761Y-117478327D01*
X141657664Y-117610383D01*
X141746514Y-117764274D01*
X141801425Y-117933275D01*
X141820000Y-118110000D01*
X141801425Y-118286725D01*
X141746514Y-118455726D01*
X141657664Y-118609617D01*
X141538761Y-118741673D01*
X141395000Y-118846122D01*
X141232664Y-118918398D01*
X141058849Y-118955344D01*
X140881151Y-118955344D01*
X140707336Y-118918398D01*
X140545000Y-118846122D01*
X140401239Y-118741673D01*
X140282336Y-118609617D01*
X140193486Y-118455726D01*
X140138575Y-118286725D01*
X140120000Y-118110000D01*
X140138575Y-117933275D01*
X140193486Y-117764274D01*
X140282336Y-117610383D01*
X140401239Y-117478327D01*
X140545000Y-117373878D01*
X140707336Y-117301602D01*
X140881151Y-117264656D01*
X141058849Y-117264656D01*
X141232664Y-117301602D01*
G37*
G36*
X143772664Y-117301602D02*
G01*
X143935000Y-117373878D01*
X144078761Y-117478327D01*
X144197664Y-117610383D01*
X144286514Y-117764274D01*
X144341425Y-117933275D01*
X144360000Y-118110000D01*
X144341425Y-118286725D01*
X144286514Y-118455726D01*
X144197664Y-118609617D01*
X144078761Y-118741673D01*
X143935000Y-118846122D01*
X143772664Y-118918398D01*
X143598849Y-118955344D01*
X143421151Y-118955344D01*
X143247336Y-118918398D01*
X143085000Y-118846122D01*
X142941239Y-118741673D01*
X142822336Y-118609617D01*
X142733486Y-118455726D01*
X142678575Y-118286725D01*
X142660000Y-118110000D01*
X142678575Y-117933275D01*
X142733486Y-117764274D01*
X142822336Y-117610383D01*
X142941239Y-117478327D01*
X143085000Y-117373878D01*
X143247336Y-117301602D01*
X143421151Y-117264656D01*
X143598849Y-117264656D01*
X143772664Y-117301602D01*
G37*
G36*
X146312664Y-117301602D02*
G01*
X146475000Y-117373878D01*
X146618761Y-117478327D01*
X146737664Y-117610383D01*
X146826514Y-117764274D01*
X146881425Y-117933275D01*
X146900000Y-118110000D01*
X146881425Y-118286725D01*
X146826514Y-118455726D01*
X146737664Y-118609617D01*
X146618761Y-118741673D01*
X146475000Y-118846122D01*
X146312664Y-118918398D01*
X146138849Y-118955344D01*
X145961151Y-118955344D01*
X145787336Y-118918398D01*
X145625000Y-118846122D01*
X145481239Y-118741673D01*
X145362336Y-118609617D01*
X145273486Y-118455726D01*
X145218575Y-118286725D01*
X145200000Y-118110000D01*
X145218575Y-117933275D01*
X145273486Y-117764274D01*
X145362336Y-117610383D01*
X145481239Y-117478327D01*
X145625000Y-117373878D01*
X145787336Y-117301602D01*
X145961151Y-117264656D01*
X146138849Y-117264656D01*
X146312664Y-117301602D01*
G37*
G36*
X148852664Y-117301602D02*
G01*
X149015000Y-117373878D01*
X149158761Y-117478327D01*
X149277664Y-117610383D01*
X149366514Y-117764274D01*
X149421425Y-117933275D01*
X149440000Y-118110000D01*
X149421425Y-118286725D01*
X149366514Y-118455726D01*
X149277664Y-118609617D01*
X149158761Y-118741673D01*
X149015000Y-118846122D01*
X148852664Y-118918398D01*
X148678849Y-118955344D01*
X148501151Y-118955344D01*
X148327336Y-118918398D01*
X148165000Y-118846122D01*
X148021239Y-118741673D01*
X147902336Y-118609617D01*
X147813486Y-118455726D01*
X147758575Y-118286725D01*
X147740000Y-118110000D01*
X147758575Y-117933275D01*
X147813486Y-117764274D01*
X147902336Y-117610383D01*
X148021239Y-117478327D01*
X148165000Y-117373878D01*
X148327336Y-117301602D01*
X148501151Y-117264656D01*
X148678849Y-117264656D01*
X148852664Y-117301602D01*
G37*
G36*
X151392664Y-117301602D02*
G01*
X151555000Y-117373878D01*
X151698761Y-117478327D01*
X151817664Y-117610383D01*
X151906514Y-117764274D01*
X151961425Y-117933275D01*
X151980000Y-118110000D01*
X151961425Y-118286725D01*
X151906514Y-118455726D01*
X151817664Y-118609617D01*
X151698761Y-118741673D01*
X151555000Y-118846122D01*
X151392664Y-118918398D01*
X151218849Y-118955344D01*
X151041151Y-118955344D01*
X150867336Y-118918398D01*
X150705000Y-118846122D01*
X150561239Y-118741673D01*
X150442336Y-118609617D01*
X150353486Y-118455726D01*
X150298575Y-118286725D01*
X150280000Y-118110000D01*
X150298575Y-117933275D01*
X150353486Y-117764274D01*
X150442336Y-117610383D01*
X150561239Y-117478327D01*
X150705000Y-117373878D01*
X150867336Y-117301602D01*
X151041151Y-117264656D01*
X151218849Y-117264656D01*
X151392664Y-117301602D01*
G37*
G36*
X153932664Y-117301602D02*
G01*
X154095000Y-117373878D01*
X154238761Y-117478327D01*
X154357664Y-117610383D01*
X154446514Y-117764274D01*
X154501425Y-117933275D01*
X154520000Y-118110000D01*
X154501425Y-118286725D01*
X154446514Y-118455726D01*
X154357664Y-118609617D01*
X154238761Y-118741673D01*
X154095000Y-118846122D01*
X153932664Y-118918398D01*
X153758849Y-118955344D01*
X153581151Y-118955344D01*
X153407336Y-118918398D01*
X153245000Y-118846122D01*
X153101239Y-118741673D01*
X152982336Y-118609617D01*
X152893486Y-118455726D01*
X152838575Y-118286725D01*
X152820000Y-118110000D01*
X152838575Y-117933275D01*
X152893486Y-117764274D01*
X152982336Y-117610383D01*
X153101239Y-117478327D01*
X153245000Y-117373878D01*
X153407336Y-117301602D01*
X153581151Y-117264656D01*
X153758849Y-117264656D01*
X153932664Y-117301602D01*
G37*
G36*
X156472664Y-117301602D02*
G01*
X156635000Y-117373878D01*
X156778761Y-117478327D01*
X156897664Y-117610383D01*
X156986514Y-117764274D01*
X157041425Y-117933275D01*
X157060000Y-118110000D01*
X157041425Y-118286725D01*
X156986514Y-118455726D01*
X156897664Y-118609617D01*
X156778761Y-118741673D01*
X156635000Y-118846122D01*
X156472664Y-118918398D01*
X156298849Y-118955344D01*
X156121151Y-118955344D01*
X155947336Y-118918398D01*
X155785000Y-118846122D01*
X155641239Y-118741673D01*
X155522336Y-118609617D01*
X155433486Y-118455726D01*
X155378575Y-118286725D01*
X155360000Y-118110000D01*
X155378575Y-117933275D01*
X155433486Y-117764274D01*
X155522336Y-117610383D01*
X155641239Y-117478327D01*
X155785000Y-117373878D01*
X155947336Y-117301602D01*
X156121151Y-117264656D01*
X156298849Y-117264656D01*
X156472664Y-117301602D01*
G37*
G36*
X159012664Y-117301602D02*
G01*
X159175000Y-117373878D01*
X159318761Y-117478327D01*
X159437664Y-117610383D01*
X159526514Y-117764274D01*
X159581425Y-117933275D01*
X159600000Y-118110000D01*
X159581425Y-118286725D01*
X159526514Y-118455726D01*
X159437664Y-118609617D01*
X159318761Y-118741673D01*
X159175000Y-118846122D01*
X159012664Y-118918398D01*
X158838849Y-118955344D01*
X158661151Y-118955344D01*
X158487336Y-118918398D01*
X158325000Y-118846122D01*
X158181239Y-118741673D01*
X158062336Y-118609617D01*
X157973486Y-118455726D01*
X157918575Y-118286725D01*
X157900000Y-118110000D01*
X157918575Y-117933275D01*
X157973486Y-117764274D01*
X158062336Y-117610383D01*
X158181239Y-117478327D01*
X158325000Y-117373878D01*
X158487336Y-117301602D01*
X158661151Y-117264656D01*
X158838849Y-117264656D01*
X159012664Y-117301602D01*
G37*
G36*
X117085602Y-115289329D02*
G01*
X117325157Y-115346841D01*
X117552765Y-115441120D01*
X117762823Y-115569843D01*
X117950158Y-115729842D01*
X118110157Y-115917177D01*
X118238880Y-116127235D01*
X118333159Y-116354843D01*
X118390671Y-116594398D01*
X118410000Y-116840000D01*
X118390671Y-117085602D01*
X118333159Y-117325157D01*
X118238880Y-117552765D01*
X118110157Y-117762823D01*
X117950158Y-117950158D01*
X117762823Y-118110157D01*
X117552765Y-118238880D01*
X117325157Y-118333159D01*
X117085602Y-118390671D01*
X116840000Y-118410000D01*
X116594398Y-118390671D01*
X116354843Y-118333159D01*
X116127235Y-118238880D01*
X115917177Y-118110157D01*
X115729842Y-117950158D01*
X115569843Y-117762823D01*
X115441120Y-117552765D01*
X115346841Y-117325157D01*
X115289329Y-117085602D01*
X115270000Y-116840000D01*
X115289329Y-116594398D01*
X115346841Y-116354843D01*
X115441120Y-116127235D01*
X115569843Y-115917177D01*
X115729842Y-115729842D01*
X115917177Y-115569843D01*
X116127235Y-115441120D01*
X116354843Y-115346841D01*
X116594398Y-115289329D01*
X116840000Y-115270000D01*
X117085602Y-115289329D01*
G37*
G36*
X162780533Y-115589294D02*
G01*
X162994366Y-115646590D01*
X163195000Y-115740148D01*
X163376340Y-115867124D01*
X163532876Y-116023660D01*
X163659852Y-116205000D01*
X163753410Y-116405634D01*
X163810706Y-116619467D01*
X163830000Y-116840000D01*
X163810706Y-117060533D01*
X163753410Y-117274366D01*
X163659852Y-117475000D01*
X163532876Y-117656340D01*
X163376340Y-117812876D01*
X163195000Y-117939852D01*
X162994366Y-118033410D01*
X162780533Y-118090706D01*
X162560000Y-118110000D01*
X162339467Y-118090706D01*
X162125634Y-118033410D01*
X161925000Y-117939852D01*
X161743660Y-117812876D01*
X161587124Y-117656340D01*
X161460148Y-117475000D01*
X161366590Y-117274366D01*
X161309294Y-117060533D01*
X161290000Y-116840000D01*
X161309294Y-116619467D01*
X161366590Y-116405634D01*
X161460148Y-116205000D01*
X161587124Y-116023660D01*
X161743660Y-115867124D01*
X161925000Y-115740148D01*
X162125634Y-115646590D01*
X162339467Y-115589294D01*
X162560000Y-115570000D01*
X162780533Y-115589294D01*
G37*
G36*
X122498253Y-112760620D02*
G01*
X122498253Y-112791379D01*
X122988000Y-113526000D01*
X122985443Y-113526000D01*
X121843004Y-113526000D01*
X121838000Y-113526000D01*
X121838000Y-112026000D01*
X122988000Y-112026000D01*
X122498253Y-112760620D01*
G37*
G36*
X124288000Y-113526000D02*
G01*
X124282996Y-113526000D01*
X123293004Y-113526000D01*
X123288000Y-113526000D01*
X123286589Y-113523883D01*
X123286588Y-113523883D01*
X122790775Y-112780162D01*
X122788000Y-112776000D01*
X122790757Y-112771863D01*
X122790759Y-112771860D01*
X123285223Y-112030165D01*
X123285224Y-112030163D01*
X123288000Y-112026000D01*
X124288000Y-112026000D01*
X124288000Y-113526000D01*
G37*
G36*
X126276367Y-107154661D02*
G01*
X126318593Y-107154661D01*
X126366228Y-107164786D01*
X126413017Y-107170058D01*
X126447039Y-107181962D01*
X126482127Y-107189421D01*
X126532695Y-107211935D01*
X126582107Y-107229225D01*
X126607823Y-107245383D01*
X126634860Y-107257421D01*
X126685275Y-107294050D01*
X126733792Y-107324535D01*
X126751214Y-107341957D01*
X126770117Y-107355691D01*
X126816844Y-107407587D01*
X126860465Y-107451208D01*
X126870499Y-107467177D01*
X126881986Y-107479935D01*
X126921285Y-107548003D01*
X126955775Y-107602893D01*
X126960080Y-107615197D01*
X126965580Y-107624723D01*
X126993740Y-107711392D01*
X127014942Y-107771983D01*
X127015746Y-107779118D01*
X127017244Y-107783729D01*
X127030820Y-107912904D01*
X127035000Y-107950000D01*
X127030819Y-107987098D01*
X127017244Y-108116270D01*
X127015746Y-108120879D01*
X127014942Y-108128017D01*
X126993736Y-108188620D01*
X126965580Y-108275276D01*
X126960081Y-108284799D01*
X126955775Y-108297107D01*
X126921278Y-108352007D01*
X126881986Y-108420064D01*
X126870501Y-108432818D01*
X126860465Y-108448792D01*
X126816835Y-108492421D01*
X126770117Y-108544308D01*
X126751218Y-108558038D01*
X126733792Y-108575465D01*
X126685265Y-108605956D01*
X126634860Y-108642578D01*
X126607829Y-108654612D01*
X126582107Y-108670775D01*
X126532685Y-108688068D01*
X126482127Y-108710578D01*
X126447045Y-108718035D01*
X126413017Y-108729942D01*
X126366225Y-108735214D01*
X126318593Y-108745339D01*
X126276367Y-108745339D01*
X126235000Y-108750000D01*
X126193633Y-108745339D01*
X126151407Y-108745339D01*
X126103774Y-108735214D01*
X126056983Y-108729942D01*
X126022955Y-108718035D01*
X125987872Y-108710578D01*
X125937309Y-108688066D01*
X125887893Y-108670775D01*
X125862173Y-108654614D01*
X125835139Y-108642578D01*
X125784726Y-108605951D01*
X125736208Y-108575465D01*
X125718784Y-108558041D01*
X125699882Y-108544308D01*
X125653154Y-108492411D01*
X125609535Y-108448792D01*
X125599500Y-108432822D01*
X125588013Y-108420064D01*
X125548709Y-108351987D01*
X125514225Y-108297107D01*
X125509919Y-108284803D01*
X125504419Y-108275276D01*
X125476249Y-108188580D01*
X125455058Y-108128017D01*
X125454254Y-108120884D01*
X125452755Y-108116270D01*
X125439165Y-107986966D01*
X125435000Y-107950000D01*
X125439164Y-107913036D01*
X125452755Y-107783729D01*
X125454254Y-107779113D01*
X125455058Y-107771983D01*
X125476245Y-107711432D01*
X125504419Y-107624723D01*
X125509920Y-107615193D01*
X125514225Y-107602893D01*
X125548701Y-107548023D01*
X125588013Y-107479935D01*
X125599502Y-107467174D01*
X125609535Y-107451208D01*
X125653145Y-107407597D01*
X125699882Y-107355691D01*
X125718787Y-107341955D01*
X125736208Y-107324535D01*
X125784721Y-107294052D01*
X125835140Y-107257421D01*
X125862176Y-107245383D01*
X125887893Y-107229225D01*
X125937301Y-107211936D01*
X125987872Y-107189421D01*
X126022961Y-107181962D01*
X126056983Y-107170058D01*
X126103771Y-107164786D01*
X126151407Y-107154661D01*
X126193633Y-107154661D01*
X126235000Y-107150000D01*
X126276367Y-107154661D01*
G37*
G36*
X134026367Y-107154661D02*
G01*
X134068593Y-107154661D01*
X134116228Y-107164786D01*
X134163017Y-107170058D01*
X134197039Y-107181962D01*
X134232127Y-107189421D01*
X134282695Y-107211935D01*
X134332107Y-107229225D01*
X134357823Y-107245383D01*
X134384860Y-107257421D01*
X134435275Y-107294050D01*
X134483792Y-107324535D01*
X134501214Y-107341957D01*
X134520117Y-107355691D01*
X134566844Y-107407587D01*
X134610465Y-107451208D01*
X134620499Y-107467177D01*
X134631986Y-107479935D01*
X134671285Y-107548003D01*
X134705775Y-107602893D01*
X134710080Y-107615197D01*
X134715580Y-107624723D01*
X134743740Y-107711392D01*
X134764942Y-107771983D01*
X134765746Y-107779118D01*
X134767244Y-107783729D01*
X134780820Y-107912904D01*
X134785000Y-107950000D01*
X134780819Y-107987098D01*
X134767244Y-108116270D01*
X134765746Y-108120879D01*
X134764942Y-108128017D01*
X134743736Y-108188620D01*
X134715580Y-108275276D01*
X134710081Y-108284799D01*
X134705775Y-108297107D01*
X134671278Y-108352007D01*
X134631986Y-108420064D01*
X134620501Y-108432818D01*
X134610465Y-108448792D01*
X134566835Y-108492421D01*
X134520117Y-108544308D01*
X134501218Y-108558038D01*
X134483792Y-108575465D01*
X134435265Y-108605956D01*
X134384860Y-108642578D01*
X134357829Y-108654612D01*
X134332107Y-108670775D01*
X134282685Y-108688068D01*
X134232127Y-108710578D01*
X134197045Y-108718035D01*
X134163017Y-108729942D01*
X134116225Y-108735214D01*
X134068593Y-108745339D01*
X134026367Y-108745339D01*
X133985000Y-108750000D01*
X133943633Y-108745339D01*
X133901407Y-108745339D01*
X133853774Y-108735214D01*
X133806983Y-108729942D01*
X133772955Y-108718035D01*
X133737872Y-108710578D01*
X133687309Y-108688066D01*
X133637893Y-108670775D01*
X133612173Y-108654614D01*
X133585139Y-108642578D01*
X133534726Y-108605951D01*
X133486208Y-108575465D01*
X133468784Y-108558041D01*
X133449882Y-108544308D01*
X133403154Y-108492411D01*
X133359535Y-108448792D01*
X133349500Y-108432822D01*
X133338013Y-108420064D01*
X133298709Y-108351987D01*
X133264225Y-108297107D01*
X133259919Y-108284803D01*
X133254419Y-108275276D01*
X133226249Y-108188580D01*
X133205058Y-108128017D01*
X133204254Y-108120884D01*
X133202755Y-108116270D01*
X133189165Y-107986966D01*
X133185000Y-107950000D01*
X133189164Y-107913036D01*
X133202755Y-107783729D01*
X133204254Y-107779113D01*
X133205058Y-107771983D01*
X133226245Y-107711432D01*
X133254419Y-107624723D01*
X133259920Y-107615193D01*
X133264225Y-107602893D01*
X133298701Y-107548023D01*
X133338013Y-107479935D01*
X133349502Y-107467174D01*
X133359535Y-107451208D01*
X133403145Y-107407597D01*
X133449882Y-107355691D01*
X133468787Y-107341955D01*
X133486208Y-107324535D01*
X133534721Y-107294052D01*
X133585140Y-107257421D01*
X133612176Y-107245383D01*
X133637893Y-107229225D01*
X133687301Y-107211936D01*
X133737872Y-107189421D01*
X133772961Y-107181962D01*
X133806983Y-107170058D01*
X133853771Y-107164786D01*
X133901407Y-107154661D01*
X133943633Y-107154661D01*
X133985000Y-107150000D01*
X134026367Y-107154661D01*
G37*
G36*
X117085602Y-97509329D02*
G01*
X117325157Y-97566841D01*
X117552765Y-97661120D01*
X117762823Y-97789843D01*
X117950158Y-97949842D01*
X118110157Y-98137177D01*
X118238880Y-98347235D01*
X118333159Y-98574843D01*
X118390671Y-98814398D01*
X118410000Y-99060000D01*
X118390671Y-99305602D01*
X118333159Y-99545157D01*
X118238880Y-99772765D01*
X118110157Y-99982823D01*
X117950158Y-100170158D01*
X117762823Y-100330157D01*
X117552765Y-100458880D01*
X117325157Y-100553159D01*
X117085602Y-100610671D01*
X116840000Y-100630000D01*
X116594398Y-100610671D01*
X116354843Y-100553159D01*
X116127235Y-100458880D01*
X115917177Y-100330157D01*
X115729842Y-100170158D01*
X115569843Y-99982823D01*
X115441120Y-99772765D01*
X115346841Y-99545157D01*
X115289329Y-99305602D01*
X115270000Y-99060000D01*
X115289329Y-98814398D01*
X115346841Y-98574843D01*
X115441120Y-98347235D01*
X115569843Y-98137177D01*
X115729842Y-97949842D01*
X115917177Y-97789843D01*
X116127235Y-97661120D01*
X116354843Y-97566841D01*
X116594398Y-97509329D01*
X116840000Y-97490000D01*
X117085602Y-97509329D01*
G37*
G36*
X162780533Y-97809294D02*
G01*
X162994366Y-97866590D01*
X163195000Y-97960148D01*
X163376340Y-98087124D01*
X163532876Y-98243660D01*
X163659852Y-98425000D01*
X163753410Y-98625634D01*
X163810706Y-98839467D01*
X163830000Y-99060000D01*
X163810706Y-99280533D01*
X163753410Y-99494366D01*
X163659852Y-99695000D01*
X163532876Y-99876340D01*
X163376340Y-100032876D01*
X163195000Y-100159852D01*
X162994366Y-100253410D01*
X162780533Y-100310706D01*
X162560000Y-100330000D01*
X162339467Y-100310706D01*
X162125634Y-100253410D01*
X161925000Y-100159852D01*
X161743660Y-100032876D01*
X161587124Y-99876340D01*
X161460148Y-99695000D01*
X161366590Y-99494366D01*
X161309294Y-99280533D01*
X161290000Y-99060000D01*
X161309294Y-98839467D01*
X161366590Y-98625634D01*
X161460148Y-98425000D01*
X161587124Y-98243660D01*
X161743660Y-98087124D01*
X161925000Y-97960148D01*
X162125634Y-97866590D01*
X162339467Y-97809294D01*
X162560000Y-97790000D01*
X162780533Y-97809294D01*
G37*
G36*
X121226891Y-97820804D02*
G01*
X121385413Y-97876273D01*
X121527617Y-97965626D01*
X121646374Y-98084383D01*
X121735727Y-98226587D01*
X121791196Y-98385109D01*
X121810000Y-98552000D01*
X121791196Y-98718891D01*
X121735727Y-98877413D01*
X121646374Y-99019617D01*
X121527617Y-99138374D01*
X121385413Y-99227727D01*
X121226891Y-99283196D01*
X121060000Y-99302000D01*
X120893109Y-99283196D01*
X120734587Y-99227727D01*
X120592383Y-99138374D01*
X120473626Y-99019617D01*
X120384273Y-98877413D01*
X120328804Y-98718891D01*
X120310000Y-98552000D01*
X120328804Y-98385109D01*
X120384273Y-98226587D01*
X120473626Y-98084383D01*
X120592383Y-97965626D01*
X120734587Y-97876273D01*
X120893109Y-97820804D01*
X121060000Y-97802000D01*
X121226891Y-97820804D01*
G37*
G36*
X128056891Y-97820804D02*
G01*
X128215413Y-97876273D01*
X128357617Y-97965626D01*
X128476374Y-98084383D01*
X128565727Y-98226587D01*
X128621196Y-98385109D01*
X128640000Y-98552000D01*
X128621196Y-98718891D01*
X128565727Y-98877413D01*
X128476374Y-99019617D01*
X128357617Y-99138374D01*
X128215413Y-99227727D01*
X128056891Y-99283196D01*
X127890000Y-99302000D01*
X127723109Y-99283196D01*
X127564587Y-99227727D01*
X127422383Y-99138374D01*
X127303626Y-99019617D01*
X127214273Y-98877413D01*
X127158804Y-98718891D01*
X127140000Y-98552000D01*
X127158804Y-98385109D01*
X127214273Y-98226587D01*
X127303626Y-98084383D01*
X127422383Y-97965626D01*
X127564587Y-97876273D01*
X127723109Y-97820804D01*
X127890000Y-97802000D01*
X128056891Y-97820804D01*
G37*
G36*
X131072664Y-96981602D02*
G01*
X131235000Y-97053878D01*
X131378761Y-97158327D01*
X131497664Y-97290383D01*
X131586514Y-97444274D01*
X131641425Y-97613275D01*
X131660000Y-97790000D01*
X131641425Y-97966725D01*
X131586514Y-98135726D01*
X131497664Y-98289617D01*
X131378761Y-98421673D01*
X131235000Y-98526122D01*
X131072664Y-98598398D01*
X130898849Y-98635344D01*
X130721151Y-98635344D01*
X130547336Y-98598398D01*
X130385000Y-98526122D01*
X130241239Y-98421673D01*
X130122336Y-98289617D01*
X130033486Y-98135726D01*
X129978575Y-97966725D01*
X129960000Y-97790000D01*
X129978575Y-97613275D01*
X130033486Y-97444274D01*
X130122336Y-97290383D01*
X130241239Y-97158327D01*
X130385000Y-97053878D01*
X130547336Y-96981602D01*
X130721151Y-96944656D01*
X130898849Y-96944656D01*
X131072664Y-96981602D01*
G37*
G36*
X133612664Y-96981602D02*
G01*
X133775000Y-97053878D01*
X133918761Y-97158327D01*
X134037664Y-97290383D01*
X134126514Y-97444274D01*
X134181425Y-97613275D01*
X134200000Y-97790000D01*
X134181425Y-97966725D01*
X134126514Y-98135726D01*
X134037664Y-98289617D01*
X133918761Y-98421673D01*
X133775000Y-98526122D01*
X133612664Y-98598398D01*
X133438849Y-98635344D01*
X133261151Y-98635344D01*
X133087336Y-98598398D01*
X132925000Y-98526122D01*
X132781239Y-98421673D01*
X132662336Y-98289617D01*
X132573486Y-98135726D01*
X132518575Y-97966725D01*
X132500000Y-97790000D01*
X132518575Y-97613275D01*
X132573486Y-97444274D01*
X132662336Y-97290383D01*
X132781239Y-97158327D01*
X132925000Y-97053878D01*
X133087336Y-96981602D01*
X133261151Y-96944656D01*
X133438849Y-96944656D01*
X133612664Y-96981602D01*
G37*
G36*
X136152664Y-96981602D02*
G01*
X136315000Y-97053878D01*
X136458761Y-97158327D01*
X136577664Y-97290383D01*
X136666514Y-97444274D01*
X136721425Y-97613275D01*
X136740000Y-97790000D01*
X136721425Y-97966725D01*
X136666514Y-98135726D01*
X136577664Y-98289617D01*
X136458761Y-98421673D01*
X136315000Y-98526122D01*
X136152664Y-98598398D01*
X135978849Y-98635344D01*
X135801151Y-98635344D01*
X135627336Y-98598398D01*
X135465000Y-98526122D01*
X135321239Y-98421673D01*
X135202336Y-98289617D01*
X135113486Y-98135726D01*
X135058575Y-97966725D01*
X135040000Y-97790000D01*
X135058575Y-97613275D01*
X135113486Y-97444274D01*
X135202336Y-97290383D01*
X135321239Y-97158327D01*
X135465000Y-97053878D01*
X135627336Y-96981602D01*
X135801151Y-96944656D01*
X135978849Y-96944656D01*
X136152664Y-96981602D01*
G37*
G36*
X138692664Y-96981602D02*
G01*
X138855000Y-97053878D01*
X138998761Y-97158327D01*
X139117664Y-97290383D01*
X139206514Y-97444274D01*
X139261425Y-97613275D01*
X139280000Y-97790000D01*
X139261425Y-97966725D01*
X139206514Y-98135726D01*
X139117664Y-98289617D01*
X138998761Y-98421673D01*
X138855000Y-98526122D01*
X138692664Y-98598398D01*
X138518849Y-98635344D01*
X138341151Y-98635344D01*
X138167336Y-98598398D01*
X138005000Y-98526122D01*
X137861239Y-98421673D01*
X137742336Y-98289617D01*
X137653486Y-98135726D01*
X137598575Y-97966725D01*
X137580000Y-97790000D01*
X137598575Y-97613275D01*
X137653486Y-97444274D01*
X137742336Y-97290383D01*
X137861239Y-97158327D01*
X138005000Y-97053878D01*
X138167336Y-96981602D01*
X138341151Y-96944656D01*
X138518849Y-96944656D01*
X138692664Y-96981602D01*
G37*
G36*
X141232664Y-96981602D02*
G01*
X141395000Y-97053878D01*
X141538761Y-97158327D01*
X141657664Y-97290383D01*
X141746514Y-97444274D01*
X141801425Y-97613275D01*
X141820000Y-97790000D01*
X141801425Y-97966725D01*
X141746514Y-98135726D01*
X141657664Y-98289617D01*
X141538761Y-98421673D01*
X141395000Y-98526122D01*
X141232664Y-98598398D01*
X141058849Y-98635344D01*
X140881151Y-98635344D01*
X140707336Y-98598398D01*
X140545000Y-98526122D01*
X140401239Y-98421673D01*
X140282336Y-98289617D01*
X140193486Y-98135726D01*
X140138575Y-97966725D01*
X140120000Y-97790000D01*
X140138575Y-97613275D01*
X140193486Y-97444274D01*
X140282336Y-97290383D01*
X140401239Y-97158327D01*
X140545000Y-97053878D01*
X140707336Y-96981602D01*
X140881151Y-96944656D01*
X141058849Y-96944656D01*
X141232664Y-96981602D01*
G37*
G36*
X143772664Y-96981602D02*
G01*
X143935000Y-97053878D01*
X144078761Y-97158327D01*
X144197664Y-97290383D01*
X144286514Y-97444274D01*
X144341425Y-97613275D01*
X144360000Y-97790000D01*
X144341425Y-97966725D01*
X144286514Y-98135726D01*
X144197664Y-98289617D01*
X144078761Y-98421673D01*
X143935000Y-98526122D01*
X143772664Y-98598398D01*
X143598849Y-98635344D01*
X143421151Y-98635344D01*
X143247336Y-98598398D01*
X143085000Y-98526122D01*
X142941239Y-98421673D01*
X142822336Y-98289617D01*
X142733486Y-98135726D01*
X142678575Y-97966725D01*
X142660000Y-97790000D01*
X142678575Y-97613275D01*
X142733486Y-97444274D01*
X142822336Y-97290383D01*
X142941239Y-97158327D01*
X143085000Y-97053878D01*
X143247336Y-96981602D01*
X143421151Y-96944656D01*
X143598849Y-96944656D01*
X143772664Y-96981602D01*
G37*
G36*
X146312664Y-96981602D02*
G01*
X146475000Y-97053878D01*
X146618761Y-97158327D01*
X146737664Y-97290383D01*
X146826514Y-97444274D01*
X146881425Y-97613275D01*
X146900000Y-97790000D01*
X146881425Y-97966725D01*
X146826514Y-98135726D01*
X146737664Y-98289617D01*
X146618761Y-98421673D01*
X146475000Y-98526122D01*
X146312664Y-98598398D01*
X146138849Y-98635344D01*
X145961151Y-98635344D01*
X145787336Y-98598398D01*
X145625000Y-98526122D01*
X145481239Y-98421673D01*
X145362336Y-98289617D01*
X145273486Y-98135726D01*
X145218575Y-97966725D01*
X145200000Y-97790000D01*
X145218575Y-97613275D01*
X145273486Y-97444274D01*
X145362336Y-97290383D01*
X145481239Y-97158327D01*
X145625000Y-97053878D01*
X145787336Y-96981602D01*
X145961151Y-96944656D01*
X146138849Y-96944656D01*
X146312664Y-96981602D01*
G37*
G36*
X148852664Y-96981602D02*
G01*
X149015000Y-97053878D01*
X149158761Y-97158327D01*
X149277664Y-97290383D01*
X149366514Y-97444274D01*
X149421425Y-97613275D01*
X149440000Y-97790000D01*
X149421425Y-97966725D01*
X149366514Y-98135726D01*
X149277664Y-98289617D01*
X149158761Y-98421673D01*
X149015000Y-98526122D01*
X148852664Y-98598398D01*
X148678849Y-98635344D01*
X148501151Y-98635344D01*
X148327336Y-98598398D01*
X148165000Y-98526122D01*
X148021239Y-98421673D01*
X147902336Y-98289617D01*
X147813486Y-98135726D01*
X147758575Y-97966725D01*
X147740000Y-97790000D01*
X147758575Y-97613275D01*
X147813486Y-97444274D01*
X147902336Y-97290383D01*
X148021239Y-97158327D01*
X148165000Y-97053878D01*
X148327336Y-96981602D01*
X148501151Y-96944656D01*
X148678849Y-96944656D01*
X148852664Y-96981602D01*
G37*
G36*
X151392664Y-96981602D02*
G01*
X151555000Y-97053878D01*
X151698761Y-97158327D01*
X151817664Y-97290383D01*
X151906514Y-97444274D01*
X151961425Y-97613275D01*
X151980000Y-97790000D01*
X151961425Y-97966725D01*
X151906514Y-98135726D01*
X151817664Y-98289617D01*
X151698761Y-98421673D01*
X151555000Y-98526122D01*
X151392664Y-98598398D01*
X151218849Y-98635344D01*
X151041151Y-98635344D01*
X150867336Y-98598398D01*
X150705000Y-98526122D01*
X150561239Y-98421673D01*
X150442336Y-98289617D01*
X150353486Y-98135726D01*
X150298575Y-97966725D01*
X150280000Y-97790000D01*
X150298575Y-97613275D01*
X150353486Y-97444274D01*
X150442336Y-97290383D01*
X150561239Y-97158327D01*
X150705000Y-97053878D01*
X150867336Y-96981602D01*
X151041151Y-96944656D01*
X151218849Y-96944656D01*
X151392664Y-96981602D01*
G37*
G36*
X153932664Y-96981602D02*
G01*
X154095000Y-97053878D01*
X154238761Y-97158327D01*
X154357664Y-97290383D01*
X154446514Y-97444274D01*
X154501425Y-97613275D01*
X154520000Y-97790000D01*
X154501425Y-97966725D01*
X154446514Y-98135726D01*
X154357664Y-98289617D01*
X154238761Y-98421673D01*
X154095000Y-98526122D01*
X153932664Y-98598398D01*
X153758849Y-98635344D01*
X153581151Y-98635344D01*
X153407336Y-98598398D01*
X153245000Y-98526122D01*
X153101239Y-98421673D01*
X152982336Y-98289617D01*
X152893486Y-98135726D01*
X152838575Y-97966725D01*
X152820000Y-97790000D01*
X152838575Y-97613275D01*
X152893486Y-97444274D01*
X152982336Y-97290383D01*
X153101239Y-97158327D01*
X153245000Y-97053878D01*
X153407336Y-96981602D01*
X153581151Y-96944656D01*
X153758849Y-96944656D01*
X153932664Y-96981602D01*
G37*
G36*
X156472664Y-96981602D02*
G01*
X156635000Y-97053878D01*
X156778761Y-97158327D01*
X156897664Y-97290383D01*
X156986514Y-97444274D01*
X157041425Y-97613275D01*
X157060000Y-97790000D01*
X157041425Y-97966725D01*
X156986514Y-98135726D01*
X156897664Y-98289617D01*
X156778761Y-98421673D01*
X156635000Y-98526122D01*
X156472664Y-98598398D01*
X156298849Y-98635344D01*
X156121151Y-98635344D01*
X155947336Y-98598398D01*
X155785000Y-98526122D01*
X155641239Y-98421673D01*
X155522336Y-98289617D01*
X155433486Y-98135726D01*
X155378575Y-97966725D01*
X155360000Y-97790000D01*
X155378575Y-97613275D01*
X155433486Y-97444274D01*
X155522336Y-97290383D01*
X155641239Y-97158327D01*
X155785000Y-97053878D01*
X155947336Y-96981602D01*
X156121151Y-96944656D01*
X156298849Y-96944656D01*
X156472664Y-96981602D01*
G37*
G36*
X159012664Y-96981602D02*
G01*
X159175000Y-97053878D01*
X159318761Y-97158327D01*
X159437664Y-97290383D01*
X159526514Y-97444274D01*
X159581425Y-97613275D01*
X159600000Y-97790000D01*
X159581425Y-97966725D01*
X159526514Y-98135726D01*
X159437664Y-98289617D01*
X159318761Y-98421673D01*
X159175000Y-98526122D01*
X159012664Y-98598398D01*
X158838849Y-98635344D01*
X158661151Y-98635344D01*
X158487336Y-98598398D01*
X158325000Y-98526122D01*
X158181239Y-98421673D01*
X158062336Y-98289617D01*
X157973486Y-98135726D01*
X157918575Y-97966725D01*
X157900000Y-97790000D01*
X157918575Y-97613275D01*
X157973486Y-97444274D01*
X158062336Y-97290383D01*
X158181239Y-97158327D01*
X158325000Y-97053878D01*
X158487336Y-96981602D01*
X158661151Y-96944656D01*
X158838849Y-96944656D01*
X159012664Y-96981602D01*
G37*
M02*
