M48
; DRILL file {KiCad 7.0.8} date Wed Nov  1 10:58:54 2023
; FORMAT={-:-/ absolute / metric / decimal}
; #@! TF.CreationDate,2023-11-01T10:58:54-04:00
; #@! TF.GenerationSoftware,Kicad,Pcbnew,7.0.8
; #@! TF.FileFunction,Plated,1,2,PTH
FMAT,2
METRIC
; #@! TA.AperFunction,Plated,PTH,ViaDrill
T1C0.310
; #@! TA.AperFunction,Plated,PTH,ViaDrill
T2C0.400
; #@! TA.AperFunction,Plated,PTH,ViaDrill
T3C0.500
; #@! TA.AperFunction,Plated,PTH,ComponentDrill
T4C0.900
; #@! TA.AperFunction,Plated,PTH,ComponentDrill
T5C1.000
; #@! TA.AperFunction,Plated,PTH,ComponentDrill
T6C1.100
; #@! TA.AperFunction,Plated,PTH,ComponentDrill
T7C2.540
%
G90
G05
T1
X117.602Y-107.188
X118.364Y-109.093
X118.999Y-108.077
X119.126Y-101.219
X120.269Y-100.076
X121.078Y-112.237
X121.158Y-109.728
X121.666Y-114.046
X123.698Y-110.871
X124.206Y-107.569
X124.206Y-114.313
X124.968Y-116.205
X125.095Y-114.808
X125.349Y-109.22
X126.492Y-116.205
X128.905Y-112.522
X128.905Y-113.538
X130.048Y-116.205
X130.06Y-109.22
X131.572Y-116.205
X132.271Y-109.26
X132.334Y-112.522
X132.334Y-113.538
X133.985Y-101.219
X133.985Y-114.554
X136.144Y-101.473
X139.134Y-99.989
X140.081Y-101.941
X140.716Y-107.95
X141.224Y-101.854
X144.907Y-101.854
X144.907Y-110.998
X145.161Y-115.697
X145.46Y-99.989
X145.669Y-110.236
X146.304Y-115.57
X146.304Y-116.586
X146.812Y-105.156
X146.812Y-107.188
X147.066Y-108.458
X147.066Y-109.474
X147.32Y-98.806
X149.86Y-99.568
X149.86Y-102.87
X150.495Y-109.474
X152.019Y-108.458
X152.019Y-110.236
X153.67Y-105.605
X153.67Y-111.633
X154.31Y-115.575
X157.861Y-111.506
X157.861Y-113.03
X159.639Y-113.03
X159.766Y-100.076
X159.766Y-102.743
T2
X122.682Y-109.728
T3
X122.174Y-103.759
T4
X121.06Y-98.552
X127.89Y-98.552
T5
X126.235Y-107.95
X133.985Y-107.95
T6
X120.65Y-118.11
X123.19Y-118.11
X125.73Y-118.11
X128.27Y-118.11
X130.81Y-97.79
X130.81Y-118.11
X133.35Y-97.79
X133.35Y-118.11
X135.89Y-97.79
X135.89Y-118.11
X138.43Y-97.79
X138.43Y-118.11
X140.97Y-97.79
X140.97Y-118.11
X143.51Y-97.79
X143.51Y-118.11
X146.05Y-97.79
X146.05Y-118.11
X148.59Y-97.79
X148.59Y-118.11
X151.13Y-97.79
X151.13Y-118.11
X153.67Y-97.79
X153.67Y-118.11
X156.21Y-97.79
X156.21Y-118.11
X158.75Y-97.79
X158.75Y-118.11
T7
X116.84Y-99.06
X116.84Y-116.84
T0
M30
