<?xml version="1.0" encoding="utf-8"?>
<!-- Generator: Adobe Illustrator 28.1.0, SVG Export Plug-In . SVG Version: 6.00 Build 0)  -->
<svg version="1.1" xmlns="http://www.w3.org/2000/svg" xmlns:xlink="http://www.w3.org/1999/xlink" x="0px" y="0px"
	 viewBox="0 0 144.3 65.1" style="enable-background:new 0 0 144.3 65.1;" xml:space="preserve">
<style type="text/css">
	.st0{opacity:0;enable-background:new    ;}
	.st1{fill:none;}
	.st2{fill:#F2EDA1;}
	.st3{font-family:'ArialMT';}
	.st4{font-size:3.7794px;}
	.st5{letter-spacing:1;}
	.st6{fill:none;stroke:#F2EDA1;stroke-width:0.3402;stroke-linecap:round;stroke-linejoin:round;stroke-miterlimit:11.3386;}
	.st7{letter-spacing:2;}
	.st8{fill-rule:evenodd;clip-rule:evenodd;fill:#FFFFFF;}
	.st9{font-size:3.5906px;}
	.st10{letter-spacing:8;}
	.st11{fill:none;stroke:#F2EDA1;stroke-width:0.4252;stroke-linecap:round;stroke-linejoin:round;stroke-miterlimit:11.3386;}
	.st12{letter-spacing:9;}
	.st13{letter-spacing:11;}
	
		.st14{fill:#FFFFFF;fill-opacity:0;stroke:#FFFFFF;stroke-width:0.3402;stroke-linecap:round;stroke-linejoin:round;stroke-miterlimit:11.3386;}
	
		.st15{fill:#FFFFFF;fill-opacity:0;stroke:#FFFFFF;stroke-width:0.7087;stroke-linecap:round;stroke-linejoin:round;stroke-miterlimit:11.3386;}
	
		.st16{fill:#FFFFFF;fill-opacity:0;stroke:#FFFFFF;stroke-width:0.4252;stroke-linecap:round;stroke-linejoin:round;stroke-miterlimit:11.3386;}
	.st17{fill:#FFFFFF;}
	
		.st18{fill:#D0D2CD;fill-opacity:0;stroke:#D0D2CD;stroke-width:0.3402;stroke-linecap:round;stroke-linejoin:round;stroke-miterlimit:11.3386;}
	.st19{display:none;}
	.st20{fill:#FFFFFF;stroke:#FFFFFF;stroke-width:0.3402;stroke-linecap:round;stroke-linejoin:round;stroke-miterlimit:11.3386;}
	.st21{fill:none;stroke:#FFFFFF;stroke-width:0.3402;stroke-linecap:round;stroke-linejoin:round;stroke-miterlimit:11.3386;}
	.st22{fill:none;stroke:#FFFFFF;stroke-width:0.3402;stroke-linecap:round;stroke-miterlimit:10;}
</style>
<g id="Layer_1" xmlns:svg="http://www.w3.org/2000/svg">
	<g transform="translate(0 0) scale(1 1)">
	</g>
	<g>
		<g transform="rotate(-180.000000 120.9600 100.3520)">
			<g class="st0">
				<rect x="222.9" y="186.4" class="st1" width="6.9" height="4.5"/>
				<text transform="matrix(1 0 0 1 222.871 189.6705)"><tspan x="0" y="0" class="st2 st3 st4 st5">O</tspan><tspan x="4.2" y="0" class="st2 st3 st4">N</tspan></text>
			</g>
			<g class="st0">
				<rect x="222.3" y="185.9" class="st1" width="8.1" height="5.4"/>
				<text transform="matrix(1 0 0 1 222.2821 189.1886)"><tspan x="0" y="0" class="st6 st3 st4 st7">O</tspan><tspan x="5.4" y="0" class="st6 st3 st4">N</tspan></text>
			</g>
		</g>
		<g>
			<path class="st8" d="M18.1,11.5L18.1,11.5L18.1,11.5l0.1,0l0,0l0,0l0,0l0,0l0,0l0,0l0,0l0,0l0,0l0,0l0,0l0,0l0,0l0,0l0,0l0,0l0,0
				l0,0l0,0l0,0l0,0v0v1.1l0,0l0,0l0,0l0,0l0,0l0,0l0,0l0,0l0,0l0,0l0,0l0,0l0,0l0,0l0,0l0,0l0,0l0,0l0,0l0,0l0,0l0,0l0,0l0,0l0,0
				l0,0h-1.5l0,0l0,0l0,0l0,0l0,0l0,0l0,0l0,0l0,0l0,0l0,0l0,0l0,0l0,0l0,0l0,0l0,0l0,0l0,0l0,0l0,0l0,0l0,0l0,0l0,0V12l0,0l0,0l0,0
				h0.5v1.3h1.6v-1.3h-1.6H16l0,0l0,0l0,0l0,0l0,0l0,0l0,0l0,0l0,0l0,0l0,0l0,0l0,0l0,0l0,0l0,0l0,0l0,0l0,0l0,0l0,0l0,0l0,0l0,0
				L18.1,11.5L18.1,11.5z"/>
			<path class="st8" d="M15,11.5v2h-0.3l-1.4-1.2l0,0l0,0l0,0l0,0l0,0l0,0l0,0l0,0l0,0l0,0l0,0l0,0l0,0l0,0l0,0l0,0l0,0l0,0l0,0l0,0
				l0,0l0,0l0,0l0,0v1.1h-0.4v-2H13l1.5,1.3l0,0l0,0l0,0l0,0l0,0l0,0l0,0l0,0l0,0l0,0l0,0l0,0l0,0l0,0l0,0l0,0l0,0l0,0l0,0l0,0v-1.1
				H15z"/>
		</g>
	</g>
	<g>
		<g class="st0">
			<rect x="85.9" y="50" class="st1" width="43.2" height="4.2"/>
			<text transform="matrix(1 0 0 1 85.922 53.1111)"><tspan x="0" y="0" class="st2 st3 st9">Weather</tspan><tspan x="13.6" y="0" class="st2 st3 st9 st10"> </tspan><tspan x="22.7" y="0" class="st2 st3 st9">FeatherWing</tspan></text>
		</g>
		<g class="st0">
			<rect x="85.2" y="49.4" class="st1" width="44.7" height="5.5"/>
			<text transform="matrix(1 0 0 1 85.1794 52.5076)"><tspan x="0" y="0" class="st11 st3 st9">Weather</tspan><tspan x="13.6" y="0" class="st11 st3 st9 st12"> </tspan><tspan x="24.2" y="0" class="st11 st3 st9">FeatherWing</tspan></text>
		</g>
		<g>
			<path class="st8" d="M87.3,51.4v1l0.1,0.1h0.1l0.1-0.1v-1.8l0,0l0,0l0,0l0,0l0,0l0,0l0,0l0,0l0,0l0,0l0,0l0,0l0,0l0,0l0,0l0,0
				l0,0l0,0l0,0l0,0v1.9l0,0l0,0l0,0l0,0l0,0l-0.1,0.2l0,0l0,0l0,0l0,0l0,0l0,0l0,0h-0.3l0,0l0,0l0,0l0,0l0,0l0,0l0,0l0,0l0,0l0,0
				l0,0l0,0l0,0l0,0h-0.3l0,0l0,0l0,0l0,0l0,0l0,0l0,0l0,0l-0.1-0.2l0,0l0,0l0,0l0,0l0,0v-1.9l0,0l0,0l0,0l0,0l0,0l0,0l0,0l0,0l0,0
				l0,0l0,0l0,0l0,0l0,0l0,0l0,0l0,0l0,0l0,0l0,0v1.8l0.1,0.1h0.1l0.1-0.1v-1l0,0l0,0l0,0l0,0l0,0l0,0l0,0l0,0l0,0l0,0l0,0l0,0l0,0
				l0,0l0,0l0,0L87.3,51.4L87.3,51.4L87.3,51.4L87.3,51.4z"/>
			<path class="st8" d="M89.6,51.1L89.6,51.1L89.6,51.1L89.6,51.1l0.1,0l0,0l0,0l0,0l0,0l0,0l0,0l0.1,0.1l0,0l0,0l0,0l0,0l0,0l0,0
				l0,0l0,0l0,0l0,0l0,0l0,0V52l0,0l0,0l0,0l0,0l0,0l0,0l0,0l0,0l0,0l0,0h-1.1v0.1l0,0l0,0l0,0l0,0l0,0l0,0l0.1,0.1l0,0l0,0l0,0l0,0
				l0,0H90l0,0l0,0l0,0l0,0l0,0l0,0l0,0l0,0l0,0l0,0l0,0l0,0l0,0l0,0l0,0l0,0l0,0l0,0l0,0l0,0h-0.8l0,0l0,0l0,0l0,0l0,0l0,0l0,0l0,0
				l0,0l0,0l0,0l0,0l0,0l-0.1-0.1l0,0l0,0l0,0l0,0l0,0l0,0l0,0l0,0l0,0l0,0l0,0l0,0l0,0v0v-0.5h0.4h0.9v-0.2l0,0l0,0l0,0l0,0l0,0
				l-0.1-0.1l0,0l0,0l0,0l0,0l0,0h-0.4l0,0l0,0l0,0l0,0l0,0L89,51.5l0,0l0,0l0,0l0,0l0,0v0.2h-0.4v-0.3l0,0l0,0l0,0l0,0l0,0l0,0l0,0
				l0,0l0,0l0,0l0,0l0,0l0,0l0,0l0.1-0.1l0,0l0,0l0,0l0,0l0,0l0,0l0,0l0,0l0,0l0,0l0,0L89.6,51.1L89.6,51.1z"/>
			<path class="st8" d="M92,51.1L92,51.1L92,51.1l0.1,0l0,0l0,0l0,0l0,0l0,0l0,0l0,0l0,0l0,0l0,0l0,0l0,0l0,0l0,0l0,0l0,0l0,0l0,0
				l0,1.2l0,0l0,0l0,0l0,0l0,0l0,0l0,0l0,0l0,0l0,0l0,0l0,0l0,0l0,0l0,0l0,0l0,0l0,0l0,0l0,0v0l-0.2,0.2h-0.5l0,0l0,0l0,0l0,0l0,0
				l0,0l0,0l0,0l0,0l0,0l0,0l0,0l0,0l0,0l0,0l0,0l0,0l0,0l0,0l0,0l0,0l0,0h0.4l0,0l0,0l0,0l0,0l0,0l0,0l0,0l0,0h0.4l0.3-0.2l0-0.1
				l0,0l0,0l0,0l0,0l0,0l0,0l0,0l0,0l0,0h-0.6l0,0l0,0l0,0l0,0l0,0l0,0l0,0l0,0v0.2h-0.4l0,0v-0.2l0,0l0,0l0,0l0,0l0,0l0,0l0,0l0,0
				l0,0l0,0l0,0l0,0l0,0l0,0l0,0l0,0l0,0l0,0l0,0l0,0l0,0l0,0h0.6l0,0l0,0l0,0l0,0l0,0l0-0.2l0,0l0,0l0,0l0,0l0,0l0,0l0,0l0,0h-0.6
				l0,0l0,0l0,0l0,0l0,0l0,0l0,0l0,0l0,0l0,0l0,0l0,0l0,0l0,0l0,0l0,0l0,0l0,0l0,0l0,0L92,51.1L92,51.1z"/>
			<path class="st8" d="M94.2,52.9h-0.3l0,0l0,0l0,0l0,0l0,0l0,0l0,0l0,0l0,0l0,0l0,0l0,0l0,0l0,0l0,0l0,0l0,0l0,0l0,0l0,0l0,0l0,0
				v-1h-0.1l0,0l0,0l0,0l0,0l0,0l0,0l0,0l0,0l0,0l0,0l0,0l0,0l0,0l0,0l0,0l0,0l0,0l0,0l0,0l0,0h0.1v-0.4l0,0l0,0l0,0l0,0l0,0l0,0
				l0,0l0,0l0,0l0,0l0,0l0,0l0,0l0,0l0,0l0,0l0,0l0,0l0,0l0,0v0.4h0.6l0,0l0,0l0,0l0,0l0,0l0,0l0,0l0,0l0,0l0,0l0,0l0,0l0,0l0,0l0,0
				l0,0l0,0l0,0l0,0l0,0h-0.6v1l0,0l0,0l0,0l0,0l0,0l0,0l0,0l0,0h0.3l0,0l0,0l0,0l0,0l0,0l0,0l0,0l0,0l0,0l0,0l0,0l0,0l0,0l0,0l0,0
				l0,0l0,0l0,0l0,0l0,0l0,0l0,0l0,0l0,0l0,0l0,0l0,0l0,0l0,0l0,0l0,0l0,0l0,0l0,0l0,0l0,0l0,0l0,0l0,0l0,0l0,0l0,0l0,0l0,0
				L94.2,52.9L94.2,52.9L94.2,52.9z"/>
			<path class="st8" d="M95.4,52.7v-2.1l0,0l0,0l0,0l0,0l0,0l0,0l0,0l0,0l0,0l0,0l0,0l0,0l0,0l0,0l0,0l0,0l0,0l0,0l0,0l0,0v0.7
				l0.2-0.1l0,0l0,0l0,0l0,0l0,0l0,0l0,0l0,0l0,0l0,0l0,0h0.2l0,0l0,0l0,0l0,0l0,0l0,0l0,0l0,0l0,0l0,0l0,0l0,0l0,0l0,0l0,0l0,0l0,0
				l0,0l0,0l0,0l0,0l0,0l0,1.2l0,0l0,0l0,0l0,0l0,0l0,0l0,0l0,0l0,0l0,0l0,0l0,0l0,0l0,0l0,0l0,0l0,0l0,0l0,0l0,0l0-1.2l0,0l0,0l0,0
				l0,0l0,0l0,0l0,0l0,0h-0.2l0,0l0,0l0,0l0,0l0,0l-0.4,0.2v1l0,0l0,0l0,0l0,0l0,0l0,0l0,0l0,0l0,0l0,0l0,0l0,0l0,0l0,0l0,0l0,0l0,0
				L95.4,52.7L95.4,52.7L95.4,52.7L95.4,52.7z"/>
			<path class="st8" d="M98.7,51.1L98.7,51.1L98.7,51.1L98.7,51.1l0.1,0l0,0l0,0l0,0l0,0l0,0l0,0l0.1,0.1l0,0l0,0l0,0l0,0l0,0l0,0
				l0,0l0,0l0,0l0,0l0,0l0,0V52l0,0l0,0l0,0l0,0l0,0l0,0l0,0l0,0l0,0l0,0H98v0.1l0,0l0,0l0,0l0,0l0,0l0,0l0.1,0.1l0,0l0,0l0,0l0,0
				l0,0h0.8l0,0l0,0l0,0l0,0l0,0l0,0l0,0l0,0l0,0l0,0l0,0l0,0l0,0l0,0l0,0l0,0l0,0l0,0l0,0l0,0h-0.8l0,0l0,0l0,0l0,0l0,0l0,0l0,0
				l0,0l0,0l0,0l0,0l0,0l0,0l-0.1-0.1l0,0l0,0l0,0l0,0l0,0l0,0l0,0l0,0l0,0l0,0l0,0l0,0l0,0v0v-0.5H98h0.9v-0.2l0,0l0,0l0,0l0,0l0,0
				l-0.1-0.1l0,0l0,0l0,0l0,0l0,0h-0.4l0,0l0,0l0,0l0,0l0,0l-0.1,0.1l0,0l0,0l0,0l0,0l0,0v0.2h-0.4v-0.3l0,0l0,0l0,0l0,0l0,0l0,0
				l0,0l0,0l0,0l0,0l0,0l0,0l0,0l0,0l0.1-0.1l0,0l0,0l0,0l0,0l0,0l0,0l0,0l0,0l0,0l0,0l0,0L98.7,51.1L98.7,51.1z"/>
			<path class="st8" d="M100,52.7v-1.5l0,0l0,0l0,0l0,0l0,0l0,0l0,0l0,0l0,0l0,0l0,0l0,0l0,0l0,0l0,0l0,0l0,0l0,0l0,0l0,0v0.1
				l0.2-0.2l0,0l0,0l0,0l0,0l0,0l0,0l0,0l0,0l0,0l0,0l0,0h0.2l0,0l0,0l0,0l0,0l0,0l0,0l0,0l0,0l0,0l0,0l0,0l0,0l0,0l0,0l0,0l0,0l0,0
				l0,0l0,0l0,0l0,0l0,0v0.1l0,0l0,0l0,0l0,0l0,0l0,0l0,0l0,0l0,0l0,0l0,0l0,0l0,0l0,0l0,0l0,0l0,0l0,0l0,0l0,0l0,0v-0.1l0,0l0,0
				l0,0l0,0l0,0l0,0l0,0l0,0h-0.2l0,0l0,0l0,0l0,0l0,0l-0.4,0.4v0.8l0,0l0,0l0,0l0,0l0,0l0,0l0,0l0,0l0,0l0,0l0,0l0,0l0,0l0,0l0,0
				l0,0L100,52.7L100,52.7L100,52.7L100,52.7z"/>
			<path class="st8" d="M104.5,52.7v-2.3h1.4l0,0l0,0l0,0l0,0l0,0l0,0l0,0l0,0l0,0l0,0l0,0l0,0l0,0l0,0l0,0l0,0l0,0l0,0l0,0l0,0
				h-1.1v0.5h0.8l0,0l0,0l0,0l0,0l0,0l0,0l0,0l0,0l0,0l0,0l0,0l0,0l0,0l0,0l0,0l0,0l0,0l0,0l0,0l0,0h-0.8v1.2l0,0l0,0l0,0l0,0l0,0
				l0,0l0,0l0,0l0,0l0,0l0,0l0,0l0,0l0,0l0,0l0,0L104.5,52.7L104.5,52.7L104.5,52.7L104.5,52.7z"/>
			<path class="st8" d="M107.9,51.1L107.9,51.1L107.9,51.1L107.9,51.1l0.1,0l0,0l0,0l0,0l0,0l0,0l0,0l0.1,0.1l0,0l0,0l0,0l0,0l0,0
				l0,0l0,0l0,0l0,0l0,0l0,0l0,0V52l0,0l0,0l0,0l0,0l0,0l0,0l0,0l0,0l0,0l0,0h-1.1v0.1l0,0l0,0l0,0l0,0l0,0l0,0l0.1,0.1l0,0l0,0l0,0
				l0,0l0,0h0.8l0,0l0,0l0,0l0,0l0,0l0,0l0,0l0,0l0,0l0,0l0,0l0,0l0,0l0,0l0,0l0,0l0,0l0,0l0,0l0,0h-0.8l0,0l0,0l0,0l0,0l0,0l0,0
				l0,0l0,0l0,0l0,0l0,0l0,0l0,0l-0.1-0.1l0,0l0,0l0,0l0,0l0,0l0,0l0,0l0,0l0,0l0,0l0,0l0,0l0,0v0v-0.5h0.4h0.9v-0.2l0,0l0,0l0,0
				l0,0l0,0l-0.1-0.1l0,0l0,0l0,0l0,0l0,0h-0.4l0,0l0,0l0,0l0,0l0,0l-0.1,0.1l0,0l0,0l0,0l0,0l0,0v0.2h-0.4v-0.3l0,0l0,0l0,0l0,0
				l0,0l0,0l0,0l0,0l0,0l0,0l0,0l0,0l0,0l0,0l0.1-0.1l0,0l0,0l0,0l0,0l0,0l0,0l0,0l0,0l0,0l0,0l0,0L107.9,51.1L107.9,51.1z"/>
			<path class="st8" d="M110.2,51.1L110.2,51.1L110.2,51.1l0.1,0l0,0l0,0l0,0l0,0l0,0l0,0l0,0l0,0l0,0l0,0l0,0l0,0l0,0l0,0l0,0l0,0
				l0,0l0,0l0,1.2l0,0l0,0l0,0l0,0l0,0l0,0l0,0l0,0l0,0l0,0l0,0l0,0l0,0l0,0l0,0l0,0l0,0l0,0l0,0l0,0v0l-0.2,0.2h-0.5l0,0l0,0l0,0
				l0,0l0,0l0,0l0,0l0,0l0,0l0,0l0,0l0,0l0,0l0,0l0,0l0,0l0,0l0,0l0,0l0,0l0,0l0,0h0.4l0,0l0,0l0,0l0,0l0,0l0,0l0,0l0,0h0.4l0.3-0.2
				l0-0.1l0,0l0,0l0,0l0,0l0,0l0,0l0,0l0,0l0,0h-0.6l0,0l0,0l0,0l0,0l0,0l0,0l0,0l0,0v0.2h-0.4v0v-0.2l0,0l0,0l0,0l0,0l0,0l0,0l0,0
				l0,0l0,0l0,0l0,0l0,0l0,0l0,0l0,0l0,0l0,0l0,0l0,0l0,0l0,0l0,0h0.6l0,0l0,0l0,0l0,0l0,0l0-0.2l0,0l0,0l0,0l0,0l0,0l0,0l0,0l0,0
				h-0.6l0,0l0,0l0,0l0,0l0,0l0,0l0,0l0,0l0,0l0,0l0,0l0,0l0,0l0,0l0,0l0,0l0,0l0,0l0,0l0,0L110.2,51.1L110.2,51.1z"/>
			<path class="st8" d="M112.5,52.9h-0.3l0,0l0,0l0,0l0,0l0,0l0,0l0,0l0,0l0,0l0,0l0,0l0,0l0,0l0,0l0,0l0,0l0,0l0,0l0,0l0,0l0,0l0,0
				v-1h-0.1l0,0l0,0l0,0l0,0l0,0l0,0l0,0l0,0l0,0l0,0l0,0l0,0l0,0l0,0l0,0l0,0l0,0l0,0l0,0l0,0h0.1v-0.4l0,0l0,0l0,0l0,0l0,0l0,0
				l0,0l0,0l0,0l0,0l0,0l0,0l0,0l0,0l0,0l0,0l0,0l0,0l0,0l0,0v0.4h0.6l0,0l0,0l0,0l0,0l0,0l0,0l0,0l0,0l0,0l0,0l0,0l0,0l0,0l0,0l0,0
				l0,0l0,0l0,0l0,0l0,0H112v1l0,0l0,0l0,0l0,0l0,0l0,0l0,0l0,0h0.3l0,0l0,0l0,0l0,0l0,0l0,0l0,0l0,0l0,0l0,0l0,0l0,0l0,0l0,0l0,0
				l0,0l0,0l0,0l0,0l0,0l0,0l0,0l0,0l0,0l0,0l0,0l0,0l0,0l0,0l0,0l0,0l0,0l0,0l0,0l0,0l0,0l0,0l0,0l0,0l0,0l0,0l0,0l0,0l0,0
				L112.5,52.9L112.5,52.9L112.5,52.9z"/>
			<path class="st8" d="M113.6,52.7v-2.1l0,0l0,0l0,0l0,0l0,0l0,0l0,0l0,0l0,0l0,0l0,0l0,0l0,0l0,0l0,0l0,0l0,0l0,0l0,0l0,0v0.7
				l0.2-0.1l0,0l0,0l0,0l0,0l0,0l0,0l0,0l0,0l0,0l0,0l0,0h0.2l0,0l0,0l0,0l0,0l0,0l0,0l0,0l0,0l0,0l0,0l0,0l0,0l0,0l0,0l0,0l0,0l0,0
				l0,0l0,0l0,0l0,0l0,0l0,1.2l0,0l0,0l0,0l0,0l0,0l0,0l0,0l0,0l0,0l0,0l0,0l0,0l0,0l0,0l0,0l0,0l0,0l0,0l0,0l0,0l0-1.2l0,0l0,0l0,0
				l0,0l0,0l0,0l0,0l0,0h-0.2l0,0l0,0l0,0l0,0l0,0l-0.4,0.2v1l0,0l0,0l0,0l0,0l0,0l0,0l0,0l0,0l0,0l0,0l0,0l0,0l0,0l0,0l0,0l0,0l0,0
				L113.6,52.7L113.6,52.7L113.6,52.7L113.6,52.7z"/>
			<path class="st8" d="M117,51.1L117,51.1L117,51.1L117,51.1l0.1,0l0,0l0,0l0,0l0,0l0,0l0,0l0.1,0.1l0,0l0,0l0,0l0,0l0,0l0,0l0,0
				l0,0l0,0l0,0l0,0l0,0V52l0,0l0,0l0,0l0,0l0,0l0,0l0,0l0,0l0,0l0,0h-1.1v0.1l0,0l0,0l0,0l0,0l0,0l0,0l0.1,0.1l0,0l0,0l0,0l0,0l0,0
				h0.8l0,0l0,0l0,0l0,0l0,0l0,0l0,0l0,0l0,0l0,0l0,0l0,0l0,0l0,0l0,0l0,0l0,0l0,0l0,0l0,0h-0.8l0,0l0,0l0,0l0,0l0,0l0,0l0,0l0,0
				l0,0l0,0l0,0l0,0l0,0l-0.1-0.1l0,0l0,0l0,0l0,0l0,0l0,0l0,0l0,0l0,0l0,0l0,0l0,0l0,0v0v-0.5h0.4h0.9v-0.2l0,0l0,0l0,0l0,0l0,0
				l-0.1-0.1l0,0l0,0l0,0l0,0l0,0h-0.4l0,0l0,0l0,0l0,0l0,0l-0.1,0.1l0,0l0,0l0,0l0,0l0,0v0.2h-0.4v-0.3l0,0l0,0l0,0l0,0l0,0l0,0
				l0,0l0,0l0,0l0,0l0,0l0,0l0,0l0,0l0.1-0.1l0,0l0,0l0,0l0,0l0,0l0,0l0,0l0,0l0,0l0,0l0,0L117,51.1L117,51.1z"/>
			<path class="st8" d="M118.2,52.7v-1.5l0,0l0,0l0,0l0,0l0,0l0,0l0,0l0,0l0,0l0,0l0,0l0,0l0,0l0,0l0,0l0,0l0,0l0,0l0,0l0,0v0.1
				l0.2-0.2l0,0l0,0l0,0l0,0l0,0l0,0l0,0l0,0l0,0l0,0l0,0h0.2l0,0l0,0l0,0l0,0l0,0l0,0l0,0l0,0l0,0l0,0l0,0l0,0l0,0l0,0l0,0l0,0l0,0
				l0,0l0,0l0,0l0,0l0,0v0.1l0,0l0,0l0,0l0,0l0,0l0,0l0,0l0,0l0,0l0,0l0,0l0,0l0,0l0,0l0,0l0,0l0,0l0,0l0,0l0,0l0,0v-0.1l0,0l0,0
				l0,0l0,0l0,0l0,0l0,0l0,0h-0.2l0,0l0,0l0,0l0,0l0,0l-0.4,0.4v0.8l0,0l0,0l0,0l0,0l0,0l0,0l0,0l0,0l0,0l0,0l0,0l0,0l0,0l0,0l0,0
				l0,0L118.2,52.7L118.2,52.7L118.2,52.7L118.2,52.7z"/>
			<path class="st8" d="M121.4,51.4v1l0.1,0.1h0.1l0.1-0.1v-1.8l0,0l0,0l0,0l0,0l0,0l0,0l0,0l0,0l0,0l0,0l0,0l0,0l0,0l0,0l0,0l0,0
				l0,0l0,0l0,0l0,0v1.9l0,0l0,0l0,0l0,0l0,0l-0.1,0.2l0,0l0,0l0,0l0,0l0,0l0,0l0,0h-0.3l0,0l0,0l0,0l0,0l0,0l0,0l0,0l0,0l0,0l0,0
				l0,0l0,0l0,0l0,0h-0.3l0,0l0,0l0,0l0,0l0,0l0,0l0,0l0,0l-0.1-0.2l0,0l0,0l0,0l0,0l0,0v-1.9l0,0l0,0l0,0l0,0l0,0l0,0l0,0l0,0l0,0
				l0,0l0,0l0,0l0,0l0,0l0,0l0,0l0,0l0,0l0,0l0,0v1.8l0.1,0.1h0.1l0.1-0.1v-1l0,0l0,0l0,0l0,0l0,0l0,0l0,0l0,0l0,0l0,0l0,0l0,0l0,0
				l0,0l0,0l0,0L121.4,51.4L121.4,51.4L121.4,51.4L121.4,51.4z"/>
			<path class="st8" d="M123.4,50.2h0.2l0,0l0,0l0,0l0,0l0,0l0,0l0,0l0,0l0,0l0,0v0.1l0,0l0,0l0,0l0,0l0,0l0,0l0,0l0,0l0,0l0,0l0,0
				h-0.2l0,0l0,0l0,0l0,0l0,0l0,0l0,0l0,0l0,0l0,0l0,0l0-0.1l0,0l0,0l0,0l0,0l0,0l0,0L123.4,50.2L123.4,50.2L123.4,50.2L123.4,50.2z
				"/>
			<path class="st8" d="M124,52.9H123l0,0l0,0l0,0l0,0l0,0l0,0l0,0l0,0l0,0l0,0l0,0l0,0l0,0l0,0l0,0l0,0l0,0l0,0l0,0l0,0h0.3v-1.1
				H123l0,0l0,0l0,0l0,0l0,0l0,0l0,0l0,0l0,0l0,0l0,0l0,0l0,0l0,0l0,0l0,0l0,0l0,0l0,0l0,0h0.5l0,0l0,0l0,0l0,0l0,0l0,0l0,0l0,0l0,0
				l0,0v1.3h0.3l0,0l0,0l0,0l0,0l0,0l0,0l0,0l0,0l0,0l0,0l0,0l0,0l0,0l0,0l0,0L124,52.9L124,52.9L124,52.9L124,52.9L124,52.9z"/>
			<path class="st8" d="M125.8,51.4l-0.4,0.2v1l0,0l0,0l0,0l0,0l0,0l0,0l0,0l0,0l0,0l0,0l0,0l0,0l0,0l0,0l0,0l0,0l0,0l0,0l0,0l0,0
				l0,0v-1.5l0,0l0,0l0,0l0,0l0,0l0,0l0,0l0,0l0,0l0,0l0,0l0,0l0,0l0,0l0,0l0,0l0,0l0,0l0,0l0,0v0.1l0.3-0.1l0,0l0,0l0,0l0,0l0,0
				l0,0l0,0l0,0l0,0l0,0l0,0h0.1l0,0l0,0l0,0l0,0l0,0l0,0l0,0l0,0l0,0l0,0l0,0l0,0l0,0l0,0l0,0l0,0l0,0l0,0l0,0l0,0l0,0l0,0l0,1.2
				l0,0l0,0l0,0l0,0l0,0l0,0l0,0l0,0l0,0l0,0l0,0l0,0l0,0l0,0l0,0l0,0l0,0l0,0l0,0l0,0l0-1.2l0,0l0,0l0,0l0,0l0,0l0,0l0,0l0,0h-0.2
				l0,0L125.8,51.4L125.8,51.4L125.8,51.4L125.8,51.4z"/>
			<path class="st8" d="M128.1,51.1L128.1,51.1L128.1,51.1l0.1,0l0,0l0,0l0,0l0,0l0,0l0,0l0,0l0.1,0.1l0,0l0,0l0,0l0,0l0,0l0,0l0,0
				l0,0l0,0l0,0l0,0l0,0l0,0l0,0l0,0l0,0l0,0l0,0l0,0l0,0l0,0V53l0,0l0,0l0,0l0,0l0,0l0,0l0,0l0,0l0,0l0,0l0,0l0,0l-0.1,0.1l0,0l0,0
				l0,0l0,0l0,0l0,0l0,0l0,0l0,0l0,0l0,0l0,0h-0.7l0,0l0,0l0,0l0,0l0,0l0,0l0,0l0,0l0,0l0,0l0,0l0,0l0,0l0,0l0,0l0,0l0,0l0,0l0,0
				l0,0h0.7l0,0l0,0l0,0l0,0l0.1-0.1l0,0l0,0l0,0l0,0v-0.4l0,0l0,0l0,0l0,0l0,0l0,0l0,0l0,0l0,0l0,0l0,0l0,0l0,0l0,0l0,0l0,0h-0.2
				l0,0l0,0l0,0l0,0l0,0l0,0l0,0l0,0l0,0l0,0l0,0l-0.1-0.1l0,0l0,0l0,0l0,0l0,0l0,0l0,0l0,0l0,0l0,0l0,0l0,0v0h0.4l0,0l0,0l0,0l0,0
				l0,0l0.1,0.1l0,0l0,0l0,0l0,0h0.3l0,0l0,0l0,0l0,0l0,0l0.2-0.2l0,0l0,0l0,0l0,0l0,0v-0.2l0,0l0,0l0,0l0,0l0,0l-0.3-0.2l0,0l0,0
				l0,0l0,0l0,0h-0.2l0,0l0,0l0,0l0,0l0,0l-0.1,0.1l0,0l0,0l0,0l0,0l0,0v0.5h-0.4v0v-0.5l0,0l0,0l0,0l0,0l0,0l0,0l0,0l0,0l0,0l0,0
				l0,0l0,0l0,0l0,0l0,0l0.1-0.1l0,0l0,0l0,0l0,0l0,0l0,0l0,0l0,0l0,0l0,0l0,0L128.1,51.1L128.1,51.1z"/>
		</g>
	</g>
	<g>
		<g class="st0">
			<rect x="85.9" y="54.6" class="st1" width="38.7" height="4.2"/>
			<text transform="matrix(1 0 0 1 85.922 57.635)"><tspan x="0" y="0" class="st2 st3 st9">v1.2.0</tspan><tspan x="9.8" y="0" class="st2 st3 st9 st12"> </tspan><tspan x="20.3" y="0" class="st2 st3 st9">2024-01-14</tspan></text>
		</g>
		<g class="st0">
			<rect x="85.1" y="54" class="st1" width="40.3" height="5.5"/>
			<text transform="matrix(1 0 0 1 85.1227 57.0315)"><tspan x="0" y="0" class="st11 st3 st9">v1.2.0</tspan><tspan x="9.8" y="0" class="st11 st3 st9 st13"> </tspan><tspan x="21.9" y="0" class="st11 st3 st9">2024-01-14</tspan></text>
		</g>
		<g>
			<path class="st8" d="M87.9,55.8v0.3l-0.5,1.2l0,0l0,0l0,0l0,0l0,0l0,0l0,0h0H87l0,0l0,0l0,0l0,0l0,0l0,0l0,0l0,0l0,0l-0.5-1.2
				v-0.3l0,0l0,0l0,0l0,0l0,0l0,0l0,0l0,0l0,0l0,0l0,0l0,0l0,0l0,0l0,0l0,0l0,0l0,0l0,0l0,0V56l0.5,1l0.4-1v-0.2l0,0l0,0l0,0l0,0
				l0,0l0,0l0,0l0,0l0,0l0,0l0,0l0,0l0,0l0,0l0,0l0,0L87.9,55.8L87.9,55.8L87.9,55.8L87.9,55.8z"/>
			<path class="st8" d="M88.7,57.1h0.5v-1.8h-0.4l0,0l0,0l0,0l0,0l0,0l0,0l0,0l0,0l0,0l0,0l0,0l0,0l0,0l0,0l0,0l0,0l0,0l0,0l0,0l0,0
				h0.8v2.1h0.3v-0.6l0,0l0,0l0,0l0,0l0,0l0,0l0,0l0,0l0,0l0,0l0,0l0,0l0,0l0,0l0,0l0,0l0,0l0,0l0,0l0,0v0.8l0,0l0,0l0,0l0,0l0,0
				l0,0l0,0l0,0l0,0l0,0h-1.3l0,0l0,0l0,0l0,0l0,0l0,0l0,0l0,0l0,0l0,0l0,0l0,0l0,0l0,0l0,0l0,0L88.7,57.1L88.7,57.1L88.7,57.1
				L88.7,57.1z"/>
			<path class="st8" d="M91.5,56.4h0.3l0,0l0,0l0,0l0,0l0,0l0,0l0,0l0,0l0,0l0,0v0.3l0,0l0,0l0,0l0,0l0,0l0,0l0,0l0,0l0,0l0,0l0,0
				h-0.3l0,0l0,0l0,0l0,0l0,0l0,0l0,0l0,0l0,0l0,0v-0.3l0,0l0,0l0,0l0,0l0,0l0,0L91.5,56.4L91.5,56.4L91.5,56.4L91.5,56.4z"/>
			<path class="st8" d="M94.6,57.4h-1.4v-1.1l0,0l0,0l0,0l0,0l0,0l0,0l0,0l0,0l0,0l0,0l0,0l0,0l0,0l0,0l0,0l0,0h0.9v-0.7h-1.1l0,0
				l0,0l0,0l0,0l0,0l0,0l0,0l0,0l0,0l0,0l0,0l0,0l0,0l0,0l0,0l0,0l0,0l0,0l0,0l0,0h1.1l0,0l0,0l0,0l0,0l0,0l0,0l0,0l0,0l0,0l0,0l0,0
				l0,0l0,0l0,0l0,0l0,0V56l0,0l0,0l0,0l0,0l0,0l0,0l0,0l0,0l0,0l0,0l0,0l0,0l0,0l0,0l0,0l0,0h-0.9v0.8h1.1l0,0l0,0l0,0l0,0l0,0l0,0
				l0,0l0,0l0,0l0,0l0,0l0,0l0,0l0,0l0,0L94.6,57.4L94.6,57.4L94.6,57.4L94.6,57.4L94.6,57.4z"/>
			<path class="st8" d="M96.1,56.4h0.3l0,0l0,0l0,0l0,0l0,0l0,0l0,0l0,0l0,0l0,0v0.3l0,0l0,0l0,0l0,0l0,0l0,0l0,0l0,0l0,0l0,0l0,0
				H96l0,0l0,0l0,0l0,0l0,0l0,0l0,0l0,0l0,0l0,0v-0.3l0,0l0,0l0,0l0,0l0,0l0,0L96.1,56.4L96.1,56.4L96.1,56.4L96.1,56.4z"/>
			<path class="st8" d="M99,54.9L99,54.9L99,54.9L99,54.9l0.1,0l0,0l0,0l0,0l0,0l0,0l0,0l0,0l0,0l0,0l0,0l0,0v1.8l0,0l0,0l0,0l0,0
				l0,0l0,0l0,0l0,0l0,0l0,0l0,0l0,0l0,0l0,0l0,0l0,0h-1l0,0l0,0l0,0l0,0l0,0l0,0l0,0l0,0l0,0l0,0l0,0l0,0l0,0l0,0l0,0l0,0v-1.8H98
				v1.8h0.9v-1.8H98h-0.4v0l0,0l0,0l0,0l0,0l0,0l0,0l0,0l0,0l0,0l0,0l0,0l0,0l0,0l0,0l0,0l0,0L99,54.9L99,54.9z"/>
			<path class="st8" d="M103.7,57.4h-1.4v-1.1l0,0l0,0l0,0l0,0l0,0l0,0l0,0l0,0l0,0l0,0l0,0l0,0l0,0l0,0l0,0l0,0h0.9v-0.7h-1.1l0,0
				l0,0l0,0l0,0l0,0l0,0l0,0l0,0l0,0l0,0l0,0l0,0l0,0l0,0l0,0l0,0l0,0l0,0l0,0l0,0h1.1l0,0l0,0l0,0l0,0l0,0l0,0l0,0l0,0l0,0l0,0l0,0
				l0,0l0,0l0,0l0,0l0,0V56l0,0l0,0l0,0l0,0l0,0l0,0l0,0l0,0l0,0l0,0l0,0l0,0l0,0l0,0l0,0l0,0h-0.9v0.8h1.1l0,0l0,0l0,0l0,0l0,0l0,0
				l0,0l0,0l0,0l0,0l0,0l0,0l0,0l0,0l0,0L103.7,57.4L103.7,57.4L103.7,57.4L103.7,57.4L103.7,57.4z"/>
			<path class="st8" d="M105.8,54.9L105.8,54.9L105.8,54.9L105.8,54.9l0.1,0l0,0l0,0l0,0l0,0l0,0l0,0l0,0l0,0l0,0l0,0l0,0v1.8l0,0
				l0,0l0,0l0,0l0,0l0,0l0,0l0,0l0,0l0,0l0,0l0,0l0,0l0,0l0,0l0,0h-1l0,0l0,0l0,0l0,0l0,0l0,0l0,0l0,0l0,0l0,0l0,0l0,0l0,0l0,0l0,0
				l0,0v-1.8h0.4v1.8h0.9v-1.8h-0.9h-0.4v0l0,0l0,0l0,0l0,0l0,0l0,0l0,0l0,0l0,0l0,0l0,0l0,0l0,0l0,0l0,0l0,0L105.8,54.9L105.8,54.9
				z"/>
			<path class="st8" d="M108.2,57.4h-1.4v-1.1l0,0l0,0l0,0l0,0l0,0l0,0l0,0l0,0l0,0l0,0l0,0l0,0l0,0l0,0l0,0l0,0h0.9v-0.7h-1.1l0,0
				l0,0l0,0l0,0l0,0l0,0l0,0l0,0l0,0l0,0l0,0l0,0l0,0l0,0l0,0l0,0l0,0l0,0l0,0l0,0h1.1l0,0l0,0l0,0l0,0l0,0l0,0l0,0l0,0l0,0l0,0l0,0
				l0,0l0,0l0,0l0,0l0,0V56l0,0l0,0l0,0l0,0l0,0l0,0l0,0l0,0l0,0l0,0l0,0l0,0l0,0l0,0l0,0l0,0h-0.9v0.8h1.1l0,0l0,0l0,0l0,0l0,0l0,0
				l0,0l0,0l0,0l0,0l0,0l0,0l0,0l0,0l0,0L108.2,57.4L108.2,57.4L108.2,57.4L108.2,57.4L108.2,57.4z"/>
			<path class="st8" d="M110.1,57.2v-0.6h-0.9v-1.5l0,0l0,0l0,0l0,0l0,0l0,0l0,0l0,0l0,0l0,0l0,0l0,0l0,0l0,0l0,0l0,0l0,0l0,0l0,0
				l0,0v1.2h0.6v-0.9l0,0l0,0l0,0l0,0l0,0l0,0l0,0l0,0l0,0l0,0l0,0l0,0l0,0l0,0l0,0l0,0l0,0l0,0l0,0l0,0l0,0l0,0v0.9l0,0l0,0l0,0
				l0,0l0,0l0,0l0,0l0,0l0,0l0,0l0,0l0,0l0,0l0,0l0,0l0,0l0,0l0,0l0,0l0,0v0.6l0,0l0,0l0,0l0,0l0,0l0,0l0,0l0,0l0,0l0,0l0,0l0,0l0,0
				l0,0l0,0l0,0L110.1,57.2L110.1,57.2L110.1,57.2L110.1,57.2z"/>
			<path class="st8" d="M112.9,56.2v0.1l0,0l0,0l0,0l0,0l0,0l0,0l0,0l0,0l0,0l0,0l0,0h-1.3l0,0l0,0l0,0l0,0l0,0l0,0l0,0l0,0l0,0l0,0
				v0v-0.1l0,0l0,0l0,0l0,0l0,0l0,0l0,0l0,0l0,0l0,0h1.3l0,0l0,0l0,0l0,0l0,0l0,0L112.9,56.2L112.9,56.2L112.9,56.2L112.9,56.2
				L112.9,56.2z"/>
			<path class="st8" d="M114.9,54.9L114.9,54.9L114.9,54.9L114.9,54.9l0.1,0l0,0l0,0l0,0l0,0l0,0l0,0l0,0l0,0l0,0l0,0l0,0v1.8l0,0
				l0,0l0,0l0,0l0,0l0,0l0,0l0,0l0,0l0,0l0,0l0,0l0,0l0,0l0,0l0,0h-1l0,0l0,0l0,0l0,0l0,0l0,0l0,0l0,0l0,0l0,0l0,0l0,0l0,0l0,0l0,0
				l0,0v-1.8h0.4v1.8h0.9v-1.8H114h-0.4v0l0,0l0,0l0,0l0,0l0,0l0,0l0,0l0,0l0,0l0,0l0,0l0,0l0,0l0,0l0,0l0,0L114.9,54.9L114.9,54.9z
				"/>
			<path class="st8" d="M116.1,57.1h0.5v-1.8h-0.4l0,0l0,0l0,0l0,0l0,0l0,0l0,0l0,0l0,0l0,0l0,0l0,0l0,0l0,0l0,0l0,0l0,0l0,0l0,0
				l0,0h0.8v2.1h0.3v-0.6l0,0l0,0l0,0l0,0l0,0l0,0l0,0l0,0l0,0l0,0l0,0l0,0l0,0l0,0l0,0l0,0l0,0l0,0l0,0l0,0v0.8l0,0l0,0l0,0l0,0
				l0,0l0,0l0,0l0,0l0,0l0,0h-1.3l0,0l0,0l0,0l0,0l0,0l0,0l0,0l0,0l0,0l0,0l0,0l0,0l0,0l0,0l0,0l0,0L116.1,57.1L116.1,57.1
				L116.1,57.1L116.1,57.1z"/>
			<path class="st8" d="M119.8,56.2v0.1l0,0l0,0l0,0l0,0l0,0l0,0l0,0l0,0l0,0l0,0l0,0h-1.3l0,0l0,0l0,0l0,0l0,0l0,0l0,0l0,0l0,0l0,0
				v0v-0.1l0,0l0,0l0,0l0,0l0,0l0,0l0,0l0,0l0,0l0,0h1.3l0,0l0,0l0,0l0,0l0,0l0,0L119.8,56.2L119.8,56.2L119.8,56.2L119.8,56.2
				L119.8,56.2z"/>
			<path class="st8" d="M120.6,57.1h0.5v-1.8h-0.4l0,0l0,0l0,0l0,0l0,0l0,0l0,0l0,0l0,0l0,0l0,0l0,0l0,0l0,0l0,0l0,0l0,0l0,0l0,0
				l0,0h0.8v2.1h0.3v-0.6l0,0l0,0l0,0l0,0l0,0l0,0l0,0l0,0l0,0l0,0l0,0l0,0l0,0l0,0l0,0l0,0l0,0l0,0l0,0l0,0v0.8l0,0l0,0l0,0l0,0
				l0,0l0,0l0,0l0,0l0,0l0,0h-1.3l0,0l0,0l0,0l0,0l0,0l0,0l0,0l0,0l0,0l0,0l0,0l0,0l0,0l0,0l0,0l0,0L120.6,57.1L120.6,57.1
				L120.6,57.1L120.6,57.1z"/>
			<path class="st8" d="M123.7,57.2v-0.6h-0.9v-1.5l0,0l0,0l0,0l0,0l0,0l0,0l0,0l0,0l0,0l0,0l0,0l0,0l0,0l0,0l0,0l0,0l0,0l0,0l0,0
				l0,0v1.2h0.6v-0.9l0,0l0,0l0,0l0,0l0,0l0,0l0,0l0,0l0,0l0,0l0,0l0,0l0,0l0,0l0,0l0,0l0,0l0,0l0,0l0,0l0,0v0v0.9l0,0l0,0l0,0l0,0
				l0,0l0,0l0,0l0,0l0,0l0,0l0,0l0,0l0,0l0,0l0,0l0,0l0,0l0,0l0,0l0,0v0.6l0,0l0,0l0,0l0,0l0,0l0,0l0,0l0,0l0,0l0,0l0,0l0,0l0,0l0,0
				l0,0l0,0L123.7,57.2L123.7,57.2L123.7,57.2L123.7,57.2z"/>
		</g>
	</g>
	<g>
		<g transform="rotate(-180.000000 127.9600 100.3520)">
			<g class="st0">
				<rect x="209.5" y="186.4" class="st1" width="8.8" height="4.5"/>
				<text transform="matrix(1 0 0 1 209.4716 189.6705)"><tspan x="0" y="0" class="st2 st3 st4">OF</tspan><tspan x="6.5" y="0" class="st2 st3 st4">F</tspan></text>
			</g>
			<g class="st0">
				<rect x="208.9" y="185.9" class="st1" width="9.9" height="5.4"/>
				<text transform="matrix(1 0 0 1 208.9106 189.1886)"><tspan x="0" y="0" class="st6 st3 st4 st5">OF</tspan><tspan x="7.6" y="0" class="st6 st3 st4">F</tspan></text>
			</g>
		</g>
		<g>
			<path class="st8" d="M46.7,11.5L46.7,11.5L46.7,11.5l0.1,0l0,0l0,0l0,0l0,0l0,0l0,0l0,0l0,0l0,0l0,0l0,0l0,0l0,0l0,0l0,0l0,0l0,0
				l0,0l0,0l0,0l0,0l0,0v1.1l0,0l0,0l0,0l0,0l0,0l0,0l0,0l0,0l0,0l0,0l0,0l0,0l0,0l0,0l0,0l0,0l0,0l0,0l0,0l0,0l0,0l0,0l0,0l0,0l0,0
				l0,0h-1.5l0,0l0,0l0,0l0,0l0,0l0,0l0,0l0,0l0,0l0,0l0,0l0,0l0,0l0,0l0,0l0,0l0,0l0,0l0,0l0,0l0,0l0,0l0,0l0,0l0,0V12l0,0l0,0l0,0
				h0.5v1.3h1.6v-1.3h-1.6h-0.5v0l0,0l0,0l0,0l0,0l0,0l0,0l0,0l0,0l0,0l0,0l0,0l0,0l0,0l0,0l0,0l0,0l0,0l0,0l0,0l0,0l0,0l0,0l0,0
				L46.7,11.5L46.7,11.5z"/>
			<path class="st8" d="M43.7,11.5v2h-2.1v-0.4h1.6v-0.6h-0.9v-0.4h0.9v-0.8H43.7z"/>
			<path class="st8" d="M41,11.5v2H39v-0.4h1.6v-0.6h-0.9v-0.4h0.9v-0.8H41z"/>
		</g>
	</g>
	<g>
		<path class="st14" d="M8.4,22.8v-2.6"/>
		<path class="st14" d="M12.1,22.8H8.4"/>
		<path class="st14" d="M12.1,20.2v2.6"/>
		<path class="st14" d="M12.1,17.6V15"/>
		<path class="st14" d="M8.4,15v2.6"/>
		<path class="st14" d="M12.1,15H8.4"/>
		<path class="st14" d="M77.4,30.7h2.5"/>
		<path class="st14" d="M77.4,34.4v-3.7"/>
		<path class="st14" d="M79.9,34.4h-2.5"/>
		<path class="st14" d="M82.4,34.4H85"/>
		<path class="st14" d="M85,30.7h-2.5"/>
		<path class="st14" d="M85,34.4v-3.7"/>
		<path class="st14" d="M20.4,34.2h0.7"/>
		<path class="st14" d="M20.4,35.6v-1.4"/>
		<path class="st14" d="M20.4,39v1.4"/>
		<path class="st14" d="M20.4,40.5h0.7"/>
		<path class="st14" d="M26.7,34.2H26"/>
		<path class="st14" d="M26.7,35.6v-1.4"/>
		<path class="st14" d="M26.7,39v1.4"/>
		<path class="st14" d="M26.7,40.5H26"/>
	</g>
	<g>
		<circle class="st15" cx="19.2" cy="35.1" r="0.4"/>
	</g>
	<g>
		<path class="st16" d="M1.6,23.9v-2.1"/>
		<path class="st16" d="M5.9,19.6v4.3"/>
	</g>
	<g>
		<circle class="st17" cx="1.1" cy="24.5" r="0.4"/>
	</g>
	<g>
		<circle class="st16" cx="137" cy="7.4" r="6.4"/>
		<path class="st16" d="M86.5,48.8h34.8"/>
		<path class="st16" d="M86.5,48.8v-2.3"/>
		<path class="st16" d="M86.5,30.4v9.2"/>
		<path class="st16" d="M86.5,9.1v14.3"/>
		<path class="st16" d="M124.1,9.1H86.5"/>
	</g>
	<g>
		<path class="st14" d="M27.9,41.1v-2.5"/>
		<path class="st14" d="M31.5,41.1h-3.7"/>
		<path class="st14" d="M31.5,38.6v2.5"/>
		<path class="st14" d="M31.5,36.1v-2.5"/>
		<path class="st14" d="M27.9,33.5v2.5"/>
		<path class="st14" d="M31.5,33.5h-3.7"/>
		<path class="st14" d="M27.4,45.5h-2.5"/>
		<path class="st14" d="M27.4,41.8v3.7"/>
		<path class="st14" d="M24.8,41.8h2.5"/>
		<path class="st14" d="M22.3,41.8h-2.5"/>
		<path class="st14" d="M19.8,45.5h2.5"/>
		<path class="st14" d="M19.8,41.8v3.7"/>
		<path class="st14" d="M77.4,35.1h2.5"/>
		<path class="st14" d="M77.4,38.7v-3.7"/>
		<path class="st14" d="M79.9,38.7h-2.5"/>
		<path class="st14" d="M82.4,38.7H85"/>
		<path class="st14" d="M85,35.1h-2.5"/>
		<path class="st14" d="M85,38.7v-3.7"/>
		<path class="st14" d="M77.4,43.7h2.5"/>
		<path class="st14" d="M77.4,47.4v-3.7"/>
		<path class="st14" d="M79.9,47.4h-2.5"/>
		<path class="st14" d="M82.4,47.4H85"/>
		<path class="st14" d="M85,43.7h-2.5"/>
		<path class="st14" d="M85,47.4v-3.7"/>
	</g>
	<g>
		<circle class="st16" cx="137" cy="57.8" r="6.4"/>
	</g>
	<g>
		<path class="st14" d="M15,31.3v3"/>
		<path class="st14" d="M7.9,31.3H15"/>
		<path class="st14" d="M15,34.3h2.8"/>
		<path class="st14" d="M2.3,34.6v11"/>
		<path class="st14" d="M15,48.9v-3"/>
		<path class="st14" d="M7.9,48.9H15"/>
		<path class="st14" d="M77.4,13.5h2.5"/>
		<path class="st14" d="M77.4,17.1v-3.7"/>
		<path class="st14" d="M79.9,17.1h-2.5"/>
		<path class="st14" d="M82.4,17.1H85"/>
		<path class="st14" d="M85,13.5h-2.5"/>
		<path class="st14" d="M85,17.1v-3.7"/>
	</g>
	<g>
		<circle class="st16" cx="7.4" cy="7.4" r="6.4"/>
	</g>
	<g>
		<path class="st14" d="M61.5,8.8h2.5"/>
		<path class="st14" d="M61.5,12.4V8.8"/>
		<path class="st14" d="M64.1,12.4h-2.5"/>
		<path class="st14" d="M66.6,12.4h2.5"/>
		<path class="st14" d="M69.1,8.8h-2.5"/>
		<path class="st14" d="M69.1,12.4V8.8"/>
		<path class="st14" d="M77.3,52.3h2.6"/>
		<path class="st14" d="M77.3,56.1v-3.8"/>
		<path class="st14" d="M79.9,56.1h-2.6"/>
		<path class="st14" d="M82.5,56.1H85"/>
		<path class="st14" d="M85,52.3h-2.6"/>
		<path class="st14" d="M85,56.1v-3.8"/>
		<path class="st14" d="M77.4,26.4h2.5"/>
		<path class="st14" d="M77.4,30.1v-3.7"/>
		<path class="st14" d="M79.9,30.1h-2.5"/>
		<path class="st14" d="M82.4,30.1H85"/>
		<path class="st14" d="M85,26.4h-2.5"/>
		<path class="st14" d="M85,30.1v-3.7"/>
		<path class="st14" d="M71.1,13.9h5.1"/>
		<path class="st14" d="M76.2,13.9V8.8"/>
		<path class="st14" d="M76.2,8.8h-5.1"/>
		<path class="st14" d="M71.1,8.8v5.1"/>
	</g>
	<g>
		<circle class="st17" cx="75" cy="14.7" r="0.5"/>
	</g>
	<g>
		<path class="st14" d="M41.7,11h-2.8"/>
		<path class="st14" d="M41.7,0.8V11"/>
		<path class="st14" d="M41.7,0.8H16.2"/>
		<path class="st14" d="M16.2,11H19"/>
		<path class="st14" d="M16.2,0.8V11"/>
		<path class="st14" d="M77.3,48h2.6"/>
		<path class="st14" d="M77.3,51.7V48"/>
		<path class="st14" d="M79.9,51.7h-2.6"/>
		<path class="st14" d="M82.5,51.7H85"/>
		<path class="st14" d="M85,48h-2.6"/>
		<path class="st14" d="M85,51.7V48"/>
		<path class="st14" d="M77.4,17.8h2.5"/>
		<path class="st14" d="M77.4,21.4v-3.7"/>
		<path class="st14" d="M79.9,21.4h-2.5"/>
		<path class="st14" d="M82.4,21.4H85"/>
		<path class="st14" d="M85,17.8h-2.5"/>
		<path class="st14" d="M85,21.4v-3.7"/>
	</g>
	<g>
		<circle class="st16" cx="7.4" cy="57.8" r="6.4"/>
	</g>
	<g>
		<path class="st14" d="M28.1,53.1H25"/>
		<path class="st14" d="M28.1,48.8v4.3"/>
		<path class="st14" d="M22.3,48.8h2.5"/>
		<path class="st14" d="M22.1,53.1h-3.1"/>
		<path class="st14" d="M19.1,53.1v-4.3"/>
	</g>
	<g>
		<circle class="st15" cx="28.2" cy="47.3" r="0.4"/>
	</g>
	<g>
		<path class="st14" d="M77.4,9.1h2.5"/>
		<path class="st14" d="M77.4,12.8V9.1"/>
		<path class="st14" d="M79.9,12.8h-2.5"/>
		<path class="st14" d="M82.4,12.8H85"/>
		<path class="st14" d="M85,9.1h-2.5"/>
		<path class="st14" d="M85,12.8V9.1"/>
		<path class="st14" d="M77.4,22.1h2.5"/>
		<path class="st14" d="M77.4,25.8v-3.7"/>
		<path class="st14" d="M79.9,25.8h-2.5"/>
		<path class="st14" d="M82.4,25.8H85"/>
		<path class="st14" d="M85,22.1h-2.5"/>
		<path class="st14" d="M85,25.8v-3.7"/>
		<path class="st14" d="M77.4,39.4h2.5"/>
		<path class="st14" d="M77.4,43v-3.7"/>
		<path class="st14" d="M79.9,43h-2.5"/>
		<path class="st14" d="M82.4,43H85"/>
		<path class="st14" d="M85,39.4h-2.5"/>
		<path class="st14" d="M85,43v-3.7"/>
		<path class="st14" d="M19.7,29.2h2.6"/>
		<path class="st14" d="M19.7,33v-3.8"/>
		<path class="st14" d="M22.3,33h-2.6"/>
		<path class="st14" d="M24.9,33h2.6"/>
		<path class="st14" d="M27.4,29.2h-2.6"/>
		<path class="st14" d="M27.4,33v-3.8"/>
	</g>
	<g>
		<path class="st18" d="M2,14.6h3.6"/>
		<path class="st18" d="M5.6,26.8H2"/>
		<path class="st18" d="M137,45c-0.1,2.7,1.3,5.2,3.6,6.5"/>
		<path class="st18" d="M0.2,30.8v27"/>
		<path class="st18" d="M0.2,25c0,1,0.8,1.8,1.8,1.8"/>
		<path class="st18" d="M5.6,16.7H2"/>
		<path class="st18" d="M7.4,65H137"/>
		<path class="st18" d="M144.2,7.4c0-4-3.2-7.2-7.2-7.2c0,0,0,0,0,0"/>
		<path class="st18" d="M144.2,57.8c0-2.6-1.4-4.9-3.6-6.2"/>
		<path class="st18" d="M0.2,12.8c0,1,0.8,1.8,1.8,1.8"/>
		<path class="st18" d="M20.4,0.2H137"/>
		<path class="st18" d="M137,65c4,0,7.2-3.2,7.2-7.2v0"/>
		<path class="st18" d="M2,29c-1,0-1.8,0.8-1.8,1.8"/>
		<path class="st18" d="M5.6,16.7c0.6,0,1.1-0.5,1.1-1.1c0-0.6-0.5-1.1-1.1-1.1"/>
		<path class="st18" d="M2,29h3.6"/>
		<path class="st18" d="M0.2,57.8c0,4,3.2,7.2,7.2,7.2"/>
		<path class="st18" d="M0.2,18.5V25"/>
		<path class="st18" d="M0.2,7.4v5.4"/>
		<path class="st18" d="M2,16.7c-1,0-1.8,0.8-1.8,1.8"/>
		<path class="st18" d="M137,20.1V45"/>
		<path class="st18" d="M5.6,29c0.6,0,1.1-0.5,1.1-1.1c0-0.6-0.5-1.1-1.1-1.1"/>
		<path class="st18" d="M140.6,13.6c-2.3,1.3-3.7,3.9-3.6,6.5"/>
		<path class="st18" d="M7.4,0.2c-4,0-7.2,3.2-7.2,7.2"/>
		<path class="st18" d="M140.6,13.6c2.2-1.3,3.6-3.7,3.6-6.2"/>
		<path class="st18" d="M7.4,0.2h13"/>
	</g>
</g>
<g id="Layer_3" class="st19">
	
		<image style="display:inline;overflow:visible;" width="1331" height="1331" xlink:href="F11A60AD.jpg"  transform="matrix(1.171869e-02 0 0 1.171869e-02 34.9799 38.833)">
	</image>
</g>
<g id="Layer_2">
	<circle class="st20" cx="40.1" cy="25.4" r="2.1"/>
	<circle class="st20" cx="41.8" cy="23.3" r="2.1"/>
	<circle class="st20" cx="44.3" cy="25.4" r="2.1"/>
	<circle class="st20" cx="42.2" cy="25.4" r="2.1"/>
	<line class="st20" x1="40.1" y1="27.5" x2="44.3" y2="27.5"/>
	<line class="st20" x1="39.8" y1="28" x2="39.1" y2="29.1"/>
	<line class="st20" x1="41.3" y1="28" x2="40.6" y2="29.1"/>
	<line class="st20" x1="42.8" y1="28" x2="42.1" y2="29.1"/>
	<line class="st20" x1="44.3" y1="28" x2="43.6" y2="29.1"/>
	<line class="st20" x1="39.8" y1="30" x2="39.1" y2="31.1"/>
	<line class="st20" x1="41.3" y1="30" x2="40.6" y2="31.1"/>
	<line class="st20" x1="42.8" y1="30" x2="42.1" y2="31.1"/>
	<line class="st20" x1="38.3" y1="30" x2="37.6" y2="31.1"/>
	<circle class="st20" cx="52" cy="30.6" r="1"/>
	<path class="st21" d="M52,30.5L52,30.5c-0.3,0-0.5-0.2-0.5-0.5v-7c0-0.3,0.2-0.5,0.5-0.5l0,0c0.3,0,0.5,0.2,0.5,0.5v7
		C52.5,30.3,52.2,30.5,52,30.5z"/>
	<line class="st21" x1="51.6" y1="29" x2="51.9" y2="29"/>
	<line class="st21" x1="51.6" y1="28" x2="51.9" y2="28"/>
	<line class="st21" x1="51.6" y1="27" x2="51.9" y2="27"/>
	<line class="st21" x1="51.6" y1="26" x2="51.9" y2="26"/>
	<line class="st21" x1="51.6" y1="25" x2="51.9" y2="25"/>
	<line class="st21" x1="51.6" y1="24" x2="51.9" y2="24"/>
	<circle class="st20" cx="61" cy="43.3" r="3"/>
	<line class="st21" x1="61" y1="39.6" x2="61" y2="38.1"/>
	<line class="st21" x1="61" y1="48.6" x2="61" y2="47.1"/>
	<line class="st21" x1="64.7" y1="43.3" x2="66.2" y2="43.3"/>
	<line class="st21" x1="55.7" y1="43.3" x2="57.2" y2="43.3"/>
	<line class="st21" x1="63.7" y1="40.5" x2="64.7" y2="39.5"/>
	<line class="st21" x1="57.3" y1="47" x2="58.3" y2="46"/>
	<line class="st21" x1="57.3" y1="39.5" x2="58.3" y2="40.5"/>
	<line class="st21" x1="63.7" y1="46" x2="64.7" y2="47"/>
	<polyline class="st21" points="56.7,47.8 55.3,49.4 56.6,49.4 54.8,51.2 54.7,50.6 55.5,51.2 54.8,51.2 	"/>
	<polyline class="st21" points="59.7,48.6 58.4,50.1 59.6,50.1 57.8,52 57.8,51.3 58.6,52 57.8,52 	"/>
	<rect x="51.5" y="27.7" class="st20" width="1" height="2.5"/>
	<g>
		<path class="st22" d="M42.1,47.1c0.1,1.4-1.7,6-6.7,3.8"/>
		<path class="st22" d="M35.7,51.3c0.3-5.4,5.3-5,6.4-4.3l0,2.6l-0.1,10.5"/>
		<path class="st22" d="M36.6,50.4c0,0,0.2-0.5,2.1-1.7c1.8-1.2,2.6-1.2,2.6-1.2"/>
	</g>
	<g>
		<path class="st22" d="M42.2,49.6c-0.1,1.4,1.7,6,6.7,3.8"/>
		<path class="st22" d="M42.2,49.6c1.1-0.7,6.2-1.2,6.4,4.3"/>
		<path class="st22" d="M47.7,53c0,0-0.2-0.5-2.1-1.7c-1.8-1.2-2.6-1.2-2.6-1.2"/>
	</g>
	<line class="st22" x1="42.1" y1="47.1" x2="42.1" y2="42.4"/>
	<g>
		<path class="st22" d="M42.2,42.4c0.6,0.2,2.8-0.1,2.4-2.5"/>
		<path class="st22" d="M42.2,42.4c-0.2-0.6,0.1-2.8,2.5-2.4"/>
		<path class="st22" d="M44,40.6c0,0-0.2,0-0.7,0.5c-0.5,0.5-0.5,0.7-0.5,0.7"/>
		<g>
			<path class="st22" d="M42.1,42.9c-0.6,0.2-2.8-0.1-2.4-2.5"/>
			<path class="st22" d="M42.1,42.9c0.2-0.6-0.1-2.8-2.5-2.4"/>
			<path class="st22" d="M40.3,41.1c0,0,0.2,0,0.7,0.5c0.5,0.5,0.5,0.7,0.5,0.7"/>
		</g>
	</g>
</g>
</svg>
