%TF.GenerationSoftware,KiCad,Pcbnew,7.0.8*%
%TF.CreationDate,2024-01-07T13:27:56-05:00*%
%TF.ProjectId,weather-featherwing,77656174-6865-4722-9d66-656174686572,02*%
%TF.SameCoordinates,Original*%
%TF.FileFunction,Soldermask,Top*%
%TF.FilePolarity,Negative*%
%FSLAX46Y46*%
G04 Gerber Fmt 4.6, Leading zero omitted, Abs format (unit mm)*
G04 Created by KiCad (PCBNEW 7.0.8) date 2024-01-07 13:27:56*
%MOMM*%
%LPD*%
G01*
G04 APERTURE LIST*
G04 APERTURE END LIST*
G36*
X120912664Y-117301602D02*
G01*
X121075000Y-117373878D01*
X121218761Y-117478327D01*
X121337664Y-117610383D01*
X121426514Y-117764274D01*
X121481425Y-117933275D01*
X121500000Y-118110000D01*
X121481425Y-118286725D01*
X121426514Y-118455726D01*
X121337664Y-118609617D01*
X121218761Y-118741673D01*
X121075000Y-118846122D01*
X120912664Y-118918398D01*
X120738849Y-118955344D01*
X120561151Y-118955344D01*
X120387336Y-118918398D01*
X120225000Y-118846122D01*
X120081239Y-118741673D01*
X119962336Y-118609617D01*
X119873486Y-118455726D01*
X119818575Y-118286725D01*
X119800000Y-118110000D01*
X119818575Y-117933275D01*
X119873486Y-117764274D01*
X119962336Y-117610383D01*
X120081239Y-117478327D01*
X120225000Y-117373878D01*
X120387336Y-117301602D01*
X120561151Y-117264656D01*
X120738849Y-117264656D01*
X120912664Y-117301602D01*
G37*
G36*
X123452664Y-117301602D02*
G01*
X123615000Y-117373878D01*
X123758761Y-117478327D01*
X123877664Y-117610383D01*
X123966514Y-117764274D01*
X124021425Y-117933275D01*
X124040000Y-118110000D01*
X124021425Y-118286725D01*
X123966514Y-118455726D01*
X123877664Y-118609617D01*
X123758761Y-118741673D01*
X123615000Y-118846122D01*
X123452664Y-118918398D01*
X123278849Y-118955344D01*
X123101151Y-118955344D01*
X122927336Y-118918398D01*
X122765000Y-118846122D01*
X122621239Y-118741673D01*
X122502336Y-118609617D01*
X122413486Y-118455726D01*
X122358575Y-118286725D01*
X122340000Y-118110000D01*
X122358575Y-117933275D01*
X122413486Y-117764274D01*
X122502336Y-117610383D01*
X122621239Y-117478327D01*
X122765000Y-117373878D01*
X122927336Y-117301602D01*
X123101151Y-117264656D01*
X123278849Y-117264656D01*
X123452664Y-117301602D01*
G37*
G36*
X125992664Y-117301602D02*
G01*
X126155000Y-117373878D01*
X126298761Y-117478327D01*
X126417664Y-117610383D01*
X126506514Y-117764274D01*
X126561425Y-117933275D01*
X126580000Y-118110000D01*
X126561425Y-118286725D01*
X126506514Y-118455726D01*
X126417664Y-118609617D01*
X126298761Y-118741673D01*
X126155000Y-118846122D01*
X125992664Y-118918398D01*
X125818849Y-118955344D01*
X125641151Y-118955344D01*
X125467336Y-118918398D01*
X125305000Y-118846122D01*
X125161239Y-118741673D01*
X125042336Y-118609617D01*
X124953486Y-118455726D01*
X124898575Y-118286725D01*
X124880000Y-118110000D01*
X124898575Y-117933275D01*
X124953486Y-117764274D01*
X125042336Y-117610383D01*
X125161239Y-117478327D01*
X125305000Y-117373878D01*
X125467336Y-117301602D01*
X125641151Y-117264656D01*
X125818849Y-117264656D01*
X125992664Y-117301602D01*
G37*
G36*
X128532664Y-117301602D02*
G01*
X128695000Y-117373878D01*
X128838761Y-117478327D01*
X128957664Y-117610383D01*
X129046514Y-117764274D01*
X129101425Y-117933275D01*
X129120000Y-118110000D01*
X129101425Y-118286725D01*
X129046514Y-118455726D01*
X128957664Y-118609617D01*
X128838761Y-118741673D01*
X128695000Y-118846122D01*
X128532664Y-118918398D01*
X128358849Y-118955344D01*
X128181151Y-118955344D01*
X128007336Y-118918398D01*
X127845000Y-118846122D01*
X127701239Y-118741673D01*
X127582336Y-118609617D01*
X127493486Y-118455726D01*
X127438575Y-118286725D01*
X127420000Y-118110000D01*
X127438575Y-117933275D01*
X127493486Y-117764274D01*
X127582336Y-117610383D01*
X127701239Y-117478327D01*
X127845000Y-117373878D01*
X128007336Y-117301602D01*
X128181151Y-117264656D01*
X128358849Y-117264656D01*
X128532664Y-117301602D01*
G37*
G36*
X131072664Y-117301602D02*
G01*
X131235000Y-117373878D01*
X131378761Y-117478327D01*
X131497664Y-117610383D01*
X131586514Y-117764274D01*
X131641425Y-117933275D01*
X131660000Y-118110000D01*
X131641425Y-118286725D01*
X131586514Y-118455726D01*
X131497664Y-118609617D01*
X131378761Y-118741673D01*
X131235000Y-118846122D01*
X131072664Y-118918398D01*
X130898849Y-118955344D01*
X130721151Y-118955344D01*
X130547336Y-118918398D01*
X130385000Y-118846122D01*
X130241239Y-118741673D01*
X130122336Y-118609617D01*
X130033486Y-118455726D01*
X129978575Y-118286725D01*
X129960000Y-118110000D01*
X129978575Y-117933275D01*
X130033486Y-117764274D01*
X130122336Y-117610383D01*
X130241239Y-117478327D01*
X130385000Y-117373878D01*
X130547336Y-117301602D01*
X130721151Y-117264656D01*
X130898849Y-117264656D01*
X131072664Y-117301602D01*
G37*
G36*
X133612664Y-117301602D02*
G01*
X133775000Y-117373878D01*
X133918761Y-117478327D01*
X134037664Y-117610383D01*
X134126514Y-117764274D01*
X134181425Y-117933275D01*
X134200000Y-118110000D01*
X134181425Y-118286725D01*
X134126514Y-118455726D01*
X134037664Y-118609617D01*
X133918761Y-118741673D01*
X133775000Y-118846122D01*
X133612664Y-118918398D01*
X133438849Y-118955344D01*
X133261151Y-118955344D01*
X133087336Y-118918398D01*
X132925000Y-118846122D01*
X132781239Y-118741673D01*
X132662336Y-118609617D01*
X132573486Y-118455726D01*
X132518575Y-118286725D01*
X132500000Y-118110000D01*
X132518575Y-117933275D01*
X132573486Y-117764274D01*
X132662336Y-117610383D01*
X132781239Y-117478327D01*
X132925000Y-117373878D01*
X133087336Y-117301602D01*
X133261151Y-117264656D01*
X133438849Y-117264656D01*
X133612664Y-117301602D01*
G37*
G36*
X136152664Y-117301602D02*
G01*
X136315000Y-117373878D01*
X136458761Y-117478327D01*
X136577664Y-117610383D01*
X136666514Y-117764274D01*
X136721425Y-117933275D01*
X136740000Y-118110000D01*
X136721425Y-118286725D01*
X136666514Y-118455726D01*
X136577664Y-118609617D01*
X136458761Y-118741673D01*
X136315000Y-118846122D01*
X136152664Y-118918398D01*
X135978849Y-118955344D01*
X135801151Y-118955344D01*
X135627336Y-118918398D01*
X135465000Y-118846122D01*
X135321239Y-118741673D01*
X135202336Y-118609617D01*
X135113486Y-118455726D01*
X135058575Y-118286725D01*
X135040000Y-118110000D01*
X135058575Y-117933275D01*
X135113486Y-117764274D01*
X135202336Y-117610383D01*
X135321239Y-117478327D01*
X135465000Y-117373878D01*
X135627336Y-117301602D01*
X135801151Y-117264656D01*
X135978849Y-117264656D01*
X136152664Y-117301602D01*
G37*
G36*
X138692664Y-117301602D02*
G01*
X138855000Y-117373878D01*
X138998761Y-117478327D01*
X139117664Y-117610383D01*
X139206514Y-117764274D01*
X139261425Y-117933275D01*
X139280000Y-118110000D01*
X139261425Y-118286725D01*
X139206514Y-118455726D01*
X139117664Y-118609617D01*
X138998761Y-118741673D01*
X138855000Y-118846122D01*
X138692664Y-118918398D01*
X138518849Y-118955344D01*
X138341151Y-118955344D01*
X138167336Y-118918398D01*
X138005000Y-118846122D01*
X137861239Y-118741673D01*
X137742336Y-118609617D01*
X137653486Y-118455726D01*
X137598575Y-118286725D01*
X137580000Y-118110000D01*
X137598575Y-117933275D01*
X137653486Y-117764274D01*
X137742336Y-117610383D01*
X137861239Y-117478327D01*
X138005000Y-117373878D01*
X138167336Y-117301602D01*
X138341151Y-117264656D01*
X138518849Y-117264656D01*
X138692664Y-117301602D01*
G37*
G36*
X141232664Y-117301602D02*
G01*
X141395000Y-117373878D01*
X141538761Y-117478327D01*
X141657664Y-117610383D01*
X141746514Y-117764274D01*
X141801425Y-117933275D01*
X141820000Y-118110000D01*
X141801425Y-118286725D01*
X141746514Y-118455726D01*
X141657664Y-118609617D01*
X141538761Y-118741673D01*
X141395000Y-118846122D01*
X141232664Y-118918398D01*
X141058849Y-118955344D01*
X140881151Y-118955344D01*
X140707336Y-118918398D01*
X140545000Y-118846122D01*
X140401239Y-118741673D01*
X140282336Y-118609617D01*
X140193486Y-118455726D01*
X140138575Y-118286725D01*
X140120000Y-118110000D01*
X140138575Y-117933275D01*
X140193486Y-117764274D01*
X140282336Y-117610383D01*
X140401239Y-117478327D01*
X140545000Y-117373878D01*
X140707336Y-117301602D01*
X140881151Y-117264656D01*
X141058849Y-117264656D01*
X141232664Y-117301602D01*
G37*
G36*
X143772664Y-117301602D02*
G01*
X143935000Y-117373878D01*
X144078761Y-117478327D01*
X144197664Y-117610383D01*
X144286514Y-117764274D01*
X144341425Y-117933275D01*
X144360000Y-118110000D01*
X144341425Y-118286725D01*
X144286514Y-118455726D01*
X144197664Y-118609617D01*
X144078761Y-118741673D01*
X143935000Y-118846122D01*
X143772664Y-118918398D01*
X143598849Y-118955344D01*
X143421151Y-118955344D01*
X143247336Y-118918398D01*
X143085000Y-118846122D01*
X142941239Y-118741673D01*
X142822336Y-118609617D01*
X142733486Y-118455726D01*
X142678575Y-118286725D01*
X142660000Y-118110000D01*
X142678575Y-117933275D01*
X142733486Y-117764274D01*
X142822336Y-117610383D01*
X142941239Y-117478327D01*
X143085000Y-117373878D01*
X143247336Y-117301602D01*
X143421151Y-117264656D01*
X143598849Y-117264656D01*
X143772664Y-117301602D01*
G37*
G36*
X146312664Y-117301602D02*
G01*
X146475000Y-117373878D01*
X146618761Y-117478327D01*
X146737664Y-117610383D01*
X146826514Y-117764274D01*
X146881425Y-117933275D01*
X146900000Y-118110000D01*
X146881425Y-118286725D01*
X146826514Y-118455726D01*
X146737664Y-118609617D01*
X146618761Y-118741673D01*
X146475000Y-118846122D01*
X146312664Y-118918398D01*
X146138849Y-118955344D01*
X145961151Y-118955344D01*
X145787336Y-118918398D01*
X145625000Y-118846122D01*
X145481239Y-118741673D01*
X145362336Y-118609617D01*
X145273486Y-118455726D01*
X145218575Y-118286725D01*
X145200000Y-118110000D01*
X145218575Y-117933275D01*
X145273486Y-117764274D01*
X145362336Y-117610383D01*
X145481239Y-117478327D01*
X145625000Y-117373878D01*
X145787336Y-117301602D01*
X145961151Y-117264656D01*
X146138849Y-117264656D01*
X146312664Y-117301602D01*
G37*
G36*
X148852664Y-117301602D02*
G01*
X149015000Y-117373878D01*
X149158761Y-117478327D01*
X149277664Y-117610383D01*
X149366514Y-117764274D01*
X149421425Y-117933275D01*
X149440000Y-118110000D01*
X149421425Y-118286725D01*
X149366514Y-118455726D01*
X149277664Y-118609617D01*
X149158761Y-118741673D01*
X149015000Y-118846122D01*
X148852664Y-118918398D01*
X148678849Y-118955344D01*
X148501151Y-118955344D01*
X148327336Y-118918398D01*
X148165000Y-118846122D01*
X148021239Y-118741673D01*
X147902336Y-118609617D01*
X147813486Y-118455726D01*
X147758575Y-118286725D01*
X147740000Y-118110000D01*
X147758575Y-117933275D01*
X147813486Y-117764274D01*
X147902336Y-117610383D01*
X148021239Y-117478327D01*
X148165000Y-117373878D01*
X148327336Y-117301602D01*
X148501151Y-117264656D01*
X148678849Y-117264656D01*
X148852664Y-117301602D01*
G37*
G36*
X151392664Y-117301602D02*
G01*
X151555000Y-117373878D01*
X151698761Y-117478327D01*
X151817664Y-117610383D01*
X151906514Y-117764274D01*
X151961425Y-117933275D01*
X151980000Y-118110000D01*
X151961425Y-118286725D01*
X151906514Y-118455726D01*
X151817664Y-118609617D01*
X151698761Y-118741673D01*
X151555000Y-118846122D01*
X151392664Y-118918398D01*
X151218849Y-118955344D01*
X151041151Y-118955344D01*
X150867336Y-118918398D01*
X150705000Y-118846122D01*
X150561239Y-118741673D01*
X150442336Y-118609617D01*
X150353486Y-118455726D01*
X150298575Y-118286725D01*
X150280000Y-118110000D01*
X150298575Y-117933275D01*
X150353486Y-117764274D01*
X150442336Y-117610383D01*
X150561239Y-117478327D01*
X150705000Y-117373878D01*
X150867336Y-117301602D01*
X151041151Y-117264656D01*
X151218849Y-117264656D01*
X151392664Y-117301602D01*
G37*
G36*
X153932664Y-117301602D02*
G01*
X154095000Y-117373878D01*
X154238761Y-117478327D01*
X154357664Y-117610383D01*
X154446514Y-117764274D01*
X154501425Y-117933275D01*
X154520000Y-118110000D01*
X154501425Y-118286725D01*
X154446514Y-118455726D01*
X154357664Y-118609617D01*
X154238761Y-118741673D01*
X154095000Y-118846122D01*
X153932664Y-118918398D01*
X153758849Y-118955344D01*
X153581151Y-118955344D01*
X153407336Y-118918398D01*
X153245000Y-118846122D01*
X153101239Y-118741673D01*
X152982336Y-118609617D01*
X152893486Y-118455726D01*
X152838575Y-118286725D01*
X152820000Y-118110000D01*
X152838575Y-117933275D01*
X152893486Y-117764274D01*
X152982336Y-117610383D01*
X153101239Y-117478327D01*
X153245000Y-117373878D01*
X153407336Y-117301602D01*
X153581151Y-117264656D01*
X153758849Y-117264656D01*
X153932664Y-117301602D01*
G37*
G36*
X156472664Y-117301602D02*
G01*
X156635000Y-117373878D01*
X156778761Y-117478327D01*
X156897664Y-117610383D01*
X156986514Y-117764274D01*
X157041425Y-117933275D01*
X157060000Y-118110000D01*
X157041425Y-118286725D01*
X156986514Y-118455726D01*
X156897664Y-118609617D01*
X156778761Y-118741673D01*
X156635000Y-118846122D01*
X156472664Y-118918398D01*
X156298849Y-118955344D01*
X156121151Y-118955344D01*
X155947336Y-118918398D01*
X155785000Y-118846122D01*
X155641239Y-118741673D01*
X155522336Y-118609617D01*
X155433486Y-118455726D01*
X155378575Y-118286725D01*
X155360000Y-118110000D01*
X155378575Y-117933275D01*
X155433486Y-117764274D01*
X155522336Y-117610383D01*
X155641239Y-117478327D01*
X155785000Y-117373878D01*
X155947336Y-117301602D01*
X156121151Y-117264656D01*
X156298849Y-117264656D01*
X156472664Y-117301602D01*
G37*
G36*
X159012664Y-117301602D02*
G01*
X159175000Y-117373878D01*
X159318761Y-117478327D01*
X159437664Y-117610383D01*
X159526514Y-117764274D01*
X159581425Y-117933275D01*
X159600000Y-118110000D01*
X159581425Y-118286725D01*
X159526514Y-118455726D01*
X159437664Y-118609617D01*
X159318761Y-118741673D01*
X159175000Y-118846122D01*
X159012664Y-118918398D01*
X158838849Y-118955344D01*
X158661151Y-118955344D01*
X158487336Y-118918398D01*
X158325000Y-118846122D01*
X158181239Y-118741673D01*
X158062336Y-118609617D01*
X157973486Y-118455726D01*
X157918575Y-118286725D01*
X157900000Y-118110000D01*
X157918575Y-117933275D01*
X157973486Y-117764274D01*
X158062336Y-117610383D01*
X158181239Y-117478327D01*
X158325000Y-117373878D01*
X158487336Y-117301602D01*
X158661151Y-117264656D01*
X158838849Y-117264656D01*
X159012664Y-117301602D01*
G37*
G36*
X117085602Y-115289329D02*
G01*
X117325157Y-115346841D01*
X117552765Y-115441120D01*
X117762823Y-115569843D01*
X117950158Y-115729842D01*
X118110157Y-115917177D01*
X118238880Y-116127235D01*
X118333159Y-116354843D01*
X118390671Y-116594398D01*
X118410000Y-116840000D01*
X118390671Y-117085602D01*
X118333159Y-117325157D01*
X118238880Y-117552765D01*
X118110157Y-117762823D01*
X117950158Y-117950158D01*
X117762823Y-118110157D01*
X117552765Y-118238880D01*
X117325157Y-118333159D01*
X117085602Y-118390671D01*
X116840000Y-118410000D01*
X116594398Y-118390671D01*
X116354843Y-118333159D01*
X116127235Y-118238880D01*
X115917177Y-118110157D01*
X115729842Y-117950158D01*
X115569843Y-117762823D01*
X115441120Y-117552765D01*
X115346841Y-117325157D01*
X115289329Y-117085602D01*
X115270000Y-116840000D01*
X115289329Y-116594398D01*
X115346841Y-116354843D01*
X115441120Y-116127235D01*
X115569843Y-115917177D01*
X115729842Y-115729842D01*
X115917177Y-115569843D01*
X116127235Y-115441120D01*
X116354843Y-115346841D01*
X116594398Y-115289329D01*
X116840000Y-115270000D01*
X117085602Y-115289329D01*
G37*
G36*
X162780533Y-115589294D02*
G01*
X162994366Y-115646590D01*
X163195000Y-115740148D01*
X163376340Y-115867124D01*
X163532876Y-116023660D01*
X163659852Y-116205000D01*
X163753410Y-116405634D01*
X163810706Y-116619467D01*
X163830000Y-116840000D01*
X163810706Y-117060533D01*
X163753410Y-117274366D01*
X163659852Y-117475000D01*
X163532876Y-117656340D01*
X163376340Y-117812876D01*
X163195000Y-117939852D01*
X162994366Y-118033410D01*
X162780533Y-118090706D01*
X162560000Y-118110000D01*
X162339467Y-118090706D01*
X162125634Y-118033410D01*
X161925000Y-117939852D01*
X161743660Y-117812876D01*
X161587124Y-117656340D01*
X161460148Y-117475000D01*
X161366590Y-117274366D01*
X161309294Y-117060533D01*
X161290000Y-116840000D01*
X161309294Y-116619467D01*
X161366590Y-116405634D01*
X161460148Y-116205000D01*
X161587124Y-116023660D01*
X161743660Y-115867124D01*
X161925000Y-115740148D01*
X162125634Y-115646590D01*
X162339467Y-115589294D01*
X162560000Y-115570000D01*
X162780533Y-115589294D01*
G37*
G36*
X142560500Y-116055000D02*
G01*
X141689500Y-116055000D01*
X141689500Y-115085000D01*
X142560500Y-115085000D01*
X142560500Y-116055000D01*
G37*
G36*
X144060500Y-116055000D02*
G01*
X143189500Y-116055000D01*
X143189500Y-115085000D01*
X144060500Y-115085000D01*
X144060500Y-116055000D01*
G37*
G36*
X122877500Y-115952500D02*
G01*
X122232500Y-115952500D01*
X122232500Y-114779500D01*
X122877500Y-114779500D01*
X122877500Y-115952500D01*
G37*
G36*
X126125000Y-115850000D02*
G01*
X125335000Y-115850000D01*
X125335000Y-115090000D01*
X126125000Y-115090000D01*
X126125000Y-115850000D01*
G37*
G36*
X119879890Y-113801815D02*
G01*
X120067483Y-113858720D01*
X120240370Y-113951130D01*
X120391907Y-114075493D01*
X120516270Y-114227030D01*
X120608680Y-114399917D01*
X120665585Y-114587510D01*
X120684800Y-114782600D01*
X120665585Y-114977690D01*
X120608680Y-115165283D01*
X120516270Y-115338170D01*
X120391907Y-115489707D01*
X120240370Y-115614070D01*
X120067483Y-115706480D01*
X119879890Y-115763385D01*
X119684800Y-115782600D01*
X119489710Y-115763385D01*
X119302117Y-115706480D01*
X119129230Y-115614070D01*
X118977693Y-115489707D01*
X118853330Y-115338170D01*
X118760920Y-115165283D01*
X118704015Y-114977690D01*
X118684800Y-114782600D01*
X118704015Y-114587510D01*
X118760920Y-114399917D01*
X118853330Y-114227030D01*
X118977693Y-114075493D01*
X119129230Y-113951130D01*
X119302117Y-113858720D01*
X119489710Y-113801815D01*
X119684800Y-113782600D01*
X119879890Y-113801815D01*
G37*
G36*
X142560500Y-114531000D02*
G01*
X141689500Y-114531000D01*
X141689500Y-113561000D01*
X142560500Y-113561000D01*
X142560500Y-114531000D01*
G37*
G36*
X144060500Y-114531000D02*
G01*
X143189500Y-114531000D01*
X143189500Y-113561000D01*
X144060500Y-113561000D01*
X144060500Y-114531000D01*
G37*
G36*
X121927500Y-114074500D02*
G01*
X121282500Y-114074500D01*
X121282500Y-112901500D01*
X121927500Y-112901500D01*
X121927500Y-114074500D01*
G37*
G36*
X123827500Y-114074500D02*
G01*
X123182500Y-114074500D01*
X123182500Y-112901500D01*
X123827500Y-112901500D01*
X123827500Y-114074500D01*
G37*
G36*
X116755400Y-114015600D02*
G01*
X114955400Y-114015600D01*
X114955400Y-112815600D01*
X116755400Y-112815600D01*
X116755400Y-114015600D01*
G37*
G36*
X159250000Y-113955000D02*
G01*
X157350000Y-113955000D01*
X157350000Y-112555000D01*
X159250000Y-112555000D01*
X159250000Y-113955000D01*
G37*
G36*
X142530000Y-112986500D02*
G01*
X141710000Y-112986500D01*
X141710000Y-112057500D01*
X142530000Y-112057500D01*
X142530000Y-112986500D01*
G37*
G36*
X144040000Y-112986500D02*
G01*
X143220000Y-112986500D01*
X143220000Y-112057500D01*
X144040000Y-112057500D01*
X144040000Y-112986500D01*
G37*
G36*
X156700000Y-112865000D02*
G01*
X154700000Y-112865000D01*
X154700000Y-112065000D01*
X156700000Y-112065000D01*
X156700000Y-112865000D01*
G37*
G36*
X145850000Y-112555000D02*
G01*
X144450000Y-112555000D01*
X144450000Y-110755000D01*
X145850000Y-110755000D01*
X145850000Y-112555000D01*
G37*
G36*
X120505400Y-112415600D02*
G01*
X118955400Y-112415600D01*
X118955400Y-111815600D01*
X120505400Y-111815600D01*
X120505400Y-112415600D01*
G37*
G36*
X122210000Y-112326100D02*
G01*
X121390000Y-112326100D01*
X121390000Y-111397100D01*
X122210000Y-111397100D01*
X122210000Y-112326100D01*
G37*
G36*
X123720000Y-112326100D02*
G01*
X122900000Y-112326100D01*
X122900000Y-111397100D01*
X123720000Y-111397100D01*
X123720000Y-112326100D01*
G37*
G36*
X126125000Y-112240000D02*
G01*
X125335000Y-112240000D01*
X125335000Y-111480000D01*
X126125000Y-111480000D01*
X126125000Y-112240000D01*
G37*
G36*
X156700000Y-111765000D02*
G01*
X154700000Y-111765000D01*
X154700000Y-110965000D01*
X156700000Y-110965000D01*
X156700000Y-111765000D01*
G37*
G36*
X142530000Y-111462500D02*
G01*
X141710000Y-111462500D01*
X141710000Y-110533500D01*
X142530000Y-110533500D01*
X142530000Y-111462500D01*
G37*
G36*
X144040000Y-111462500D02*
G01*
X143220000Y-111462500D01*
X143220000Y-110533500D01*
X144040000Y-110533500D01*
X144040000Y-111462500D01*
G37*
G36*
X120505400Y-111415600D02*
G01*
X118955400Y-111415600D01*
X118955400Y-110815600D01*
X120505400Y-110815600D01*
X120505400Y-111415600D01*
G37*
G36*
X125178500Y-110791400D02*
G01*
X124249500Y-110791400D01*
X124249500Y-109971400D01*
X125178500Y-109971400D01*
X125178500Y-110791400D01*
G37*
G36*
X156900000Y-110665000D02*
G01*
X154900000Y-110665000D01*
X154900000Y-109865000D01*
X156900000Y-109865000D01*
X156900000Y-110665000D01*
G37*
G36*
X122230000Y-110590900D02*
G01*
X121880000Y-110590900D01*
X121880000Y-110193900D01*
X122230000Y-110193900D01*
X122230000Y-110590900D01*
G37*
G36*
X122730000Y-110590900D02*
G01*
X122380000Y-110590900D01*
X122380000Y-110193900D01*
X122730000Y-110193900D01*
X122730000Y-110590900D01*
G37*
G36*
X123230000Y-110590900D02*
G01*
X122880000Y-110590900D01*
X122880000Y-110193900D01*
X123230000Y-110193900D01*
X123230000Y-110590900D01*
G37*
G36*
X120505400Y-110415600D02*
G01*
X118955400Y-110415600D01*
X118955400Y-109815600D01*
X120505400Y-109815600D01*
X120505400Y-110415600D01*
G37*
G36*
X121987500Y-110051400D02*
G01*
X121590500Y-110051400D01*
X121590500Y-109701400D01*
X121987500Y-109701400D01*
X121987500Y-110051400D01*
G37*
G36*
X123519500Y-110051400D02*
G01*
X123122500Y-110051400D01*
X123122500Y-109701400D01*
X123519500Y-109701400D01*
X123519500Y-110051400D01*
G37*
G36*
X142530000Y-109938500D02*
G01*
X141710000Y-109938500D01*
X141710000Y-109009500D01*
X142530000Y-109009500D01*
X142530000Y-109938500D01*
G37*
G36*
X144040000Y-109938500D02*
G01*
X143220000Y-109938500D01*
X143220000Y-109009500D01*
X144040000Y-109009500D01*
X144040000Y-109938500D01*
G37*
G36*
X156700000Y-109565000D02*
G01*
X154700000Y-109565000D01*
X154700000Y-108765000D01*
X156700000Y-108765000D01*
X156700000Y-109565000D01*
G37*
G36*
X121987500Y-109551400D02*
G01*
X121590500Y-109551400D01*
X121590500Y-109201400D01*
X121987500Y-109201400D01*
X121987500Y-109551400D01*
G37*
G36*
X123519500Y-109551400D02*
G01*
X123122500Y-109551400D01*
X123122500Y-109201400D01*
X123519500Y-109201400D01*
X123519500Y-109551400D01*
G37*
G36*
X134026367Y-107916661D02*
G01*
X134068593Y-107916661D01*
X134116228Y-107926786D01*
X134163017Y-107932058D01*
X134197039Y-107943962D01*
X134232127Y-107951421D01*
X134282695Y-107973935D01*
X134332107Y-107991225D01*
X134357823Y-108007383D01*
X134384860Y-108019421D01*
X134435275Y-108056050D01*
X134483792Y-108086535D01*
X134501214Y-108103957D01*
X134520117Y-108117691D01*
X134566844Y-108169587D01*
X134610465Y-108213208D01*
X134620499Y-108229177D01*
X134631986Y-108241935D01*
X134671285Y-108310003D01*
X134705775Y-108364893D01*
X134710080Y-108377197D01*
X134715580Y-108386723D01*
X134743740Y-108473392D01*
X134764942Y-108533983D01*
X134765746Y-108541118D01*
X134767244Y-108545729D01*
X134780820Y-108674904D01*
X134785000Y-108712000D01*
X134780819Y-108749098D01*
X134767244Y-108878270D01*
X134765746Y-108882879D01*
X134764942Y-108890017D01*
X134743736Y-108950620D01*
X134715580Y-109037276D01*
X134710081Y-109046799D01*
X134705775Y-109059107D01*
X134671278Y-109114007D01*
X134631986Y-109182064D01*
X134620501Y-109194818D01*
X134610465Y-109210792D01*
X134566835Y-109254421D01*
X134520117Y-109306308D01*
X134501218Y-109320038D01*
X134483792Y-109337465D01*
X134435265Y-109367956D01*
X134384860Y-109404578D01*
X134357829Y-109416612D01*
X134332107Y-109432775D01*
X134282685Y-109450068D01*
X134232127Y-109472578D01*
X134197045Y-109480035D01*
X134163017Y-109491942D01*
X134116225Y-109497214D01*
X134068593Y-109507339D01*
X134026367Y-109507339D01*
X133985000Y-109512000D01*
X133943633Y-109507339D01*
X133901407Y-109507339D01*
X133853774Y-109497214D01*
X133806983Y-109491942D01*
X133772955Y-109480035D01*
X133737872Y-109472578D01*
X133687309Y-109450066D01*
X133637893Y-109432775D01*
X133612173Y-109416614D01*
X133585139Y-109404578D01*
X133534726Y-109367951D01*
X133486208Y-109337465D01*
X133468784Y-109320041D01*
X133449882Y-109306308D01*
X133403154Y-109254411D01*
X133359535Y-109210792D01*
X133349500Y-109194822D01*
X133338013Y-109182064D01*
X133298709Y-109113987D01*
X133264225Y-109059107D01*
X133259919Y-109046803D01*
X133254419Y-109037276D01*
X133226249Y-108950580D01*
X133205058Y-108890017D01*
X133204254Y-108882884D01*
X133202755Y-108878270D01*
X133189165Y-108748966D01*
X133185000Y-108712000D01*
X133189164Y-108675036D01*
X133202755Y-108545729D01*
X133204254Y-108541113D01*
X133205058Y-108533983D01*
X133226245Y-108473432D01*
X133254419Y-108386723D01*
X133259920Y-108377193D01*
X133264225Y-108364893D01*
X133298701Y-108310023D01*
X133338013Y-108241935D01*
X133349502Y-108229174D01*
X133359535Y-108213208D01*
X133403145Y-108169597D01*
X133449882Y-108117691D01*
X133468787Y-108103955D01*
X133486208Y-108086535D01*
X133534721Y-108056052D01*
X133585140Y-108019421D01*
X133612176Y-108007383D01*
X133637893Y-107991225D01*
X133687301Y-107973936D01*
X133737872Y-107951421D01*
X133772961Y-107943962D01*
X133806983Y-107932058D01*
X133853771Y-107926786D01*
X133901407Y-107916661D01*
X133943633Y-107916661D01*
X133985000Y-107912000D01*
X134026367Y-107916661D01*
G37*
G36*
X120505400Y-109415600D02*
G01*
X118955400Y-109415600D01*
X118955400Y-108815600D01*
X120505400Y-108815600D01*
X120505400Y-109415600D01*
G37*
G36*
X125178500Y-109281400D02*
G01*
X124249500Y-109281400D01*
X124249500Y-108461400D01*
X125178500Y-108461400D01*
X125178500Y-109281400D01*
G37*
G36*
X122230000Y-109058900D02*
G01*
X121880000Y-109058900D01*
X121880000Y-108661900D01*
X122230000Y-108661900D01*
X122230000Y-109058900D01*
G37*
G36*
X122730000Y-109058900D02*
G01*
X122380000Y-109058900D01*
X122380000Y-108661900D01*
X122730000Y-108661900D01*
X122730000Y-109058900D01*
G37*
G36*
X123230000Y-109058900D02*
G01*
X122880000Y-109058900D01*
X122880000Y-108661900D01*
X123230000Y-108661900D01*
X123230000Y-109058900D01*
G37*
G36*
X156900000Y-108465000D02*
G01*
X154900000Y-108465000D01*
X154900000Y-107665000D01*
X156900000Y-107665000D01*
X156900000Y-108465000D01*
G37*
G36*
X116755400Y-108415600D02*
G01*
X114955400Y-108415600D01*
X114955400Y-107215600D01*
X116755400Y-107215600D01*
X116755400Y-108415600D01*
G37*
G36*
X142530000Y-108414500D02*
G01*
X141710000Y-108414500D01*
X141710000Y-107485500D01*
X142530000Y-107485500D01*
X142530000Y-108414500D01*
G37*
G36*
X144040000Y-108414500D02*
G01*
X143220000Y-108414500D01*
X143220000Y-107485500D01*
X144040000Y-107485500D01*
X144040000Y-108414500D01*
G37*
G36*
X122240500Y-107927000D02*
G01*
X121369500Y-107927000D01*
X121369500Y-106957000D01*
X122240500Y-106957000D01*
X122240500Y-107927000D01*
G37*
G36*
X123740500Y-107927000D02*
G01*
X122869500Y-107927000D01*
X122869500Y-106957000D01*
X123740500Y-106957000D01*
X123740500Y-107927000D01*
G37*
G36*
X156700000Y-107365000D02*
G01*
X154700000Y-107365000D01*
X154700000Y-106565000D01*
X156700000Y-106565000D01*
X156700000Y-107365000D01*
G37*
G36*
X142530000Y-106890500D02*
G01*
X141710000Y-106890500D01*
X141710000Y-105961500D01*
X142530000Y-105961500D01*
X142530000Y-106890500D01*
G37*
G36*
X144040000Y-106890500D02*
G01*
X143220000Y-106890500D01*
X143220000Y-105961500D01*
X144040000Y-105961500D01*
X144040000Y-106890500D01*
G37*
G36*
X145850000Y-106855000D02*
G01*
X144450000Y-106855000D01*
X144450000Y-105055000D01*
X145850000Y-105055000D01*
X145850000Y-106855000D01*
G37*
G36*
X156300000Y-106265000D02*
G01*
X154300000Y-106265000D01*
X154300000Y-105465000D01*
X156300000Y-105465000D01*
X156300000Y-106265000D01*
G37*
G36*
X121299500Y-106156500D02*
G01*
X120466500Y-106156500D01*
X120466500Y-105547500D01*
X121299500Y-105547500D01*
X121299500Y-106156500D01*
G37*
G36*
X123881500Y-106156500D02*
G01*
X123048500Y-106156500D01*
X123048500Y-105547500D01*
X123881500Y-105547500D01*
X123881500Y-106156500D01*
G37*
G36*
X126716500Y-106055500D02*
G01*
X125251500Y-106055500D01*
X125251500Y-105070500D01*
X126716500Y-105070500D01*
X126716500Y-106055500D01*
G37*
G36*
X142530000Y-105366500D02*
G01*
X141710000Y-105366500D01*
X141710000Y-104437500D01*
X142530000Y-104437500D01*
X142530000Y-105366500D01*
G37*
G36*
X144040000Y-105366500D02*
G01*
X143220000Y-105366500D01*
X143220000Y-104437500D01*
X144040000Y-104437500D01*
X144040000Y-105366500D01*
G37*
G36*
X123881500Y-105206500D02*
G01*
X123048500Y-105206500D01*
X123048500Y-104597500D01*
X123881500Y-104597500D01*
X123881500Y-105206500D01*
G37*
G36*
X156700000Y-105165000D02*
G01*
X154700000Y-105165000D01*
X154700000Y-104365000D01*
X156700000Y-104365000D01*
X156700000Y-105165000D01*
G37*
G36*
X115320000Y-105090000D02*
G01*
X115020000Y-105090000D01*
X115020000Y-104590000D01*
X115320000Y-104590000D01*
X115320000Y-105090000D01*
G37*
G36*
X116120000Y-105090000D02*
G01*
X115820000Y-105090000D01*
X115820000Y-104590000D01*
X116120000Y-104590000D01*
X116120000Y-105090000D01*
G37*
G36*
X118341000Y-104309500D02*
G01*
X117371000Y-104309500D01*
X117371000Y-103438500D01*
X118341000Y-103438500D01*
X118341000Y-104309500D01*
G37*
G36*
X119992000Y-104309500D02*
G01*
X119022000Y-104309500D01*
X119022000Y-103438500D01*
X119992000Y-103438500D01*
X119992000Y-104309500D01*
G37*
G36*
X121299500Y-104256500D02*
G01*
X120466500Y-104256500D01*
X120466500Y-103647500D01*
X121299500Y-103647500D01*
X121299500Y-104256500D01*
G37*
G36*
X123881500Y-104256500D02*
G01*
X123048500Y-104256500D01*
X123048500Y-103647500D01*
X123881500Y-103647500D01*
X123881500Y-104256500D01*
G37*
G36*
X126716500Y-104225500D02*
G01*
X125251500Y-104225500D01*
X125251500Y-103240500D01*
X126716500Y-103240500D01*
X126716500Y-104225500D01*
G37*
G36*
X142530000Y-103842500D02*
G01*
X141710000Y-103842500D01*
X141710000Y-102913500D01*
X142530000Y-102913500D01*
X142530000Y-103842500D01*
G37*
G36*
X144040000Y-103842500D02*
G01*
X143220000Y-103842500D01*
X143220000Y-102913500D01*
X144040000Y-102913500D01*
X144040000Y-103842500D01*
G37*
G36*
X115320000Y-103690000D02*
G01*
X115020000Y-103690000D01*
X115020000Y-103190000D01*
X115320000Y-103190000D01*
X115320000Y-103690000D01*
G37*
G36*
X116120000Y-103690000D02*
G01*
X115820000Y-103690000D01*
X115820000Y-103190000D01*
X116120000Y-103190000D01*
X116120000Y-103690000D01*
G37*
G36*
X161535890Y-101381215D02*
G01*
X161723483Y-101438120D01*
X161896370Y-101530530D01*
X162047907Y-101654893D01*
X162172270Y-101806430D01*
X162264680Y-101979317D01*
X162321585Y-102166910D01*
X162340800Y-102362000D01*
X162321585Y-102557090D01*
X162264680Y-102744683D01*
X162172270Y-102917570D01*
X162047907Y-103069107D01*
X161896370Y-103193470D01*
X161723483Y-103285880D01*
X161535890Y-103342785D01*
X161340800Y-103362000D01*
X161145710Y-103342785D01*
X160958117Y-103285880D01*
X160785230Y-103193470D01*
X160633693Y-103069107D01*
X160509330Y-102917570D01*
X160416920Y-102744683D01*
X160360015Y-102557090D01*
X160340800Y-102362000D01*
X160360015Y-102166910D01*
X160416920Y-101979317D01*
X160509330Y-101806430D01*
X160633693Y-101654893D01*
X160785230Y-101530530D01*
X160958117Y-101438120D01*
X161145710Y-101381215D01*
X161340800Y-101362000D01*
X161535890Y-101381215D01*
G37*
G36*
X118341000Y-102809500D02*
G01*
X117371000Y-102809500D01*
X117371000Y-101938500D01*
X118341000Y-101938500D01*
X118341000Y-102809500D01*
G37*
G36*
X119992000Y-102809500D02*
G01*
X119022000Y-102809500D01*
X119022000Y-101938500D01*
X119992000Y-101938500D01*
X119992000Y-102809500D01*
G37*
G36*
X122560000Y-102552000D02*
G01*
X121360000Y-102552000D01*
X121360000Y-100052000D01*
X122560000Y-100052000D01*
X122560000Y-102552000D01*
G37*
G36*
X125060000Y-102552000D02*
G01*
X123860000Y-102552000D01*
X123860000Y-100052000D01*
X125060000Y-100052000D01*
X125060000Y-102552000D01*
G37*
G36*
X127560000Y-102552000D02*
G01*
X126360000Y-102552000D01*
X126360000Y-100052000D01*
X127560000Y-100052000D01*
X127560000Y-102552000D01*
G37*
G36*
X142530000Y-102318500D02*
G01*
X141710000Y-102318500D01*
X141710000Y-101389500D01*
X142530000Y-101389500D01*
X142530000Y-102318500D01*
G37*
G36*
X144040000Y-102318500D02*
G01*
X143220000Y-102318500D01*
X143220000Y-101389500D01*
X144040000Y-101389500D01*
X144040000Y-102318500D01*
G37*
G36*
X134026367Y-100166661D02*
G01*
X134068593Y-100166661D01*
X134116228Y-100176786D01*
X134163017Y-100182058D01*
X134197039Y-100193962D01*
X134232127Y-100201421D01*
X134282695Y-100223935D01*
X134332107Y-100241225D01*
X134357823Y-100257383D01*
X134384860Y-100269421D01*
X134435275Y-100306050D01*
X134483792Y-100336535D01*
X134501214Y-100353957D01*
X134520117Y-100367691D01*
X134566844Y-100419587D01*
X134610465Y-100463208D01*
X134620499Y-100479177D01*
X134631986Y-100491935D01*
X134671285Y-100560003D01*
X134705775Y-100614893D01*
X134710080Y-100627197D01*
X134715580Y-100636723D01*
X134743740Y-100723392D01*
X134764942Y-100783983D01*
X134765746Y-100791118D01*
X134767244Y-100795729D01*
X134780820Y-100924904D01*
X134785000Y-100962000D01*
X134780819Y-100999098D01*
X134767244Y-101128270D01*
X134765746Y-101132879D01*
X134764942Y-101140017D01*
X134743736Y-101200620D01*
X134715580Y-101287276D01*
X134710081Y-101296799D01*
X134705775Y-101309107D01*
X134671278Y-101364007D01*
X134631986Y-101432064D01*
X134620501Y-101444818D01*
X134610465Y-101460792D01*
X134566835Y-101504421D01*
X134520117Y-101556308D01*
X134501218Y-101570038D01*
X134483792Y-101587465D01*
X134435265Y-101617956D01*
X134384860Y-101654578D01*
X134357829Y-101666612D01*
X134332107Y-101682775D01*
X134282685Y-101700068D01*
X134232127Y-101722578D01*
X134197045Y-101730035D01*
X134163017Y-101741942D01*
X134116225Y-101747214D01*
X134068593Y-101757339D01*
X134026367Y-101757339D01*
X133985000Y-101762000D01*
X133943633Y-101757339D01*
X133901407Y-101757339D01*
X133853774Y-101747214D01*
X133806983Y-101741942D01*
X133772955Y-101730035D01*
X133737872Y-101722578D01*
X133687309Y-101700066D01*
X133637893Y-101682775D01*
X133612173Y-101666614D01*
X133585139Y-101654578D01*
X133534726Y-101617951D01*
X133486208Y-101587465D01*
X133468784Y-101570041D01*
X133449882Y-101556308D01*
X133403154Y-101504411D01*
X133359535Y-101460792D01*
X133349500Y-101444822D01*
X133338013Y-101432064D01*
X133298709Y-101363987D01*
X133264225Y-101309107D01*
X133259919Y-101296803D01*
X133254419Y-101287276D01*
X133226249Y-101200580D01*
X133205058Y-101140017D01*
X133204254Y-101132884D01*
X133202755Y-101128270D01*
X133189165Y-100998966D01*
X133185000Y-100962000D01*
X133189164Y-100925036D01*
X133202755Y-100795729D01*
X133204254Y-100791113D01*
X133205058Y-100783983D01*
X133226245Y-100723432D01*
X133254419Y-100636723D01*
X133259920Y-100627193D01*
X133264225Y-100614893D01*
X133298701Y-100560023D01*
X133338013Y-100491935D01*
X133349502Y-100479174D01*
X133359535Y-100463208D01*
X133403145Y-100419597D01*
X133449882Y-100367691D01*
X133468787Y-100353955D01*
X133486208Y-100336535D01*
X133534721Y-100306052D01*
X133585140Y-100269421D01*
X133612176Y-100257383D01*
X133637893Y-100241225D01*
X133687301Y-100223936D01*
X133737872Y-100201421D01*
X133772961Y-100193962D01*
X133806983Y-100182058D01*
X133853771Y-100176786D01*
X133901407Y-100166661D01*
X133943633Y-100166661D01*
X133985000Y-100162000D01*
X134026367Y-100166661D01*
G37*
G36*
X140008000Y-101207000D02*
G01*
X139458000Y-101207000D01*
X139458000Y-100657000D01*
X140008000Y-100657000D01*
X140008000Y-101207000D01*
G37*
G36*
X140958000Y-101207000D02*
G01*
X140408000Y-101207000D01*
X140408000Y-100657000D01*
X140958000Y-100657000D01*
X140958000Y-101207000D01*
G37*
G36*
X160250000Y-100805000D02*
G01*
X158350000Y-100805000D01*
X158350000Y-99405000D01*
X160250000Y-99405000D01*
X160250000Y-100805000D01*
G37*
G36*
X142530000Y-100794500D02*
G01*
X141710000Y-100794500D01*
X141710000Y-99865500D01*
X142530000Y-99865500D01*
X142530000Y-100794500D01*
G37*
G36*
X144040000Y-100794500D02*
G01*
X143220000Y-100794500D01*
X143220000Y-99865500D01*
X144040000Y-99865500D01*
X144040000Y-100794500D01*
G37*
G36*
X136942000Y-100667500D02*
G01*
X136122000Y-100667500D01*
X136122000Y-99738500D01*
X136942000Y-99738500D01*
X136942000Y-100667500D01*
G37*
G36*
X138452000Y-100667500D02*
G01*
X137632000Y-100667500D01*
X137632000Y-99738500D01*
X138452000Y-99738500D01*
X138452000Y-100667500D01*
G37*
G36*
X117085602Y-97509329D02*
G01*
X117325157Y-97566841D01*
X117552765Y-97661120D01*
X117762823Y-97789843D01*
X117950158Y-97949842D01*
X118110157Y-98137177D01*
X118238880Y-98347235D01*
X118333159Y-98574843D01*
X118390671Y-98814398D01*
X118410000Y-99060000D01*
X118390671Y-99305602D01*
X118333159Y-99545157D01*
X118238880Y-99772765D01*
X118110157Y-99982823D01*
X117950158Y-100170158D01*
X117762823Y-100330157D01*
X117552765Y-100458880D01*
X117325157Y-100553159D01*
X117085602Y-100610671D01*
X116840000Y-100630000D01*
X116594398Y-100610671D01*
X116354843Y-100553159D01*
X116127235Y-100458880D01*
X115917177Y-100330157D01*
X115729842Y-100170158D01*
X115569843Y-99982823D01*
X115441120Y-99772765D01*
X115346841Y-99545157D01*
X115289329Y-99305602D01*
X115270000Y-99060000D01*
X115289329Y-98814398D01*
X115346841Y-98574843D01*
X115441120Y-98347235D01*
X115569843Y-98137177D01*
X115729842Y-97949842D01*
X115917177Y-97789843D01*
X116127235Y-97661120D01*
X116354843Y-97566841D01*
X116594398Y-97509329D01*
X116840000Y-97490000D01*
X117085602Y-97509329D01*
G37*
G36*
X162780533Y-97809294D02*
G01*
X162994366Y-97866590D01*
X163195000Y-97960148D01*
X163376340Y-98087124D01*
X163532876Y-98243660D01*
X163659852Y-98425000D01*
X163753410Y-98625634D01*
X163810706Y-98839467D01*
X163830000Y-99060000D01*
X163810706Y-99280533D01*
X163753410Y-99494366D01*
X163659852Y-99695000D01*
X163532876Y-99876340D01*
X163376340Y-100032876D01*
X163195000Y-100159852D01*
X162994366Y-100253410D01*
X162780533Y-100310706D01*
X162560000Y-100330000D01*
X162339467Y-100310706D01*
X162125634Y-100253410D01*
X161925000Y-100159852D01*
X161743660Y-100032876D01*
X161587124Y-99876340D01*
X161460148Y-99695000D01*
X161366590Y-99494366D01*
X161309294Y-99280533D01*
X161290000Y-99060000D01*
X161309294Y-98839467D01*
X161366590Y-98625634D01*
X161460148Y-98425000D01*
X161587124Y-98243660D01*
X161743660Y-98087124D01*
X161925000Y-97960148D01*
X162125634Y-97866590D01*
X162339467Y-97809294D01*
X162560000Y-97790000D01*
X162780533Y-97809294D01*
G37*
G36*
X140008000Y-100257000D02*
G01*
X139458000Y-100257000D01*
X139458000Y-99707000D01*
X140008000Y-99707000D01*
X140008000Y-100257000D01*
G37*
G36*
X140958000Y-100257000D02*
G01*
X140408000Y-100257000D01*
X140408000Y-99707000D01*
X140958000Y-99707000D01*
X140958000Y-100257000D01*
G37*
G36*
X121226891Y-97820804D02*
G01*
X121385413Y-97876273D01*
X121527617Y-97965626D01*
X121646374Y-98084383D01*
X121735727Y-98226587D01*
X121791196Y-98385109D01*
X121810000Y-98552000D01*
X121791196Y-98718891D01*
X121735727Y-98877413D01*
X121646374Y-99019617D01*
X121527617Y-99138374D01*
X121385413Y-99227727D01*
X121226891Y-99283196D01*
X121060000Y-99302000D01*
X120893109Y-99283196D01*
X120734587Y-99227727D01*
X120592383Y-99138374D01*
X120473626Y-99019617D01*
X120384273Y-98877413D01*
X120328804Y-98718891D01*
X120310000Y-98552000D01*
X120328804Y-98385109D01*
X120384273Y-98226587D01*
X120473626Y-98084383D01*
X120592383Y-97965626D01*
X120734587Y-97876273D01*
X120893109Y-97820804D01*
X121060000Y-97802000D01*
X121226891Y-97820804D01*
G37*
G36*
X128056891Y-97820804D02*
G01*
X128215413Y-97876273D01*
X128357617Y-97965626D01*
X128476374Y-98084383D01*
X128565727Y-98226587D01*
X128621196Y-98385109D01*
X128640000Y-98552000D01*
X128621196Y-98718891D01*
X128565727Y-98877413D01*
X128476374Y-99019617D01*
X128357617Y-99138374D01*
X128215413Y-99227727D01*
X128056891Y-99283196D01*
X127890000Y-99302000D01*
X127723109Y-99283196D01*
X127564587Y-99227727D01*
X127422383Y-99138374D01*
X127303626Y-99019617D01*
X127214273Y-98877413D01*
X127158804Y-98718891D01*
X127140000Y-98552000D01*
X127158804Y-98385109D01*
X127214273Y-98226587D01*
X127303626Y-98084383D01*
X127422383Y-97965626D01*
X127564587Y-97876273D01*
X127723109Y-97820804D01*
X127890000Y-97802000D01*
X128056891Y-97820804D01*
G37*
G36*
X131072664Y-96981602D02*
G01*
X131235000Y-97053878D01*
X131378761Y-97158327D01*
X131497664Y-97290383D01*
X131586514Y-97444274D01*
X131641425Y-97613275D01*
X131660000Y-97790000D01*
X131641425Y-97966725D01*
X131586514Y-98135726D01*
X131497664Y-98289617D01*
X131378761Y-98421673D01*
X131235000Y-98526122D01*
X131072664Y-98598398D01*
X130898849Y-98635344D01*
X130721151Y-98635344D01*
X130547336Y-98598398D01*
X130385000Y-98526122D01*
X130241239Y-98421673D01*
X130122336Y-98289617D01*
X130033486Y-98135726D01*
X129978575Y-97966725D01*
X129960000Y-97790000D01*
X129978575Y-97613275D01*
X130033486Y-97444274D01*
X130122336Y-97290383D01*
X130241239Y-97158327D01*
X130385000Y-97053878D01*
X130547336Y-96981602D01*
X130721151Y-96944656D01*
X130898849Y-96944656D01*
X131072664Y-96981602D01*
G37*
G36*
X133612664Y-96981602D02*
G01*
X133775000Y-97053878D01*
X133918761Y-97158327D01*
X134037664Y-97290383D01*
X134126514Y-97444274D01*
X134181425Y-97613275D01*
X134200000Y-97790000D01*
X134181425Y-97966725D01*
X134126514Y-98135726D01*
X134037664Y-98289617D01*
X133918761Y-98421673D01*
X133775000Y-98526122D01*
X133612664Y-98598398D01*
X133438849Y-98635344D01*
X133261151Y-98635344D01*
X133087336Y-98598398D01*
X132925000Y-98526122D01*
X132781239Y-98421673D01*
X132662336Y-98289617D01*
X132573486Y-98135726D01*
X132518575Y-97966725D01*
X132500000Y-97790000D01*
X132518575Y-97613275D01*
X132573486Y-97444274D01*
X132662336Y-97290383D01*
X132781239Y-97158327D01*
X132925000Y-97053878D01*
X133087336Y-96981602D01*
X133261151Y-96944656D01*
X133438849Y-96944656D01*
X133612664Y-96981602D01*
G37*
G36*
X136152664Y-96981602D02*
G01*
X136315000Y-97053878D01*
X136458761Y-97158327D01*
X136577664Y-97290383D01*
X136666514Y-97444274D01*
X136721425Y-97613275D01*
X136740000Y-97790000D01*
X136721425Y-97966725D01*
X136666514Y-98135726D01*
X136577664Y-98289617D01*
X136458761Y-98421673D01*
X136315000Y-98526122D01*
X136152664Y-98598398D01*
X135978849Y-98635344D01*
X135801151Y-98635344D01*
X135627336Y-98598398D01*
X135465000Y-98526122D01*
X135321239Y-98421673D01*
X135202336Y-98289617D01*
X135113486Y-98135726D01*
X135058575Y-97966725D01*
X135040000Y-97790000D01*
X135058575Y-97613275D01*
X135113486Y-97444274D01*
X135202336Y-97290383D01*
X135321239Y-97158327D01*
X135465000Y-97053878D01*
X135627336Y-96981602D01*
X135801151Y-96944656D01*
X135978849Y-96944656D01*
X136152664Y-96981602D01*
G37*
G36*
X138692664Y-96981602D02*
G01*
X138855000Y-97053878D01*
X138998761Y-97158327D01*
X139117664Y-97290383D01*
X139206514Y-97444274D01*
X139261425Y-97613275D01*
X139280000Y-97790000D01*
X139261425Y-97966725D01*
X139206514Y-98135726D01*
X139117664Y-98289617D01*
X138998761Y-98421673D01*
X138855000Y-98526122D01*
X138692664Y-98598398D01*
X138518849Y-98635344D01*
X138341151Y-98635344D01*
X138167336Y-98598398D01*
X138005000Y-98526122D01*
X137861239Y-98421673D01*
X137742336Y-98289617D01*
X137653486Y-98135726D01*
X137598575Y-97966725D01*
X137580000Y-97790000D01*
X137598575Y-97613275D01*
X137653486Y-97444274D01*
X137742336Y-97290383D01*
X137861239Y-97158327D01*
X138005000Y-97053878D01*
X138167336Y-96981602D01*
X138341151Y-96944656D01*
X138518849Y-96944656D01*
X138692664Y-96981602D01*
G37*
G36*
X141232664Y-96981602D02*
G01*
X141395000Y-97053878D01*
X141538761Y-97158327D01*
X141657664Y-97290383D01*
X141746514Y-97444274D01*
X141801425Y-97613275D01*
X141820000Y-97790000D01*
X141801425Y-97966725D01*
X141746514Y-98135726D01*
X141657664Y-98289617D01*
X141538761Y-98421673D01*
X141395000Y-98526122D01*
X141232664Y-98598398D01*
X141058849Y-98635344D01*
X140881151Y-98635344D01*
X140707336Y-98598398D01*
X140545000Y-98526122D01*
X140401239Y-98421673D01*
X140282336Y-98289617D01*
X140193486Y-98135726D01*
X140138575Y-97966725D01*
X140120000Y-97790000D01*
X140138575Y-97613275D01*
X140193486Y-97444274D01*
X140282336Y-97290383D01*
X140401239Y-97158327D01*
X140545000Y-97053878D01*
X140707336Y-96981602D01*
X140881151Y-96944656D01*
X141058849Y-96944656D01*
X141232664Y-96981602D01*
G37*
G36*
X143772664Y-96981602D02*
G01*
X143935000Y-97053878D01*
X144078761Y-97158327D01*
X144197664Y-97290383D01*
X144286514Y-97444274D01*
X144341425Y-97613275D01*
X144360000Y-97790000D01*
X144341425Y-97966725D01*
X144286514Y-98135726D01*
X144197664Y-98289617D01*
X144078761Y-98421673D01*
X143935000Y-98526122D01*
X143772664Y-98598398D01*
X143598849Y-98635344D01*
X143421151Y-98635344D01*
X143247336Y-98598398D01*
X143085000Y-98526122D01*
X142941239Y-98421673D01*
X142822336Y-98289617D01*
X142733486Y-98135726D01*
X142678575Y-97966725D01*
X142660000Y-97790000D01*
X142678575Y-97613275D01*
X142733486Y-97444274D01*
X142822336Y-97290383D01*
X142941239Y-97158327D01*
X143085000Y-97053878D01*
X143247336Y-96981602D01*
X143421151Y-96944656D01*
X143598849Y-96944656D01*
X143772664Y-96981602D01*
G37*
G36*
X146312664Y-96981602D02*
G01*
X146475000Y-97053878D01*
X146618761Y-97158327D01*
X146737664Y-97290383D01*
X146826514Y-97444274D01*
X146881425Y-97613275D01*
X146900000Y-97790000D01*
X146881425Y-97966725D01*
X146826514Y-98135726D01*
X146737664Y-98289617D01*
X146618761Y-98421673D01*
X146475000Y-98526122D01*
X146312664Y-98598398D01*
X146138849Y-98635344D01*
X145961151Y-98635344D01*
X145787336Y-98598398D01*
X145625000Y-98526122D01*
X145481239Y-98421673D01*
X145362336Y-98289617D01*
X145273486Y-98135726D01*
X145218575Y-97966725D01*
X145200000Y-97790000D01*
X145218575Y-97613275D01*
X145273486Y-97444274D01*
X145362336Y-97290383D01*
X145481239Y-97158327D01*
X145625000Y-97053878D01*
X145787336Y-96981602D01*
X145961151Y-96944656D01*
X146138849Y-96944656D01*
X146312664Y-96981602D01*
G37*
G36*
X148852664Y-96981602D02*
G01*
X149015000Y-97053878D01*
X149158761Y-97158327D01*
X149277664Y-97290383D01*
X149366514Y-97444274D01*
X149421425Y-97613275D01*
X149440000Y-97790000D01*
X149421425Y-97966725D01*
X149366514Y-98135726D01*
X149277664Y-98289617D01*
X149158761Y-98421673D01*
X149015000Y-98526122D01*
X148852664Y-98598398D01*
X148678849Y-98635344D01*
X148501151Y-98635344D01*
X148327336Y-98598398D01*
X148165000Y-98526122D01*
X148021239Y-98421673D01*
X147902336Y-98289617D01*
X147813486Y-98135726D01*
X147758575Y-97966725D01*
X147740000Y-97790000D01*
X147758575Y-97613275D01*
X147813486Y-97444274D01*
X147902336Y-97290383D01*
X148021239Y-97158327D01*
X148165000Y-97053878D01*
X148327336Y-96981602D01*
X148501151Y-96944656D01*
X148678849Y-96944656D01*
X148852664Y-96981602D01*
G37*
G36*
X151392664Y-96981602D02*
G01*
X151555000Y-97053878D01*
X151698761Y-97158327D01*
X151817664Y-97290383D01*
X151906514Y-97444274D01*
X151961425Y-97613275D01*
X151980000Y-97790000D01*
X151961425Y-97966725D01*
X151906514Y-98135726D01*
X151817664Y-98289617D01*
X151698761Y-98421673D01*
X151555000Y-98526122D01*
X151392664Y-98598398D01*
X151218849Y-98635344D01*
X151041151Y-98635344D01*
X150867336Y-98598398D01*
X150705000Y-98526122D01*
X150561239Y-98421673D01*
X150442336Y-98289617D01*
X150353486Y-98135726D01*
X150298575Y-97966725D01*
X150280000Y-97790000D01*
X150298575Y-97613275D01*
X150353486Y-97444274D01*
X150442336Y-97290383D01*
X150561239Y-97158327D01*
X150705000Y-97053878D01*
X150867336Y-96981602D01*
X151041151Y-96944656D01*
X151218849Y-96944656D01*
X151392664Y-96981602D01*
G37*
G36*
X153932664Y-96981602D02*
G01*
X154095000Y-97053878D01*
X154238761Y-97158327D01*
X154357664Y-97290383D01*
X154446514Y-97444274D01*
X154501425Y-97613275D01*
X154520000Y-97790000D01*
X154501425Y-97966725D01*
X154446514Y-98135726D01*
X154357664Y-98289617D01*
X154238761Y-98421673D01*
X154095000Y-98526122D01*
X153932664Y-98598398D01*
X153758849Y-98635344D01*
X153581151Y-98635344D01*
X153407336Y-98598398D01*
X153245000Y-98526122D01*
X153101239Y-98421673D01*
X152982336Y-98289617D01*
X152893486Y-98135726D01*
X152838575Y-97966725D01*
X152820000Y-97790000D01*
X152838575Y-97613275D01*
X152893486Y-97444274D01*
X152982336Y-97290383D01*
X153101239Y-97158327D01*
X153245000Y-97053878D01*
X153407336Y-96981602D01*
X153581151Y-96944656D01*
X153758849Y-96944656D01*
X153932664Y-96981602D01*
G37*
G36*
X156472664Y-96981602D02*
G01*
X156635000Y-97053878D01*
X156778761Y-97158327D01*
X156897664Y-97290383D01*
X156986514Y-97444274D01*
X157041425Y-97613275D01*
X157060000Y-97790000D01*
X157041425Y-97966725D01*
X156986514Y-98135726D01*
X156897664Y-98289617D01*
X156778761Y-98421673D01*
X156635000Y-98526122D01*
X156472664Y-98598398D01*
X156298849Y-98635344D01*
X156121151Y-98635344D01*
X155947336Y-98598398D01*
X155785000Y-98526122D01*
X155641239Y-98421673D01*
X155522336Y-98289617D01*
X155433486Y-98135726D01*
X155378575Y-97966725D01*
X155360000Y-97790000D01*
X155378575Y-97613275D01*
X155433486Y-97444274D01*
X155522336Y-97290383D01*
X155641239Y-97158327D01*
X155785000Y-97053878D01*
X155947336Y-96981602D01*
X156121151Y-96944656D01*
X156298849Y-96944656D01*
X156472664Y-96981602D01*
G37*
G36*
X159012664Y-96981602D02*
G01*
X159175000Y-97053878D01*
X159318761Y-97158327D01*
X159437664Y-97290383D01*
X159526514Y-97444274D01*
X159581425Y-97613275D01*
X159600000Y-97790000D01*
X159581425Y-97966725D01*
X159526514Y-98135726D01*
X159437664Y-98289617D01*
X159318761Y-98421673D01*
X159175000Y-98526122D01*
X159012664Y-98598398D01*
X158838849Y-98635344D01*
X158661151Y-98635344D01*
X158487336Y-98598398D01*
X158325000Y-98526122D01*
X158181239Y-98421673D01*
X158062336Y-98289617D01*
X157973486Y-98135726D01*
X157918575Y-97966725D01*
X157900000Y-97790000D01*
X157918575Y-97613275D01*
X157973486Y-97444274D01*
X158062336Y-97290383D01*
X158181239Y-97158327D01*
X158325000Y-97053878D01*
X158487336Y-96981602D01*
X158661151Y-96944656D01*
X158838849Y-96944656D01*
X159012664Y-96981602D01*
G37*
M02*
