%TF.GenerationSoftware,KiCad,Pcbnew,7.0.8*%
%TF.CreationDate,2024-01-05T08:02:46-05:00*%
%TF.ProjectId,weather-featherwing,77656174-6865-4722-9d66-656174686572,02*%
%TF.SameCoordinates,Original*%
%TF.FileFunction,Copper,L2,Bot*%
%TF.FilePolarity,Positive*%
%FSLAX46Y46*%
G04 Gerber Fmt 4.6, Leading zero omitted, Abs format (unit mm)*
G04 Created by KiCad (PCBNEW 7.0.8) date 2024-01-05 08:02:46*
%MOMM*%
%LPD*%
G01*
G04 APERTURE LIST*
G04 Aperture macros list*
%AMFreePoly0*
4,1,6,1.000000,0.000000,0.500000,-0.750000,-0.500000,-0.750000,-0.500000,0.750000,0.500000,0.750000,1.000000,0.000000,1.000000,0.000000,$1*%
%AMFreePoly1*
4,1,6,0.500000,-0.750000,-0.650000,-0.750000,-0.150000,0.000000,-0.650000,0.750000,0.500000,0.750000,0.500000,-0.750000,0.500000,-0.750000,$1*%
G04 Aperture macros list end*
%TA.AperFunction,ComponentPad*%
%ADD10C,1.600000*%
%TD*%
%TA.AperFunction,ComponentPad*%
%ADD11C,3.140000*%
%TD*%
%TA.AperFunction,ComponentPad*%
%ADD12C,1.500000*%
%TD*%
%TA.AperFunction,ComponentPad*%
%ADD13C,1.700000*%
%TD*%
%TA.AperFunction,SMDPad,CuDef*%
%ADD14FreePoly0,180.000000*%
%TD*%
%TA.AperFunction,SMDPad,CuDef*%
%ADD15FreePoly1,180.000000*%
%TD*%
%TA.AperFunction,ViaPad*%
%ADD16C,1.000000*%
%TD*%
%TA.AperFunction,ViaPad*%
%ADD17C,0.750000*%
%TD*%
%TA.AperFunction,Conductor*%
%ADD18C,0.500000*%
%TD*%
%TA.AperFunction,Conductor*%
%ADD19C,0.200000*%
%TD*%
%TA.AperFunction,Conductor*%
%ADD20C,0.250000*%
%TD*%
G04 APERTURE END LIST*
D10*
%TO.P,BT1,1,+*%
%TO.N,/VBAT*%
X133985000Y-100962000D03*
%TO.P,BT1,2,-*%
%TO.N,GND*%
X133985000Y-108712000D03*
%TD*%
D11*
%TO.P,H1,*%
%TO.N,*%
X116840000Y-99060000D03*
%TD*%
D12*
%TO.P,SW1,*%
%TO.N,*%
X127890000Y-98552000D03*
X121060000Y-98552000D03*
%TD*%
D11*
%TO.P,H2,*%
%TO.N,*%
X116840000Y-116840000D03*
%TD*%
D13*
%TO.P,J2,17,Pin_17*%
%TO.N,/SDA*%
X158750000Y-97790000D03*
%TO.P,J2,18,Pin_18*%
%TO.N,/SCL*%
X156210000Y-97790000D03*
%TO.P,J2,19,Pin_19*%
%TO.N,/CS_SD*%
X153670000Y-97790000D03*
%TO.P,J2,20,Pin_20*%
%TO.N,/CD*%
X151130000Y-97790000D03*
%TO.P,J2,21,Pin_21*%
%TO.N,/LPS_INT*%
X148590000Y-97790000D03*
%TO.P,J2,22,Pin_22*%
%TO.N,/NP_DIN*%
X146050000Y-97790000D03*
%TO.P,J2,23,3*%
%TO.N,/D11*%
X143510000Y-97790000D03*
%TO.P,J2,24,Pin_24*%
%TO.N,/D12*%
X140970000Y-97790000D03*
%TO.P,J2,25,Pin_25*%
%TO.N,/EEPROM_SCIO*%
X138430000Y-97790000D03*
%TO.P,J2,26,Pin_26*%
%TO.N,/USB*%
X135890000Y-97790000D03*
%TO.P,J2,27,Pin_27*%
%TO.N,/EN*%
X133350000Y-97790000D03*
%TO.P,J2,28,Pin_28*%
%TO.N,/BAT*%
X130810000Y-97790000D03*
%TD*%
D14*
%TO.P,JP1,1,A*%
%TO.N,GND*%
X122518000Y-114300000D03*
D15*
%TO.P,JP1,2,B*%
%TO.N,Net-(JP1-B)*%
X121068000Y-114300000D03*
%TD*%
D13*
%TO.P,J1,1,Pin_1*%
%TO.N,/RST*%
X120650000Y-118110000D03*
%TO.P,J1,2,Pin_2*%
%TO.N,+3V3*%
X123190000Y-118110000D03*
%TO.P,J1,3,Pin_3*%
X125730000Y-118110000D03*
%TO.P,J1,4,Pin_4*%
%TO.N,GND*%
X128270000Y-118110000D03*
%TO.P,J1,5,Pin_5*%
%TO.N,/VIN*%
X130810000Y-118110000D03*
%TO.P,J1,6,Pin_6*%
%TO.N,/A1*%
X133350000Y-118110000D03*
%TO.P,J1,7,Pin_7*%
%TO.N,/A2*%
X135890000Y-118110000D03*
%TO.P,J1,8,Pin_8*%
%TO.N,/A3*%
X138430000Y-118110000D03*
%TO.P,J1,9,Pin_9*%
%TO.N,/A4*%
X140970000Y-118110000D03*
%TO.P,J1,10,Pin_10*%
%TO.N,/A5*%
X143510000Y-118110000D03*
%TO.P,J1,11,Pin_11*%
%TO.N,/SCK*%
X146050000Y-118110000D03*
%TO.P,J1,12,Pin_12*%
%TO.N,/MOSI*%
X148590000Y-118110000D03*
%TO.P,J1,13,Pin_13*%
%TO.N,/MISO*%
X151130000Y-118110000D03*
%TO.P,J1,14,Pin_14*%
%TO.N,/RX*%
X153670000Y-118110000D03*
%TO.P,J1,15,Pin_15*%
%TO.N,/TX*%
X156210000Y-118110000D03*
%TO.P,J1,16,Pin_16*%
%TO.N,/DBG*%
X158750000Y-118110000D03*
%TD*%
D16*
%TO.N,+3V3*%
X126898400Y-115468400D03*
D17*
X152730200Y-107670600D03*
X149987000Y-103505000D03*
X152730200Y-106248200D03*
X149987000Y-99655500D03*
D16*
X130175000Y-115443000D03*
D17*
X118428900Y-109650997D03*
X116560600Y-109651800D03*
%TO.N,GND*%
X139319000Y-108712000D03*
X157480000Y-117195600D03*
X124587000Y-104902000D03*
X115850000Y-112200000D03*
X159893000Y-113030000D03*
X152374600Y-113258600D03*
X121081715Y-110435648D03*
X152374600Y-117195600D03*
X117856000Y-101346000D03*
X124409200Y-107340400D03*
X151968200Y-110312200D03*
X157607000Y-111379000D03*
X138963400Y-101015800D03*
D16*
X122174000Y-103759000D03*
D17*
X159258000Y-101473000D03*
X119507000Y-101346000D03*
X128397000Y-101854000D03*
X157607000Y-109347000D03*
X145796000Y-115443000D03*
X115850000Y-109000000D03*
X133985000Y-114046000D03*
X120650000Y-102362000D03*
X123698000Y-115417600D03*
X157607000Y-100203000D03*
X122555000Y-116586000D03*
X119735600Y-108229400D03*
X144526000Y-114808000D03*
%TO.N,/SCK*%
X146558000Y-109169200D03*
X149936200Y-109220000D03*
%TO.N,/MOSI*%
X146558000Y-107950000D03*
X149987000Y-107950000D03*
X150749000Y-110236000D03*
%TO.N,/MISO*%
X146304000Y-116586000D03*
%TO.N,/CS_SD*%
X153670000Y-103251000D03*
%TO.N,/DAT1*%
X151053800Y-113080800D03*
X146329400Y-113080800D03*
%TO.N,/CD*%
X145669000Y-109982000D03*
X145669000Y-107275500D03*
X146735800Y-103504500D03*
%TO.N,/SDA*%
X130098800Y-112674400D03*
X120705959Y-112954442D03*
X144907000Y-101854000D03*
X124409200Y-113207800D03*
X140741400Y-102539800D03*
X127330200Y-112674400D03*
%TO.N,/SCL*%
X129424300Y-111709200D03*
X127342700Y-111709200D03*
X117125056Y-105505944D03*
X145973800Y-100330000D03*
X119165500Y-107315000D03*
X139776650Y-102488550D03*
X119721614Y-112813500D03*
X124383547Y-112258644D03*
%TO.N,Net-(JP1-B)*%
X121658000Y-115697000D03*
%TO.N,/LPS_INT*%
X136144000Y-101473000D03*
X128436500Y-107772200D03*
X125281133Y-107772200D03*
%TO.N,/EEPROM_SCIO*%
X127326913Y-113750000D03*
X128854200Y-113348900D03*
%TD*%
D18*
%TO.N,+3V3*%
X130149600Y-115468400D02*
X126898400Y-115468400D01*
X130175000Y-115443000D02*
X130149600Y-115468400D01*
D19*
X152730200Y-106248200D02*
X152730200Y-107670600D01*
X149987000Y-99655500D02*
X149987000Y-103505000D01*
X118428900Y-109650997D02*
X118428097Y-109651800D01*
X118428097Y-109651800D02*
X116560600Y-109651800D01*
%TO.N,/SCK*%
X146583400Y-109194600D02*
X146558000Y-109169200D01*
X149910800Y-109194600D02*
X146583400Y-109194600D01*
X149936200Y-109220000D02*
X149910800Y-109194600D01*
%TO.N,/MOSI*%
X150749000Y-108712000D02*
X149987000Y-107950000D01*
X146558000Y-107950000D02*
X149987000Y-107950000D01*
X150749000Y-110236000D02*
X150749000Y-108712000D01*
%TO.N,/MISO*%
X146304000Y-116586000D02*
X149606000Y-116586000D01*
X149606000Y-116586000D02*
X151130000Y-118110000D01*
%TO.N,/CS_SD*%
X153670000Y-97790000D02*
X153670000Y-103251000D01*
D20*
%TO.N,/DAT1*%
X151053800Y-113080800D02*
X146329400Y-113080800D01*
D19*
%TO.N,/CD*%
X146735800Y-103504500D02*
X146735800Y-101701600D01*
X146735800Y-101701600D02*
X150647400Y-97790000D01*
X150647400Y-97790000D02*
X151130000Y-97790000D01*
X145669000Y-107275500D02*
X145669000Y-109982000D01*
%TO.N,/SDA*%
X140741400Y-102539800D02*
X141427200Y-101854000D01*
X130098800Y-112674400D02*
X127330200Y-112674400D01*
X124155342Y-112953942D02*
X124409200Y-113207800D01*
X120706459Y-112953942D02*
X124155342Y-112953942D01*
X141427200Y-101854000D02*
X144907000Y-101854000D01*
X120705959Y-112954442D02*
X120706459Y-112953942D01*
%TO.N,/SCL*%
X119165500Y-107315000D02*
X117356444Y-105505944D01*
X139787567Y-102488550D02*
X139776650Y-102488550D01*
X119721614Y-112813500D02*
X120276470Y-112258644D01*
X145973800Y-100330000D02*
X141946117Y-100330000D01*
X120276470Y-112258644D02*
X124383547Y-112258644D01*
X129424300Y-111709200D02*
X127342700Y-111709200D01*
X141946117Y-100330000D02*
X139787567Y-102488550D01*
X117356444Y-105505944D02*
X117125056Y-105505944D01*
%TO.N,Net-(JP1-B)*%
X121658000Y-115697000D02*
X121658000Y-115114264D01*
X121658000Y-115114264D02*
X121068000Y-114524264D01*
X121068000Y-114524264D02*
X121068000Y-114300000D01*
%TO.N,/LPS_INT*%
X125281133Y-107772200D02*
X128436500Y-107772200D01*
X147066000Y-99314000D02*
X138303000Y-99314000D01*
X138303000Y-99314000D02*
X136144000Y-101473000D01*
X148590000Y-97790000D02*
X147066000Y-99314000D01*
%TO.N,/EEPROM_SCIO*%
X128853100Y-113350000D02*
X128854200Y-113348900D01*
X127726913Y-113350000D02*
X128853100Y-113350000D01*
X127326913Y-113750000D02*
X127726913Y-113350000D01*
%TD*%
%TA.AperFunction,Conductor*%
%TO.N,GND*%
G36*
X129919934Y-96921185D02*
G01*
X129965689Y-96973989D01*
X129975633Y-97043147D01*
X129951849Y-97100225D01*
X129918448Y-97144455D01*
X129870327Y-97208178D01*
X129779422Y-97390739D01*
X129779417Y-97390752D01*
X129723602Y-97586917D01*
X129704785Y-97789999D01*
X129704785Y-97790000D01*
X129723602Y-97993082D01*
X129779417Y-98189247D01*
X129779422Y-98189260D01*
X129870327Y-98371821D01*
X129993237Y-98534581D01*
X130143958Y-98671980D01*
X130143960Y-98671982D01*
X130143962Y-98671983D01*
X130317363Y-98779348D01*
X130507544Y-98853024D01*
X130708024Y-98890500D01*
X130708026Y-98890500D01*
X130911974Y-98890500D01*
X130911976Y-98890500D01*
X131112456Y-98853024D01*
X131302637Y-98779348D01*
X131476041Y-98671981D01*
X131626764Y-98534579D01*
X131749673Y-98371821D01*
X131840582Y-98189250D01*
X131896397Y-97993083D01*
X131915215Y-97790000D01*
X131896397Y-97586917D01*
X131840582Y-97390750D01*
X131828630Y-97366748D01*
X131786257Y-97281651D01*
X131749673Y-97208179D01*
X131668150Y-97100225D01*
X131643459Y-97034866D01*
X131658024Y-96966531D01*
X131707221Y-96916919D01*
X131767105Y-96901500D01*
X132392895Y-96901500D01*
X132459934Y-96921185D01*
X132505689Y-96973989D01*
X132515633Y-97043147D01*
X132491849Y-97100225D01*
X132458448Y-97144455D01*
X132410327Y-97208178D01*
X132319422Y-97390739D01*
X132319417Y-97390752D01*
X132263602Y-97586917D01*
X132244785Y-97789999D01*
X132244785Y-97790000D01*
X132263602Y-97993082D01*
X132319417Y-98189247D01*
X132319422Y-98189260D01*
X132410327Y-98371821D01*
X132533237Y-98534581D01*
X132683958Y-98671980D01*
X132683960Y-98671982D01*
X132683962Y-98671983D01*
X132857363Y-98779348D01*
X133047544Y-98853024D01*
X133248024Y-98890500D01*
X133248026Y-98890500D01*
X133451974Y-98890500D01*
X133451976Y-98890500D01*
X133652456Y-98853024D01*
X133842637Y-98779348D01*
X134016041Y-98671981D01*
X134166764Y-98534579D01*
X134289673Y-98371821D01*
X134380582Y-98189250D01*
X134436397Y-97993083D01*
X134455215Y-97790000D01*
X134436397Y-97586917D01*
X134380582Y-97390750D01*
X134368630Y-97366748D01*
X134326257Y-97281651D01*
X134289673Y-97208179D01*
X134208150Y-97100225D01*
X134183459Y-97034866D01*
X134198024Y-96966531D01*
X134247221Y-96916919D01*
X134307105Y-96901500D01*
X134932895Y-96901500D01*
X134999934Y-96921185D01*
X135045689Y-96973989D01*
X135055633Y-97043147D01*
X135031849Y-97100225D01*
X134998448Y-97144455D01*
X134950327Y-97208178D01*
X134859422Y-97390739D01*
X134859417Y-97390752D01*
X134803602Y-97586917D01*
X134784785Y-97789999D01*
X134784785Y-97790000D01*
X134803602Y-97993082D01*
X134859417Y-98189247D01*
X134859422Y-98189260D01*
X134950327Y-98371821D01*
X135073237Y-98534581D01*
X135223958Y-98671980D01*
X135223960Y-98671982D01*
X135223962Y-98671983D01*
X135397363Y-98779348D01*
X135587544Y-98853024D01*
X135788024Y-98890500D01*
X135788026Y-98890500D01*
X135991974Y-98890500D01*
X135991976Y-98890500D01*
X136192456Y-98853024D01*
X136382637Y-98779348D01*
X136556041Y-98671981D01*
X136706764Y-98534579D01*
X136829673Y-98371821D01*
X136920582Y-98189250D01*
X136976397Y-97993083D01*
X136995215Y-97790000D01*
X136976397Y-97586917D01*
X136920582Y-97390750D01*
X136908630Y-97366748D01*
X136866257Y-97281651D01*
X136829673Y-97208179D01*
X136748150Y-97100225D01*
X136723459Y-97034866D01*
X136738024Y-96966531D01*
X136787221Y-96916919D01*
X136847105Y-96901500D01*
X137472895Y-96901500D01*
X137539934Y-96921185D01*
X137585689Y-96973989D01*
X137595633Y-97043147D01*
X137571849Y-97100225D01*
X137538448Y-97144455D01*
X137490327Y-97208178D01*
X137399422Y-97390739D01*
X137399417Y-97390752D01*
X137343602Y-97586917D01*
X137324785Y-97789999D01*
X137324785Y-97790000D01*
X137343602Y-97993082D01*
X137399417Y-98189247D01*
X137399422Y-98189260D01*
X137490327Y-98371821D01*
X137613237Y-98534581D01*
X137763958Y-98671980D01*
X137763960Y-98671982D01*
X137763962Y-98671983D01*
X137937363Y-98779348D01*
X138049780Y-98822898D01*
X138105181Y-98865471D01*
X138128772Y-98931238D01*
X138113061Y-98999318D01*
X138090788Y-99025186D01*
X138091699Y-99026025D01*
X138050042Y-99071275D01*
X136310136Y-100811181D01*
X136248813Y-100844666D01*
X136222455Y-100847500D01*
X136068050Y-100847500D01*
X135920567Y-100883851D01*
X135786067Y-100954442D01*
X135763268Y-100974640D01*
X135673766Y-101053932D01*
X135672367Y-101055171D01*
X135586080Y-101180179D01*
X135586079Y-101180180D01*
X135532215Y-101322208D01*
X135528459Y-101353141D01*
X135513906Y-101473000D01*
X135532215Y-101623791D01*
X135586079Y-101765819D01*
X135672368Y-101890830D01*
X135786066Y-101991557D01*
X135920566Y-102062148D01*
X135955344Y-102070720D01*
X136068050Y-102098500D01*
X136068051Y-102098500D01*
X136219950Y-102098500D01*
X136269110Y-102086382D01*
X136367434Y-102062148D01*
X136501934Y-101991557D01*
X136615632Y-101890830D01*
X136701921Y-101765819D01*
X136755785Y-101623791D01*
X136774094Y-101473000D01*
X136766817Y-101413074D01*
X136778277Y-101344153D01*
X136802229Y-101310451D01*
X138411863Y-99700819D01*
X138473186Y-99667334D01*
X138499544Y-99664500D01*
X145454769Y-99664500D01*
X145521808Y-99684185D01*
X145567563Y-99736989D01*
X145577507Y-99806147D01*
X145548482Y-99869703D01*
X145537001Y-99881310D01*
X145508662Y-99906417D01*
X145502166Y-99912172D01*
X145492662Y-99925941D01*
X145438379Y-99969931D01*
X145390613Y-99979500D01*
X141995328Y-99979500D01*
X141969882Y-99976861D01*
X141960802Y-99974957D01*
X141960801Y-99974957D01*
X141960799Y-99974957D01*
X141928178Y-99979023D01*
X141920502Y-99979500D01*
X141917077Y-99979500D01*
X141895574Y-99983087D01*
X141844725Y-99989426D01*
X141837683Y-99991522D01*
X141830737Y-99993907D01*
X141785667Y-100018297D01*
X141739630Y-100040803D01*
X141733655Y-100045069D01*
X141727863Y-100049577D01*
X141693148Y-100087287D01*
X139953061Y-101827372D01*
X139891738Y-101860857D01*
X139860099Y-101862336D01*
X139860099Y-101863050D01*
X139700700Y-101863050D01*
X139553217Y-101899401D01*
X139418717Y-101969992D01*
X139305017Y-102070721D01*
X139218730Y-102195729D01*
X139218729Y-102195730D01*
X139189869Y-102271830D01*
X139164865Y-102337759D01*
X139146556Y-102488550D01*
X139164865Y-102639341D01*
X139218729Y-102781369D01*
X139305018Y-102906380D01*
X139418716Y-103007107D01*
X139553216Y-103077698D01*
X139626958Y-103095874D01*
X139700700Y-103114050D01*
X139700701Y-103114050D01*
X139852600Y-103114050D01*
X139925035Y-103096196D01*
X140000084Y-103077698D01*
X140134584Y-103007107D01*
X140147872Y-102995335D01*
X140211104Y-102965613D01*
X140280368Y-102974795D01*
X140312327Y-102995334D01*
X140383464Y-103058356D01*
X140383466Y-103058357D01*
X140517966Y-103128948D01*
X140591708Y-103147124D01*
X140665450Y-103165300D01*
X140665451Y-103165300D01*
X140817350Y-103165300D01*
X140866510Y-103153182D01*
X140964834Y-103128948D01*
X141099334Y-103058357D01*
X141213032Y-102957630D01*
X141299321Y-102832619D01*
X141353185Y-102690591D01*
X141371494Y-102539800D01*
X141364217Y-102479874D01*
X141375677Y-102410953D01*
X141399626Y-102377254D01*
X141536064Y-102240817D01*
X141597387Y-102207334D01*
X141623744Y-102204500D01*
X144323813Y-102204500D01*
X144390852Y-102224185D01*
X144425862Y-102258059D01*
X144435366Y-102271828D01*
X144435367Y-102271829D01*
X144435368Y-102271830D01*
X144549066Y-102372557D01*
X144683566Y-102443148D01*
X144757308Y-102461324D01*
X144831050Y-102479500D01*
X144831051Y-102479500D01*
X144982950Y-102479500D01*
X145032110Y-102467382D01*
X145130434Y-102443148D01*
X145264934Y-102372557D01*
X145378632Y-102271830D01*
X145464921Y-102146819D01*
X145518785Y-102004791D01*
X145537094Y-101854000D01*
X145518785Y-101703209D01*
X145464921Y-101561181D01*
X145378632Y-101436170D01*
X145264934Y-101335443D01*
X145130434Y-101264852D01*
X145130433Y-101264851D01*
X145130432Y-101264851D01*
X144982950Y-101228500D01*
X144982949Y-101228500D01*
X144831051Y-101228500D01*
X144831050Y-101228500D01*
X144683567Y-101264851D01*
X144549067Y-101335442D01*
X144435366Y-101436171D01*
X144425862Y-101449941D01*
X144371579Y-101493931D01*
X144323813Y-101503500D01*
X141567661Y-101503500D01*
X141500622Y-101483815D01*
X141454867Y-101431011D01*
X141444923Y-101361853D01*
X141473948Y-101298297D01*
X141479980Y-101291819D01*
X142054980Y-100716819D01*
X142116303Y-100683334D01*
X142142661Y-100680500D01*
X145390613Y-100680500D01*
X145457652Y-100700185D01*
X145492662Y-100734059D01*
X145502166Y-100747828D01*
X145502167Y-100747829D01*
X145502168Y-100747830D01*
X145615866Y-100848557D01*
X145750366Y-100919148D01*
X145824108Y-100937324D01*
X145897850Y-100955500D01*
X145897851Y-100955500D01*
X146049750Y-100955500D01*
X146098910Y-100943382D01*
X146197234Y-100919148D01*
X146331734Y-100848557D01*
X146445432Y-100747830D01*
X146531721Y-100622819D01*
X146585585Y-100480791D01*
X146603894Y-100330000D01*
X146585585Y-100179209D01*
X146531721Y-100037181D01*
X146445432Y-99912170D01*
X146410602Y-99881314D01*
X146373478Y-99822127D01*
X146374245Y-99752261D01*
X146412662Y-99693901D01*
X146476532Y-99665576D01*
X146492831Y-99664500D01*
X147016789Y-99664500D01*
X147042234Y-99667138D01*
X147051315Y-99669043D01*
X147067005Y-99667087D01*
X147083939Y-99664977D01*
X147091615Y-99664500D01*
X147095035Y-99664500D01*
X147095040Y-99664500D01*
X147098608Y-99663904D01*
X147116539Y-99660913D01*
X147143958Y-99657494D01*
X147167393Y-99654573D01*
X147167402Y-99654568D01*
X147174451Y-99652470D01*
X147181377Y-99650092D01*
X147181381Y-99650092D01*
X147226444Y-99625704D01*
X147272484Y-99603198D01*
X147272487Y-99603194D01*
X147278453Y-99598935D01*
X147284254Y-99594419D01*
X147284258Y-99594418D01*
X147318957Y-99556724D01*
X148039489Y-98836191D01*
X148100810Y-98802708D01*
X148170501Y-98807692D01*
X148171962Y-98808248D01*
X148270182Y-98846298D01*
X148287544Y-98853024D01*
X148488024Y-98890500D01*
X148488026Y-98890500D01*
X148691975Y-98890500D01*
X148691976Y-98890500D01*
X148740195Y-98881486D01*
X148809708Y-98888515D01*
X148864387Y-98932012D01*
X148886871Y-98998165D01*
X148870019Y-99065973D01*
X148850661Y-99091055D01*
X146522755Y-101418961D01*
X146502906Y-101435082D01*
X146495131Y-101440162D01*
X146474943Y-101466098D01*
X146469867Y-101471848D01*
X146467434Y-101474281D01*
X146467423Y-101474294D01*
X146454754Y-101492038D01*
X146423283Y-101532472D01*
X146419775Y-101538953D01*
X146416560Y-101545532D01*
X146401938Y-101594645D01*
X146385298Y-101643116D01*
X146384094Y-101650333D01*
X146383182Y-101657646D01*
X146385300Y-101708830D01*
X146385300Y-102923548D01*
X146365615Y-102990587D01*
X146343528Y-103016363D01*
X146264167Y-103086670D01*
X146177880Y-103211679D01*
X146177879Y-103211680D01*
X146177690Y-103212180D01*
X146124015Y-103353709D01*
X146105706Y-103504500D01*
X146124015Y-103655291D01*
X146177879Y-103797319D01*
X146264168Y-103922330D01*
X146377866Y-104023057D01*
X146512366Y-104093648D01*
X146586108Y-104111824D01*
X146659850Y-104130000D01*
X146659851Y-104130000D01*
X146811750Y-104130000D01*
X146860910Y-104117882D01*
X146959234Y-104093648D01*
X147093734Y-104023057D01*
X147207432Y-103922330D01*
X147293721Y-103797319D01*
X147347585Y-103655291D01*
X147365894Y-103504500D01*
X147347585Y-103353709D01*
X147293721Y-103211681D01*
X147207432Y-103086670D01*
X147175472Y-103058356D01*
X147128072Y-103016363D01*
X147090946Y-102957173D01*
X147086300Y-102923548D01*
X147086300Y-101898142D01*
X147105985Y-101831103D01*
X147122614Y-101810466D01*
X149171293Y-99761786D01*
X149232614Y-99728303D01*
X149302306Y-99733287D01*
X149358239Y-99775159D01*
X149374914Y-99805498D01*
X149415370Y-99912171D01*
X149429079Y-99948319D01*
X149515368Y-100073330D01*
X149594727Y-100143636D01*
X149631854Y-100202825D01*
X149636500Y-100236451D01*
X149636500Y-102924048D01*
X149616815Y-102991087D01*
X149594728Y-103016863D01*
X149515367Y-103087170D01*
X149429080Y-103212179D01*
X149429079Y-103212180D01*
X149375215Y-103354208D01*
X149368099Y-103412815D01*
X149356906Y-103505000D01*
X149375215Y-103655791D01*
X149429079Y-103797819D01*
X149515368Y-103922830D01*
X149629066Y-104023557D01*
X149763566Y-104094148D01*
X149837308Y-104112324D01*
X149911050Y-104130500D01*
X149911051Y-104130500D01*
X150062950Y-104130500D01*
X150112110Y-104118382D01*
X150210434Y-104094148D01*
X150344934Y-104023557D01*
X150458632Y-103922830D01*
X150544921Y-103797819D01*
X150598785Y-103655791D01*
X150617094Y-103505000D01*
X150598785Y-103354209D01*
X150544921Y-103212181D01*
X150458632Y-103087170D01*
X150385629Y-103022495D01*
X150379272Y-103016863D01*
X150342146Y-102957673D01*
X150337500Y-102924048D01*
X150337500Y-100236451D01*
X150357185Y-100169412D01*
X150379271Y-100143637D01*
X150458632Y-100073330D01*
X150544921Y-99948319D01*
X150598785Y-99806291D01*
X150617094Y-99655500D01*
X150598785Y-99504709D01*
X150544921Y-99362681D01*
X150458632Y-99237670D01*
X150344934Y-99136943D01*
X150210434Y-99066352D01*
X150210431Y-99066351D01*
X150210429Y-99066350D01*
X150148159Y-99051001D01*
X150087779Y-99015844D01*
X150055991Y-98953625D01*
X150062889Y-98884096D01*
X150090153Y-98842926D01*
X150274120Y-98658959D01*
X150335441Y-98625476D01*
X150405133Y-98630460D01*
X150445336Y-98655003D01*
X150463959Y-98671981D01*
X150637363Y-98779348D01*
X150827544Y-98853024D01*
X151028024Y-98890500D01*
X151028026Y-98890500D01*
X151231974Y-98890500D01*
X151231976Y-98890500D01*
X151432456Y-98853024D01*
X151622637Y-98779348D01*
X151796041Y-98671981D01*
X151946764Y-98534579D01*
X152069673Y-98371821D01*
X152160582Y-98189250D01*
X152216397Y-97993083D01*
X152235215Y-97790000D01*
X152216397Y-97586917D01*
X152160582Y-97390750D01*
X152148630Y-97366748D01*
X152106257Y-97281651D01*
X152069673Y-97208179D01*
X151988150Y-97100225D01*
X151963459Y-97034866D01*
X151978024Y-96966531D01*
X152027221Y-96916919D01*
X152087105Y-96901500D01*
X152712895Y-96901500D01*
X152779934Y-96921185D01*
X152825689Y-96973989D01*
X152835633Y-97043147D01*
X152811849Y-97100225D01*
X152778448Y-97144455D01*
X152730327Y-97208178D01*
X152639422Y-97390739D01*
X152639417Y-97390752D01*
X152583602Y-97586917D01*
X152564785Y-97789999D01*
X152564785Y-97790000D01*
X152583602Y-97993082D01*
X152639417Y-98189247D01*
X152639422Y-98189260D01*
X152730327Y-98371821D01*
X152853237Y-98534581D01*
X153003958Y-98671980D01*
X153003960Y-98671982D01*
X153003962Y-98671983D01*
X153177363Y-98779348D01*
X153177368Y-98779349D01*
X153177370Y-98779351D01*
X153207801Y-98791139D01*
X153240292Y-98803726D01*
X153295694Y-98846298D01*
X153319286Y-98912064D01*
X153319500Y-98919353D01*
X153319500Y-102670048D01*
X153299815Y-102737087D01*
X153277728Y-102762863D01*
X153198367Y-102833170D01*
X153112080Y-102958179D01*
X153112079Y-102958180D01*
X153058215Y-103100208D01*
X153044619Y-103212181D01*
X153039906Y-103251000D01*
X153058215Y-103401791D01*
X153112079Y-103543819D01*
X153198368Y-103668830D01*
X153312066Y-103769557D01*
X153446566Y-103840148D01*
X153520308Y-103858324D01*
X153594050Y-103876500D01*
X153594051Y-103876500D01*
X153745950Y-103876500D01*
X153795110Y-103864382D01*
X153893434Y-103840148D01*
X154027934Y-103769557D01*
X154141632Y-103668830D01*
X154227921Y-103543819D01*
X154281785Y-103401791D01*
X154300094Y-103251000D01*
X154281785Y-103100209D01*
X154227921Y-102958181D01*
X154141632Y-102833170D01*
X154141010Y-102832619D01*
X154062272Y-102762863D01*
X154025146Y-102703673D01*
X154020500Y-102670048D01*
X154020500Y-99060000D01*
X160903393Y-99060000D01*
X160923789Y-99319153D01*
X160984472Y-99571919D01*
X161083951Y-99812084D01*
X161219773Y-100033723D01*
X161219774Y-100033726D01*
X161266470Y-100088400D01*
X161388602Y-100231398D01*
X161541616Y-100362084D01*
X161586273Y-100400225D01*
X161586276Y-100400226D01*
X161807915Y-100536048D01*
X162020051Y-100623917D01*
X162048080Y-100635527D01*
X162300850Y-100696211D01*
X162471234Y-100709620D01*
X162495108Y-100711500D01*
X162495111Y-100711500D01*
X162624892Y-100711500D01*
X162647825Y-100709694D01*
X162819150Y-100696211D01*
X163071920Y-100635527D01*
X163312084Y-100536048D01*
X163533729Y-100400223D01*
X163731398Y-100231398D01*
X163900223Y-100033729D01*
X164036048Y-99812084D01*
X164135527Y-99571920D01*
X164196211Y-99319150D01*
X164216607Y-99060000D01*
X164196211Y-98800850D01*
X164135527Y-98548080D01*
X164124678Y-98521887D01*
X164036048Y-98307915D01*
X163900226Y-98086276D01*
X163900225Y-98086273D01*
X163862084Y-98041616D01*
X163731398Y-97888602D01*
X163600710Y-97776984D01*
X163533726Y-97719774D01*
X163533723Y-97719773D01*
X163312084Y-97583951D01*
X163071919Y-97484472D01*
X162887169Y-97440118D01*
X162819150Y-97423789D01*
X162670759Y-97412110D01*
X162624892Y-97408500D01*
X162624889Y-97408500D01*
X162495111Y-97408500D01*
X162495108Y-97408500D01*
X162445322Y-97412418D01*
X162300850Y-97423789D01*
X162300846Y-97423790D01*
X162048080Y-97484472D01*
X161807915Y-97583951D01*
X161586276Y-97719773D01*
X161586273Y-97719774D01*
X161388602Y-97888602D01*
X161219774Y-98086273D01*
X161219773Y-98086276D01*
X161083951Y-98307915D01*
X160984472Y-98548080D01*
X160923789Y-98800846D01*
X160903393Y-99060000D01*
X154020500Y-99060000D01*
X154020500Y-98919353D01*
X154040185Y-98852314D01*
X154092989Y-98806559D01*
X154099699Y-98803729D01*
X154162637Y-98779348D01*
X154336041Y-98671981D01*
X154486764Y-98534579D01*
X154609673Y-98371821D01*
X154700582Y-98189250D01*
X154756397Y-97993083D01*
X154775215Y-97790000D01*
X154756397Y-97586917D01*
X154700582Y-97390750D01*
X154688630Y-97366748D01*
X154646257Y-97281651D01*
X154609673Y-97208179D01*
X154528150Y-97100225D01*
X154503459Y-97034866D01*
X154518024Y-96966531D01*
X154567221Y-96916919D01*
X154627105Y-96901500D01*
X155252895Y-96901500D01*
X155319934Y-96921185D01*
X155365689Y-96973989D01*
X155375633Y-97043147D01*
X155351849Y-97100225D01*
X155318448Y-97144455D01*
X155270327Y-97208178D01*
X155179422Y-97390739D01*
X155179417Y-97390752D01*
X155123602Y-97586917D01*
X155104785Y-97789999D01*
X155104785Y-97790000D01*
X155123602Y-97993082D01*
X155179417Y-98189247D01*
X155179422Y-98189260D01*
X155270327Y-98371821D01*
X155393237Y-98534581D01*
X155543958Y-98671980D01*
X155543960Y-98671982D01*
X155543962Y-98671983D01*
X155717363Y-98779348D01*
X155907544Y-98853024D01*
X156108024Y-98890500D01*
X156108026Y-98890500D01*
X156311974Y-98890500D01*
X156311976Y-98890500D01*
X156512456Y-98853024D01*
X156702637Y-98779348D01*
X156876041Y-98671981D01*
X157026764Y-98534579D01*
X157149673Y-98371821D01*
X157240582Y-98189250D01*
X157296397Y-97993083D01*
X157315215Y-97790000D01*
X157296397Y-97586917D01*
X157240582Y-97390750D01*
X157228630Y-97366748D01*
X157186257Y-97281651D01*
X157149673Y-97208179D01*
X157068150Y-97100225D01*
X157043459Y-97034866D01*
X157058024Y-96966531D01*
X157107221Y-96916919D01*
X157167105Y-96901500D01*
X157792895Y-96901500D01*
X157859934Y-96921185D01*
X157905689Y-96973989D01*
X157915633Y-97043147D01*
X157891849Y-97100225D01*
X157858448Y-97144455D01*
X157810327Y-97208178D01*
X157719422Y-97390739D01*
X157719417Y-97390752D01*
X157663602Y-97586917D01*
X157644785Y-97789999D01*
X157644785Y-97790000D01*
X157663602Y-97993082D01*
X157719417Y-98189247D01*
X157719422Y-98189260D01*
X157810327Y-98371821D01*
X157933237Y-98534581D01*
X158083958Y-98671980D01*
X158083960Y-98671982D01*
X158083962Y-98671983D01*
X158257363Y-98779348D01*
X158447544Y-98853024D01*
X158648024Y-98890500D01*
X158648026Y-98890500D01*
X158851974Y-98890500D01*
X158851976Y-98890500D01*
X159052456Y-98853024D01*
X159242637Y-98779348D01*
X159416041Y-98671981D01*
X159566764Y-98534579D01*
X159689673Y-98371821D01*
X159780582Y-98189250D01*
X159836397Y-97993083D01*
X159855215Y-97790000D01*
X159836397Y-97586917D01*
X159780582Y-97390750D01*
X159768630Y-97366748D01*
X159726257Y-97281651D01*
X159689673Y-97208179D01*
X159608150Y-97100225D01*
X159583459Y-97034866D01*
X159598024Y-96966531D01*
X159647221Y-96916919D01*
X159707105Y-96901500D01*
X162505149Y-96901500D01*
X162558122Y-96901500D01*
X162561866Y-96901613D01*
X162622372Y-96905272D01*
X162816438Y-96917011D01*
X162823871Y-96917915D01*
X162872748Y-96926871D01*
X163072889Y-96963548D01*
X163080138Y-96965336D01*
X163321838Y-97040652D01*
X163328831Y-97043305D01*
X163455307Y-97100227D01*
X163559687Y-97147204D01*
X163566313Y-97150682D01*
X163634927Y-97192161D01*
X163782961Y-97281651D01*
X163789127Y-97285907D01*
X163988405Y-97442033D01*
X163993993Y-97446983D01*
X164173015Y-97626005D01*
X164177967Y-97631595D01*
X164247051Y-97719773D01*
X164334091Y-97830871D01*
X164338348Y-97837038D01*
X164469314Y-98053681D01*
X164472797Y-98060317D01*
X164576694Y-98291168D01*
X164579350Y-98298170D01*
X164597330Y-98355870D01*
X164654660Y-98539849D01*
X164656454Y-98547125D01*
X164702084Y-98796128D01*
X164702988Y-98803567D01*
X164718277Y-99056334D01*
X164718286Y-99063678D01*
X164704198Y-99306263D01*
X164703365Y-99313409D01*
X164661276Y-99552817D01*
X164659621Y-99559819D01*
X164590101Y-99792748D01*
X164587647Y-99799512D01*
X164491629Y-100022830D01*
X164488408Y-100029264D01*
X164367189Y-100239958D01*
X164363245Y-100245976D01*
X164218454Y-100441217D01*
X164213840Y-100446738D01*
X164047412Y-100623917D01*
X164042190Y-100628867D01*
X163856376Y-100785584D01*
X163850616Y-100789895D01*
X163646412Y-100925042D01*
X163643356Y-100926940D01*
X163593765Y-100955772D01*
X163593570Y-100955903D01*
X163507765Y-101005800D01*
X163507749Y-101005810D01*
X163252303Y-101194075D01*
X163018756Y-101408894D01*
X163018738Y-101408911D01*
X162809843Y-101647743D01*
X162809836Y-101647752D01*
X162628010Y-101907839D01*
X162475426Y-102186080D01*
X162353874Y-102479208D01*
X162264783Y-102783774D01*
X162264781Y-102783783D01*
X162209203Y-103096188D01*
X162209200Y-103096209D01*
X162187782Y-103412800D01*
X162187781Y-103412815D01*
X162193944Y-103563485D01*
X162193944Y-112336269D01*
X162187771Y-112487184D01*
X162187772Y-112487199D01*
X162209190Y-112803791D01*
X162209193Y-112803812D01*
X162264772Y-113116218D01*
X162264774Y-113116227D01*
X162348557Y-113402649D01*
X162353867Y-113420800D01*
X162386140Y-113498628D01*
X162475418Y-113713929D01*
X162628001Y-113992166D01*
X162750806Y-114167828D01*
X162809824Y-114252247D01*
X163018741Y-114491105D01*
X163252298Y-114705932D01*
X163507747Y-114894201D01*
X163522072Y-114902531D01*
X163593287Y-114943944D01*
X163593359Y-114943993D01*
X163643338Y-114973050D01*
X163646394Y-114974947D01*
X163689382Y-115003397D01*
X163850623Y-115110109D01*
X163856377Y-115114417D01*
X164042193Y-115271137D01*
X164047410Y-115276082D01*
X164204198Y-115442997D01*
X164213832Y-115453253D01*
X164218446Y-115458774D01*
X164363247Y-115654028D01*
X164367190Y-115660044D01*
X164372113Y-115668602D01*
X164488411Y-115870743D01*
X164491631Y-115877177D01*
X164587649Y-116100494D01*
X164590098Y-116107243D01*
X164659621Y-116340181D01*
X164661275Y-116347183D01*
X164703364Y-116586590D01*
X164704197Y-116593736D01*
X164718285Y-116836333D01*
X164718276Y-116843677D01*
X164702988Y-117096432D01*
X164702084Y-117103871D01*
X164656454Y-117352874D01*
X164654660Y-117360150D01*
X164579352Y-117601824D01*
X164576694Y-117608831D01*
X164472797Y-117839682D01*
X164469314Y-117846318D01*
X164338348Y-118062961D01*
X164334091Y-118069128D01*
X164216811Y-118218824D01*
X164178822Y-118267315D01*
X164177977Y-118268393D01*
X164173008Y-118274002D01*
X163994002Y-118453008D01*
X163988396Y-118457974D01*
X163965119Y-118476211D01*
X163789128Y-118614091D01*
X163782961Y-118618348D01*
X163566318Y-118749314D01*
X163559682Y-118752797D01*
X163328831Y-118856694D01*
X163321824Y-118859352D01*
X163080150Y-118934660D01*
X163072874Y-118936454D01*
X162823871Y-118982084D01*
X162816432Y-118982988D01*
X162561867Y-118998387D01*
X162558122Y-118998500D01*
X159707105Y-118998500D01*
X159640066Y-118978815D01*
X159594311Y-118926011D01*
X159584367Y-118856853D01*
X159608150Y-118799774D01*
X159689673Y-118691821D01*
X159780582Y-118509250D01*
X159836397Y-118313083D01*
X159855215Y-118110000D01*
X159851153Y-118066168D01*
X159836397Y-117906917D01*
X159825438Y-117868400D01*
X159780582Y-117710750D01*
X159769313Y-117688119D01*
X159704076Y-117557104D01*
X159689673Y-117528179D01*
X159566764Y-117365421D01*
X159566762Y-117365418D01*
X159416041Y-117228019D01*
X159416039Y-117228017D01*
X159242642Y-117120655D01*
X159242635Y-117120651D01*
X159098734Y-117064904D01*
X159052456Y-117046976D01*
X158851976Y-117009500D01*
X158648024Y-117009500D01*
X158447544Y-117046976D01*
X158447541Y-117046976D01*
X158447541Y-117046977D01*
X158257364Y-117120651D01*
X158257357Y-117120655D01*
X158083960Y-117228017D01*
X158083958Y-117228019D01*
X157933237Y-117365418D01*
X157810327Y-117528178D01*
X157719422Y-117710739D01*
X157719417Y-117710752D01*
X157663602Y-117906917D01*
X157644785Y-118109999D01*
X157644785Y-118110000D01*
X157663602Y-118313082D01*
X157719417Y-118509247D01*
X157719422Y-118509260D01*
X157794731Y-118660500D01*
X157810327Y-118691821D01*
X157891849Y-118799774D01*
X157916541Y-118865134D01*
X157901976Y-118933469D01*
X157852779Y-118983081D01*
X157792895Y-118998500D01*
X157167105Y-118998500D01*
X157100066Y-118978815D01*
X157054311Y-118926011D01*
X157044367Y-118856853D01*
X157068150Y-118799774D01*
X157149673Y-118691821D01*
X157240582Y-118509250D01*
X157296397Y-118313083D01*
X157315215Y-118110000D01*
X157311153Y-118066168D01*
X157296397Y-117906917D01*
X157285438Y-117868400D01*
X157240582Y-117710750D01*
X157229313Y-117688119D01*
X157164076Y-117557104D01*
X157149673Y-117528179D01*
X157026764Y-117365421D01*
X157026762Y-117365418D01*
X156876041Y-117228019D01*
X156876039Y-117228017D01*
X156702642Y-117120655D01*
X156702635Y-117120651D01*
X156558734Y-117064904D01*
X156512456Y-117046976D01*
X156311976Y-117009500D01*
X156108024Y-117009500D01*
X155907544Y-117046976D01*
X155907541Y-117046976D01*
X155907541Y-117046977D01*
X155717364Y-117120651D01*
X155717357Y-117120655D01*
X155543960Y-117228017D01*
X155543958Y-117228019D01*
X155393237Y-117365418D01*
X155270327Y-117528178D01*
X155179422Y-117710739D01*
X155179417Y-117710752D01*
X155123602Y-117906917D01*
X155104785Y-118109999D01*
X155104785Y-118110000D01*
X155123602Y-118313082D01*
X155179417Y-118509247D01*
X155179422Y-118509260D01*
X155254731Y-118660500D01*
X155270327Y-118691821D01*
X155351849Y-118799774D01*
X155376541Y-118865134D01*
X155361976Y-118933469D01*
X155312779Y-118983081D01*
X155252895Y-118998500D01*
X154627105Y-118998500D01*
X154560066Y-118978815D01*
X154514311Y-118926011D01*
X154504367Y-118856853D01*
X154528150Y-118799774D01*
X154609673Y-118691821D01*
X154700582Y-118509250D01*
X154756397Y-118313083D01*
X154775215Y-118110000D01*
X154771153Y-118066168D01*
X154756397Y-117906917D01*
X154745438Y-117868400D01*
X154700582Y-117710750D01*
X154689313Y-117688119D01*
X154624076Y-117557104D01*
X154609673Y-117528179D01*
X154486764Y-117365421D01*
X154486762Y-117365418D01*
X154336041Y-117228019D01*
X154336039Y-117228017D01*
X154162642Y-117120655D01*
X154162635Y-117120651D01*
X154018734Y-117064904D01*
X153972456Y-117046976D01*
X153771976Y-117009500D01*
X153568024Y-117009500D01*
X153367544Y-117046976D01*
X153367541Y-117046976D01*
X153367541Y-117046977D01*
X153177364Y-117120651D01*
X153177357Y-117120655D01*
X153003960Y-117228017D01*
X153003958Y-117228019D01*
X152853237Y-117365418D01*
X152730327Y-117528178D01*
X152639422Y-117710739D01*
X152639417Y-117710752D01*
X152583602Y-117906917D01*
X152564785Y-118109999D01*
X152564785Y-118110000D01*
X152583602Y-118313082D01*
X152639417Y-118509247D01*
X152639422Y-118509260D01*
X152714731Y-118660500D01*
X152730327Y-118691821D01*
X152811849Y-118799774D01*
X152836541Y-118865134D01*
X152821976Y-118933469D01*
X152772779Y-118983081D01*
X152712895Y-118998500D01*
X152087105Y-118998500D01*
X152020066Y-118978815D01*
X151974311Y-118926011D01*
X151964367Y-118856853D01*
X151988150Y-118799774D01*
X152069673Y-118691821D01*
X152160582Y-118509250D01*
X152216397Y-118313083D01*
X152235215Y-118110000D01*
X152231153Y-118066168D01*
X152216397Y-117906917D01*
X152205438Y-117868400D01*
X152160582Y-117710750D01*
X152149313Y-117688119D01*
X152084076Y-117557104D01*
X152069673Y-117528179D01*
X151946764Y-117365421D01*
X151946762Y-117365418D01*
X151796041Y-117228019D01*
X151796039Y-117228017D01*
X151622642Y-117120655D01*
X151622635Y-117120651D01*
X151478734Y-117064904D01*
X151432456Y-117046976D01*
X151231976Y-117009500D01*
X151028024Y-117009500D01*
X150827544Y-117046976D01*
X150827541Y-117046976D01*
X150827541Y-117046977D01*
X150711963Y-117091752D01*
X150642339Y-117097614D01*
X150580599Y-117064904D01*
X150579488Y-117063806D01*
X150355682Y-116840000D01*
X160903393Y-116840000D01*
X160923789Y-117099153D01*
X160984472Y-117351919D01*
X161083951Y-117592084D01*
X161219773Y-117813723D01*
X161219774Y-117813726D01*
X161266470Y-117868400D01*
X161388602Y-118011398D01*
X161541616Y-118142084D01*
X161586273Y-118180225D01*
X161586276Y-118180226D01*
X161807915Y-118316048D01*
X162048080Y-118415527D01*
X162300850Y-118476211D01*
X162471234Y-118489620D01*
X162495108Y-118491500D01*
X162495111Y-118491500D01*
X162624892Y-118491500D01*
X162647825Y-118489694D01*
X162819150Y-118476211D01*
X163071920Y-118415527D01*
X163312084Y-118316048D01*
X163533729Y-118180223D01*
X163731398Y-118011398D01*
X163900223Y-117813729D01*
X164036048Y-117592084D01*
X164135527Y-117351920D01*
X164196211Y-117099150D01*
X164216607Y-116840000D01*
X164196211Y-116580850D01*
X164135527Y-116328080D01*
X164111460Y-116269977D01*
X164036048Y-116087915D01*
X163900226Y-115866276D01*
X163900225Y-115866273D01*
X163818595Y-115770697D01*
X163731398Y-115668602D01*
X163588093Y-115546208D01*
X163533726Y-115499774D01*
X163533723Y-115499773D01*
X163312084Y-115363951D01*
X163071919Y-115264472D01*
X162856442Y-115212742D01*
X162819150Y-115203789D01*
X162670759Y-115192110D01*
X162624892Y-115188500D01*
X162624889Y-115188500D01*
X162495111Y-115188500D01*
X162495108Y-115188500D01*
X162445322Y-115192418D01*
X162300850Y-115203789D01*
X162300846Y-115203790D01*
X162048080Y-115264472D01*
X161807915Y-115363951D01*
X161586276Y-115499773D01*
X161586273Y-115499774D01*
X161388602Y-115668602D01*
X161219774Y-115866273D01*
X161219773Y-115866276D01*
X161083951Y-116087915D01*
X160984472Y-116328080D01*
X160923789Y-116580846D01*
X160903393Y-116840000D01*
X150355682Y-116840000D01*
X149888637Y-116372955D01*
X149872511Y-116353098D01*
X149867437Y-116345331D01*
X149841487Y-116325133D01*
X149835741Y-116320059D01*
X149833307Y-116317625D01*
X149833306Y-116317624D01*
X149833305Y-116317623D01*
X149826848Y-116313013D01*
X149815561Y-116304955D01*
X149775126Y-116273483D01*
X149775122Y-116273481D01*
X149768648Y-116269977D01*
X149762069Y-116266760D01*
X149712954Y-116252138D01*
X149664486Y-116235498D01*
X149657269Y-116234294D01*
X149649953Y-116233382D01*
X149600725Y-116235419D01*
X149598769Y-116235500D01*
X146887187Y-116235500D01*
X146820148Y-116215815D01*
X146785138Y-116181941D01*
X146775633Y-116168171D01*
X146753831Y-116148856D01*
X146661934Y-116067443D01*
X146527434Y-115996852D01*
X146527433Y-115996851D01*
X146527432Y-115996851D01*
X146379950Y-115960500D01*
X146379949Y-115960500D01*
X146228051Y-115960500D01*
X146228050Y-115960500D01*
X146080567Y-115996851D01*
X145946067Y-116067442D01*
X145832367Y-116168171D01*
X145746080Y-116293179D01*
X145746079Y-116293180D01*
X145692215Y-116435208D01*
X145673906Y-116586000D01*
X145692215Y-116736791D01*
X145746079Y-116878819D01*
X145746081Y-116878824D01*
X145748715Y-116882639D01*
X145770597Y-116948994D01*
X145753130Y-117016645D01*
X145701862Y-117064114D01*
X145691463Y-117068701D01*
X145667082Y-117078147D01*
X145557364Y-117120651D01*
X145557357Y-117120655D01*
X145383960Y-117228017D01*
X145383958Y-117228019D01*
X145233237Y-117365418D01*
X145110327Y-117528178D01*
X145019422Y-117710739D01*
X145019417Y-117710752D01*
X144963602Y-117906917D01*
X144944785Y-118109999D01*
X144944785Y-118110000D01*
X144963602Y-118313082D01*
X145019417Y-118509247D01*
X145019422Y-118509260D01*
X145094731Y-118660500D01*
X145110327Y-118691821D01*
X145191849Y-118799774D01*
X145216541Y-118865134D01*
X145201976Y-118933469D01*
X145152779Y-118983081D01*
X145092895Y-118998500D01*
X144467105Y-118998500D01*
X144400066Y-118978815D01*
X144354311Y-118926011D01*
X144344367Y-118856853D01*
X144368150Y-118799774D01*
X144449673Y-118691821D01*
X144540582Y-118509250D01*
X144596397Y-118313083D01*
X144615215Y-118110000D01*
X144611153Y-118066168D01*
X144596397Y-117906917D01*
X144585438Y-117868400D01*
X144540582Y-117710750D01*
X144529313Y-117688119D01*
X144464076Y-117557104D01*
X144449673Y-117528179D01*
X144326764Y-117365421D01*
X144326762Y-117365418D01*
X144176041Y-117228019D01*
X144176039Y-117228017D01*
X144002642Y-117120655D01*
X144002635Y-117120651D01*
X143858734Y-117064904D01*
X143812456Y-117046976D01*
X143611976Y-117009500D01*
X143408024Y-117009500D01*
X143207544Y-117046976D01*
X143207541Y-117046976D01*
X143207541Y-117046977D01*
X143017364Y-117120651D01*
X143017357Y-117120655D01*
X142843960Y-117228017D01*
X142843958Y-117228019D01*
X142693237Y-117365418D01*
X142570327Y-117528178D01*
X142479422Y-117710739D01*
X142479417Y-117710752D01*
X142423602Y-117906917D01*
X142404785Y-118109999D01*
X142404785Y-118110000D01*
X142423602Y-118313082D01*
X142479417Y-118509247D01*
X142479422Y-118509260D01*
X142554731Y-118660500D01*
X142570327Y-118691821D01*
X142651849Y-118799774D01*
X142676541Y-118865134D01*
X142661976Y-118933469D01*
X142612779Y-118983081D01*
X142552895Y-118998500D01*
X141927105Y-118998500D01*
X141860066Y-118978815D01*
X141814311Y-118926011D01*
X141804367Y-118856853D01*
X141828150Y-118799774D01*
X141909673Y-118691821D01*
X142000582Y-118509250D01*
X142056397Y-118313083D01*
X142075215Y-118110000D01*
X142071153Y-118066168D01*
X142056397Y-117906917D01*
X142045438Y-117868400D01*
X142000582Y-117710750D01*
X141989313Y-117688119D01*
X141924076Y-117557104D01*
X141909673Y-117528179D01*
X141786764Y-117365421D01*
X141786762Y-117365418D01*
X141636041Y-117228019D01*
X141636039Y-117228017D01*
X141462642Y-117120655D01*
X141462635Y-117120651D01*
X141318734Y-117064904D01*
X141272456Y-117046976D01*
X141071976Y-117009500D01*
X140868024Y-117009500D01*
X140667544Y-117046976D01*
X140667541Y-117046976D01*
X140667541Y-117046977D01*
X140477364Y-117120651D01*
X140477357Y-117120655D01*
X140303960Y-117228017D01*
X140303958Y-117228019D01*
X140153237Y-117365418D01*
X140030327Y-117528178D01*
X139939422Y-117710739D01*
X139939417Y-117710752D01*
X139883602Y-117906917D01*
X139864785Y-118109999D01*
X139864785Y-118110000D01*
X139883602Y-118313082D01*
X139939417Y-118509247D01*
X139939422Y-118509260D01*
X140014731Y-118660500D01*
X140030327Y-118691821D01*
X140111849Y-118799774D01*
X140136541Y-118865134D01*
X140121976Y-118933469D01*
X140072779Y-118983081D01*
X140012895Y-118998500D01*
X139387105Y-118998500D01*
X139320066Y-118978815D01*
X139274311Y-118926011D01*
X139264367Y-118856853D01*
X139288150Y-118799774D01*
X139369673Y-118691821D01*
X139460582Y-118509250D01*
X139516397Y-118313083D01*
X139535215Y-118110000D01*
X139531153Y-118066168D01*
X139516397Y-117906917D01*
X139505438Y-117868400D01*
X139460582Y-117710750D01*
X139449313Y-117688119D01*
X139384076Y-117557104D01*
X139369673Y-117528179D01*
X139246764Y-117365421D01*
X139246762Y-117365418D01*
X139096041Y-117228019D01*
X139096039Y-117228017D01*
X138922642Y-117120655D01*
X138922635Y-117120651D01*
X138778734Y-117064904D01*
X138732456Y-117046976D01*
X138531976Y-117009500D01*
X138328024Y-117009500D01*
X138127544Y-117046976D01*
X138127541Y-117046976D01*
X138127541Y-117046977D01*
X137937364Y-117120651D01*
X137937357Y-117120655D01*
X137763960Y-117228017D01*
X137763958Y-117228019D01*
X137613237Y-117365418D01*
X137490327Y-117528178D01*
X137399422Y-117710739D01*
X137399417Y-117710752D01*
X137343602Y-117906917D01*
X137324785Y-118109999D01*
X137324785Y-118110000D01*
X137343602Y-118313082D01*
X137399417Y-118509247D01*
X137399422Y-118509260D01*
X137474731Y-118660500D01*
X137490327Y-118691821D01*
X137571849Y-118799774D01*
X137596541Y-118865134D01*
X137581976Y-118933469D01*
X137532779Y-118983081D01*
X137472895Y-118998500D01*
X136847105Y-118998500D01*
X136780066Y-118978815D01*
X136734311Y-118926011D01*
X136724367Y-118856853D01*
X136748150Y-118799774D01*
X136829673Y-118691821D01*
X136920582Y-118509250D01*
X136976397Y-118313083D01*
X136995215Y-118110000D01*
X136991153Y-118066168D01*
X136976397Y-117906917D01*
X136965438Y-117868400D01*
X136920582Y-117710750D01*
X136909313Y-117688119D01*
X136844076Y-117557104D01*
X136829673Y-117528179D01*
X136706764Y-117365421D01*
X136706762Y-117365418D01*
X136556041Y-117228019D01*
X136556039Y-117228017D01*
X136382642Y-117120655D01*
X136382635Y-117120651D01*
X136238734Y-117064904D01*
X136192456Y-117046976D01*
X135991976Y-117009500D01*
X135788024Y-117009500D01*
X135587544Y-117046976D01*
X135587541Y-117046976D01*
X135587541Y-117046977D01*
X135397364Y-117120651D01*
X135397357Y-117120655D01*
X135223960Y-117228017D01*
X135223958Y-117228019D01*
X135073237Y-117365418D01*
X134950327Y-117528178D01*
X134859422Y-117710739D01*
X134859417Y-117710752D01*
X134803602Y-117906917D01*
X134784785Y-118109999D01*
X134784785Y-118110000D01*
X134803602Y-118313082D01*
X134859417Y-118509247D01*
X134859422Y-118509260D01*
X134934731Y-118660500D01*
X134950327Y-118691821D01*
X135031849Y-118799774D01*
X135056541Y-118865134D01*
X135041976Y-118933469D01*
X134992779Y-118983081D01*
X134932895Y-118998500D01*
X134307105Y-118998500D01*
X134240066Y-118978815D01*
X134194311Y-118926011D01*
X134184367Y-118856853D01*
X134208150Y-118799774D01*
X134289673Y-118691821D01*
X134380582Y-118509250D01*
X134436397Y-118313083D01*
X134455215Y-118110000D01*
X134451153Y-118066168D01*
X134436397Y-117906917D01*
X134425438Y-117868400D01*
X134380582Y-117710750D01*
X134369313Y-117688119D01*
X134304076Y-117557104D01*
X134289673Y-117528179D01*
X134166764Y-117365421D01*
X134166762Y-117365418D01*
X134016041Y-117228019D01*
X134016039Y-117228017D01*
X133842642Y-117120655D01*
X133842635Y-117120651D01*
X133698734Y-117064904D01*
X133652456Y-117046976D01*
X133451976Y-117009500D01*
X133248024Y-117009500D01*
X133047544Y-117046976D01*
X133047541Y-117046976D01*
X133047541Y-117046977D01*
X132857364Y-117120651D01*
X132857357Y-117120655D01*
X132683960Y-117228017D01*
X132683958Y-117228019D01*
X132533237Y-117365418D01*
X132410327Y-117528178D01*
X132319422Y-117710739D01*
X132319417Y-117710752D01*
X132263602Y-117906917D01*
X132244785Y-118109999D01*
X132244785Y-118110000D01*
X132263602Y-118313082D01*
X132319417Y-118509247D01*
X132319422Y-118509260D01*
X132394731Y-118660500D01*
X132410327Y-118691821D01*
X132491849Y-118799774D01*
X132516541Y-118865134D01*
X132501976Y-118933469D01*
X132452779Y-118983081D01*
X132392895Y-118998500D01*
X131767105Y-118998500D01*
X131700066Y-118978815D01*
X131654311Y-118926011D01*
X131644367Y-118856853D01*
X131668150Y-118799774D01*
X131749673Y-118691821D01*
X131840582Y-118509250D01*
X131896397Y-118313083D01*
X131915215Y-118110000D01*
X131911153Y-118066168D01*
X131896397Y-117906917D01*
X131885438Y-117868400D01*
X131840582Y-117710750D01*
X131829313Y-117688119D01*
X131764076Y-117557104D01*
X131749673Y-117528179D01*
X131626764Y-117365421D01*
X131626762Y-117365418D01*
X131476041Y-117228019D01*
X131476039Y-117228017D01*
X131302642Y-117120655D01*
X131302635Y-117120651D01*
X131158734Y-117064904D01*
X131112456Y-117046976D01*
X130911976Y-117009500D01*
X130708024Y-117009500D01*
X130507544Y-117046976D01*
X130507541Y-117046976D01*
X130507541Y-117046977D01*
X130317364Y-117120651D01*
X130317357Y-117120655D01*
X130143960Y-117228017D01*
X130143958Y-117228019D01*
X129993237Y-117365418D01*
X129870327Y-117528178D01*
X129779422Y-117710739D01*
X129779417Y-117710752D01*
X129723602Y-117906917D01*
X129704785Y-118109999D01*
X129704785Y-118110000D01*
X129723602Y-118313082D01*
X129779417Y-118509247D01*
X129779422Y-118509260D01*
X129854731Y-118660500D01*
X129870327Y-118691821D01*
X129951849Y-118799774D01*
X129976541Y-118865134D01*
X129961976Y-118933469D01*
X129912779Y-118983081D01*
X129852895Y-118998500D01*
X129226478Y-118998500D01*
X129159439Y-118978815D01*
X129113684Y-118926011D01*
X129103740Y-118856853D01*
X129127524Y-118799773D01*
X129209245Y-118691556D01*
X129300113Y-118509069D01*
X129300116Y-118509063D01*
X129355902Y-118312992D01*
X129355903Y-118312989D01*
X129374713Y-118110000D01*
X129374713Y-118109999D01*
X129355903Y-117907010D01*
X129355902Y-117907007D01*
X129300116Y-117710936D01*
X129300113Y-117710930D01*
X129266633Y-117643694D01*
X128822824Y-118087503D01*
X128823877Y-118072114D01*
X128793116Y-117924085D01*
X128723558Y-117789844D01*
X128620362Y-117679348D01*
X128491181Y-117600791D01*
X128345596Y-117560000D01*
X128289671Y-117560000D01*
X128738018Y-117111650D01*
X128738018Y-117111649D01*
X128572323Y-117047460D01*
X128572320Y-117047459D01*
X128371928Y-117010000D01*
X128168072Y-117010000D01*
X127967679Y-117047459D01*
X127967676Y-117047460D01*
X127801980Y-117111649D01*
X127801980Y-117111650D01*
X128250330Y-117560000D01*
X128232378Y-117560000D01*
X128120217Y-117575416D01*
X127981542Y-117635651D01*
X127864261Y-117731066D01*
X127777072Y-117854585D01*
X127726441Y-117997047D01*
X127720056Y-118090385D01*
X127273365Y-117643694D01*
X127239888Y-117710927D01*
X127239881Y-117710943D01*
X127184097Y-117907007D01*
X127184096Y-117907010D01*
X127165287Y-118109999D01*
X127165287Y-118110000D01*
X127184096Y-118312989D01*
X127184097Y-118312992D01*
X127239883Y-118509063D01*
X127239886Y-118509069D01*
X127330754Y-118691556D01*
X127412476Y-118799773D01*
X127437168Y-118865134D01*
X127422603Y-118933469D01*
X127373406Y-118983081D01*
X127313522Y-118998500D01*
X126687105Y-118998500D01*
X126620066Y-118978815D01*
X126574311Y-118926011D01*
X126564367Y-118856853D01*
X126588150Y-118799774D01*
X126669673Y-118691821D01*
X126760582Y-118509250D01*
X126816397Y-118313083D01*
X126835215Y-118110000D01*
X126831153Y-118066168D01*
X126816397Y-117906917D01*
X126805438Y-117868400D01*
X126760582Y-117710750D01*
X126749313Y-117688119D01*
X126684076Y-117557104D01*
X126669673Y-117528179D01*
X126546764Y-117365421D01*
X126546762Y-117365418D01*
X126396041Y-117228019D01*
X126396039Y-117228017D01*
X126222642Y-117120655D01*
X126222635Y-117120651D01*
X126078734Y-117064904D01*
X126032456Y-117046976D01*
X125831976Y-117009500D01*
X125628024Y-117009500D01*
X125427544Y-117046976D01*
X125427541Y-117046976D01*
X125427541Y-117046977D01*
X125237364Y-117120651D01*
X125237357Y-117120655D01*
X125063960Y-117228017D01*
X125063958Y-117228019D01*
X124913237Y-117365418D01*
X124790327Y-117528178D01*
X124699422Y-117710739D01*
X124699417Y-117710752D01*
X124643602Y-117906917D01*
X124624785Y-118109999D01*
X124624785Y-118110000D01*
X124643602Y-118313082D01*
X124699417Y-118509247D01*
X124699422Y-118509260D01*
X124774731Y-118660500D01*
X124790327Y-118691821D01*
X124871849Y-118799774D01*
X124896541Y-118865134D01*
X124881976Y-118933469D01*
X124832779Y-118983081D01*
X124772895Y-118998500D01*
X124147105Y-118998500D01*
X124080066Y-118978815D01*
X124034311Y-118926011D01*
X124024367Y-118856853D01*
X124048150Y-118799774D01*
X124129673Y-118691821D01*
X124220582Y-118509250D01*
X124276397Y-118313083D01*
X124295215Y-118110000D01*
X124291153Y-118066168D01*
X124276397Y-117906917D01*
X124265438Y-117868400D01*
X124220582Y-117710750D01*
X124209313Y-117688119D01*
X124144076Y-117557104D01*
X124129673Y-117528179D01*
X124006764Y-117365421D01*
X124006762Y-117365418D01*
X123856041Y-117228019D01*
X123856039Y-117228017D01*
X123682642Y-117120655D01*
X123682635Y-117120651D01*
X123538734Y-117064904D01*
X123492456Y-117046976D01*
X123291976Y-117009500D01*
X123088024Y-117009500D01*
X122887544Y-117046976D01*
X122887541Y-117046976D01*
X122887541Y-117046977D01*
X122697364Y-117120651D01*
X122697357Y-117120655D01*
X122523960Y-117228017D01*
X122523958Y-117228019D01*
X122373237Y-117365418D01*
X122250327Y-117528178D01*
X122159422Y-117710739D01*
X122159417Y-117710752D01*
X122103602Y-117906917D01*
X122084785Y-118109999D01*
X122084785Y-118110000D01*
X122103602Y-118313082D01*
X122159417Y-118509247D01*
X122159422Y-118509260D01*
X122234731Y-118660500D01*
X122250327Y-118691821D01*
X122331849Y-118799774D01*
X122356541Y-118865134D01*
X122341976Y-118933469D01*
X122292779Y-118983081D01*
X122232895Y-118998500D01*
X121607105Y-118998500D01*
X121540066Y-118978815D01*
X121494311Y-118926011D01*
X121484367Y-118856853D01*
X121508150Y-118799774D01*
X121589673Y-118691821D01*
X121680582Y-118509250D01*
X121736397Y-118313083D01*
X121755215Y-118110000D01*
X121751153Y-118066168D01*
X121736397Y-117906917D01*
X121725438Y-117868400D01*
X121680582Y-117710750D01*
X121669313Y-117688119D01*
X121604076Y-117557104D01*
X121589673Y-117528179D01*
X121466764Y-117365421D01*
X121466762Y-117365418D01*
X121316041Y-117228019D01*
X121316039Y-117228017D01*
X121142642Y-117120655D01*
X121142635Y-117120651D01*
X120998734Y-117064904D01*
X120952456Y-117046976D01*
X120751976Y-117009500D01*
X120548024Y-117009500D01*
X120347544Y-117046976D01*
X120347541Y-117046976D01*
X120347541Y-117046977D01*
X120157364Y-117120651D01*
X120157357Y-117120655D01*
X119983960Y-117228017D01*
X119983958Y-117228019D01*
X119833237Y-117365418D01*
X119710327Y-117528178D01*
X119619422Y-117710739D01*
X119619417Y-117710752D01*
X119563602Y-117906917D01*
X119544785Y-118109999D01*
X119544785Y-118110000D01*
X119563602Y-118313082D01*
X119619417Y-118509247D01*
X119619422Y-118509260D01*
X119694731Y-118660500D01*
X119710327Y-118691821D01*
X119791849Y-118799774D01*
X119816541Y-118865134D01*
X119801976Y-118933469D01*
X119752779Y-118983081D01*
X119692895Y-118998500D01*
X116841878Y-118998500D01*
X116838133Y-118998387D01*
X116583567Y-118982988D01*
X116576128Y-118982084D01*
X116358727Y-118942245D01*
X116327122Y-118936453D01*
X116319849Y-118934660D01*
X116292093Y-118926011D01*
X116078170Y-118859350D01*
X116071168Y-118856694D01*
X115840317Y-118752797D01*
X115833681Y-118749314D01*
X115617038Y-118618348D01*
X115610871Y-118614091D01*
X115517133Y-118540652D01*
X115411595Y-118457967D01*
X115406005Y-118453015D01*
X115226983Y-118273993D01*
X115222033Y-118268405D01*
X115065907Y-118069127D01*
X115061651Y-118062961D01*
X114930685Y-117846318D01*
X114927202Y-117839682D01*
X114915520Y-117813726D01*
X114878318Y-117731066D01*
X114823305Y-117608831D01*
X114820652Y-117601838D01*
X114745336Y-117360138D01*
X114743548Y-117352889D01*
X114700990Y-117120651D01*
X114697915Y-117103871D01*
X114697011Y-117096432D01*
X114695056Y-117064114D01*
X114683848Y-116878819D01*
X114681613Y-116841866D01*
X114681557Y-116840004D01*
X115014395Y-116840004D01*
X115034783Y-117112082D01*
X115034783Y-117112084D01*
X115090584Y-117356563D01*
X115095502Y-117378107D01*
X115195187Y-117632100D01*
X115331614Y-117868400D01*
X115501737Y-118081727D01*
X115701754Y-118267315D01*
X115927198Y-118421020D01*
X116173032Y-118539408D01*
X116433765Y-118619833D01*
X116433766Y-118619833D01*
X116433769Y-118619834D01*
X116703564Y-118660499D01*
X116703569Y-118660499D01*
X116703572Y-118660500D01*
X116703573Y-118660500D01*
X116976427Y-118660500D01*
X116976428Y-118660500D01*
X116976435Y-118660499D01*
X117246230Y-118619834D01*
X117246231Y-118619833D01*
X117246235Y-118619833D01*
X117506968Y-118539408D01*
X117752803Y-118421020D01*
X117978246Y-118267315D01*
X118178263Y-118081727D01*
X118348386Y-117868400D01*
X118484813Y-117632100D01*
X118584498Y-117378107D01*
X118645215Y-117112092D01*
X118645780Y-117104557D01*
X118665605Y-116840004D01*
X118665605Y-116839995D01*
X118645216Y-116567917D01*
X118645216Y-116567915D01*
X118645215Y-116567911D01*
X118645215Y-116567908D01*
X118584498Y-116301893D01*
X118484813Y-116047900D01*
X118348386Y-115811600D01*
X118178263Y-115598273D01*
X117978246Y-115412685D01*
X117752803Y-115258980D01*
X117752797Y-115258977D01*
X117752796Y-115258976D01*
X117752794Y-115258975D01*
X117506970Y-115140593D01*
X117506972Y-115140593D01*
X117246236Y-115060167D01*
X117246230Y-115060165D01*
X116976435Y-115019500D01*
X116976428Y-115019500D01*
X116703572Y-115019500D01*
X116703564Y-115019500D01*
X116433769Y-115060165D01*
X116433763Y-115060167D01*
X116173031Y-115140592D01*
X115927202Y-115258977D01*
X115701753Y-115412685D01*
X115501739Y-115598271D01*
X115501737Y-115598273D01*
X115331614Y-115811600D01*
X115195187Y-116047899D01*
X115095504Y-116301887D01*
X115095499Y-116301904D01*
X115034783Y-116567915D01*
X115034783Y-116567917D01*
X115014395Y-116839995D01*
X115014395Y-116840004D01*
X114681557Y-116840004D01*
X114681500Y-116838122D01*
X114681500Y-112813500D01*
X119091520Y-112813500D01*
X119109829Y-112964291D01*
X119163693Y-113106319D01*
X119249982Y-113231330D01*
X119363680Y-113332057D01*
X119498180Y-113402648D01*
X119571801Y-113420794D01*
X119645664Y-113439000D01*
X119645665Y-113439000D01*
X119797564Y-113439000D01*
X119945044Y-113402649D01*
X119945044Y-113402648D01*
X119945048Y-113402648D01*
X120075521Y-113334170D01*
X120144027Y-113320446D01*
X120209080Y-113345939D01*
X120228993Y-113366976D01*
X120229353Y-113366658D01*
X120234326Y-113372271D01*
X120234327Y-113372272D01*
X120235849Y-113373620D01*
X120277645Y-113410648D01*
X120314772Y-113469837D01*
X120317036Y-113527653D01*
X120312592Y-113550000D01*
X120312592Y-115050000D01*
X120312592Y-115050002D01*
X120312591Y-115050002D01*
X120332033Y-115147738D01*
X120332033Y-115147739D01*
X120332034Y-115147740D01*
X120387399Y-115230601D01*
X120470260Y-115285966D01*
X120494695Y-115290826D01*
X120567997Y-115305408D01*
X120568000Y-115305408D01*
X120957894Y-115305408D01*
X121024933Y-115325093D01*
X121070688Y-115377897D01*
X121080632Y-115447055D01*
X121073837Y-115473374D01*
X121063826Y-115499773D01*
X121046214Y-115546209D01*
X121032772Y-115656921D01*
X121027906Y-115697000D01*
X121046215Y-115847791D01*
X121100079Y-115989819D01*
X121186368Y-116114830D01*
X121300066Y-116215557D01*
X121434566Y-116286148D01*
X121463092Y-116293179D01*
X121582050Y-116322500D01*
X121582051Y-116322500D01*
X121733950Y-116322500D01*
X121805131Y-116304955D01*
X121881434Y-116286148D01*
X122015934Y-116215557D01*
X122129632Y-116114830D01*
X122215921Y-115989819D01*
X122269785Y-115847791D01*
X122288094Y-115697000D01*
X122269785Y-115546209D01*
X122240277Y-115468402D01*
X126143151Y-115468402D01*
X126162085Y-115636456D01*
X126217945Y-115796094D01*
X126217947Y-115796097D01*
X126307918Y-115939284D01*
X126307923Y-115939290D01*
X126427509Y-116058876D01*
X126427515Y-116058881D01*
X126570702Y-116148852D01*
X126570705Y-116148854D01*
X126570709Y-116148855D01*
X126570710Y-116148856D01*
X126643313Y-116174260D01*
X126730343Y-116204714D01*
X126898397Y-116223649D01*
X126898400Y-116223649D01*
X126898403Y-116223649D01*
X127066456Y-116204714D01*
X127084932Y-116198249D01*
X127226090Y-116148856D01*
X127226092Y-116148854D01*
X127226094Y-116148854D01*
X127226097Y-116148852D01*
X127369284Y-116058881D01*
X127369285Y-116058880D01*
X127369290Y-116058877D01*
X127422948Y-116005219D01*
X127484271Y-115971734D01*
X127510629Y-115968900D01*
X129588171Y-115968900D01*
X129655210Y-115988585D01*
X129675852Y-116005219D01*
X129704109Y-116033476D01*
X129704115Y-116033481D01*
X129847302Y-116123452D01*
X129847305Y-116123454D01*
X129847309Y-116123455D01*
X129847310Y-116123456D01*
X129919888Y-116148852D01*
X130006943Y-116179314D01*
X130174997Y-116198249D01*
X130175000Y-116198249D01*
X130175003Y-116198249D01*
X130343056Y-116179314D01*
X130374904Y-116168170D01*
X130502690Y-116123456D01*
X130502692Y-116123454D01*
X130502694Y-116123454D01*
X130502697Y-116123452D01*
X130645884Y-116033481D01*
X130645885Y-116033480D01*
X130645890Y-116033477D01*
X130765477Y-115913890D01*
X130765481Y-115913884D01*
X130855452Y-115770697D01*
X130855454Y-115770694D01*
X130855454Y-115770692D01*
X130855456Y-115770690D01*
X130911313Y-115611059D01*
X130911313Y-115611058D01*
X130911314Y-115611056D01*
X130930249Y-115443002D01*
X130930249Y-115442997D01*
X130911314Y-115274943D01*
X130864303Y-115140593D01*
X130855456Y-115115310D01*
X130855455Y-115115309D01*
X130855454Y-115115305D01*
X130855452Y-115115302D01*
X130765481Y-114972115D01*
X130765476Y-114972109D01*
X130645890Y-114852523D01*
X130645884Y-114852518D01*
X130502697Y-114762547D01*
X130502694Y-114762545D01*
X130343056Y-114706685D01*
X130175003Y-114687751D01*
X130174997Y-114687751D01*
X130006943Y-114706685D01*
X129847305Y-114762545D01*
X129847302Y-114762547D01*
X129704115Y-114852518D01*
X129704109Y-114852523D01*
X129625052Y-114931581D01*
X129563729Y-114965066D01*
X129537371Y-114967900D01*
X127510629Y-114967900D01*
X127443590Y-114948215D01*
X127422948Y-114931581D01*
X127369290Y-114877923D01*
X127369284Y-114877918D01*
X127226097Y-114787947D01*
X127226094Y-114787945D01*
X127066456Y-114732085D01*
X126898403Y-114713151D01*
X126898397Y-114713151D01*
X126730343Y-114732085D01*
X126570705Y-114787945D01*
X126570702Y-114787947D01*
X126427515Y-114877918D01*
X126427509Y-114877923D01*
X126307923Y-114997509D01*
X126307918Y-114997515D01*
X126217947Y-115140702D01*
X126217945Y-115140705D01*
X126162085Y-115300343D01*
X126143151Y-115468397D01*
X126143151Y-115468402D01*
X122240277Y-115468402D01*
X122215921Y-115404181D01*
X122129632Y-115279170D01*
X122124861Y-115274943D01*
X122054651Y-115212742D01*
X122017524Y-115153553D01*
X122013830Y-115135264D01*
X122008977Y-115096324D01*
X122008500Y-115088648D01*
X122008500Y-115085224D01*
X122004912Y-115063722D01*
X122004121Y-115057383D01*
X121998573Y-115012871D01*
X121998571Y-115012867D01*
X121996502Y-115005917D01*
X121996470Y-115005823D01*
X121996444Y-115005736D01*
X121994091Y-114998881D01*
X121969704Y-114953819D01*
X121947199Y-114907782D01*
X121942919Y-114901788D01*
X121938416Y-114896004D01*
X121907630Y-114867662D01*
X121888440Y-114845217D01*
X121652363Y-114491102D01*
X121570816Y-114368782D01*
X121550009Y-114302084D01*
X121568564Y-114234723D01*
X121570817Y-114231217D01*
X121611427Y-114170303D01*
X121930512Y-113691675D01*
X121953966Y-113647740D01*
X121973408Y-113550000D01*
X121973408Y-113549997D01*
X121954041Y-113452633D01*
X121960268Y-113383042D01*
X122003131Y-113327864D01*
X122069021Y-113304620D01*
X122075658Y-113304442D01*
X123691288Y-113304442D01*
X123758327Y-113324127D01*
X123804082Y-113376931D01*
X123807229Y-113384470D01*
X123851279Y-113500619D01*
X123937568Y-113625630D01*
X124051266Y-113726357D01*
X124185766Y-113796948D01*
X124237401Y-113809675D01*
X124333250Y-113833300D01*
X124333251Y-113833300D01*
X124485150Y-113833300D01*
X124534310Y-113821182D01*
X124632634Y-113796948D01*
X124722086Y-113750000D01*
X126696819Y-113750000D01*
X126715128Y-113900791D01*
X126768992Y-114042819D01*
X126855281Y-114167830D01*
X126968979Y-114268557D01*
X127103479Y-114339148D01*
X127177221Y-114357324D01*
X127250963Y-114375500D01*
X127250964Y-114375500D01*
X127402863Y-114375500D01*
X127452023Y-114363382D01*
X127550347Y-114339148D01*
X127684847Y-114268557D01*
X127798545Y-114167830D01*
X127884834Y-114042819D01*
X127938698Y-113900791D01*
X127949776Y-113809554D01*
X127977398Y-113745376D01*
X128035332Y-113706319D01*
X128072872Y-113700500D01*
X128271773Y-113700500D01*
X128338812Y-113720185D01*
X128373821Y-113754058D01*
X128382568Y-113766730D01*
X128496266Y-113867457D01*
X128630766Y-113938048D01*
X128704508Y-113956224D01*
X128778250Y-113974400D01*
X128778251Y-113974400D01*
X128930150Y-113974400D01*
X128979310Y-113962282D01*
X129077634Y-113938048D01*
X129212134Y-113867457D01*
X129325832Y-113766730D01*
X129412121Y-113641719D01*
X129465985Y-113499691D01*
X129484294Y-113348900D01*
X129471561Y-113244035D01*
X129483021Y-113175113D01*
X129529925Y-113123327D01*
X129597381Y-113105120D01*
X129663972Y-113126272D01*
X129676881Y-113136272D01*
X129740866Y-113192957D01*
X129875366Y-113263548D01*
X129949108Y-113281724D01*
X130022850Y-113299900D01*
X130022851Y-113299900D01*
X130174750Y-113299900D01*
X130223910Y-113287782D01*
X130322234Y-113263548D01*
X130456734Y-113192957D01*
X130570432Y-113092230D01*
X130578322Y-113080800D01*
X145699306Y-113080800D01*
X145717615Y-113231591D01*
X145771479Y-113373619D01*
X145857768Y-113498630D01*
X145971466Y-113599357D01*
X146105966Y-113669948D01*
X146179708Y-113688124D01*
X146253450Y-113706300D01*
X146253451Y-113706300D01*
X146405350Y-113706300D01*
X146464668Y-113691679D01*
X146552834Y-113669948D01*
X146687334Y-113599357D01*
X146801032Y-113498630D01*
X146801035Y-113498625D01*
X146801526Y-113498072D01*
X146801989Y-113497781D01*
X146806646Y-113493656D01*
X146807331Y-113494430D01*
X146860716Y-113460946D01*
X146894341Y-113456300D01*
X150488859Y-113456300D01*
X150555898Y-113475985D01*
X150576539Y-113493672D01*
X150576554Y-113493656D01*
X150577544Y-113494533D01*
X150581674Y-113498072D01*
X150582167Y-113498629D01*
X150582168Y-113498630D01*
X150695866Y-113599357D01*
X150830366Y-113669948D01*
X150904108Y-113688124D01*
X150977850Y-113706300D01*
X150977851Y-113706300D01*
X151129750Y-113706300D01*
X151189068Y-113691679D01*
X151277234Y-113669948D01*
X151411734Y-113599357D01*
X151525432Y-113498630D01*
X151611721Y-113373619D01*
X151665585Y-113231591D01*
X151683894Y-113080800D01*
X151665585Y-112930009D01*
X151611721Y-112787981D01*
X151525432Y-112662970D01*
X151411734Y-112562243D01*
X151277234Y-112491652D01*
X151277233Y-112491651D01*
X151277232Y-112491651D01*
X151129750Y-112455300D01*
X151129749Y-112455300D01*
X150977851Y-112455300D01*
X150977850Y-112455300D01*
X150830367Y-112491651D01*
X150695867Y-112562242D01*
X150582167Y-112662970D01*
X150581674Y-112663528D01*
X150581210Y-112663818D01*
X150576554Y-112667944D01*
X150575868Y-112667169D01*
X150522484Y-112700654D01*
X150488859Y-112705300D01*
X146894341Y-112705300D01*
X146827302Y-112685615D01*
X146806660Y-112667927D01*
X146806646Y-112667944D01*
X146805655Y-112667066D01*
X146801526Y-112663528D01*
X146801032Y-112662970D01*
X146787603Y-112651073D01*
X146687334Y-112562243D01*
X146552834Y-112491652D01*
X146552833Y-112491651D01*
X146552832Y-112491651D01*
X146405350Y-112455300D01*
X146405349Y-112455300D01*
X146253451Y-112455300D01*
X146253450Y-112455300D01*
X146105967Y-112491651D01*
X145971467Y-112562242D01*
X145857767Y-112662971D01*
X145771480Y-112787979D01*
X145771479Y-112787980D01*
X145723315Y-112914980D01*
X145717615Y-112930009D01*
X145699306Y-113080800D01*
X130578322Y-113080800D01*
X130656721Y-112967219D01*
X130710585Y-112825191D01*
X130728894Y-112674400D01*
X130710585Y-112523609D01*
X130656721Y-112381581D01*
X130570432Y-112256570D01*
X130456734Y-112155843D01*
X130322234Y-112085252D01*
X130322233Y-112085251D01*
X130322232Y-112085251D01*
X130174750Y-112048900D01*
X130174749Y-112048900D01*
X130144086Y-112048900D01*
X130077047Y-112029215D01*
X130031292Y-111976411D01*
X130021348Y-111907253D01*
X130028145Y-111880927D01*
X130036085Y-111859991D01*
X130054394Y-111709200D01*
X130036085Y-111558409D01*
X129982221Y-111416381D01*
X129895932Y-111291370D01*
X129782234Y-111190643D01*
X129647734Y-111120052D01*
X129647733Y-111120051D01*
X129647732Y-111120051D01*
X129500250Y-111083700D01*
X129500249Y-111083700D01*
X129348351Y-111083700D01*
X129348350Y-111083700D01*
X129200867Y-111120051D01*
X129066367Y-111190642D01*
X128952666Y-111291371D01*
X128943162Y-111305141D01*
X128888879Y-111349131D01*
X128841113Y-111358700D01*
X127925887Y-111358700D01*
X127858848Y-111339015D01*
X127823838Y-111305141D01*
X127814333Y-111291371D01*
X127814332Y-111291370D01*
X127700634Y-111190643D01*
X127566134Y-111120052D01*
X127566133Y-111120051D01*
X127566132Y-111120051D01*
X127418650Y-111083700D01*
X127418649Y-111083700D01*
X127266751Y-111083700D01*
X127266750Y-111083700D01*
X127119267Y-111120051D01*
X126984767Y-111190642D01*
X126871067Y-111291371D01*
X126784780Y-111416379D01*
X126784779Y-111416380D01*
X126784779Y-111416381D01*
X126730915Y-111558409D01*
X126712606Y-111709200D01*
X126730915Y-111859991D01*
X126784779Y-112002019D01*
X126831199Y-112069270D01*
X126860904Y-112112305D01*
X126882787Y-112178659D01*
X126865322Y-112246311D01*
X126860904Y-112253185D01*
X126772280Y-112381579D01*
X126772279Y-112381580D01*
X126718415Y-112523608D01*
X126700106Y-112674400D01*
X126718415Y-112825191D01*
X126772279Y-112967219D01*
X126772280Y-112967220D01*
X126858568Y-113092231D01*
X126887574Y-113117927D01*
X126924701Y-113177116D01*
X126923935Y-113246982D01*
X126887577Y-113303557D01*
X126855281Y-113332169D01*
X126768993Y-113457179D01*
X126768992Y-113457180D01*
X126715128Y-113599208D01*
X126709235Y-113647740D01*
X126696819Y-113750000D01*
X124722086Y-113750000D01*
X124767134Y-113726357D01*
X124880832Y-113625630D01*
X124967121Y-113500619D01*
X125020985Y-113358591D01*
X125039294Y-113207800D01*
X125020985Y-113057009D01*
X124967121Y-112914981D01*
X124880832Y-112789970D01*
X124880831Y-112789969D01*
X124877456Y-112785079D01*
X124855573Y-112718725D01*
X124873038Y-112651073D01*
X124877449Y-112644209D01*
X124941468Y-112551463D01*
X124995332Y-112409435D01*
X125013641Y-112258644D01*
X124995332Y-112107853D01*
X124941468Y-111965825D01*
X124855179Y-111840814D01*
X124741481Y-111740087D01*
X124606981Y-111669496D01*
X124606980Y-111669495D01*
X124606979Y-111669495D01*
X124459497Y-111633144D01*
X124459496Y-111633144D01*
X124307598Y-111633144D01*
X124307597Y-111633144D01*
X124160114Y-111669495D01*
X124025614Y-111740086D01*
X123911913Y-111840815D01*
X123902409Y-111854585D01*
X123848126Y-111898575D01*
X123800360Y-111908144D01*
X120325681Y-111908144D01*
X120300235Y-111905505D01*
X120291155Y-111903601D01*
X120291154Y-111903601D01*
X120291152Y-111903601D01*
X120258531Y-111907667D01*
X120250855Y-111908144D01*
X120247430Y-111908144D01*
X120225927Y-111911731D01*
X120175078Y-111918070D01*
X120168040Y-111920165D01*
X120161092Y-111922550D01*
X120116025Y-111946939D01*
X120069982Y-111969447D01*
X120064036Y-111973692D01*
X120058212Y-111978225D01*
X120023512Y-112015919D01*
X119887750Y-112151681D01*
X119826427Y-112185166D01*
X119800069Y-112188000D01*
X119645664Y-112188000D01*
X119498181Y-112224351D01*
X119363681Y-112294942D01*
X119343274Y-112313021D01*
X119265887Y-112381580D01*
X119249981Y-112395671D01*
X119163694Y-112520679D01*
X119163693Y-112520680D01*
X119109829Y-112662708D01*
X119094377Y-112789970D01*
X119091520Y-112813500D01*
X114681500Y-112813500D01*
X114681500Y-109651800D01*
X115930506Y-109651800D01*
X115948815Y-109802591D01*
X116002679Y-109944619D01*
X116088968Y-110069630D01*
X116202666Y-110170357D01*
X116337166Y-110240948D01*
X116410908Y-110259124D01*
X116484650Y-110277300D01*
X116484651Y-110277300D01*
X116636550Y-110277300D01*
X116685710Y-110265182D01*
X116784034Y-110240948D01*
X116918534Y-110170357D01*
X117032232Y-110069630D01*
X117036477Y-110063479D01*
X117041738Y-110055859D01*
X117096021Y-110011869D01*
X117143787Y-110002300D01*
X117846268Y-110002300D01*
X117913307Y-110021985D01*
X117948316Y-110055858D01*
X117957268Y-110068827D01*
X118070966Y-110169554D01*
X118205466Y-110240145D01*
X118279208Y-110258321D01*
X118352950Y-110276497D01*
X118352951Y-110276497D01*
X118504850Y-110276497D01*
X118554010Y-110264379D01*
X118652334Y-110240145D01*
X118786834Y-110169554D01*
X118900532Y-110068827D01*
X118960464Y-109982000D01*
X145038906Y-109982000D01*
X145057215Y-110132791D01*
X145111079Y-110274819D01*
X145197368Y-110399830D01*
X145311066Y-110500557D01*
X145445566Y-110571148D01*
X145519308Y-110589324D01*
X145593050Y-110607500D01*
X145593051Y-110607500D01*
X145744950Y-110607500D01*
X145794110Y-110595382D01*
X145892434Y-110571148D01*
X146026934Y-110500557D01*
X146140632Y-110399830D01*
X146226921Y-110274819D01*
X146280785Y-110132791D01*
X146299094Y-109982000D01*
X146291659Y-109920768D01*
X146303119Y-109851848D01*
X146350023Y-109800061D01*
X146417479Y-109781854D01*
X146444427Y-109785426D01*
X146482051Y-109794700D01*
X146482052Y-109794700D01*
X146633950Y-109794700D01*
X146686067Y-109781854D01*
X146781434Y-109758348D01*
X146915934Y-109687757D01*
X147029632Y-109587030D01*
X147029635Y-109587026D01*
X147029775Y-109586869D01*
X147029905Y-109586786D01*
X147035246Y-109582056D01*
X147036032Y-109582944D01*
X147088966Y-109549745D01*
X147122587Y-109545100D01*
X149335481Y-109545100D01*
X149402520Y-109564785D01*
X149437530Y-109598659D01*
X149464568Y-109637830D01*
X149578266Y-109738557D01*
X149712766Y-109809148D01*
X149786508Y-109827324D01*
X149860250Y-109845500D01*
X149860251Y-109845500D01*
X150012148Y-109845500D01*
X150012149Y-109845500D01*
X150020993Y-109843320D01*
X150090793Y-109846385D01*
X150147857Y-109886701D01*
X150174067Y-109951468D01*
X150166615Y-110007686D01*
X150137215Y-110085207D01*
X150126974Y-110169554D01*
X150118906Y-110236000D01*
X150137215Y-110386791D01*
X150191079Y-110528819D01*
X150277368Y-110653830D01*
X150391066Y-110754557D01*
X150525566Y-110825148D01*
X150599308Y-110843324D01*
X150673050Y-110861500D01*
X150673051Y-110861500D01*
X150824950Y-110861500D01*
X150874110Y-110849382D01*
X150972434Y-110825148D01*
X151106934Y-110754557D01*
X151220632Y-110653830D01*
X151306921Y-110528819D01*
X151360785Y-110386791D01*
X151379094Y-110236000D01*
X151360785Y-110085209D01*
X151306921Y-109943181D01*
X151220632Y-109818170D01*
X151203047Y-109802591D01*
X151141272Y-109747863D01*
X151104146Y-109688673D01*
X151099500Y-109655048D01*
X151099500Y-108761211D01*
X151102139Y-108735764D01*
X151104043Y-108726685D01*
X151102212Y-108711999D01*
X151099977Y-108694061D01*
X151099500Y-108686385D01*
X151099500Y-108682960D01*
X151095912Y-108661458D01*
X151093251Y-108640111D01*
X151089573Y-108610607D01*
X151089571Y-108610603D01*
X151087502Y-108603653D01*
X151087470Y-108603559D01*
X151087446Y-108603478D01*
X151085092Y-108596622D01*
X151085092Y-108596619D01*
X151060702Y-108551550D01*
X151038198Y-108505517D01*
X151038197Y-108505516D01*
X151038197Y-108505515D01*
X151033926Y-108499534D01*
X151029417Y-108493741D01*
X150991713Y-108459031D01*
X150645232Y-108112551D01*
X150611747Y-108051228D01*
X150609817Y-108009927D01*
X150617094Y-107950000D01*
X150598785Y-107799209D01*
X150550010Y-107670600D01*
X152100106Y-107670600D01*
X152118415Y-107821391D01*
X152172279Y-107963419D01*
X152258568Y-108088430D01*
X152372266Y-108189157D01*
X152506766Y-108259748D01*
X152580508Y-108277924D01*
X152654250Y-108296100D01*
X152654251Y-108296100D01*
X152806150Y-108296100D01*
X152864450Y-108281730D01*
X152953634Y-108259748D01*
X153088134Y-108189157D01*
X153201832Y-108088430D01*
X153288121Y-107963419D01*
X153341985Y-107821391D01*
X153360294Y-107670600D01*
X153341985Y-107519809D01*
X153288121Y-107377781D01*
X153201832Y-107252770D01*
X153173774Y-107227913D01*
X153122472Y-107182463D01*
X153085346Y-107123273D01*
X153080700Y-107089648D01*
X153080700Y-106829151D01*
X153100385Y-106762112D01*
X153122471Y-106736337D01*
X153201832Y-106666030D01*
X153288121Y-106541019D01*
X153341985Y-106398991D01*
X153360294Y-106248200D01*
X153341985Y-106097409D01*
X153288121Y-105955381D01*
X153201832Y-105830370D01*
X153088134Y-105729643D01*
X152953634Y-105659052D01*
X152953633Y-105659051D01*
X152953632Y-105659051D01*
X152806150Y-105622700D01*
X152806149Y-105622700D01*
X152654251Y-105622700D01*
X152654250Y-105622700D01*
X152506767Y-105659051D01*
X152372267Y-105729642D01*
X152258567Y-105830371D01*
X152172280Y-105955379D01*
X152172279Y-105955380D01*
X152119294Y-106095092D01*
X152118415Y-106097409D01*
X152100106Y-106248200D01*
X152118415Y-106398991D01*
X152172279Y-106541019D01*
X152258568Y-106666030D01*
X152337927Y-106736336D01*
X152375054Y-106795525D01*
X152379700Y-106829151D01*
X152379700Y-107089648D01*
X152360015Y-107156687D01*
X152337928Y-107182463D01*
X152258567Y-107252770D01*
X152172280Y-107377779D01*
X152172279Y-107377780D01*
X152133748Y-107479380D01*
X152118415Y-107519809D01*
X152100106Y-107670600D01*
X150550010Y-107670600D01*
X150544921Y-107657181D01*
X150458632Y-107532170D01*
X150344934Y-107431443D01*
X150210434Y-107360852D01*
X150210433Y-107360851D01*
X150210432Y-107360851D01*
X150062950Y-107324500D01*
X150062949Y-107324500D01*
X149911051Y-107324500D01*
X149911050Y-107324500D01*
X149763567Y-107360851D01*
X149629067Y-107431442D01*
X149515366Y-107532171D01*
X149505862Y-107545941D01*
X149451579Y-107589931D01*
X149403813Y-107599500D01*
X147141187Y-107599500D01*
X147074148Y-107579815D01*
X147039138Y-107545941D01*
X147029633Y-107532171D01*
X146970044Y-107479380D01*
X146915934Y-107431443D01*
X146781434Y-107360852D01*
X146781433Y-107360851D01*
X146781432Y-107360851D01*
X146633950Y-107324500D01*
X146633949Y-107324500D01*
X146482051Y-107324500D01*
X146482050Y-107324500D01*
X146446087Y-107333364D01*
X146376284Y-107330295D01*
X146319222Y-107289975D01*
X146293316Y-107227913D01*
X146289337Y-107195141D01*
X146280785Y-107124709D01*
X146226921Y-106982681D01*
X146140632Y-106857670D01*
X146026934Y-106756943D01*
X145892434Y-106686352D01*
X145892433Y-106686351D01*
X145892432Y-106686351D01*
X145744950Y-106650000D01*
X145744949Y-106650000D01*
X145593051Y-106650000D01*
X145593050Y-106650000D01*
X145445567Y-106686351D01*
X145311067Y-106756942D01*
X145197367Y-106857671D01*
X145111080Y-106982679D01*
X145111079Y-106982680D01*
X145057215Y-107124708D01*
X145050131Y-107183051D01*
X145038906Y-107275500D01*
X145057215Y-107426291D01*
X145111079Y-107568319D01*
X145197368Y-107693330D01*
X145276727Y-107763636D01*
X145313854Y-107822825D01*
X145318500Y-107856451D01*
X145318500Y-109401048D01*
X145298815Y-109468087D01*
X145276728Y-109493863D01*
X145197367Y-109564170D01*
X145111080Y-109689179D01*
X145111079Y-109689180D01*
X145057215Y-109831208D01*
X145043619Y-109943181D01*
X145038906Y-109982000D01*
X118960464Y-109982000D01*
X118986821Y-109943816D01*
X119040685Y-109801788D01*
X119056371Y-109672599D01*
X133554729Y-109672599D01*
X133581235Y-109686766D01*
X133779165Y-109746808D01*
X133985000Y-109767080D01*
X134190834Y-109746808D01*
X134388763Y-109686767D01*
X134415268Y-109672598D01*
X134415269Y-109672598D01*
X133985001Y-109242330D01*
X133985000Y-109242330D01*
X133554729Y-109672599D01*
X119056371Y-109672599D01*
X119058994Y-109650997D01*
X119040685Y-109500206D01*
X118986821Y-109358178D01*
X118900532Y-109233167D01*
X118786834Y-109132440D01*
X118652334Y-109061849D01*
X118652333Y-109061848D01*
X118652332Y-109061848D01*
X118504850Y-109025497D01*
X118504849Y-109025497D01*
X118352951Y-109025497D01*
X118352950Y-109025497D01*
X118205467Y-109061848D01*
X118070967Y-109132439D01*
X117957267Y-109233168D01*
X117947209Y-109247740D01*
X117892926Y-109291730D01*
X117845159Y-109301300D01*
X117143787Y-109301300D01*
X117076748Y-109281615D01*
X117041738Y-109247741D01*
X117032233Y-109233971D01*
X117031327Y-109233168D01*
X116918534Y-109133243D01*
X116784034Y-109062652D01*
X116784033Y-109062651D01*
X116784032Y-109062651D01*
X116636550Y-109026300D01*
X116636549Y-109026300D01*
X116484651Y-109026300D01*
X116484650Y-109026300D01*
X116337167Y-109062651D01*
X116202667Y-109133242D01*
X116202666Y-109133243D01*
X116089875Y-109233167D01*
X116088967Y-109233971D01*
X116002680Y-109358979D01*
X116002679Y-109358980D01*
X115948815Y-109501008D01*
X115930506Y-109651800D01*
X114681500Y-109651800D01*
X114681500Y-108712000D01*
X132929919Y-108712000D01*
X132950191Y-108917833D01*
X133010234Y-109115765D01*
X133024400Y-109142268D01*
X133024401Y-109142269D01*
X133382781Y-108783889D01*
X133485000Y-108783889D01*
X133525507Y-108921844D01*
X133603239Y-109042798D01*
X133711900Y-109136952D01*
X133842685Y-109196680D01*
X133949237Y-109212000D01*
X134020763Y-109212000D01*
X134127315Y-109196680D01*
X134258100Y-109136952D01*
X134366761Y-109042798D01*
X134444493Y-108921844D01*
X134485000Y-108783889D01*
X134485000Y-108712001D01*
X134515330Y-108712001D01*
X134945598Y-109142269D01*
X134945598Y-109142268D01*
X134959767Y-109115763D01*
X135019808Y-108917834D01*
X135040080Y-108712000D01*
X135019808Y-108506165D01*
X134959766Y-108308235D01*
X134945599Y-108281730D01*
X134515330Y-108711999D01*
X134515330Y-108712001D01*
X134485000Y-108712001D01*
X134485000Y-108640111D01*
X134444493Y-108502156D01*
X134366761Y-108381202D01*
X134258100Y-108287048D01*
X134127315Y-108227320D01*
X134020763Y-108212000D01*
X133949237Y-108212000D01*
X133842685Y-108227320D01*
X133711900Y-108287048D01*
X133603239Y-108381202D01*
X133525507Y-108502156D01*
X133485000Y-108640111D01*
X133485000Y-108783889D01*
X133382781Y-108783889D01*
X133454670Y-108712000D01*
X133454670Y-108711999D01*
X133024401Y-108281730D01*
X133024400Y-108281730D01*
X133010231Y-108308239D01*
X132950191Y-108506165D01*
X132929919Y-108712000D01*
X114681500Y-108712000D01*
X114681500Y-107324756D01*
X114683025Y-107305371D01*
X114690835Y-107256055D01*
X114702822Y-107219167D01*
X114720999Y-107183492D01*
X114743799Y-107152110D01*
X114772110Y-107123799D01*
X114803492Y-107100999D01*
X114839167Y-107082821D01*
X114876057Y-107070835D01*
X114925369Y-107063025D01*
X114944757Y-107061500D01*
X116285142Y-107061500D01*
X116441923Y-107028175D01*
X116588350Y-106962982D01*
X116718022Y-106868769D01*
X116825273Y-106749655D01*
X116905415Y-106610845D01*
X116954946Y-106458406D01*
X116971700Y-106299000D01*
X116968484Y-106268404D01*
X116981053Y-106199676D01*
X117028785Y-106148652D01*
X117091805Y-106131444D01*
X117201006Y-106131444D01*
X117355773Y-106093297D01*
X117356176Y-106094932D01*
X117416719Y-106090266D01*
X117478227Y-106123411D01*
X117478713Y-106123895D01*
X118507266Y-107152448D01*
X118540751Y-107213771D01*
X118542681Y-107255073D01*
X118535406Y-107314997D01*
X118535406Y-107315000D01*
X118553715Y-107465791D01*
X118607579Y-107607819D01*
X118693868Y-107732830D01*
X118807566Y-107833557D01*
X118942066Y-107904148D01*
X119015808Y-107922324D01*
X119089550Y-107940500D01*
X119089551Y-107940500D01*
X119241450Y-107940500D01*
X119312485Y-107922991D01*
X119388934Y-107904148D01*
X119523434Y-107833557D01*
X119592692Y-107772200D01*
X124651039Y-107772200D01*
X124669348Y-107922991D01*
X124723212Y-108065019D01*
X124809501Y-108190030D01*
X124923199Y-108290757D01*
X125057699Y-108361348D01*
X125131441Y-108379524D01*
X125205183Y-108397700D01*
X125205184Y-108397700D01*
X125357083Y-108397700D01*
X125406243Y-108385582D01*
X125504567Y-108361348D01*
X125639067Y-108290757D01*
X125752765Y-108190030D01*
X125762271Y-108176259D01*
X125816554Y-108132269D01*
X125864320Y-108122700D01*
X127853313Y-108122700D01*
X127920352Y-108142385D01*
X127955362Y-108176259D01*
X127964866Y-108190028D01*
X127964867Y-108190029D01*
X127964868Y-108190030D01*
X128078566Y-108290757D01*
X128213066Y-108361348D01*
X128286808Y-108379524D01*
X128360550Y-108397700D01*
X128360551Y-108397700D01*
X128512450Y-108397700D01*
X128561610Y-108385582D01*
X128659934Y-108361348D01*
X128794434Y-108290757D01*
X128908132Y-108190030D01*
X128994421Y-108065019D01*
X129048285Y-107922991D01*
X129066594Y-107772200D01*
X129064069Y-107751401D01*
X133554730Y-107751401D01*
X133985000Y-108181670D01*
X133985001Y-108181670D01*
X134415269Y-107751401D01*
X134415268Y-107751400D01*
X134388765Y-107737234D01*
X134190833Y-107677191D01*
X133985000Y-107656919D01*
X133779165Y-107677191D01*
X133581239Y-107737231D01*
X133554730Y-107751400D01*
X133554730Y-107751401D01*
X129064069Y-107751401D01*
X129048285Y-107621409D01*
X128994421Y-107479381D01*
X128908132Y-107354370D01*
X128794434Y-107253643D01*
X128659934Y-107183052D01*
X128659933Y-107183051D01*
X128659932Y-107183051D01*
X128512450Y-107146700D01*
X128512449Y-107146700D01*
X128360551Y-107146700D01*
X128360550Y-107146700D01*
X128213067Y-107183051D01*
X128078567Y-107253642D01*
X127964866Y-107354371D01*
X127955362Y-107368141D01*
X127901079Y-107412131D01*
X127853313Y-107421700D01*
X125864320Y-107421700D01*
X125797281Y-107402015D01*
X125762271Y-107368141D01*
X125752766Y-107354371D01*
X125729054Y-107333364D01*
X125639067Y-107253643D01*
X125504567Y-107183052D01*
X125504566Y-107183051D01*
X125504565Y-107183051D01*
X125357083Y-107146700D01*
X125357082Y-107146700D01*
X125205184Y-107146700D01*
X125205183Y-107146700D01*
X125057700Y-107183051D01*
X124923200Y-107253642D01*
X124923199Y-107253643D01*
X124843218Y-107324500D01*
X124809500Y-107354371D01*
X124723213Y-107479379D01*
X124723212Y-107479380D01*
X124669348Y-107621408D01*
X124663375Y-107670600D01*
X124651039Y-107772200D01*
X119592692Y-107772200D01*
X119637132Y-107732830D01*
X119723421Y-107607819D01*
X119777285Y-107465791D01*
X119795594Y-107315000D01*
X119777285Y-107164209D01*
X119723421Y-107022181D01*
X119637132Y-106897170D01*
X119523434Y-106796443D01*
X119388934Y-106725852D01*
X119388933Y-106725851D01*
X119388932Y-106725851D01*
X119241450Y-106689500D01*
X119241449Y-106689500D01*
X119089551Y-106689500D01*
X119087044Y-106689500D01*
X119020005Y-106669815D01*
X118999363Y-106653181D01*
X117772005Y-105425823D01*
X117738520Y-105364500D01*
X117737156Y-105356434D01*
X117736841Y-105355159D01*
X117736841Y-105355153D01*
X117682977Y-105213125D01*
X117596688Y-105088114D01*
X117482990Y-104987387D01*
X117348490Y-104916796D01*
X117348489Y-104916795D01*
X117348488Y-104916795D01*
X117201006Y-104880444D01*
X117201005Y-104880444D01*
X117091000Y-104880444D01*
X117023961Y-104860759D01*
X116978206Y-104807955D01*
X116967000Y-104756444D01*
X116967000Y-102028971D01*
X116967340Y-102022486D01*
X116969199Y-102004791D01*
X116971700Y-101981000D01*
X116954946Y-101821594D01*
X116905415Y-101669155D01*
X116825273Y-101530345D01*
X116783265Y-101483691D01*
X116718027Y-101411235D01*
X116718024Y-101411233D01*
X116718023Y-101411232D01*
X116718022Y-101411231D01*
X116613710Y-101335443D01*
X116588348Y-101317016D01*
X116471180Y-101264851D01*
X116441923Y-101251825D01*
X116441921Y-101251824D01*
X116285142Y-101218500D01*
X116268661Y-101218500D01*
X114944757Y-101218500D01*
X114925359Y-101216973D01*
X114911158Y-101214723D01*
X114876062Y-101209165D01*
X114839167Y-101197177D01*
X114803494Y-101179001D01*
X114772107Y-101156197D01*
X114743802Y-101127892D01*
X114720998Y-101096505D01*
X114702822Y-101060832D01*
X114690835Y-101023942D01*
X114683025Y-100974629D01*
X114682032Y-100962000D01*
X132929417Y-100962000D01*
X132949699Y-101167932D01*
X132965039Y-101218500D01*
X133009768Y-101365954D01*
X133107315Y-101548450D01*
X133117762Y-101561180D01*
X133238589Y-101708410D01*
X133335209Y-101787702D01*
X133398550Y-101839685D01*
X133581046Y-101937232D01*
X133779066Y-101997300D01*
X133779065Y-101997300D01*
X133797529Y-101999118D01*
X133985000Y-102017583D01*
X134190934Y-101997300D01*
X134388954Y-101937232D01*
X134571450Y-101839685D01*
X134731410Y-101708410D01*
X134862685Y-101548450D01*
X134960232Y-101365954D01*
X135020300Y-101167934D01*
X135040583Y-100962000D01*
X135020300Y-100756066D01*
X134960232Y-100558046D01*
X134862685Y-100375550D01*
X134802100Y-100301726D01*
X134731410Y-100215589D01*
X134597280Y-100105513D01*
X134571450Y-100084315D01*
X134388954Y-99986768D01*
X134190934Y-99926700D01*
X134190932Y-99926699D01*
X134190934Y-99926699D01*
X133985000Y-99906417D01*
X133779067Y-99926699D01*
X133581043Y-99986769D01*
X133471973Y-100045069D01*
X133398550Y-100084315D01*
X133398548Y-100084316D01*
X133398547Y-100084317D01*
X133238589Y-100215589D01*
X133107317Y-100375547D01*
X133107315Y-100375550D01*
X133072215Y-100441217D01*
X133009769Y-100558043D01*
X132949699Y-100756067D01*
X132929417Y-100962000D01*
X114682032Y-100962000D01*
X114681500Y-100955243D01*
X114681500Y-99061877D01*
X114681557Y-99060004D01*
X115014395Y-99060004D01*
X115034783Y-99332082D01*
X115034783Y-99332084D01*
X115089524Y-99571919D01*
X115095502Y-99598107D01*
X115195187Y-99852100D01*
X115331614Y-100088400D01*
X115501737Y-100301727D01*
X115701754Y-100487315D01*
X115927198Y-100641020D01*
X116173032Y-100759408D01*
X116433765Y-100839833D01*
X116433766Y-100839833D01*
X116433769Y-100839834D01*
X116703564Y-100880499D01*
X116703569Y-100880499D01*
X116703572Y-100880500D01*
X116703573Y-100880500D01*
X116976427Y-100880500D01*
X116976428Y-100880500D01*
X116976435Y-100880499D01*
X117246230Y-100839834D01*
X117246231Y-100839833D01*
X117246235Y-100839833D01*
X117506968Y-100759408D01*
X117752803Y-100641020D01*
X117978246Y-100487315D01*
X118178263Y-100301727D01*
X118348386Y-100088400D01*
X118484813Y-99852100D01*
X118584498Y-99598107D01*
X118645215Y-99332092D01*
X118647151Y-99306263D01*
X118665605Y-99060004D01*
X118665605Y-99059995D01*
X118645216Y-98787917D01*
X118645216Y-98787915D01*
X118645215Y-98787911D01*
X118645215Y-98787908D01*
X118591370Y-98552000D01*
X120054659Y-98552000D01*
X120073975Y-98748129D01*
X120089656Y-98799822D01*
X120115220Y-98884096D01*
X120131188Y-98936733D01*
X120224086Y-99110532D01*
X120224090Y-99110539D01*
X120349116Y-99262883D01*
X120501460Y-99387909D01*
X120501467Y-99387913D01*
X120675266Y-99480811D01*
X120675269Y-99480811D01*
X120675273Y-99480814D01*
X120863868Y-99538024D01*
X121060000Y-99557341D01*
X121256132Y-99538024D01*
X121444727Y-99480814D01*
X121618538Y-99387910D01*
X121770883Y-99262883D01*
X121895910Y-99110538D01*
X121966802Y-98977908D01*
X121988811Y-98936733D01*
X121988811Y-98936732D01*
X121988814Y-98936727D01*
X122046024Y-98748132D01*
X122065341Y-98552000D01*
X126884659Y-98552000D01*
X126903975Y-98748129D01*
X126919656Y-98799822D01*
X126945220Y-98884096D01*
X126961188Y-98936733D01*
X127054086Y-99110532D01*
X127054090Y-99110539D01*
X127179116Y-99262883D01*
X127331460Y-99387909D01*
X127331467Y-99387913D01*
X127505266Y-99480811D01*
X127505269Y-99480811D01*
X127505273Y-99480814D01*
X127693868Y-99538024D01*
X127890000Y-99557341D01*
X128086132Y-99538024D01*
X128274727Y-99480814D01*
X128448538Y-99387910D01*
X128600883Y-99262883D01*
X128725910Y-99110538D01*
X128796802Y-98977908D01*
X128818811Y-98936733D01*
X128818811Y-98936732D01*
X128818814Y-98936727D01*
X128876024Y-98748132D01*
X128895341Y-98552000D01*
X128876024Y-98355868D01*
X128818814Y-98167273D01*
X128818811Y-98167269D01*
X128818811Y-98167266D01*
X128725913Y-97993467D01*
X128725909Y-97993460D01*
X128600883Y-97841116D01*
X128448539Y-97716090D01*
X128448532Y-97716086D01*
X128274733Y-97623188D01*
X128274727Y-97623186D01*
X128086132Y-97565976D01*
X128086129Y-97565975D01*
X127890000Y-97546659D01*
X127693870Y-97565975D01*
X127505266Y-97623188D01*
X127331467Y-97716086D01*
X127331460Y-97716090D01*
X127179116Y-97841116D01*
X127054090Y-97993460D01*
X127054086Y-97993467D01*
X126961188Y-98167266D01*
X126903975Y-98355870D01*
X126884659Y-98552000D01*
X122065341Y-98552000D01*
X122046024Y-98355868D01*
X121988814Y-98167273D01*
X121988811Y-98167269D01*
X121988811Y-98167266D01*
X121895913Y-97993467D01*
X121895909Y-97993460D01*
X121770883Y-97841116D01*
X121618539Y-97716090D01*
X121618532Y-97716086D01*
X121444733Y-97623188D01*
X121444727Y-97623186D01*
X121256132Y-97565976D01*
X121256129Y-97565975D01*
X121060000Y-97546659D01*
X120863870Y-97565975D01*
X120675266Y-97623188D01*
X120501467Y-97716086D01*
X120501460Y-97716090D01*
X120349116Y-97841116D01*
X120224090Y-97993460D01*
X120224086Y-97993467D01*
X120131188Y-98167266D01*
X120073975Y-98355870D01*
X120054659Y-98552000D01*
X118591370Y-98552000D01*
X118584498Y-98521893D01*
X118484813Y-98267900D01*
X118348386Y-98031600D01*
X118178263Y-97818273D01*
X117978246Y-97632685D01*
X117752803Y-97478980D01*
X117752797Y-97478977D01*
X117752796Y-97478976D01*
X117752794Y-97478975D01*
X117506970Y-97360593D01*
X117506972Y-97360593D01*
X117246236Y-97280167D01*
X117246230Y-97280165D01*
X116976435Y-97239500D01*
X116976428Y-97239500D01*
X116703572Y-97239500D01*
X116703564Y-97239500D01*
X116433769Y-97280165D01*
X116433763Y-97280167D01*
X116173031Y-97360592D01*
X115927202Y-97478977D01*
X115701753Y-97632685D01*
X115501739Y-97818271D01*
X115501737Y-97818273D01*
X115331614Y-98031600D01*
X115195187Y-98267899D01*
X115095504Y-98521887D01*
X115095499Y-98521904D01*
X115034783Y-98787915D01*
X115034783Y-98787917D01*
X115014395Y-99059995D01*
X115014395Y-99060004D01*
X114681557Y-99060004D01*
X114681613Y-99058133D01*
X114684818Y-99005149D01*
X114697011Y-98803559D01*
X114697915Y-98796128D01*
X114720665Y-98671982D01*
X114743549Y-98547106D01*
X114745334Y-98539865D01*
X114820654Y-98298155D01*
X114823305Y-98291168D01*
X114869173Y-98189253D01*
X114927208Y-98060305D01*
X114930678Y-98053692D01*
X115061651Y-97837038D01*
X115065901Y-97830879D01*
X115222040Y-97631585D01*
X115226975Y-97626014D01*
X115406014Y-97446975D01*
X115411585Y-97442040D01*
X115610879Y-97285901D01*
X115617038Y-97281651D01*
X115686764Y-97239500D01*
X115833692Y-97150678D01*
X115840305Y-97147208D01*
X116071168Y-97043305D01*
X116078155Y-97040654D01*
X116319865Y-96965334D01*
X116327106Y-96963549D01*
X116576128Y-96917915D01*
X116583559Y-96917011D01*
X116783786Y-96904900D01*
X116838134Y-96901613D01*
X116841878Y-96901500D01*
X116894851Y-96901500D01*
X121372339Y-96901500D01*
X129852895Y-96901500D01*
X129919934Y-96921185D01*
G37*
%TD.AperFunction*%
%TD*%
M02*
