<?xml version="1.0" encoding="utf-8"?>
<!-- Generator: Adobe Illustrator 28.1.0, SVG Export Plug-In . SVG Version: 6.00 Build 0)  -->
<svg version="1.1" id="Layer_1" xmlns:svg="http://www.w3.org/2000/svg"
	 xmlns="http://www.w3.org/2000/svg" xmlns:xlink="http://www.w3.org/1999/xlink" x="0px" y="0px" viewBox="0 0 144.3 65.1"
	 style="enable-background:new 0 0 144.3 65.1;" xml:space="preserve">
<style type="text/css">
	.st0{opacity:0;enable-background:new    ;}
	.st1{fill:none;}
	.st2{fill:#E8B2A7;}
	.st3{font-family:'ArialMT';}
	.st4{font-size:2.8346px;}
	.st5{letter-spacing:1;}
	.st6{fill:none;stroke:#E8B2A7;stroke-width:0.3402;stroke-linecap:round;stroke-linejoin:round;stroke-miterlimit:11.3386;}
	.st7{letter-spacing:2;}
	.st8{fill-rule:evenodd;clip-rule:evenodd;fill:#E8B2A7;}
	.st9{letter-spacing:3;}
	
		.st10{fill-rule:evenodd;clip-rule:evenodd;fill:#E8B2A7;stroke:#E8B2A7;stroke-width:2.834645e-02;stroke-linecap:round;stroke-linejoin:round;stroke-miterlimit:11.3386;}
	
		.st11{fill:#E8B2A7;fill-opacity:0;stroke:#E8B2A7;stroke-width:0.3402;stroke-linecap:round;stroke-linejoin:round;stroke-miterlimit:11.3386;}
	
		.st12{fill:#D0D2CD;fill-opacity:0;stroke:#D0D2CD;stroke-width:0.3402;stroke-linecap:round;stroke-linejoin:round;stroke-miterlimit:11.3386;}
</style>
<g transform="translate(0 0) scale(1 1)">
</g>
<g>
	<g class="st0">
		<rect x="123.2" y="29.5" class="st1" width="19.8" height="3.4"/>
		<text transform="matrix(-1 0 0 1 142.9592 31.9347)"><tspan x="0" y="0" class="st2 st3 st4">SD</tspan><tspan x="3.9" y="0" class="st2 st3 st4 st5"> </tspan><tspan x="6.6" y="0" class="st2 st3 st4">uses</tspan><tspan x="12.6" y="0" class="st2 st3 st4 st5"> </tspan><tspan x="15.2" y="0" class="st2 st3 st4">SPI</tspan></text>
	</g>
	<g class="st0">
		<rect x="122.6" y="29" class="st1" width="20.9" height="4.3"/>
		<text transform="matrix(-1 0 0 1 143.5515 31.4528)"><tspan x="0" y="0" class="st6 st3 st4">SD</tspan><tspan x="3.9" y="0" class="st6 st3 st4 st7"> </tspan><tspan x="7.2" y="0" class="st6 st3 st4">uses</tspan><tspan x="13.2" y="0" class="st6 st3 st4 st7"> </tspan><tspan x="16.4" y="0" class="st6 st3 st4">SPI</tspan></text>
	</g>
	<g>
		<path class="st8" d="M107.7,29.6h0.6l0,0l0,0l0,0l0,0l0,0l0,0l0,0l0,0l0,0l0,0l0,0l0,0l0,0l0,0l0,0l0,0l0,0l0,0l0,0l0,0l0,0l0,0
			l0,0l0,0l0,0l0,0l0,0l0,0l0,0l0,0l0,0h0l0,0l0,0l0,0l0,0l0,0l0,0l0,0l0,0l0,0l0,0l0,0l0,0l0,0l0,0l0,0l0,0h-0.6l0,0l0,0l0,0l0,0
			l0,0l0,0l0.9,1.2l0,0l0,0l0,0l0,0l0,0l0,0l0,0l0,0l0,0l0,0l0,0l0,0l0,0l0,0l0,0l0,0l0,0l0,0l0,0l0,0l0,0l0,0l0,0l0,0l0,0h0h-0.7
			l0,0l0,0l0,0l0,0l0,0l0,0l0,0l0,0l0,0l0,0l0,0l0,0l0,0l0,0l0,0l0,0l0,0l0,0l0,0l0,0l0,0l0,0l0,0l0,0l0,0l0,0l0,0l0,0l0,0l0,0l0,0
			l0,0l0,0l0,0l0,0l0,0l0,0l0,0l0,0l0,0l0,0l0,0l0,0l0,0l0,0l0,0l0,0l0,0h0.6l0,0l0,0l0,0l0,0l0,0l0,0l-0.9-1.2l0,0l0,0l0,0l0,0l0,0
			l0,0l0,0l0,0l0,0l0,0l0,0l0,0l0,0l0,0l0,0l0,0l0,0l0,0l0,0l0,0l0,0L107.7,29.6L107.7,29.6L107.7,29.6L107.7,29.6L107.7,29.6z"/>
		<path class="st8" d="M109.3,29.6L109.3,29.6L109.3,29.6L109.3,29.6L109.3,29.6L109.3,29.6l-0.1,0.1l0,0l0,0v0l0,0l0,0l0,0l0,0l0,0
			l0,0l0,0l0,0l0,0h0.1v1.5h-0.1h0l0,0l0,0l0,0l0,0l0,0l0,0l0,0l0,0l0,0v0l0,0l0,0l0,0l0,0l0,0l0,0l0,0l0,0l0,0h0.5l0,0l0,0l0,0l0,0
			l0,0l0,0l0,0l0,0l0,0l0,0l0,0l0,0l0,0l0,0l0,0l0,0l0.2-0.5l0,0l0,0l0,0l0,0l0,0l0,0l0,0l0,0l0,0l0,0l0,0l0,0h-0.2v0l0,0l0,0l0,0
			l0,0l0,0l0,0l0,0l-0.2,0.5l0,0l0,0l0,0l0,0l0,0l0,0l0,0h-0.1v-1.5l0.1,0l0,0l0,0l0,0l0,0l0,0l0,0l0,0l0.3,0.5l0,0l0,0l0,0l0,0l0,0
			l0,0l0,0h0.2v0l0,0l0,0l0,0l0,0l0,0l0,0l0,0l0,0l0,0l0,0l-0.2-0.5l0,0l0,0l0,0l0,0l0,0l0,0l0,0l0,0l0,0l0,0l0,0l0,0l0,0l0,0l0,0
			l0,0H109.3L109.3,29.6z"/>
		<path class="st8" d="M113.4,31.3l0.4-0.2v-0.8l0,0l0,0l0,0l0,0l0,0l0,0l0,0l0,0l0,0l0,0l0,0l0,0l0,0l0,0l0,0l0,0l0,0l0,0l0,0l0,0
			v1.2l0,0l0,0l0,0l0,0l0,0l0,0l0,0l0,0l0,0h0l0,0l0,0l0,0l0,0l0,0l0,0l0,0l0,0l0,0l0,0v-0.1l-0.2,0.1l0,0l0,0l0,0l0,0l0,0l0,0l0,0
			l0,0l0,0l0,0l0,0h-0.1l0,0l0,0l0,0l0,0l0,0l0,0l0,0l0,0l0,0l0,0l0,0l0,0l0,0l0,0l0,0l0,0l0,0l0,0l0,0l0,0l0,0l0,0l0-0.9l0,0l0,0
			l0,0l0,0l0,0l0,0l0,0l0,0l0,0l0,0l0,0l0,0l0,0l0,0l0,0l0,0l0,0l0,0l0,0l0,0l0,0.9l0,0l0,0l0,0l0,0l0,0l0,0l0,0l0,0l0,0l0,0H113.4z
			"/>
		<path class="st8" d="M115,30.2h0.6l0,0l0,0l0,0l0,0l0,0l0,0l0,0l0,0l0,0l0,0l0,0l0,0l0,0l0,0l0,0l0,0l0,0l0,0l0,0l0,0l0,0l0,0l0,0
			l0,0l0,0l0,0l0,0l0,0l0,0l0,0l0,0l0,0l0,0l0,0l0,0l0,0l0,0l0,0l0,0h0H115l0,0l0,0l0,0l0,0l0,0l0,0l0,0l0,0l0,0l0,0l0,0l0.7,0.3
			l0,0l0,0l0,0l0,0l0,0l0,0l0,0l0,0l0,0l0,0l0,0l0,0l0,0l0,0l0,0l0,0l0,0l0,0l0,0l0,0l0,0l0,0l0,0l0,0l0,0l0,0l0,0l0,0l0,0l0,0l0,0
			l0,0l0,0l0,0l0,0l0,0l0,0l0,0l0,0l0,0l0,0l0,0H115l0,0l0,0l0,0l0,0l0,0l0,0l0,0l0,0l0,0l0,0l0,0l0,0l0,0l0,0l0,0l0,0l0,0l0,0l0,0
			v0l0,0l0,0l0,0l0,0l0,0l0,0l0,0l0,0l0,0l0,0l0,0l0,0l0,0l0,0l0,0l0,0l0,0l0,0l0,0l0,0l0,0l0,0l0,0h0.5l0,0l0,0l0,0l0,0l0,0l0,0
			l0,0l0,0l0,0l0,0l0,0l0,0l0,0l0,0l0,0l0,0l0,0l0,0l-0.7-0.3l0,0l0,0l0,0l0,0l0,0l0,0l0,0l0,0l0,0l0,0l0,0l0,0l0,0l0,0l0,0v0l0,0
			l0,0l0,0l0,0l0,0l0,0l0,0l0,0l0,0l0,0l0,0l0,0l0,0l0,0l0,0l0,0l0,0L115,30.2L115,30.2L115,30.2L115,30.2L115,30.2z"/>
		<path class="st8" d="M116.9,30.2L116.9,30.2L116.9,30.2L116.9,30.2L116.9,30.2l-0.1,0l0,0l0,0l0,0l0,0l0,0l-0.1,0.1l0,0l0,0l0,0
			l0,0l0,0l0,0l0,0l0,0l0,0l0,0l0,0l0,0l0,0v0.6l0,0l0,0l0,0l0,0l0,0l0,0l0,0l0,0l0,0l0,0l0,0l0,0l0,0l0.1,0.1l0,0l0,0l0,0l0,0l0,0
			l0,0l0,0l0,0l0,0l0,0l0,0l0,0l0,0h0.6h0l0,0l0,0l0,0l0,0l0,0l0,0l0,0l0,0l0,0v0l0,0l0,0l0,0l0,0l0,0l0,0l0,0l0,0l0,0h-0.6l0,0l0,0
			l0,0l0,0l0,0l0,0l-0.1-0.1l0,0l0,0l0,0l0,0l0,0l0,0V31h0.9l0,0l0,0l0,0l0,0l0,0l0,0l0,0l0,0l0,0l0,0v-0.1h-0.2h-0.7v-0.2l0,0l0,0
			l0,0l0,0l0,0l0.1-0.1l0,0l0,0l0,0l0,0l0,0l0,0h0.3l0,0l0,0l0,0l0,0l0,0l0.1,0.1l0,0l0,0l0,0l0,0l0,0l0,0v0.2h0.2v-0.2l0,0l0,0l0,0
			l0,0l0,0l0,0l0,0l0,0l0,0l0,0l0,0l-0.1-0.1l0,0l0,0l0,0l0,0l0,0l0,0l0,0l0,0l0,0l0,0l0,0L116.9,30.2L116.9,30.2z"/>
		<path class="st8" d="M118.6,30.2h0.6l0,0l0,0l0,0l0,0l0,0l0,0l0,0l0,0l0,0l0,0l0,0l0,0l0,0l0,0l0,0l0,0l0,0l0,0l0,0l0,0l0,0l0,0
			l0,0l0,0l0,0l0,0l0,0l0,0l0,0l0,0l0,0l0,0l0,0l0,0l0,0l0,0l0,0l0,0l0,0h0h-0.6l0,0l0,0l0,0l0,0l0,0l0,0l0,0l0,0l0,0l0,0l0,0
			l0.7,0.3l0,0l0,0l0,0l0,0l0,0l0,0l0,0l0,0l0,0l0,0l0,0l0,0l0,0l0,0l0,0l0,0l0,0l0,0l0,0l0,0l0,0l0,0l0,0l0,0l0,0l0,0l0,0l0,0l0,0
			l0,0l0,0l0,0l0,0l0,0l0,0l0,0l0,0l0,0l0,0l0,0l0,0l0,0h-0.5l0,0l0,0l0,0l0,0l0,0l0,0l0,0l0,0l0,0l0,0l0,0l0,0l0,0l0,0l0,0l0,0l0,0
			l0,0l0,0l0,0l0,0l0,0l0,0l0,0l0,0l0,0l0,0l0,0l0,0l0,0l0,0l0,0l0,0l0,0l0,0l0,0l0,0l0,0l0,0l0,0l0,0l0,0l0,0h0.5l0,0l0,0l0,0l0,0
			l0,0l0,0l0,0l0,0l0,0l0,0v0l0,0l0,0l0,0l0,0l0,0l0,0l0,0l-0.7-0.3l0,0l0,0l0,0l0,0l0,0l0,0l0,0l0,0l0,0l0,0l0,0l0,0l0,0l0,0l0,0v0
			l0,0l0,0l0,0l0,0l0,0l0,0l0,0l0,0l0,0l0,0l0,0l0,0l0,0l0,0l0,0l0,0l0,0L118.6,30.2L118.6,30.2L118.6,30.2L118.6,30.2L118.6,30.2z"
			/>
		<path class="st8" d="M122.1,29.6h0.6l0,0l0,0l0,0l0,0l0,0l0,0l0,0l0,0l0,0l0,0l0,0l0,0l0,0l0,0l0,0l0,0l0,0l0,0l0,0l0,0l0,0l0,0
			l0,0l0,0l0,0l0,0l0,0l0,0l0,0l0,0l0,0h0l0,0l0,0l0,0l0,0l0,0l0,0l0,0l0,0l0,0l0,0l0,0l0,0l0,0l0,0l0,0l0,0h-0.6l0,0l0,0l0,0l0,0
			l0,0l0,0l0.9,1.2l0,0l0,0l0,0l0,0l0,0l0,0l0,0l0,0l0,0l0,0l0,0l0,0l0,0l0,0l0,0l0,0l0,0l0,0l0,0l0,0l0,0l0,0l0,0l0,0l0,0h0h-0.7
			l0,0l0,0l0,0l0,0l0,0l0,0l0,0l0,0l0,0l0,0l0,0l0,0l0,0l0,0l0,0l0,0l0,0l0,0l0,0l0,0l0,0l0,0l0,0l0,0l0,0l0,0l0,0l0,0l0,0l0,0l0,0
			l0,0l0,0l0,0l0,0l0,0l0,0l0,0l0,0l0,0l0,0l0,0l0,0l0,0l0,0l0,0l0,0l0,0h0.6l0,0l0,0l0,0l0,0l0,0l0,0l-0.9-1.2l0,0l0,0l0,0l0,0l0,0
			l0,0l0,0l0,0l0,0l0,0l0,0l0,0l0,0l0,0l0,0l0,0l0,0l0,0l0,0l0,0l0,0L122.1,29.6L122.1,29.6L122.1,29.6L122.1,29.6L122.1,29.6z"/>
		<path class="st8" d="M123.6,31.5L123.6,31.5L123.6,31.5L123.6,31.5L123.6,31.5L123.6,31.5L123.6,31.5l0.1,0.1l0,0l0,0l0,0h0l0,0
			l0,0l0,0l0,0l0,0l0,0l0,0l0,0l0,0v-0.6h0.6l0,0l0,0l0,0l0,0l0,0l0,0l0,0l0,0l0,0l0,0l0,0l0,0l0,0l0,0l0,0l0,0l0,0l0,0l0,0l0,0l0,0
			l0,0h-0.2l0,0l0,0l0,0l0,0l0,0l0,0l0,0l0,0l0,0l0,0h-0.6v-0.7h0.6l0,0l0,0l0,0l0,0l0,0l0,0l0,0l0,0l0,0l0,0v0.5h0.2l0,0V30l0,0
			l0,0l0,0l0,0l0,0l0,0l0,0l0,0l0,0l0,0l0,0l0,0l0,0l0,0l0,0l0,0l0,0l0,0l0,0l0,0l0,0l0,0h-0.9V31.5z"/>
		<path class="st8" d="M125.5,29.6h1l0,0l0,0l0,0l0,0l0,0l0,0l0,0l0,0l0,0v0l0,0l0,0l0,0l0,0l0,0l0,0l0,0l0,0l0,0h0h-0.4v1.5h0.4
			l0,0l0,0l0,0l0,0l0,0l0,0l0,0l0,0l0,0v0l0,0l0,0l0,0l0,0l0,0l0,0l0,0l0,0l0,0h0h-1l0,0l0,0l0,0l0,0l0,0l0,0l0,0l0,0l0,0v0l0,0l0,0
			l0,0l0,0l0,0l0,0l0,0l0,0h0h0.4v-1.5h-0.4l0,0l0,0l0,0l0,0l0,0l0,0l0,0l0,0l0,0v0l0,0l0,0l0,0L125.5,29.6L125.5,29.6L125.5,29.6
			L125.5,29.6L125.5,29.6L125.5,29.6L125.5,29.6z"/>
	</g>
</g>
<g>
	<g>
		<path class="st8" d="M98.7,33.2h0.6l0,0l0,0l0,0l0,0l0,0l0,0l0,0l0,0l0,0l0,0l0,0l0,0l0,0l0,0l0,0l0,0l0,0l0,0l0,0l0,0l0,0l0,0
			l0,0l0,0l0,0l0,0l0,0l0,0l0,0l0,0l0,0h0l0,0l0,0l0,0l0,0l0,0l0,0l0,0l0,0l0,0l0,0l0,0l0,0l0,0l0,0l0,0l0,0h-0.6l0,0l0,0l0,0l0,0
			l0,0l0,0l0.9,1.2l0,0l0,0l0,0l0,0l0,0l0,0l0,0l0,0l0,0l0,0l0,0l0,0l0,0l0,0l0,0l0,0l0,0l0,0l0,0l0,0l0,0l0,0l0,0l0,0l0,0h0h-0.7
			l0,0l0,0l0,0l0,0l0,0l0,0l0,0l0,0l0,0l0,0l0,0l0,0l0,0l0,0l0,0l0,0l0,0l0,0l0,0l0,0l0,0l0,0l0,0l0,0l0,0l0,0l0,0l0,0l0,0l0,0l0,0
			l0,0l0,0l0,0l0,0l0,0l0,0l0,0l0,0l0,0l0,0l0,0l0,0l0,0l0,0l0,0l0,0l0,0h0.6l0,0l0,0l0,0l0,0l0,0l0,0l-0.9-1.2l0,0l0,0l0,0l0,0l0,0
			l0,0l0,0l0,0l0,0l0,0l0,0l0,0l0,0l0,0l0,0l0,0l0,0l0,0l0,0l0,0l0,0L98.7,33.2L98.7,33.2L98.7,33.2L98.7,33.2L98.7,33.2z"/>
		<path class="st8" d="M100.2,35v-1.7l0,0l0,0l0,0l0,0l0,0l0,0l0,0l0,0l0,0l0,0l0,0l0,0l0,0l0,0l0,0l0,0l0,0l0,0l0,0v0V34h0.7v-0.7
			l0,0l0,0l0,0l0,0l0,0l0,0l0,0l0,0l0,0h0l0,0l0,0l0,0l0,0l0,0l0,0l0,0l0,0l0,0l0,0V35l0,0l0,0l0,0l0,0l0,0l0,0l0,0l0,0l0,0h0l0,0
			l0,0l0,0l0,0l0,0l0,0l0,0l0,0l0,0l0,0v-0.7h-0.7V35l0,0l0,0l0,0l0,0l0,0l0,0l0,0l0,0l0,0l0,0l0,0l0,0l0,0L100.2,35L100.2,35
			L100.2,35L100.2,35L100.2,35L100.2,35L100.2,35z"/>
		<path class="st8" d="M102,33.5v-0.3h1.2v0.3l0,0l0,0l0,0l0,0l0,0l0,0l0,0l0,0l0,0l0,0l0,0l0,0l0,0l0,0l0,0l0,0l0,0l0,0l0,0v0v-0.1
			h-0.2V35l0,0l0,0l0,0l0,0l0,0l0,0l0,0l0,0l0,0h0l0,0l0,0l0,0l0,0l0,0l0,0l0,0l0,0l0,0l0,0v-1.6h-0.2v0.1l0,0l0,0l0,0l0,0l0,0l0,0
			l0,0l0,0l0,0l0,0l0,0l0,0L102,33.5L102,33.5L102,33.5L102,33.5L102,33.5L102,33.5L102,33.5L102,33.5z"/>
		<path class="st8" d="M104.6,35v-0.5h-0.7v-1.2l0,0l0,0l0,0l0,0l0,0l0,0l0,0l0,0l0,0l0,0l0,0l0,0l0,0l0,0l0,0l0,0l0,0l0,0l0,0l0,0
			v0.9h0.5v-0.7l0,0l0,0l0,0l0,0l0,0l0,0l0,0l0,0l0,0l0,0l0,0l0,0l0,0l0,0l0,0l0,0l0,0l0,0l0,0l0,0v0.7l0,0l0,0l0,0l0,0l0,0l0,0l0,0
			l0,0l0,0l0,0l0,0l0,0l0,0l0,0l0,0l0,0l0,0l0,0l0,0h0V35l0,0l0,0l0,0l0,0l0,0l0,0l0,0l0,0l0,0h0l0,0l0,0l0,0L104.6,35L104.6,35
			L104.6,35L104.6,35L104.6,35L104.6,35L104.6,35z"/>
		<path class="st8" d="M105.7,34.9h0.4v-1.5h-0.4l0,0l0,0l0,0l0,0l0,0l0,0l0,0l0,0l0,0l0,0l0,0l0,0l0,0l0,0l0,0l0,0l0,0l0,0h0h0.6
			v1.7h0.2v-0.5l0,0l0,0l0,0l0,0l0,0l0,0l0,0l0,0l0,0l0,0l0,0l0,0l0,0l0,0l0,0l0,0l0,0l0,0l0,0v0V35l0,0l0,0l0,0l0,0l0,0l0,0l0,0
			l0,0l0,0h0h-1l0,0l0,0l0,0l0,0l0,0l0,0l0,0l0,0l0,0l0,0l0,0l0,0l0,0L105.7,34.9L105.7,34.9L105.7,34.9L105.7,34.9L105.7,34.9
			L105.7,34.9z"/>
		<path class="st8" d="M109.2,33.5v-0.3h1.2v0.3l0,0l0,0l0,0l0,0l0,0l0,0l0,0l0,0l0,0l0,0l0,0l0,0l0,0l0,0l0,0l0,0l0,0l0,0l0,0v0
			v-0.1H110V35l0,0l0,0l0,0l0,0l0,0l0,0l0,0l0,0l0,0h0l0,0l0,0l0,0l0,0l0,0l0,0l0,0l0,0l0,0l0,0v-1.6h-0.2v0.1l0,0l0,0l0,0l0,0l0,0
			l0,0l0,0l0,0l0,0l0,0l0,0l0,0L109.2,33.5L109.2,33.5L109.2,33.5L109.2,33.5L109.2,33.5L109.2,33.5L109.2,33.5L109.2,33.5z"/>
		<path class="st8" d="M111.5,33.8L111.5,33.8L111.5,33.8L111.5,33.8L111.5,33.8l-0.1,0l0,0l0,0l0,0l0,0l0,0l-0.1,0.1l0,0l0,0l0,0
			l0,0l0,0l0,0l0,0l0,0l0,0l0,0l0,0l0,0l0,0v0.6l0,0l0,0l0,0l0,0l0,0l0,0l0,0l0,0l0,0l0,0l0,0l0,0l0,0l0.1,0.1l0,0l0,0l0,0l0,0l0,0
			l0,0l0,0l0,0l0,0l0,0l0,0l0,0l0,0h0.6h0l0,0l0,0l0,0l0,0l0,0l0,0l0,0l0,0l0,0v0l0,0l0,0l0,0l0,0l0,0l0,0l0,0l0,0l0,0h-0.6l0,0l0,0
			l0,0l0,0l0,0l0,0l-0.1-0.1l0,0l0,0l0,0l0,0l0,0l0,0v-0.1h0.9l0,0l0,0l0,0l0,0l0,0l0,0l0,0l0,0l0,0l0,0v-0.1H112h-0.7v-0.2l0,0l0,0
			l0,0l0,0l0,0l0.1-0.1l0,0l0,0l0,0l0,0l0,0l0,0h0.3l0,0l0,0l0,0l0,0l0,0l0.1,0.1l0,0l0,0l0,0l0,0l0,0l0,0v0.2h0.2v-0.2l0,0l0,0l0,0
			l0,0l0,0l0,0l0,0l0,0l0,0l0,0l0,0l-0.1-0.1l0,0l0,0l0,0l0,0l0,0l0,0l0,0l0,0l0,0l0,0l0,0L111.5,33.8L111.5,33.8z"/>
		<path class="st8" d="M112.8,35v-1.2l0,0l0,0l0,0l0,0l0,0l0,0l0,0l0,0l0,0h0l0,0l0,0l0,0l0,0l0,0l0,0l0,0l0,0l0,0l0,0l0,0l0,0l0,0
			l0,0l0,0l0,0l0,0l0,0l0,0l0,0l0,0l0,0l0,0l0,0l0,0l0,0l0,0l0,0l0,0l0,0l0,0l0,0l0,0l0,0l0,0l0,0l0,0l0,0l0,0l0,0l0,0l0,0l0,0l0,0
			l0,0l0,0l0,0l0,0l0,0l0,0l0,0l0,0l0,0l0,0l0,0l0,0l0,0l0,0l0,0l0,0l0,1l0,0l0,0l0,0l0,0l0,0l0,0l0,0l0,0l0,0h0l0,0l0,0l0,0l0,0
			l0,0l0,0l0,0l0,0l0,0l0,0l0-1l0,0l0,0l0,0l0,0l0,0l0,0l0,0l0,0l-0.1,0.1V35l0,0l0,0l0,0l0,0l0,0l0,0l0,0l0,0l0,0h0l0,0l0,0l0,0
			l0,0l0,0l0,0l0,0l0,0l0,0l0,0v-1l0,0l0,0l0,0l0,0h0l0,0l0,0l0,0l-0.2,0.1V35l0,0l0,0l0,0l0,0l0,0l0,0l0,0l0,0l0,0h0l0,0l0,0l0,0
			L112.8,35L112.8,35L112.8,35L112.8,35L112.8,35L112.8,35L112.8,35z"/>
		<path class="st8" d="M115.2,33.7L115.2,33.7L115.2,33.7L115.2,33.7L115.2,33.7l-0.1,0l0,0l0,0l0,0l0,0l0,0l0,0l0,0l0,0l0,0l0,0
			v-0.1v0l0,0l0,0l0,0l0,0l0,0l0,0l0,0l0,0l0,0l0,0l0,0l0,0l0,0l0,0l0,0l0,0l0,0l0,0l0,0v1.7l0,0l0,0l0,0l0,0l0,0l0,0l0,0l0,0l0,0
			l0,0l0,0l0,0l0,0l0,0l0,0l0,0l0,0l0,0l0,0l0,0V35l0.1,0.1l0,0l0,0l0,0l0,0l0,0l0,0l0,0l0,0l0,0l0,0l0,0h0.1l0,0l0,0l0,0l0,0l0,0
			l0,0l0,0l0,0l0,0l0,0l0,0l0.2-0.2l0,0l0,0l0,0l0,0l0,0l0,0l0,0l0,0l0,0l0,0l0,0l0,0l0,0l0,0l0,0l0,0h-0.2v0l0,0l0,0l0,0l0,0l0,0
			l-0.2,0.2l0,0l0,0l0,0l0,0l0,0h-0.1h0l0,0l0,0l0,0l0,0l0,0l0,0l-0.2-0.2l0,0l0,0l0,0l0,0l0,0l0,0v-0.3l0,0l0,0l0,0l0,0l0,0l0,0
			l0.2-0.2l0,0l0,0l0,0l0,0l0,0l0,0h0.1l0,0l0,0l0,0l0,0l0.2,0.2l0,0l0,0l0,0l0,0l0,0l0,0v0.4h0.2l0,0v-0.4l0,0l0,0l0,0l0,0l0,0l0,0
			l0,0l0,0l0,0l0,0l0,0l0,0l0,0l0,0l-0.2-0.2l0,0l0,0l0,0l0,0l0,0l0,0l0,0l0,0l0,0l0,0H115.2L115.2,33.7L115.2,33.7z"/>
		<path class="st8" d="M118.6,33.4L118.6,33.4L118.6,33.4L118.6,33.4l-0.1,0l0,0l0,0l0,0l0,0l0,0l0,0l0,0l0,0l0,0l0,0l0,0l0,0l0,0
			l0,0l0,0l0,0l0,0v0.2l0,0l0,0l0,0l0,0l0,0l0,0l0.2,0.3l-0.2,0.2l0,0l0,0l0,0l0,0l0,0l0,0v0.2l0,0l0,0l0,0l0,0l0,0l0,0l0,0l0,0l0,0
			l0,0l0,0l0,0l0,0l0,0l0,0l0,0l0,0l0,0l0,0l0,0l0,0l0,0h0.3h0l0,0l0,0l0,0l0.2-0.2l0.1,0.1l0,0l0,0l0,0l0,0l0,0h0l0,0l0,0l0,0l0,0
			l0,0l0,0l0,0l0,0l0,0l0,0l0,0l0,0l0,0l0,0l-0.1-0.1l0,0h-0.4l-0.1,0.1h-0.2l0,0l0,0l0,0l0,0l0,0l0,0l0,0l0,0l0,0l0,0v-0.1l0.2-0.2
			l0.3,0.3h0.4l0.1-0.1l0,0l0,0l0,0l0,0l0,0l0,0l0,0l0,0l0,0l0,0l0,0l0,0l0,0l0,0l0,0l0,0l0,0l0,0l0,0l0,0l-0.1,0.1l-0.3-0.3
			l0.3-0.2l0,0l0,0l0,0l0,0l0,0l0,0l0,0v0H119l-0.3,0.2l-0.2-0.2v-0.1l0,0l0,0l0,0l0,0l0,0l0,0l0,0l0,0l0,0l0,0h0.3l0,0l0,0l0,0l0,0
			l0,0l0,0l0,0l0,0l0,0l0,0v0.1h0.2v-0.1l0,0l0,0l0,0l0,0l0,0l0,0l0,0l0,0l0,0l0,0l0,0l0,0l0,0l0,0l0,0l0,0l0,0l0,0l0,0l0,0l0,0l0,0
			L118.6,33.4L118.6,33.4z"/>
		<path class="st8" d="M121.8,35v-1.7l0,0l0,0l0,0l0,0l0,0l0,0l0,0l0,0l0,0l0,0l0,0l0,0l0,0l0,0l0,0l0,0l0,0l0,0l0,0v0V34h0.7v-0.7
			l0,0l0,0l0,0l0,0l0,0l0,0l0,0l0,0l0,0h0l0,0l0,0l0,0l0,0l0,0l0,0l0,0l0,0l0,0l0,0V35l0,0l0,0l0,0l0,0l0,0l0,0l0,0l0,0l0,0h0l0,0
			l0,0l0,0l0,0l0,0l0,0l0,0l0,0l0,0l0,0v-0.7H122V35l0,0l0,0l0,0l0,0l0,0l0,0l0,0l0,0l0,0l0,0l0,0l0,0l0,0L121.8,35L121.8,35
			L121.8,35L121.8,35L121.8,35L121.8,35L121.8,35z"/>
		<path class="st8" d="M124.2,34.9l0.4-0.2v-0.8l0,0l0,0l0,0l0,0l0,0l0,0l0,0l0,0l0,0l0,0l0,0l0,0l0,0l0,0l0,0l0,0l0,0l0,0l0,0l0,0
			V35l0,0l0,0l0,0l0,0l0,0l0,0l0,0l0,0l0,0h0l0,0l0,0l0,0l0,0l0,0l0,0l0,0l0,0l0,0l0,0v-0.1l-0.2,0.1l0,0l0,0l0,0l0,0l0,0l0,0l0,0
			l0,0l0,0l0,0l0,0H124l0,0l0,0l0,0l0,0l0,0l0,0l0,0l0,0l0,0l0,0l0,0l0,0l0,0l0,0l0,0l0,0l0,0l0,0l0,0l0,0l0,0l0,0l0-0.9l0,0l0,0
			l0,0l0,0l0,0l0,0l0,0l0,0l0,0l0,0l0,0l0,0l0,0l0,0l0,0l0,0l0,0l0,0l0,0l0,0l0,0.9l0,0l0,0l0,0l0,0l0,0l0,0l0,0l0,0l0,0l0,0H124.2z
			"/>
		<path class="st8" d="M125.4,35v-1.2l0,0l0,0l0,0l0,0l0,0l0,0l0,0l0,0l0,0h0l0,0l0,0l0,0l0,0l0,0l0,0l0,0l0,0l0,0l0,0l0,0l0,0l0,0
			l0,0l0,0l0,0l0,0l0,0l0,0l0,0l0,0l0,0l0,0l0,0l0,0l0,0l0,0l0,0l0,0l0,0l0,0l0,0l0,0l0,0l0,0l0,0l0,0l0,0l0,0l0,0l0,0l0,0l0,0l0,0
			l0,0l0,0l0,0l0,0l0,0l0,0l0,0l0,0l0,0l0,0l0,0l0,0l0,0l0,0l0,0l0,0l0,1l0,0l0,0l0,0l0,0l0,0l0,0l0,0l0,0l0,0h0l0,0l0,0l0,0l0,0
			l0,0l0,0l0,0l0,0l0,0l0,0l0-1l0,0l0,0l0,0l0,0l0,0l0,0l0,0l0,0l-0.1,0.1V35l0,0l0,0l0,0l0,0l0,0l0,0l0,0l0,0l0,0h0l0,0l0,0l0,0
			l0,0l0,0l0,0l0,0l0,0l0,0l0,0v-1l0,0l0,0l0,0l0,0h0l0,0l0,0l0,0l-0.2,0.1V35l0,0l0,0l0,0l0,0l0,0l0,0l0,0l0,0l0,0h0l0,0l0,0l0,0
			L125.4,35L125.4,35L125.4,35L125.4,35L125.4,35L125.4,35L125.4,35z"/>
	</g>
</g>
<g>
	<g class="st0">
		<rect x="124.1" y="36.6" class="st1" width="18" height="3.4"/>
		<text transform="matrix(-1 0 0 1 142.0168 39.0778)"><tspan x="0" y="0" class="st2 st3 st4">LPS22</tspan><tspan x="8.5" y="0" class="st2 st3 st4 st7"> </tspan><tspan x="12.1" y="0" class="st2 st3 st4">Pres</tspan></text>
	</g>
	<g class="st0">
		<rect x="123.5" y="36.2" class="st1" width="19.1" height="4.3"/>
		<text transform="matrix(-1 0 0 1 142.5891 38.5963)"><tspan x="0" y="0" class="st6 st3 st4">LPS22</tspan><tspan x="8.5" y="0" class="st6 st3 st4 st9"> </tspan><tspan x="13.3" y="0" class="st6 st3 st4">Pres</tspan></text>
	</g>
	<g>
		<path class="st8" d="M109.2,38.7v-1.8l0,0l0,0l0,0l0,0l0,0l0,0l0,0l0,0l0,0h0l0,0l0,0l0,0l0,0l0,0l0,0l0,0l0,0l0,0v0v1.6h0.9l0,0
			l0,0l0,0l0,0l0,0l0,0l0,0l0,0l0,0v0l0,0l0,0l0,0l0,0l0,0l0,0l0,0l0,0l0,0h0H109.2z"/>
		<path class="st8" d="M111,38.6L111,38.6L111,38.6L111,38.6L111,38.6L111,38.6L111,38.6l0.1,0.1l0,0l0,0l0,0h0l0,0l0,0l0,0l0,0l0,0
			l0,0l0,0l0,0l0,0V38h0.6l0,0l0,0l0,0l0,0l0,0l0,0l0,0l0,0l0,0l0,0l0,0l0,0l0,0l0,0l0,0l0,0l0,0l0,0l0,0l0,0l0,0l0,0H112l0,0l0,0
			l0,0l0,0l0,0l0,0l0,0l0,0l0,0l0,0h-0.6V37h0.6l0,0l0,0l0,0l0,0l0,0l0,0l0,0l0,0l0,0l0,0v0.5h0.2l0,0v-0.5l0,0l0,0l0,0l0,0l0,0l0,0
			l0,0l0,0l0,0l0,0l0,0l0,0l0,0l0,0l0,0l0,0l0,0l0,0l0,0l0,0l0,0l0,0H111V38.6z"/>
		<path class="st8" d="M113.1,36.8h0.6l0,0l0,0l0,0l0,0l0,0l0,0l0,0l0,0l0,0l0,0l0,0l0,0l0,0l0,0l0,0l0,0l0,0l0,0l0,0l0,0l0,0l0,0
			l0,0l0,0l0,0l0,0l0,0l0,0l0,0l0,0l0,0h0l0,0l0,0l0,0l0,0l0,0l0,0l0,0l0,0l0,0l0,0l0,0l0,0l0,0l0,0l0,0l0,0h-0.6l0,0l0,0l0,0l0,0
			l0,0l0,0l0.9,1.2l0,0l0,0l0,0l0,0l0,0l0,0l0,0l0,0l0,0l0,0l0,0l0,0l0,0l0,0l0,0l0,0l0,0l0,0l0,0l0,0l0,0l0,0l0,0l0,0l0,0h0h-0.7
			l0,0l0,0l0,0l0,0l0,0l0,0l0,0l0,0l0,0l0,0l0,0l0,0l0,0l0,0l0,0l0,0l0,0l0,0l0,0l0,0l0,0l0,0l0,0l0,0l0,0l0,0l0,0l0,0l0,0l0,0l0,0
			l0,0l0,0l0,0l0,0l0,0l0,0l0,0l0,0l0,0l0,0l0,0l0,0l0,0l0,0l0,0l0,0l0,0h0.6l0,0l0,0l0,0l0,0l0,0l0,0l-0.9-1.2l0,0l0,0l0,0l0,0l0,0
			l0,0l0,0l0,0l0,0l0,0l0,0l0,0l0,0l0,0l0,0l0,0l0,0l0,0l0,0l0,0l0,0L113.1,36.8L113.1,36.8L113.1,36.8L113.1,36.8L113.1,36.8z"/>
		<path class="st8" d="M115.7,38.7h-1.1v-0.8l0,0l0,0l0,0l0,0l0,0l0,0l0,0l0,0l0,0l0,0l0,0l0,0l0,0l0,0l0,0l0,0h0.7V37h-0.9l0,0l0,0
			l0,0l0,0l0,0l0,0l0,0l0,0l0,0l0,0l0,0l0,0l0,0l0,0l0,0l0,0l0,0h0h0.9l0,0l0,0l0,0l0,0l0,0l0,0l0,0l0,0l0,0l0,0l0,0l0,0l0,0l0,0
			l0,0l0,0v0.6l0,0l0,0l0,0l0,0l0,0l0,0l0,0l0,0l0,0l0,0l0,0l0,0l0,0l0,0l0,0l0,0h-0.7v0.6h0.9l0,0l0,0l0,0l0,0l0,0l0,0l0,0l0,0l0,0
			v0l0,0l0,0l0,0L115.7,38.7L115.7,38.7L115.7,38.7L115.7,38.7L115.7,38.7L115.7,38.7L115.7,38.7z"/>
		<path class="st8" d="M117.5,38.7h-1.1v-0.8l0,0l0,0l0,0l0,0l0,0l0,0l0,0l0,0l0,0l0,0l0,0l0,0l0,0l0,0l0,0l0,0h0.7V37h-0.9l0,0l0,0
			l0,0l0,0l0,0l0,0l0,0l0,0l0,0l0,0l0,0l0,0l0,0l0,0l0,0l0,0l0,0h0h0.9l0,0l0,0l0,0l0,0l0,0l0,0l0,0l0,0l0,0l0,0l0,0l0,0l0,0l0,0
			l0,0l0,0v0.6l0,0l0,0l0,0l0,0l0,0l0,0l0,0l0,0l0,0l0,0l0,0l0,0l0,0l0,0l0,0l0,0h-0.7v0.6h0.9l0,0l0,0l0,0l0,0l0,0l0,0l0,0l0,0l0,0
			v0l0,0l0,0l0,0L117.5,38.7L117.5,38.7L117.5,38.7L117.5,38.7L117.5,38.7L117.5,38.7L117.5,38.7z"/>
		<path class="st8" d="M120,38.6L120,38.6L120,38.6L120,38.6L120,38.6L120,38.6L120,38.6l0.1,0.1l0,0l0,0l0,0h0l0,0l0,0l0,0l0,0l0,0
			l0,0l0,0l0,0l0,0V38h0.6l0,0l0,0l0,0l0,0l0,0l0,0l0,0l0,0l0,0l0,0l0,0l0,0l0,0l0,0l0,0l0,0l0,0l0,0l0,0l0,0l0,0l0,0H121l0,0l0,0
			l0,0l0,0l0,0l0,0l0,0l0,0l0,0l0,0h-0.6V37h0.6l0,0l0,0l0,0l0,0l0,0l0,0l0,0l0,0l0,0l0,0v0.5h0.2l0,0v-0.5l0,0l0,0l0,0l0,0l0,0l0,0
			l0,0l0,0l0,0l0,0l0,0l0,0l0,0l0,0l0,0l0,0l0,0l0,0l0,0l0,0l0,0l0,0H120V38.6z"/>
		<path class="st8" d="M121.8,38.6v-1.2l0,0l0,0l0,0l0,0l0,0l0,0l0,0l0,0l0,0l0,0l0,0l0,0l0,0l0,0l0,0l0,0l0,0l0,0l0,0v0v0.1
			l0.2-0.2l0,0l0,0l0,0l0,0l0,0l0,0l0,0l0,0l0,0l0,0l0,0h0.2l0,0l0,0l0,0l0,0l0,0l0,0l0,0l0,0l0,0l0,0l0,0l0,0l0,0l0,0l0,0l0,0l0,0
			l0,0l0,0l0,0l0,0l0,0v0.1l0,0l0,0l0,0l0,0l0,0l0,0l0,0l0,0l0,0l0,0l0,0l0,0l0,0l0,0l0,0l0,0l0,0l0,0l0,0l0,0v-0.1l0,0l0,0l0,0l0,0
			l0,0l0,0l0,0l0,0l0,0l0,0h-0.2l0,0l0,0l0,0l0,0l0,0l0,0l-0.3,0.3v0.7l0,0l0,0l0,0l0,0l0,0l0,0l0,0l0,0l0,0h0l0,0l0,0l0,0
			L121.8,38.6L121.8,38.6L121.8,38.6L121.8,38.6L121.8,38.6L121.8,38.6L121.8,38.6z"/>
		<path class="st8" d="M124,37.3L124,37.3L124,37.3L124,37.3L124,37.3l-0.1,0l0,0l0,0l0,0l0,0l0,0l-0.1,0.1l0,0l0,0l0,0l0,0l0,0l0,0
			l0,0l0,0l0,0l0,0l0,0l0,0l0,0v0.6l0,0l0,0l0,0l0,0l0,0l0,0l0,0l0,0l0,0l0,0l0,0l0,0l0,0l0.1,0.1l0,0l0,0l0,0l0,0l0,0l0,0l0,0l0,0
			l0,0l0,0l0,0l0,0l0,0h0.6h0l0,0l0,0l0,0l0,0l0,0l0,0l0,0l0,0l0,0v0l0,0l0,0l0,0l0,0l0,0l0,0l0,0l0,0l0,0h-0.6l0,0l0,0l0,0l0,0l0,0
			l0,0l-0.1-0.1l0,0l0,0l0,0l0,0l0,0l0,0v-0.1h0.9l0,0l0,0l0,0l0,0l0,0l0,0l0,0l0,0l0,0l0,0V38h-0.2h-0.7v-0.2l0,0l0,0l0,0l0,0l0,0
			l0.1-0.1l0,0l0,0l0,0l0,0l0,0l0,0h0.3l0,0l0,0l0,0l0,0l0,0l0.1,0.1l0,0l0,0l0,0l0,0l0,0l0,0V38h0.2v-0.2l0,0l0,0l0,0l0,0l0,0l0,0
			l0,0l0,0l0,0l0,0l0,0l-0.1-0.1l0,0l0,0l0,0l0,0l0,0l0,0l0,0l0,0l0,0l0,0l0,0L124,37.3L124,37.3z"/>
		<path class="st8" d="M125.7,37.3h0.6l0,0l0,0l0,0l0,0l0,0l0,0l0,0l0,0l0,0l0,0l0,0l0,0l0,0l0,0l0,0l0,0l0,0l0,0l0,0l0,0l0,0l0,0
			l0,0l0,0l0,0l0,0l0,0l0,0l0,0l0,0l0,0l0,0l0,0l0,0l0,0l0,0l0,0l0,0l0,0h0h-0.6l0,0l0,0l0,0l0,0l0,0l0,0l0,0l0,0l0,0l0,0l0,0
			l0.7,0.3l0,0l0,0l0,0l0,0l0,0l0,0l0,0l0,0l0,0l0,0l0,0l0,0l0,0l0,0l0,0l0,0l0,0l0,0l0,0l0,0l0,0l0,0l0,0l0,0l0,0l0,0l0,0l0,0l0,0
			l0,0l0,0l0,0l0,0l0,0l0,0l0,0l0,0l0,0l0,0l0,0l0,0l0,0h-0.5l0,0l0,0l0,0l0,0l0,0l0,0l0,0l0,0l0,0l0,0l0,0l0,0l0,0l0,0l0,0l0,0l0,0
			l0,0l0,0v0l0,0l0,0l0,0l0,0l0,0l0,0l0,0l0,0l0,0l0,0l0,0l0,0l0,0l0,0l0,0l0,0l0,0l0,0l0,0l0,0l0,0l0,0l0,0h0.5l0,0l0,0l0,0l0,0
			l0,0l0,0l0,0l0,0l0,0l0,0l0,0l0,0l0,0l0,0l0,0l0,0l0,0l0,0l-0.7-0.3l0,0l0,0l0,0l0,0l0,0l0,0l0,0l0,0l0,0l0,0l0,0l0,0l0,0l0,0l0,0
			l0,0l0,0l0,0l0,0l0,0l0,0l0,0l0,0l0,0l0,0l0,0l0,0l0,0l0,0l0,0l0,0l0,0l0,0L125.7,37.3L125.7,37.3L125.7,37.3L125.7,37.3
			L125.7,37.3z"/>
	</g>
</g>
<g>
	<g class="st0">
		<text transform="matrix(-1 0 0 1 143.5837 42.65)" class="st2 st3 st4">STEMMA QT</text>
	</g>
	<g class="st0">
		<text transform="matrix(-1 0 0 1 143.5837 42.65)" class="st6 st3 st4">STEMMA QT</text>
	</g>
	<g>
		<path class="st8" d="M111.3,40.4h0.6l0,0l0,0l0,0l0,0l0,0l0,0l0,0l0,0l0,0l0,0l0,0l0,0l0,0l0,0l0,0l0,0l0,0l0,0l0,0l0,0l0,0l0,0
			l0,0l0,0l0,0l0,0l0,0l0,0l0,0l0,0l0,0h0l0,0l0,0l0,0l0,0l0,0l0,0l0,0l0,0l0,0l0,0l0,0l0,0l0,0l0,0l0,0l0,0h-0.6l0,0l0,0l0,0l0,0
			l0,0l0,0l0.9,1.2l0,0l0,0l0,0l0,0l0,0l0,0l0,0l0,0l0,0l0,0l0,0l0,0l0,0l0,0l0,0l0,0l0,0l0,0l0,0l0,0l0,0l0,0l0,0l0,0l0,0h0h-0.7
			l0,0l0,0l0,0l0,0l0,0l0,0l0,0l0,0l0,0l0,0l0,0l0,0l0,0l0,0l0,0l0,0l0,0l0,0l0,0l0,0l0,0l0,0l0,0l0,0l0,0l0,0l0,0l0,0l0,0l0,0l0,0
			l0,0l0,0l0,0l0,0l0,0l0,0l0,0l0,0l0,0l0,0l0,0l0,0l0,0l0,0l0,0l0,0l0,0h0.6l0,0l0,0l0,0l0,0l0,0l0,0l-0.9-1.2l0,0l0,0l0,0l0,0l0,0
			l0,0l0,0l0,0l0,0l0,0l0,0l0,0l0,0l0,0l0,0l0,0l0,0l0,0l0,0l0,0l0,0L111.3,40.4L111.3,40.4L111.3,40.4L111.3,40.4L111.3,40.4z"/>
		<path class="st8" d="M112.8,40.7v-0.3h1.2v0.3l0,0l0,0l0,0l0,0l0,0l0,0l0,0l0,0l0,0l0,0l0,0l0,0l0,0l0,0l0,0l0,0l0,0l0,0l0,0v0
			v-0.1h-0.2v1.6l0,0l0,0l0,0l0,0l0,0l0,0l0,0l0,0l0,0h0l0,0l0,0l0,0l0,0l0,0l0,0l0,0l0,0l0,0l0,0v-1.6h-0.2v0.1l0,0l0,0l0,0l0,0
			l0,0l0,0l0,0l0,0l0,0l0,0l0,0l0,0L112.8,40.7L112.8,40.7L112.8,40.7L112.8,40.7L112.8,40.7L112.8,40.7L112.8,40.7L112.8,40.7z"/>
		<path class="st8" d="M115.7,40.6h-0.9v0.6h0.4l0,0l0,0l0,0l0,0l0,0l0,0l0,0l0,0l0,0v0l0,0l0,0l0,0l0,0l0,0l0,0l0,0l0,0l0,0h0h-0.4
			v0.6h0.9l0,0l0,0l0,0l0,0l0,0l0,0l0,0l0,0l0,0v0l0,0l0,0l0,0l0,0l0,0l0,0l0,0l0,0l0,0h0h-1.1v-1.9h1.1l0,0l0,0l0,0l0,0l0,0l0,0
			l0,0l0,0l0,0v0l0,0l0,0l0,0L115.7,40.6L115.7,40.6L115.7,40.6L115.7,40.6L115.7,40.6L115.7,40.6L115.7,40.6z"/>
		<path class="st8" d="M116.9,41.1L116.9,41.1l-0.3-0.4v1.5l0,0l0,0l0,0l0,0l0,0l0,0l0,0l0,0l0,0h0l0,0l0,0l0,0l0,0l0,0l0,0l0,0l0,0
			l0,0l0,0v-1.8h0.3l0.3,0.5l0.3-0.5h0.3v1.8l0,0l0,0l0,0l0,0l0,0l0,0l0,0l0,0l0,0l0,0l0,0l0,0l0,0l0,0l0,0l0,0l0,0l0,0l0,0l0,0
			v-1.5l-0.2,0.3v0.1l0,0l0,0l0,0l0,0l0,0l0,0l0,0l0,0l0,0l0,0l0,0l0,0l0,0L116.9,41.1L116.9,41.1L116.9,41.1L116.9,41.1L116.9,41.1
			L116.9,41.1L116.9,41.1z"/>
		<path class="st8" d="M118.7,41.1L118.7,41.1l-0.3-0.4v1.5l0,0l0,0l0,0l0,0l0,0l0,0l0,0l0,0l0,0h0l0,0l0,0l0,0l0,0l0,0l0,0l0,0l0,0
			l0,0l0,0v-1.8h0.3l0.3,0.5l0.3-0.5h0.3v1.8l0,0l0,0l0,0l0,0l0,0l0,0l0,0l0,0l0,0l0,0l0,0l0,0l0,0l0,0l0,0l0,0l0,0l0,0l0,0l0,0
			v-1.5l-0.2,0.3v0.1l0,0l0,0l0,0l0,0l0,0l0,0l0,0l0,0l0,0l0,0l0,0l0,0l0,0L118.7,41.1L118.7,41.1L118.7,41.1L118.7,41.1L118.7,41.1
			L118.7,41.1L118.7,41.1z"/>
		<path class="st8" d="M120.6,40.4L120.6,40.4L120.6,40.4L120.6,40.4L120.6,40.4L120.6,40.4l-0.1,0.1l-0.5,1.7l0,0l0,0l0,0l0,0l0,0
			l0,0l0,0l0,0l0,0l0,0l0,0l0,0l0,0l0,0l0,0l0,0l0,0l0,0l0,0l0,0l0.1-0.4h0.6l0.1,0.3l0,0l0,0l0,0l0,0l0,0l0,0l0,0h0l0,0l0,0l0,0
			l0,0l0,0l0,0l0,0l0,0l0,0l0,0l0,0l-0.1-0.5h-0.3h-0.4l0.2-0.7l0.2,0.7h0.3l-0.3-1.2l0,0l0,0l0,0L120.6,40.4L120.6,40.4L120.6,40.4
			L120.6,40.4L120.6,40.4z"/>
		<path class="st8" d="M124.5,40.4L124.5,40.4L124.5,40.4L124.5,40.4L124.5,40.4l-0.1,0l0,0l0,0l0,0l0,0l0,0l-0.5,0.4l0,0l0,0l0,0
			l0,0l0,0l0,0l0,0l0,0l0,0l0,0l0,0l0,0l0,0l0,0l0,0l0,0l0,0l0,0l0,0l0,0V42l0,0l0,0l0,0l0,0l0,0l0,0l0,0l0,0l0,0l0,0l0,0l0,0l0,0
			l0,0l0,0l0,0l0,0l0,0l0,0l0,0l0,0l0,0l0,0l0,0l0,0l0,0l0,0l0,0l0,0l0,0l0,0l0,0l0,0l0.2-0.1l0.1,0.2h0.3h0l0,0l0,0l0,0l0,0l0,0
			l0,0l0,0l0,0l0,0l0,0l0,0l0,0l0,0l0,0l0,0l0,0l0,0l0,0l0,0h-0.2l-0.1-0.2l0.2-0.1l0,0l0,0l0,0l0,0l0,0l0,0l0,0l0,0l0,0l0,0l0,0
			l0,0l0,0l0,0l0,0l0,0h-0.2l0,0l0,0l0,0l0,0l0,0l0,0l0,0l0,0l0,0l0,0l0,0l0,0l0,0l0,0l0,0l0,0l-0.1-0.2l0,0l0,0l0,0l0,0l0,0l0,0
			l0,0l0,0l0,0l0,0l0,0l0,0l0,0l0,0l0,0l0,0l0,0l0,0l0,0l0,0l0,0l0.1,0.2l-0.2,0.2l0,0l0,0l0,0l0,0l0,0l0,0l0,0l0,0v-0.7l0,0l0,0
			l0,0l0,0l0,0l0,0l0,0l0,0l0,0l0,0l0,0l0,0l0,0l0,0l0.5-0.4l0,0l0,0l0,0l0,0l0,0l0,0l0,0l0,0v0.7h0.2v0v-0.7l0,0l0,0l0,0l0,0l0,0
			l0,0l0,0l0,0l0,0l0,0l0,0l0,0l0,0l0,0l0,0l0,0L124.5,40.4L124.5,40.4L124.5,40.4L124.5,40.4L124.5,40.4z"/>
		<path class="st8" d="M125.4,40.7v-0.3h1.2v0.3l0,0l0,0l0,0l0,0l0,0l0,0l0,0l0,0l0,0l0,0l0,0l0,0l0,0l0,0l0,0l0,0l0,0l0,0l0,0v0
			v-0.1h-0.2v1.6l0,0l0,0l0,0l0,0l0,0l0,0l0,0l0,0l0,0h0l0,0l0,0l0,0l0,0l0,0l0,0l0,0l0,0l0,0l0,0v-1.6h-0.2v0.1l0,0l0,0l0,0l0,0
			l0,0l0,0l0,0l0,0l0,0l0,0l0,0l0,0L125.4,40.7L125.4,40.7L125.4,40.7L125.4,40.7L125.4,40.7L125.4,40.7L125.4,40.7L125.4,40.7z"/>
	</g>
</g>
<g>
	<g>
		<path class="st8" d="M14.7,45.6H16h0l0,0l0,0l0,0l0,0l0,0l0,0l0,0l0,0l0,0l0,0l0,0l0,0l0,0l0,0l0,0l0,0l0,0l0,0l0,0l0,0l0,0l0,0
			l0,0l0,0l0,0l0,0l0,0l0,0l0,0l0,0l0,0l0,0l0,0l0,0l0,0l0,0l0,0l0,0l0,0l0,0l0,0l0,0l0,0l0,0l0,0l0,0l0,0l0,0l0,0l0,0l0,0l0,0l0,0
			l0,0l0,0l0,0l0,0l0,0h-0.5l0,0l0,0l0,0l0,0l0,0l0,0l0,0l0,0l0,0l0,0l0,0l0,0l0,0l0,0l0,0l0,0l0,0l0,0l0,0l0,0l0,0l0,0l0,0l0,0l0,0
			l0,0l0,0l0,0l-0.1,0l-0.1,0l0,0l0,0l0,0l0,0h0h-0.6v-1.2h0.8l0,0l0,0l0,0l0,0l0,0l0,0l0,0l0,0l0,0l0,0l0,0l0,0l0,0l0,0l0,0l0,0
			l0,0l0,0l0,0l0,0l0,0l0,0l0,0l0,0l0,0l0,0l0,0l0,0l0,0l0,0l0,0l0,0h0.5v0l0,0l0,0l0,0l0,0l0,0l0,0l0,0l0-0.1l0-0.1l0-0.1l0,0l0,0
			l0,0l0,0l0,0l0,0l0,0l0,0l0,0l0,0l0,0l0,0l0,0l0,0l-0.1,0l0,0l0,0l0,0l0,0l0,0l0,0l0,0l0,0l0,0l0,0l0,0l0,0l0,0l0,0l0,0l0,0l0,0
			l0,0l0,0l0,0h-1.3V45.6z"/>
		<path class="st8" d="M17.9,45.6v-1.7h1.8v0.4h-1.4v0.3h0.8v0.4h-0.8v0.4h1.4v0.4H17.9z"/>
		<path class="st8" d="M21.9,44.2h-1.1v0.3h1.1l0,0l0,0l0,0l0,0l0,0l0,0l0,0l0,0l0,0l0,0l0,0l0,0l0,0l0,0l0,0l0,0l0,0l0,0l0,0l0,0
			l0,0l0,0v0.2l0,0l0,0l0,0l0,0l0,0l0,0l0,0l0,0l0,0l0,0l0,0l0,0l0,0l0,0l0,0l0,0l0,0l0,0l0,0l0,0l0,0l0,0h0h-1.1l0,0l0,0l0,0l0,0
			l0,0l0,0l0,0l0,0l0,0l0,0l0,0l0,0l0,0l0,0l0,0l0,0l0,0l0,0l0,0l0,0l0,0l0,0l0,0v-0.1l0.4-0.1v0.2h1.2v-0.4h-1.1l0,0l0,0l0,0l0,0
			l0,0l0,0l0,0l0,0l0,0l0,0l0,0l0,0l0,0l0,0l0,0l0,0l0,0l0,0l0,0l0,0l0,0l0,0v-0.2l0,0l0,0l0,0l0,0l0,0l0,0l0,0l0,0l0,0l0,0l0,0l0,0
			l0,0l0,0l0,0l0,0l0,0l0,0l0,0l0,0l0,0l0,0l0,0h1l0,0l0,0l0,0l0,0l0,0l0,0l0,0l0,0l0,0l0,0l0,0l0,0l0,0l0,0l0,0l0,0l0,0l0,0l0,0
			l0,0l0,0l0,0v0.1l-0.4,0.1V44.2z"/>
		<path class="st8" d="M24,44.2v1.4h-0.5v-1.4h-0.8v-0.4h2.1v0.4H24z"/>
		<path class="st8" d="M25.3,45.6v-1.7h0.5v1.7H25.3z"/>
		<path class="st8" d="M26.5,45.6v-1.7h0.3l1.4,1.1v-1.1h0.4v1.7h-0.3l-1.4-1.1v1.1H26.5z"/>
		<path class="st8" d="M29,45.6h0.5l0.2-0.4h1.1l0.2,0.4h0.5l-0.4-0.7h-0.5h-0.7l0.3-0.6l0.4,0.6h0.5l-0.6-1h-0.4L29,45.6z"/>
		<path class="st8" d="M32.8,44.2v1.4h-0.5v-1.4h-0.8v-0.4h2.1v0.4H32.8z"/>
		<path class="st8" d="M34,45.6v-1.7h0.5v1.7H34z"/>
		<path class="st8" d="M35.6,43.9L35.6,43.9L35.6,43.9L35.6,43.9l-0.1,0l0,0l0,0l0,0l0,0l0,0l0,0l0,0l0,0l0,0l0,0l0,0l0,0l0,0l0,0
			l0,0l0,0l0,0l0,0v0.9l0,0l0,0l0,0l0,0l0,0l0,0l0,0l0,0l0,0l0,0l0,0l0,0l0,0l0,0l0,0l0,0l0,0l0,0l0,0l0,0l0,0l0,0l0,0h1.3h0l0,0
			l0,0l0,0l0,0l0,0l0,0l0,0l0,0l0,0l0,0l0,0l0,0l0,0l0,0l0,0l0,0l0,0l0,0l0,0l0,0l0,0l0,0v-0.9l0,0l0,0l0,0h-0.5v1h-1.3v-1h1.3h0.5
			l0,0l0,0l0,0l0,0l0,0l0,0l0,0l0,0l0,0l0,0l0,0l0,0l0,0l0,0l0,0l0,0l0,0l0,0l0,0l0,0l0,0L35.6,43.9L35.6,43.9z"/>
		<path class="st8" d="M38,45.6v-1.7h0.3l1.4,1.1v-1.1h0.4v1.7h-0.3l-1.4-1.1v1.1H38z"/>
		<path class="st8" d="M44.3,43.9H43v0.4h1.3l0,0l0,0l0,0l0,0l0,0l0,0l0,0l0,0l0,0l0,0l0,0l0,0l0,0l0,0l0,0l0,0l0,0l0,0l0,0l0,0l0,0
			l0,0l0,0l0,0l0,0l0,0v0v0.3l0,0l0,0l0,0l0,0l0,0l0,0l0,0l0,0l0,0l0,0l0,0l0,0l0,0l0,0l0,0l0,0l0,0l0,0l0,0l0,0l0,0l0,0l0,0l0,0
			l0,0l0,0H43l0,0l0,0l0,0l0,0l0,0l0,0l0,0l0,0l0,0l0,0l0,0l0,0l0,0l0,0l0,0l0,0l0,0l0,0l0,0l0,0l0,0l0,0l0,0l0,0l0,0l0,0l0,0V45
			l0.5-0.1v0.2h1.4v-0.4H43l0,0l0,0l0,0l0,0l0,0l0,0l0,0l0,0l0,0l0,0l0,0l0,0l0,0l0,0l0,0l0,0l0,0l0,0l0,0l0,0l0,0l0,0l0,0l0,0l0,0
			l0,0l0,0V44l0,0l0,0l0,0l0,0l0,0l0,0l0,0l0,0l0,0l0,0l0,0l0,0l0,0l0,0l0,0l0,0l0,0l0,0l0,0l0,0l0,0l0,0l0,0l0,0l0,0l0,0h1.2l0,0
			l0,0l0,0l0,0l0,0l0,0l0,0l0,0l0,0l0,0l0,0l0,0l0,0l0,0l0,0l0,0l0,0l0,0l0,0l0,0l0,0l0,0l0,0l0,0l0,0V44l-0.5,0.1V43.9z"/>
		<path class="st8" d="M45.7,45.6h0.5v-0.8h1.3l0,0l0,0l0,0l0,0l0,0l0,0l0,0l0,0l0,0l0,0l0,0l0,0l0,0l0,0l0,0l0,0l0,0l0,0l0,0l0,0
			l0,0l0,0l0,0v-0.1h-0.5l0,0l0,0l0,0l0,0l0,0l0,0l0,0l0,0l0,0l0,0h-1v-0.5h1l0,0l0,0l0,0l0,0l0,0l0,0l0,0l0,0l0,0v0.2H48v-0.3l0,0
			l0,0l0,0l0,0l0,0l0,0l0,0l0,0l0,0l0,0l0,0l0,0l0,0l0,0l0,0l0,0l0,0l0,0l0,0l0,0l0,0l0,0l0,0h-1.8V45.6z"/>
		<path class="st8" d="M48.1,45.6h0.5l0.2-0.4h1.3l0.2,0.4H51l-0.5-0.8h-0.6h-0.8l0.4-0.8l0.4,0.8h0.6l-0.7-1.2h-0.5L48.1,45.6z"/>
		<path class="st8" d="M53.2,43.9h-1.2v1.2h1.2v-0.4l0.5,0.1v0.3l0,0l0,0l0,0l0,0l0,0l0,0l0,0l0,0l0,0l0,0l0,0l0,0l0,0l0,0l0,0l0,0
			l0,0l0,0l0,0l0,0l0,0l0,0l0,0l0,0l0,0l0,0h-1.2l0,0l0,0l0,0l0,0l0,0l0,0l0,0l0,0l0,0l0,0l0,0l0,0l0,0l0,0l0,0l0,0l0,0l0,0l0,0l0,0
			l0,0l0,0l0,0l0,0l0,0l0,0l0,0V44l0,0l0,0l0,0l0,0l0,0l0,0l0,0l0,0l0,0l0,0l0,0l0,0l0,0l0,0l0,0l0,0l0,0l0,0l0,0l0,0l0,0l0,0l0,0
			l0,0l0,0l0,0h1.2l0,0l0,0l0,0l0,0l0,0l0,0l0,0l0,0l0,0l0,0l0,0l0,0l0,0l0,0l0,0l0,0l0,0l0,0l0,0l0,0l0,0l0,0l0,0l0,0l0,0l0,0v0.2
			l-0.5,0.1V43.9z"/>
		<path class="st8" d="M54.6,45.6v-2.1h2.1v0.4h-1.6v0.4h0.9v0.4h-0.9v0.4h1.6v0.4H54.6z"/>
		<path class="st8" d="M59.1,45.6v-2.1h0.5v2.1H59.1z"/>
		<path class="st8" d="M60.5,45.6v-1.7h0.3l1.4,1.1v-1.1h0.4v1.7h-0.3l-1.4-1.1v1.1H60.5z"/>
		<path class="st8" d="M64.8,44.2h-1.1v1h1.1v-0.4l0.5,0.1v0.2l0,0l0,0l0,0l0,0l0,0l0,0l0,0l0,0l0,0l0,0l0,0l0,0l0,0l0,0l0,0l0,0
			l0,0l0,0l0,0l0,0l0,0l0,0h0h-1l0,0l0,0l0,0l0,0l0,0l0,0l0,0l0,0l0,0l0,0l0,0l0,0l0,0l0,0l0,0l0,0l0,0l0,0l0,0l0,0l0,0l0,0v-0.9
			l0,0l0,0l0,0l0,0l0,0l0,0l0,0l0,0l0,0l0,0l0,0l0,0l0,0l0,0l0,0l0,0l0,0l0,0l0,0l0,0l0,0l0,0h0h1l0,0l0,0l0,0l0,0l0,0l0,0l0,0l0,0
			l0,0l0,0l0,0l0,0l0,0l0,0l0,0l0,0l0,0l0,0l0,0l0,0l0,0l0,0l0,0v0.2l-0.5,0.1V44.2z"/>
		<path class="st8" d="M66.3,44.9L66.3,44.9l0.1,0l0,0l0,0l0,0l0,0l0,0l0,0l0,0v0v0.3l0,0l0,0l0,0l0,0l0,0l0,0l0,0l0,0l0,0l0,0h0H66
			l0,0l0,0l0,0l0,0l0,0l0,0l0,0l0,0v0v-0.3l0,0l0,0l0,0l0,0l0,0l0,0l0,0l0,0l0,0l0,0h0H66.3z"/>
	</g>
</g>
<g>
	<g>
		<path class="st8" d="M14.7,50.4H16h0l0,0l0,0l0,0l0,0l0,0l0,0l0,0l0,0l0,0l0,0l0,0l0,0l0,0l0,0l0,0l0,0l0,0l0,0l0,0l0,0l0,0l0,0
			l0,0l0,0l0,0l0,0l0,0l0,0l0,0l0,0l0,0l0,0l0,0l0,0l0,0l0,0l0,0l0,0l0,0l0,0l0,0l0,0l0,0l0,0l0,0l0,0l0,0l0,0l0,0l0,0l0,0l0,0l0,0
			l0,0l0,0l0,0l0,0l0,0h-0.5l0,0l0,0l0,0l0,0l0,0l0,0l0,0l0,0l0,0l0,0l0,0l0,0l0,0l0,0l0,0l0,0l0,0l0,0l0,0l0,0l0,0l0,0l0,0l0,0l0,0
			l0,0l0,0l0,0l-0.1,0l-0.1,0l0,0l0,0l0,0l0,0h0h-0.6v-1.2h0.8l0,0l0,0l0,0l0,0l0,0l0,0l0,0l0,0l0,0l0,0l0,0l0,0l0,0l0,0l0,0l0,0
			l0,0l0,0l0,0l0,0l0,0l0,0l0,0l0,0l0,0l0,0l0,0l0,0l0,0l0,0l0,0l0,0h0.5v0l0,0l0,0l0,0l0,0l0,0l0,0l0,0l0-0.1l0-0.1l0-0.1l0,0l0,0
			l0,0l0,0l0,0l0,0l0,0l0,0l0,0l0,0l0,0l0,0l0,0l0,0l-0.1,0l0,0l0,0l0,0l0,0l0,0l0,0l0,0l0,0l0,0l0,0l0,0l0,0l0,0l0,0l0,0l0,0l0,0
			l0,0l0,0l0,0h-1.3V50.4z"/>
		<path class="st8" d="M17.9,50.4v-1.7h1.8V49h-1.4v0.3h0.8v0.4h-0.8V50h1.4v0.4H17.9z"/>
		<path class="st8" d="M21.9,49h-1.1v0.3h1.1l0,0l0,0l0,0l0,0l0,0l0,0l0,0l0,0l0,0l0,0l0,0l0,0l0,0l0,0l0,0l0,0l0,0l0,0l0,0l0,0l0,0
			l0,0v0.2l0,0l0,0l0,0l0,0l0,0l0,0l0,0l0,0l0,0l0,0l0,0l0,0l0,0l0,0l0,0l0,0l0,0l0,0l0,0l0,0l0,0l0,0h0h-1.1l0,0l0,0l0,0l0,0l0,0
			l0,0l0,0l0,0l0,0l0,0l0,0l0,0l0,0l0,0l0,0l0,0l0,0l0,0l0,0l0,0l0,0l0,0l0,0v-0.1l0.4-0.1V50h1.2v-0.4h-1.1l0,0l0,0l0,0l0,0l0,0
			l0,0l0,0l0,0l0,0l0,0l0,0l0,0l0,0l0,0l0,0l0,0l0,0l0,0l0,0l0,0l0,0l0,0v-0.2l0,0l0,0l0,0l0,0l0,0l0,0l0,0l0,0l0,0l0,0l0,0l0,0l0,0
			l0,0l0,0l0,0l0,0l0,0l0,0l0,0l0,0l0,0l0,0h1l0,0l0,0l0,0l0,0l0,0l0,0l0,0l0,0l0,0l0,0l0,0l0,0l0,0l0,0l0,0l0,0l0,0l0,0l0,0l0,0
			l0,0l0,0v0.1l-0.4,0.1V49z"/>
		<path class="st8" d="M23,50.4v-1.7h0.5v1.7H23z"/>
		<path class="st8" d="M25.8,49h-1.2v1h1.2v-0.3h-0.7v-0.4h1.1V50l0,0l0,0l0,0l0,0l0,0l0,0l0,0l0,0l0,0l0,0l0,0l0,0l0,0l0,0l0,0l0,0
			l0,0l0,0l0,0l0,0l0,0l0,0h0h-1.2l0,0l0,0l0,0l0,0l0,0l0,0l0,0l0,0l0,0l0,0l0,0l0,0l0,0l0,0l0,0l0,0l0,0l0,0l0,0l0,0l0,0l0,0v-0.9
			l0,0l0,0l0,0l0,0l0,0l0,0l0,0l0,0l0,0l0,0l0,0l0,0l0,0l0,0l0,0l0,0l0,0l0,0l0,0l0,0l0,0l0,0h0h1.2l0,0l0,0l0,0l0,0l0,0l0,0l0,0
			l0,0l0,0l0,0l0,0l0,0l0,0l0,0l0,0l0,0l0,0l0,0l0,0l0,0l0,0l0,0v0.1l-0.4,0.1V49z"/>
		<path class="st8" d="M26.9,50.4v-1.7h0.3l1.4,1.1v-1.1H29v1.7h-0.3l-1.4-1.1v1.1H26.9z"/>
		<path class="st8" d="M29.7,50.4v-1.7h1.8V49h-1.4v0.3H31v0.4h-0.8V50h1.4v0.4H29.7z"/>
		<path class="st8" d="M32.1,50.4h1h0l0,0l0,0l0,0l0,0l0,0l0,0l0,0l0,0l0,0l0,0l0,0l0,0l0,0l0.1,0l0.1,0l0,0l0,0l0,0l0,0l0,0l0,0
			l0,0l0,0l0,0l0,0l0,0l0,0l0,0l0,0l0,0l0,0l0,0l0,0l0,0l0,0l0-0.1l0-0.1l0-0.1l0,0h-0.5l0,0l0,0l0,0l0,0l0,0l0,0l0,0l0,0l0,0l0,0
			l0,0l0,0l0,0l0,0l0,0l0,0l0,0l0,0l0,0l0,0l0,0l0,0l0,0l0,0l0,0l0,0l0,0l-0.1,0l-0.1,0h-0.5v-1h0.7l0,0l0,0l0,0l0,0l0,0l0,0l0,0
			l0,0l0,0l0,0l0,0l0,0l0,0l0,0l0,0l0,0l0,0l0,0l0,0l0,0l0,0l0,0l0,0l0,0l0,0h0.5l0,0l0,0l0,0l0,0l0,0l0,0l0,0l0,0l0,0l0,0l0,0l0,0
			l0,0l0,0l0,0l0,0l0,0l0,0l0,0l0,0l0,0l0,0l0,0l0,0l0,0l-0.1,0l-0.1,0l-0.1,0l0,0l0,0l0,0l0,0l0,0l0,0l0,0l0,0h-1.2V50.4z"/>
		<path class="st8" d="M36.4,50.4v-1.7h0.5v1.7H36.4z"/>
		<path class="st8" d="M37.6,50.4v-1.7h0.3l1.4,1.1v-1.1h0.4v1.7h-0.3L38,49.3v1.1H37.6z"/>
		<path class="st8" d="M41.7,50.4h0.5l0.2-0.4h1.3l0.2,0.4h0.6l-0.5-0.8h-0.6h-0.8l0.4-0.8l0.4,0.8h0.6l-0.7-1.2h-0.5L41.7,50.4z"/>
		<path class="st8" d="M46.5,49h-1.1v0.3h1.1l0,0l0,0l0,0l0,0l0,0l0,0l0,0l0,0l0,0l0,0l0,0l0,0l0,0l0,0l0,0l0,0l0,0l0,0l0,0l0,0l0,0
			l0,0v0.2l0,0l0,0l0,0l0,0l0,0l0,0l0,0l0,0l0,0l0,0l0,0l0,0l0,0l0,0l0,0l0,0l0,0l0,0l0,0l0,0l0,0l0,0h0h-1.1l0,0l0,0l0,0l0,0l0,0
			l0,0l0,0l0,0l0,0l0,0l0,0l0,0l0,0l0,0l0,0l0,0l0,0l0,0l0,0l0,0l0,0l0,0l0,0v-0.1l0.4-0.1V50h1.2v-0.4h-1.1l0,0l0,0l0,0l0,0l0,0
			l0,0l0,0l0,0l0,0l0,0l0,0l0,0l0,0l0,0l0,0l0,0l0,0l0,0l0,0l0,0l0,0l0,0v-0.2l0,0l0,0l0,0l0,0l0,0l0,0l0,0l0,0l0,0l0,0l0,0l0,0l0,0
			l0,0l0,0l0,0l0,0l0,0l0,0l0,0l0,0l0,0l0,0h1l0,0l0,0l0,0l0,0l0,0l0,0l0,0l0,0l0,0l0,0l0,0l0,0l0,0l0,0l0,0l0,0l0,0l0,0l0,0l0,0
			l0,0l0,0v0.1l-0.4,0.1V49z"/>
		<path class="st8" d="M47.6,50.4v-1.7h0.5v0.7h1.2v-0.7h0.5v1.7h-0.5v-0.7h-1.2v0.7H47.6z"/>
		<path class="st8" d="M50.5,50.4v-1.7h1.8V49h-1.4v0.3h0.8v0.4h-0.8V50h1.4v0.4H50.5z"/>
		<path class="st8" d="M53.7,50.4l-1-1.7h0.5l0.7,1.2l0.7-1.2H55l-1,1.7H53.7z"/>
		<path class="st8" d="M55.4,50.4v-1.7h0.5v1.7H55.4z"/>
		<path class="st8" d="M56.5,50.4v-1.7H57V50h1.3v0.4H56.5z"/>
		<path class="st8" d="M58.7,50.4v-1.7h0.5V50h1.3v0.4H58.7z"/>
		<path class="st8" d="M60.9,50.4v-1.7h1.8V49h-1.4v0.3h0.8v0.4h-0.8V50h1.4v0.4H60.9z"/>
		<path class="st8" d="M63.8,49.7L63.8,49.7L63.8,49.7l0.1,0l0,0l0,0l0,0l0,0l0,0l0,0v0v0.4l-0.4,0.6h-0.3l0.3-0.6h-0.2l0,0l0,0l0,0
			l0,0l0,0l0,0l0,0l0,0v0v-0.2l0,0l0,0l0,0l0,0l0,0l0,0l0,0l0,0l0,0l0,0h0H63.8z"/>
		<path class="st8" d="M66.3,50.4v-2.1h0.4l1.4,1.2l0,0l0,0l0,0l0,0l0,0l0,0l0,0l0,0l0,0l0,0l0,0l0,0l0,0l0,0l0,0l0,0l0,0l0,0l0,0
			v-1.1h0.5v2.1h-0.4l-1.5-1.3l0,0l0,0l0,0l0,0l0,0l0,0l0,0l0,0l0,0l0,0l0,0l0,0l0,0l0,0l0,0l0,0l0,0v1.1H66.3z"/>
		<path class="st8" d="M71.5,48.7h-1.2v1.2h1.2v-0.4l0.5,0.1v0.3l0,0l0,0l0,0l0,0l0,0l0,0l0,0l0,0l0,0l0,0l0,0l0,0l0,0l0,0l0,0l0,0
			l0,0l0,0l0,0l0,0l0,0l0,0l0,0l0,0l0,0l0,0h-1.2l0,0l0,0l0,0l0,0l0,0l0,0l0,0l0,0l0,0l0,0l0,0l0,0l0,0l0,0l0,0l0,0l0,0l0,0l0,0l0,0
			l0,0l0,0l0,0l0,0l0,0l0,0l0,0v-1.1l0,0l0,0l0,0l0,0l0,0l0,0l0,0l0,0l0,0l0,0l0,0l0,0l0,0l0,0l0,0l0,0l0,0l0,0l0,0l0,0l0,0l0,0l0,0
			l0,0l0,0l0,0h1.2l0,0l0,0l0,0l0,0l0,0l0,0l0,0l0,0l0,0l0,0l0,0l0,0l0,0l0,0l0,0l0,0l0,0l0,0l0,0l0,0l0,0l0,0l0,0l0,0l0,0v0V49
			l-0.5,0.1V48.7z"/>
	</g>
</g>
<g>
	<g>
		<path class="st8" d="M14.6,55.1H16h0l0,0l0,0l0,0l0,0l0,0l0,0l0,0l0,0l0,0l0,0l0,0l0,0l0,0l0,0l0,0l0,0l0,0l0,0l0,0l0,0l0,0l0,0
			l0,0v-0.1h-0.4l0,0l0,0l0,0l0,0l0,0l0,0l0,0l0,0l0,0H15v-0.4h0.9l0,0l0,0l0,0l0,0l0,0l0,0l0,0l0,0l0,0v0.1h0.4v-0.1l0,0l0,0l0,0
			l0,0l0,0l0,0l0,0l0,0l0,0l0,0l0,0l0,0l0,0l0,0l0,0l0,0l0,0l0,0l0,0l0,0l0,0l0,0l0,0l0,0l0,0l0,0l0,0l0,0l0,0l0,0l0,0l0,0h-0.4l0,0
			l0,0l0,0l0,0l0,0l0,0l0,0l0,0H15v-0.3h0.9h0l0,0l0,0l0,0l0,0l0,0l0,0l0,0v0.1h0.4l0,0v-0.2v0l0,0l0,0l0,0l0,0l0,0l0,0l0,0l0,0l0,0
			l0,0l0,0l0,0l0,0l0,0l0,0l0,0l0,0l0,0l0,0h-1.5V55.1z"/>
		<path class="st8" d="M17.7,55.1v-0.8l-0.9-1h0.6L18,54l0.6-0.6h0.5l-0.9,1v0.8H17.7z"/>
		<path class="st8" d="M21,55.1V53h0.4l1,1.2l0.9-1.2h0.4v2.1h-0.5v-1.3l0,0l0,0l0,0l0,0l0,0l0,0l0,0l0,0l0,0l0,0l0,0l0,0l0,0l0,0
			l0,0l0,0l0,0l0,0l-0.8,1h-0.1l-0.8-1l0,0l0,0l0,0l0,0l0,0l0,0l0,0l0,0l0,0l0,0l0,0l0,0l0,0l0,0l0,0l0,0v0v1.3H21z"/>
		<path class="st8" d="M24.3,55.1h0.5l0.2-0.4H26l0.2,0.4h0.5l-0.4-0.7h-0.5h-0.7l0.3-0.6l0.4,0.6h0.5l-0.6-1h-0.4L24.3,55.1z"/>
		<path class="st8" d="M27.1,55.1h1h0l0,0l0,0l0,0l0,0l0,0l0,0l0,0l0,0l0,0l0,0l0,0l0,0l0,0l0.1,0l0.1,0l0,0l0,0l0,0l0,0l0,0l0,0
			l0,0l0,0l0,0l0,0l0,0l0,0l0,0l0,0l0,0l0,0l0,0l0,0l0,0l0,0l0-0.1l0-0.1l0-0.1l0,0h-0.5l0,0l0,0l0,0l0,0l0,0l0,0l0,0l0,0l0,0l0,0
			l0,0l0,0l0,0l0,0l0,0l0,0l0,0l0,0l0,0l0,0l0,0l0,0l0,0l0,0l0,0l0,0l0,0l-0.1,0l-0.1,0h-0.5v-1h0.7l0,0l0,0l0,0l0,0l0,0l0,0l0,0
			l0,0l0,0l0,0l0,0l0,0l0,0l0,0l0,0l0,0l0,0l0,0l0,0l0,0l0,0l0,0l0,0l0,0l0,0h0.5l0,0l0,0l0,0l0,0l0,0l0,0l0,0l0,0l0,0l0,0l0,0l0,0
			l0,0l0,0l0,0l0,0l0,0l0,0l0,0l0,0l0,0l0,0l0,0l0,0l0,0l-0.1,0l-0.1,0l-0.1,0l0,0l0,0l0,0l0,0l0,0l0,0l0,0l0,0h-1.2V55.1z"/>
		<path class="st8" d="M29.8,55.1v-1.7h0.5v1.7H29.8z"/>
		<path class="st8" d="M32.6,53.8h-1.1v0.3h1.1l0,0l0,0l0,0l0,0l0,0l0,0l0,0l0,0l0,0l0,0l0,0l0,0l0,0l0,0l0,0l0,0l0,0l0,0l0,0l0,0
			l0,0l0,0v0.2l0,0l0,0l0,0l0,0l0,0l0,0l0,0l0,0l0,0l0,0l0,0l0,0l0,0l0,0l0,0l0,0l0,0l0,0l0,0l0,0l0,0l0,0h0h-1.1l0,0l0,0l0,0l0,0
			l0,0l0,0l0,0l0,0l0,0l0,0l0,0l0,0l0,0l0,0l0,0l0,0l0,0l0,0l0,0l0,0l0,0l0,0l0,0v-0.1l0.4-0.1v0.2h1.2v-0.4h-1.1l0,0l0,0l0,0l0,0
			l0,0l0,0l0,0l0,0l0,0l0,0l0,0l0,0l0,0l0,0l0,0l0,0l0,0l0,0l0,0l0,0l0,0l0,0v-0.2l0,0l0,0l0,0l0,0l0,0l0,0l0,0l0,0l0,0l0,0l0,0l0,0
			l0,0l0,0l0,0l0,0l0,0l0,0l0,0l0,0l0,0l0,0l0,0h1l0,0l0,0l0,0l0,0l0,0l0,0l0,0l0,0l0,0l0,0l0,0l0,0l0,0l0,0l0,0l0,0l0,0l0,0l0,0
			l0,0l0,0l0,0v0.1l-0.4,0.1V53.8z"/>
		<path class="st8" d="M34,53.4L34,53.4L34,53.4L34,53.4l-0.1,0l0,0l0,0l0,0l0,0l0,0l0,0l0,0l0,0l0,0l0,0l0,0l0,0l0,0l0,0l0,0l0,0
			l0,0l0,0v0.9v0l0,0l0,0l0,0l0,0l0,0l0,0l0,0l0,0l0,0l0,0l0,0l0,0l0,0l0,0l0,0l0,0l0,0l0,0l0,0l0,0l0,0l0,0h1.3h0l0,0l0,0l0,0l0,0
			l0,0l0,0l0,0l0,0l0,0l0,0l0,0l0,0l0,0l0,0l0,0l0,0l0,0l0,0l0,0l0,0l0,0l0,0v-0.9v0l0,0l0,0h-0.5v1H34v-1h1.3h0.5l0,0l0,0l0,0l0,0
			l0,0l0,0l0,0l0,0l0,0l0,0l0,0l0,0l0,0l0,0l0,0l0,0l0,0l0,0l0,0l0,0l0,0L34,53.4L34,53.4z"/>
		<path class="st8" d="M36.5,55.1v-1.7h0.3l1.4,1.1v-1.1h0.4v1.7h-0.3L36.9,54v1.1H36.5z"/>
		<path class="st8" d="M42.9,53.4h-1.4v1.2h1.4v-0.4h-0.8v-0.4h1.3v0.7l0,0l0,0l0,0l0,0l0,0l0,0l0,0l0,0l0,0l0,0l0,0l0,0l0,0l0,0
			l0,0l0,0l0,0l0,0l0,0l0,0l0,0l0,0l0,0l0,0l0,0l0,0h-1.4l0,0l0,0l0,0l0,0l0,0l0,0l0,0l0,0l0,0l0,0l0,0l0,0l0,0l0,0l0,0l0,0l0,0l0,0
			l0,0l0,0l0,0l0,0l0,0l0,0l0,0l0,0l0,0v-1.1l0,0l0,0l0,0l0,0l0,0l0,0l0,0l0,0l0,0l0,0l0,0l0,0l0,0l0,0l0,0l0,0l0,0l0,0l0,0l0,0l0,0
			l0,0l0,0l0,0l0,0l0,0h1.4l0,0l0,0l0,0l0,0l0,0l0,0l0,0l0,0l0,0l0,0l0,0l0,0l0,0l0,0l0,0l0,0l0,0l0,0l0,0l0,0l0,0l0,0l0,0l0,0l0,0
			v0.1l-0.5,0.1V53.4z"/>
		<path class="st8" d="M44.2,55.1v-1.7h0.5v1.4H46v0.4H44.2z"/>
		<path class="st8" d="M46.4,55.1v-1.7h1.8v0.4h-1.4V54h0.8v0.4h-0.8v0.4h1.4v0.4H46.4z"/>
		<path class="st8" d="M49.5,55.1v-0.8l-0.9-1h0.6l0.6,0.6l0.6-0.6h0.5l-0.9,1v0.8H49.5z"/>
		<path class="st8" d="M51.2,55.1h1h0l0,0l0,0l0,0l0,0l0,0l0,0l0,0l0,0l0,0l0,0l0,0l0,0l0,0l0.1,0l0.1,0l0,0l0,0l0,0l0,0l0,0l0,0
			l0,0l0,0l0,0l0,0l0,0l0,0l0,0l0,0l0,0l0,0l0,0l0,0l0,0l0,0l0-0.1l0-0.1l0-0.1l0,0h-0.5l0,0l0,0l0,0l0,0l0,0l0,0l0,0l0,0l0,0l0,0
			l0,0l0,0l0,0l0,0l0,0l0,0l0,0l0,0l0,0l0,0l0,0l0,0l0,0l0,0l0,0l0,0l0,0l-0.1,0l-0.1,0h-0.5v-1h0.7l0,0l0,0l0,0l0,0l0,0l0,0l0,0
			l0,0l0,0l0,0l0,0l0,0l0,0l0,0l0,0l0,0l0,0l0,0l0,0l0,0l0,0l0,0l0,0l0,0l0,0h0.5l0,0l0,0l0,0l0,0l0,0l0,0l0,0l0,0l0,0l0,0l0,0l0,0
			l0,0l0,0l0,0l0,0l0,0l0,0l0,0l0,0l0,0l0,0l0,0l0,0l0,0l-0.1,0l-0.1,0l-0.1,0l0,0l0,0l0,0l0,0l0,0l0,0l0,0l0,0h-1.2V55.1z"/>
		<path class="st8" d="M54.4,53.4v1.4h1.1v-1.4H56v1.3l0,0l0,0l0,0l0,0l0,0l0,0l0,0l0,0l0,0l0,0l0,0l0,0l0,0l0,0l0,0l0,0l0,0l0,0
			l0,0l0,0l0,0l0,0h0h-1.1l0,0l0,0l0,0l0,0l0,0l0,0l0,0l0,0l0,0l0,0l0,0l0,0l0,0l0,0l0,0l0,0l0,0l0,0l0,0l0,0l0,0l0,0l0,0v-1.3H54.4
			z"/>
		<path class="st8" d="M56.7,55.1h0.4v-0.6h0.4l0.7,0.6h0.7L58,54.5h0.2l0,0l0,0l0,0l0,0l0,0l0,0l0,0l0,0l0,0l0,0l0,0l0,0l0,0l0,0
			l0,0l0,0l0,0l0,0l0,0l0,0V54h-0.4v0l0,0l0,0l0,0l0,0l0,0l0,0l0,0l0,0h-0.9v-0.4H58h0l0,0l0,0l0,0l0,0l0,0l0,0l0,0l0,0V54h0.4v-0.3
			l0,0l0,0l0,0l0,0l0,0l0,0l0,0l0,0l0,0l0,0l0,0l0,0l0,0l0,0l0,0l0,0l0,0l0,0l0,0l0,0h-1.5V55.1z"/>
		<path class="st8" d="M58.9,55.1h0.5l0.2-0.4h1.1l0.2,0.4h0.5l-0.4-0.7h-0.5h-0.7l0.3-0.6l0.4,0.6h0.5l-0.6-1h-0.4L58.9,55.1z"/>
		<path class="st8" d="M64.2,53L64.2,53L64.2,53L64.2,53l-0.1,0l0,0l0,0l0,0l0,0l0,0l0,0l0,0l0,0l0,0l0,0l0,0l0,0l0,0l0,0l0,0l0,0
			l0,0l0,0l0,0v0.1v0l0,0l0,0l0,0l0,0l0,0l0,0l0,0l0,0l0,0l0,0l0,0l-0.4,0.2l0,0l0,0l0,0l0,0l0,0l0,0l0,0l0,0l0,0l0,0l0,0l0,0l0,0
			l0,0l0,0l0,0l0,0v0.1v0l0,0l0,0l0,0l0,0l0,0l0,0l0,0l0,0l0,0l0,0l0,0l0,0l0,0l0,0l0,0l0,0l0,0l0,0l0,0l0,0l0,0l0,0l0,0l0,0l0,0
			l0,0h0.7h0l0,0l0,0l0,0l0,0l0,0l0,0l0,0l0,0l0,0l0,0l0,0l0,0l0,0l0,0l0.2-0.1l0.3,0.3H66l-0.6-0.5h-0.7l-0.2,0.1h-0.9v-0.3
			l0.5-0.3l0.6,0.5h0.7l0,0l0.5-0.4l-0.3-0.3L65,54.3l-0.9-0.8v-0.1h0.6v0.3l0.4-0.1v-0.1l0,0l0,0l0,0l0,0l0,0l0,0l0,0l0,0l0,0l0,0
			l0,0l0,0l0,0l0,0l0,0l0,0l0,0l0,0l0,0l0,0l0,0l0,0l0,0l0,0l0,0L64.2,53L64.2,53z"/>
		<path class="st8" d="M68.1,55.1V53h2.1v0.4h-1.6V54h0.9v0.4h-0.9v0.8H68.1z"/>
		<path class="st8" d="M70.5,55.1v-1.7H71v1.7H70.5z"/>
		<path class="st8" d="M71.6,55.1v-1.7h0.3l1.4,1.1v-1.1h0.4v1.7h-0.3L72,54v1.1H71.6z"/>
		<path class="st8" d="M74.4,55.1v-1.7h0.3l1.4,1.1v-1.1h0.4v1.7h-0.3L74.8,54v1.1H74.4z"/>
		<path class="st8" d="M78.9,55.1V53h0.5v0.8h1.4V53h0.5v2.1h-0.5v-0.9h-1.4v0.9H78.9z"/>
		<path class="st8" d="M82,55.1h0.5l0.2-0.4h1.1l0.2,0.4h0.5L84,54.4h-0.5h-0.7l0.3-0.6l0.4,0.6H84l-0.6-1H83L82,55.1z"/>
		<path class="st8" d="M84.8,55.1h0.4v-0.6h0.4l0.7,0.6H87l-0.8-0.6h0.2l0,0l0,0l0,0l0,0l0,0l0,0l0,0l0,0l0,0l0,0l0,0l0,0l0,0l0,0
			l0,0l0,0l0,0l0,0l0,0l0,0V54h-0.4l0,0l0,0l0,0l0,0l0,0l0,0l0,0l0,0l0,0h-0.9v-0.4h0.9h0l0,0l0,0l0,0l0,0l0,0l0,0l0,0l0,0V54h0.4
			v-0.3v0l0,0l0,0l0,0l0,0l0,0l0,0l0,0l0,0l0,0l0,0l0,0l0,0l0,0l0,0l0,0l0,0l0,0l0,0l0,0h-1.5V55.1z"/>
		<path class="st8" d="M88.4,53.8v1.4h-0.5v-1.4h-0.8v-0.4h2.1v0.4H88.4z"/>
		<path class="st8" d="M89.6,55.1v-1.7H90l0.8,1l0.8-1h0.4v1.7h-0.4V54l-0.7,0.9h-0.1L90,54v1.1H89.6z"/>
		<path class="st8" d="M92.4,55.1h0.5l0.2-0.4h1.1l0.2,0.4h0.5l-0.4-0.7h-0.5h-0.7l0.3-0.6l0.4,0.6h0.5l-0.6-1h-0.4L92.4,55.1z"/>
		<path class="st8" d="M95.2,55.1v-1.7h0.3l1.4,1.1v-1.1h0.4v1.7H97L95.6,54v1.1H95.2z"/>
	</g>
</g>
<g>
	<g class="st0">
		<rect x="111.4" y="45.3" class="st1" width="7.2" height="3.4"/>
		<text transform="matrix(-1 0 0 1 118.615 47.735)"><tspan x="0" y="0" class="st2 st3 st4">Add</tspan><tspan x="6.2" y="0" class="st2 st3 st4">r</tspan></text>
	</g>
	<g class="st0">
		<rect x="110.9" y="44.8" class="st1" width="8.3" height="4.3"/>
		<text transform="matrix(-1 0 0 1 119.1887 47.2531)"><tspan x="0" y="0" class="st6 st3 st4">Add</tspan><tspan x="7.4" y="0" class="st6 st3 st4">r</tspan></text>
	</g>
	<g>
		<path class="st8" d="M119.5,45.4L119.5,45.4L119.5,45.4L119.5,45.4L119.5,45.4L119.5,45.4l-0.1,0.1l-0.5,1.7l0,0l0,0l0,0l0,0l0,0
			l0,0l0,0l0,0l0,0l0,0l0,0l0,0l0,0l0,0l0,0l0,0l0,0l0,0l0,0l0,0l0.1-0.4h0.6l0.1,0.3l0,0l0,0l0,0l0,0l0,0l0,0l0,0h0l0,0l0,0l0,0
			l0,0l0,0l0,0l0,0l0,0l0,0l0,0l0,0l-0.1-0.5h-0.3h-0.4l0.2-0.7l0.2,0.7h0.3l-0.3-1.2l0,0l0,0l0,0L119.5,45.4L119.5,45.4L119.5,45.4
			L119.5,45.4L119.5,45.4z"/>
		<path class="st8" d="M121.8,45.4L121.8,45.4L121.8,45.4L121.8,45.4L121.8,45.4L121.8,45.4L121.8,45.4l-0.1,0.1l0,0l0,0v0.6
			l-0.1-0.1l0,0l0,0l0,0l0,0l0,0l0,0l0,0l0,0l0,0l0,0l0,0h-0.2l0,0l0,0l0,0l0,0l0,0l0,0l0,0l0,0l0,0l0,0l0,0l-0.1,0.1l0,0l0,0l0,0
			l0,0l0,0l0,0l0,0l0,0l0,0l0,0l0,0l0,0l0,0l0,0v0.5v0l0,0l0,0l0,0l0,0l0,0l0,0l0,0l0,0l0,0l0,0l0,0l0,0l0.1,0.1l0,0l0,0l0,0l0,0
			l0,0l0,0l0,0l0,0l0,0l0,0l0,0h0.2l0,0l0,0l0,0l0,0l0,0l0,0l0,0l0,0l0,0l0,0l0,0l0,0l0,0l0,0l0,0v0.1l0,0l0,0l0,0l0,0l0,0l0,0l0,0
			l0,0l0,0h0l0,0l0,0l0,0l0,0l0,0l0,0l0,0l0,0l0,0v-0.4h-0.2v0l0,0l0,0l0,0l0,0l0,0l-0.2,0.2l0,0l0,0l0,0l0,0l0,0h-0.2h0l0,0l0,0
			l0,0l0,0L121,47l0,0l0,0l0,0l0,0l0,0v-0.5l0,0l0,0l0,0l0,0l0,0l0.1-0.1l0,0l0,0l0,0l0,0l0,0h0.2l0,0l0,0l0,0l0,0l0,0l0.2,0.2l0,0
			l0,0l0,0l0,0l0,0l0,0l0,0v0.3h0.2v-1.2l0,0l0,0l0,0l0,0L121.8,45.4L121.8,45.4L121.8,45.4L121.8,45.4L121.8,45.4L121.8,45.4
			L121.8,45.4z"/>
		<path class="st8" d="M123.6,45.4L123.6,45.4L123.6,45.4L123.6,45.4L123.6,45.4L123.6,45.4L123.6,45.4l-0.1,0.1l0,0l0,0v0.6
			l-0.1-0.1l0,0l0,0l0,0l0,0l0,0l0,0l0,0l0,0l0,0l0,0l0,0H123l0,0l0,0l0,0l0,0l0,0l0,0l0,0l0,0l0,0l0,0l0,0l-0.1,0.1l0,0l0,0l0,0
			l0,0l0,0l0,0l0,0l0,0l0,0l0,0l0,0l0,0l0,0l0,0v0.5v0l0,0l0,0l0,0l0,0l0,0l0,0l0,0l0,0l0,0l0,0l0,0l0,0l0.1,0.1l0,0l0,0l0,0l0,0
			l0,0l0,0l0,0l0,0l0,0l0,0l0,0h0.2l0,0l0,0l0,0l0,0l0,0l0,0l0,0l0,0l0,0l0,0l0,0l0,0l0,0l0,0l0,0v0.1l0,0l0,0l0,0l0,0l0,0l0,0l0,0
			l0,0l0,0h0l0,0l0,0l0,0l0,0l0,0l0,0l0,0l0,0l0,0v-0.4h-0.2v0l0,0l0,0l0,0l0,0l0,0l-0.2,0.2l0,0l0,0l0,0l0,0l0,0H123h0l0,0l0,0l0,0
			l0,0l-0.1-0.1l0,0l0,0l0,0l0,0l0,0v-0.5l0,0l0,0l0,0l0,0l0,0l0.1-0.1l0,0l0,0l0,0l0,0l0,0h0.2l0,0l0,0l0,0l0,0l0,0l0.2,0.2l0,0
			l0,0l0,0l0,0l0,0l0,0l0,0v0.3h0.2v-1.2l0,0l0,0l0,0l0,0L123.6,45.4L123.6,45.4L123.6,45.4L123.6,45.4L123.6,45.4L123.6,45.4
			L123.6,45.4z"/>
		<path class="st8" d="M124.3,47.3v-1.2l0,0l0,0l0,0l0,0l0,0l0,0l0,0l0,0l0,0l0,0l0,0l0,0l0,0l0,0l0,0l0,0l0,0l0,0l0,0l0,0v0.1
			l0.2-0.2l0,0l0,0l0,0l0,0l0,0l0,0l0,0l0,0l0,0l0,0l0,0h0.2l0,0l0,0l0,0l0,0l0,0l0,0l0,0l0,0l0,0l0,0l0,0l0,0l0,0l0,0l0,0l0,0l0,0
			l0,0l0,0l0,0l0,0l0,0v0.1l0,0l0,0l0,0l0,0l0,0l0,0l0,0l0,0l0,0l0,0l0,0l0,0l0,0l0,0l0,0l0,0l0,0l0,0l0,0l0,0v-0.1l0,0l0,0l0,0l0,0
			l0,0l0,0l0,0l0,0l0,0l0,0H125l0,0l0,0l0,0l0,0l0,0l0,0l-0.3,0.3v0.7l0,0l0,0l0,0l0,0l0,0l0,0l0,0l0,0l0,0h0l0,0l0,0l0,0
			L124.3,47.3L124.3,47.3L124.3,47.3L124.3,47.3L124.3,47.3L124.3,47.3L124.3,47.3z"/>
	</g>
</g>
<g>
	<path class="st10" d="M124.4,21.5l-0.2,0.1l-0.1,0l-0.1,0.1l-0.1,0.1l0,0.1l0,0.2l0,0.2l0,0.3l0,0.1l0,0.2l0,0.2l0,0.1l0,0l0,0
		l0.1,0l0,0l0,0l0,0l0-0.1l0-0.1l0-0.1l0-0.2l0-0.1l0-0.3l0-0.2l0-0.1l0.1-0.1l0.1,0l0,0l0.2,0l0.1,0.1l0.1,0.1l0,0l0,0.1l0,0l0,0
		l0.1,0l0.1-0.1l0-0.1l0-0.1l-0.1-0.1l-0.1-0.1l-0.1-0.1l0,0l-0.2,0L124.4,21.5z"/>
	<path class="st10" d="M113.3,21.4l-0.2,0.1l-0.2,0.2l0,0l0,0.1l0,0.1l0,0.1l0,0.1l0,0.2l0,0.3l0,0.7l0.1,0l0.1,0l0.1,0l0,0l0-0.1
		l0-0.1l0-0.2v-0.2l0-0.2l0-0.2l0-0.1l0-0.1l0-0.1l0,0l0.1-0.1l0.1,0l0.1,0.1l0,0l0,0l0,0.1l0,0.1l0,0.1l0,0.2l0,0.3l0,0.7l0.2-0.1
		l0.2-0.1v-0.6l0-0.2l0-0.2l0-0.2l0-0.1l0-0.1l-0.1-0.1l-0.1-0.1l-0.1-0.1l-0.2,0L113.3,21.4z"/>
	<path class="st10" d="M118.4,21.5L118.4,21.5l-0.1,0.1l-0.1,0.1l0,0l0,0.1l0,0.1l0,0.1l0,0.1l0,0.2l0,0.3l0,0l0,0.3l0,0.2l0,0.1
		l0,0l0.1,0l0.1,0l0,0l0,0l0,0l0-0.1l0-0.1l0-0.2l0-0.2l0-0.1l0-0.2l0-0.1l0-0.1l0-0.1l0,0l0,0l0.1-0.1l0.1,0l0.1,0l0.1,0.1l0,0.1
		l0,0l0,0.1l0.1,0l0.1,0l0,0l0.1-0.1l0-0.1l-0.1-0.2l-0.1-0.1l-0.2-0.1l-0.2-0.1l-0.2,0L118.4,21.5z"/>
	<path class="st10" d="M115.4,20.9l-0.1,0.1v1.1l0,0.3l0,0.3l0,0.2l0,0.2l0,0.1l0,0l0,0l0.1,0l0.1,0l0.1,0v-0.6l0-0.2l0-0.2l0-0.1
		l0-0.1l0-0.1l0,0l0,0l0.1-0.1l0.1,0l0.1,0.1l0,0l0,0l0,0.1l0,0.1l0,0.1l0,0.2l0,0.2l0,0.1l0,0.2l0,0.2l0,0.1l0,0l0,0l0.1,0l0.1,0
		l0.1,0l0-0.6v-0.1l0-0.3l0-0.2l0-0.2l-0.1-0.1l-0.1-0.1l-0.1-0.1l-0.1,0l-0.2,0l-0.2,0l-0.1,0l0,0l0,0l0,0l0-0.1l0-0.2l0-0.3
		L115.4,20.9z"/>
	<path class="st10" d="M121.1,21.5L121.1,21.5l-0.2,0.1v1.4l0.1,0.1l0,0l0.1,0.1l0.1,0l0.1,0l0.1,0l0.1,0l0.1,0l0,0l0.1,0l0.1,0l0,0
		l0.1,0l0.1,0l0.1-0.1l0.1-0.1v-0.7l0-0.2l0-0.2l0-0.2l0-0.1l0,0h0l-0.1,0l-0.1,0l-0.1,0.1l0,0.6l0,0.6h-0.2l0-0.7l0-0.2l0-0.2
		l0-0.2l0-0.1l0,0h0l0,0l-0.1,0l-0.1,0l0,0.6l0,0.1l0,0.2l0,0.2l0,0.1l0,0.1l0,0l-0.1,0l-0.1,0l0-0.7l0-0.2l0-0.2l0-0.2L121.1,21.5
		L121.1,21.5L121.1,21.5z"/>
	<path class="st10" d="M108.1,22.3L108.1,22.3l0,0.2l0,0.1l0,0.1l0,0.1l0,0.1l0,0l0.1,0.1l0.1,0.1l0.1,0l0.2,0l0.2,0l0.2-0.1
		l0.2-0.2l0,0l0-0.1l0-0.2l0-0.2l0-0.2H109l0,0.3l0,0l0,0.1l0,0.1l-0.1,0.1l-0.1,0.1l-0.1,0l-0.1-0.1l0,0l0-0.1l0-0.1l0-0.1l0-0.2
		l0-0.2l0-0.2l0-0.1l0.1-0.1l0.1,0l0,0l0.1,0.1l0.1,0.1l0,0.2h0.4l0,0l0-0.2l0-0.2l-0.1-0.1l-0.1-0.2l-0.2-0.1l-0.2,0l-0.1,0l-0.2,0
		l-0.2,0.1l-0.1,0.2l0,0l0,0.1l0,0.1l0,0.1l0,0.1L108.1,22.3L108.1,22.3z"/>
	<path class="st10" d="M125.4,22.3l0,0.1l0,0.2l0,0.2l0,0.1l0.1,0.1l0.1,0.1l0.1,0l0.1,0l0.2,0l0.1,0l0.1,0l0.1-0.1l0.1-0.1l0,0
		l0.1-0.1l0-0.1l0-0.1v-0.2l-0.1,0l-0.1,0.1l-0.1,0.1l0,0l-0.1,0.1l-0.1,0.1l-0.1,0l-0.1-0.1l0,0l0-0.1l0-0.1l0.1-0.1l0.1-0.1
		l0.2-0.1l0.4-0.2l0-0.2l0-0.1h-0.3l0,0.1l-0.1,0.1l-0.2,0.1l0,0l-0.1,0.1l-0.1,0l0,0l0,0l0-0.1l0-0.1l0-0.1l0.1-0.1l0.1-0.1l0.1,0
		l0.1,0.1l0,0l0,0.1h0.3l0,0l-0.1-0.2l-0.1-0.1l-0.2-0.1l-0.2-0.1l-0.2,0l-0.2,0.1l0,0l-0.1,0.1l-0.1,0.1l0,0.1l0,0.2l0,0.1
		L125.4,22.3z"/>
	<path class="st10" d="M119.5,22.3l0,0.2l0,0.2l0.1,0.2l0.1,0.1l0.1,0.1l0.1,0.1l0.2,0l0.2,0l0.2-0.1l0.1-0.2l0,0l0-0.1l0-0.1l0-0.1
		l0-0.1l0-0.2v0h-0.3l0,0.1l0,0.1l0,0.1l0,0.1l0,0l0,0l-0.1,0.1l-0.1,0l-0.1-0.1l0,0l0-0.1l0-0.1l0-0.1l0-0.2l0-0.1l0-0.1l0-0.1
		l0-0.1l0,0l0,0l0.1-0.1l0.1,0l0.1,0.1l0,0l0,0.1l0,0.1l0,0.1l0,0.2h0.3l0-0.2l0-0.3v-1l-0.1,0.1l0,0l-0.1,0l0,0.1l0,0.1l0,0.2
		l0,0.1l0,0.1l0,0l0,0l-0.1,0l-0.2,0l-0.2,0l-0.1,0.1l-0.1,0.1l-0.1,0.1l-0.1,0.1l0,0.2L119.5,22.3L119.5,22.3z"/>
	<path class="st10" d="M111.2,22.2l0,0.3l0,0.1l0.1,0.2l0.1,0.2l0.2,0.1l0,0l0.2,0.1l0.2,0l0.2-0.1l0.2-0.1l0.1-0.2l0,0l0-0.1l0-0.1
		l0-0.1l0-0.1l0,0l0,0l-0.1,0l-0.1,0.1l-0.1,0.1l0,0.1l-0.1,0.1l-0.1,0.1l-0.1,0l0,0l-0.1-0.1l-0.1-0.1l0-0.1v0l0,0l0.1-0.1l0.1-0.1
		l0.2-0.1l0,0l0.2-0.1l0.1-0.1l0.1,0l0,0l0,0l0-0.1l0-0.1h-0.4l0,0l-0.1,0.1l0,0l-0.1,0.1l-0.1,0l-0.1,0l0,0l0-0.1l0-0.1l0.1-0.1
		l0.1-0.1l0.1,0l0.1,0.1l0,0.1l0,0h0.4l0,0l-0.1-0.2l-0.1-0.2l-0.2-0.1l-0.2-0.1l-0.2,0l-0.2,0.1l-0.2,0.1l-0.1,0.1l-0.1,0.2l0,0.1
		L111.2,22.2z"/>
	<path class="st10" d="M117.1,21.5l-0.1,0.1l-0.1,0.1l-0.1,0.2l0,0.2v0.1l0.1-0.1l0.1-0.1L117,22l0,0l0.1-0.1l0.1-0.1l0.1,0l0.1,0.1
		l0,0l0.1,0.1l0,0.1l-0.1,0.1l-0.1,0.1l-0.2,0.1l0,0l-0.2,0.1l-0.1,0.1l-0.1,0.1l0,0.1l0,0.1l0,0.1l0.1,0.2l0.1,0.1l0.1,0l0.1,0
		l0.1,0l0.1,0l0,0l0-0.1l0-0.1l0-0.1l-0.1,0l-0.1,0l-0.1,0l-0.1-0.1l0-0.1v0l0-0.1l0.1-0.1l0.1-0.1l0.2-0.1l0.1,0l0.1,0l0,0.1l0,0.1
		v0.2l0,0.1l0,0.2l0,0.1l0,0l0,0l0.1,0l0.1,0l0.1-0.1l0-0.6l0,0l0-0.3l0-0.2l0-0.2l-0.1-0.1l-0.1-0.1l-0.1-0.1l0,0l-0.2-0.1l-0.2,0
		L117.1,21.5z"/>
	<path class="st10" d="M109.6,22.5l0,0.3l0,0.1l0,0.3l0,0.2l0,0.2l0,0.1l0,0.1l0,0l0,0l0.1,0l0.1,0l0,0l0.1,0l0,0l0-0.1l0-0.1v-0.2
		h0.3l0.2,0l0.1,0l0.1-0.1l0,0l0.1-0.1l0.1-0.1l0-0.1l0-0.2l0-0.2h-0.4v0l0,0.2l0,0.1l0,0.1l0,0.1l0,0l-0.1,0.1l-0.1,0l-0.1-0.1l0,0
		l0-0.1l0-0.1l0-0.1l0-0.2l0-0.1l0-0.2l0-0.1l0.1-0.1l0.1,0l0,0l0.1,0l0.1,0.1l0,0.2l0,0.2h0.4l0,0l0-0.2l0-0.1l0-0.1l0-0.1l0-0.1
		l0-0.1l-0.1-0.1l-0.2-0.1l-0.2,0l-0.2,0l-0.2,0.1l-0.2,0.2l0,0l0,0l0,0.1l0,0.1l0,0.1l0,0.1l0,0.2l0,0L109.6,22.5z"/>
	<path class="st10" d="M123.1,21.5L123.1,21.5l-0.2,0.1l-0.1,0.1l-0.1,0.1l-0.1,0.1l0,0.1l0,0.1v0.2l0.1-0.1l0.1-0.1l0.1-0.1l0,0
		l0.1-0.1l0.1-0.1l0.1,0l0.1,0.1l0.1,0.1l0,0.1l0,0.1l-0.1,0.1l-0.2,0.1l0,0l-0.2,0.1l-0.1,0.1l-0.1,0.1l-0.1,0.1l-0.1,0.2l0,0.2
		l0.1,0.2l0.1,0.1l0.1,0.1l0.2,0l0.1,0l0.1,0l0-0.1l0-0.1l0,0l0-0.1l-0.1,0l-0.1,0l-0.1,0l-0.1,0l-0.1-0.1l0-0.1l0-0.1l0,0l0,0
		l0.1-0.1l0.1-0.1l0.1-0.1l0.1,0l0.1,0l0,0l0,0.1l0,0.1l0,0.2l0,0.1l0,0.2l0,0.1l0,0l0,0l0.1,0l0.1,0v-0.6l0-0.2l0-0.2l0-0.2l0-0.1
		l0-0.1l-0.1-0.1l-0.1-0.1l-0.1-0.1L123.1,21.5L123.1,21.5z"/>
	<path class="st10" d="M117,8.1l-0.2,0l-0.2,0l-0.1,0l-0.1,0l0,0l0,0l0,0l0,0l0,0.1l0,0.1l0,0.2l0,0.2l0,0.2l0,0l0,0.2l0,0.2l0,0.2
		l0,0.1l0,0v0l-0.1,0l-0.1,0l-0.1,0.1l0,0l-0.2,0.1l-0.2,0.1l-0.2,0.1l-0.3,0.1l-0.7-0.5l0,0l-0.2-0.1l-0.2-0.1l-0.2-0.1l-0.1-0.1
		l-0.1,0l0,0l-0.1,0.1l-0.1,0.1L113,9.7l-0.2,0.2l0,0l-0.2,0.2l-0.2,0.2l-0.1,0.1l-0.1,0.1l0,0.1v0l0,0l0,0.1l0,0.1l0.1,0.1l0.1,0.2
		l0.2,0.2l0,0l0.1,0.2l0.1,0.2l0.1,0.1L113,12l0,0l0,0l0,0.1l0,0.1l-0.1,0.1l-0.1,0.2l-0.1,0.2l-0.1,0.2l0,0.1l-0.1,0.1l0,0.1l0,0
		l0,0l-0.1,0l-0.1,0l-0.2,0l-0.2,0l-0.2,0l-0.2,0l-0.2,0l-0.2,0l-0.1,0l-0.1,0l0,0l0,0l0,0l0,0.1l0,0.1l0,0.2l0,0.2l0,0.3v0.9l0.2,0
		l0,0l0.1,0l0.2,0l0.2,0l0.2,0l0.1,0l0.2,0l0.2,0l0.1,0l0.1,0l0,0l0,0.1l0,0.1l0,0l0.1,0.2l0.1,0.2l0.1,0.2l0,0.1l0.1,0.1l0,0.1
		l0,0.1l0,0l0,0.1l-0.1,0.1l-0.1,0.2l-0.1,0.2l-0.1,0.2l-0.5,0.7l0.6,0.6l0.1,0.1l0.2,0.2l0.2,0.2l0.1,0.1l0.1,0.1l0,0l0.1,0
		l0.1-0.1l0.2-0.1l0.2-0.1l0.2-0.1l0.2-0.1l0.2-0.1l0.1-0.1l0.1-0.1l0,0l0,0l0.1,0l0.1,0.1l0.1,0.1l0,0l0.2,0.1l0.1,0h0.1l0,0l0,0
		l0-0.1l0.1-0.2l0.1-0.2l0.1-0.3l0.1-0.3l0.1-0.3l0.1-0.3l0.1-0.3l0.1-0.3l0.1-0.2l0.1-0.2l0-0.1l0,0l0,0l-0.1-0.1l-0.1-0.1
		l-0.3-0.2l-0.2-0.3l-0.2-0.3l-0.1-0.3l0-0.3l0-0.3l0.1-0.3l0.2-0.3l0.2-0.3l0.1-0.1l0.3-0.2l0.3-0.1l0.3-0.1l0.3,0l0.3,0.1l0.3,0.1
		l0.3,0.2l0.2,0.2l0.2,0.3L119,14l0.1,0.4l0,0.2l0,0.4l-0.1,0.4l-0.2,0.3l-0.2,0.3l-0.3,0.3l-0.1,0.1l-0.1,0.1l0,0l0,0l0,0.1
		l0.1,0.2l0.1,0.2l0.1,0.3l0.1,0.3l0.1,0.3l0.1,0.3l0.1,0.3l0.1,0.3l0.1,0.2l0.1,0.2l0,0.1l0,0l0,0l0,0l0.1,0l0.1,0l0.2-0.1l0,0
		l0.1-0.1l0.1,0l0.1,0l0,0L120,19l0.1,0.1l0.2,0.1l0.2,0.1l0.2,0.1l0.2,0.1l0.2,0.1l0.1,0.1l0.1,0l0,0l0.1,0l0.1-0.1l0.1-0.1
		l0.2-0.2l0.2-0.2l0.6-0.6l-0.5-0.7l-0.5-0.7l0.1-0.3l0,0l0.1-0.2l0.1-0.2l0.1-0.2l0,0l0.1-0.1l0-0.1l0-0.1l0,0l0.1,0l0.1,0l0.2,0
		l0.2,0l0.1,0l0.2,0l0.2,0l0.2,0l0.1,0l0.2,0v-0.9v-0.1l0-0.3l0-0.2l0-0.1l0-0.1l0-0.1l0,0l0,0l0,0l-0.1,0l-0.1,0l-0.2,0l-0.2,0
		l-0.2,0l-0.2,0l-0.2,0l-0.2,0l-0.1,0l0,0l0,0l0-0.1l0-0.1l-0.1-0.1l-0.1-0.2l-0.1-0.2l-0.1-0.2l0,0l-0.1-0.1l0-0.1l0-0.1l0,0l0-0.1
		l0.1-0.1l0.1-0.2l0.1-0.2l0.1-0.2l0.2-0.2l0.1-0.2l0.1-0.1l0-0.1l0-0.1l0,0l0,0l0-0.1l-0.1-0.1l-0.1-0.1l-0.2-0.2l-0.2-0.2
		l-0.2-0.2l-0.2-0.2l-0.1-0.1l-0.1-0.1l0,0l0,0l-0.1,0L121,9.5l-0.2,0.1l-0.2,0.1l-0.2,0.1l-0.7,0.5l-0.3-0.1l0,0l-0.2-0.1l-0.2-0.1
		l-0.2-0.1l0,0l-0.1-0.1l-0.1,0l-0.1,0l0,0l0-0.1l0-0.1l0-0.2l0-0.2l0-0.2l0,0l0-0.2l0-0.2l0-0.2l0-0.1l0-0.1l0,0l0,0l0,0l0,0
		l-0.1,0l-0.1,0l-0.2,0l-0.2,0l-0.3,0h0L117,8.1z"/>
</g>
<g>
	<path class="st11" d="M119,53.4v-5.7"/>
	<path class="st11" d="M119,47.7h7.9"/>
	<path class="st11" d="M126.9,53.4H119"/>
	<path class="st11" d="M126.9,47.7v5.7"/>
</g>
<g>
	<path class="st8" d="M18.7,34.2L18.7,34.2l-0.1,0.2l0.1,0.1l0.1,0.1l0.1,0l0.1-0.1l0-0.1l0-0.1l-0.1-0.1l-0.1,0L18.7,34.2z"/>
	<path class="st8" d="M22.4,37.7L22.4,37.7l0,0.2l0.1,0.1l0.1,0.1l0.1,0l0.1-0.1l0-0.1l0-0.1l-0.1-0.1l-0.1,0L22.4,37.7z"/>
	<path class="st8" d="M18.4,34.5L18.4,34.5l-0.2,0.1L18,34.7l-0.2,0.1l-0.6,0.4l0.1,0.1l0,0l0.1,0.1l0,0l0,0l0.1,0l0.1-0.1l0.2-0.1
		l0.2-0.1l0.6-0.4l-0.1-0.1l0,0L18.4,34.5L18.4,34.5L18.4,34.5z"/>
	<path class="st8" d="M22.2,38.1L22.2,38.1l-0.1,0.2L22,38.4l-0.1,0.2l-0.1,0.2L21.7,39l-0.1,0.1l-0.1,0.1l0,0l0,0l0.1,0l0.1,0.1
		l0,0l0.1,0.1l0,0l0,0l0-0.1l0.1-0.1l0.1-0.2l0.1-0.2l0.1-0.2l0.1-0.2l0.1-0.2l0.1-0.1l0,0l0-0.1l0,0l-0.1-0.1l0,0L22.2,38.1
		L22.2,38.1L22.2,38.1z"/>
	<path class="st8" d="M21.4,19.8l0,0.1l0,0l-0.1,0.2l-0.2,0.1l-0.2,0.1l0,0l-0.1,0l0,0.1l0,0l0.1,0l0.1,0l0.1,0.1l0.1,0.1l0.1,0.1
		l0.1,0.1l0,0.1l0,0.1l0,0l0,0l0-0.1l0.1-0.2l0.1-0.2l0.2-0.1l0.1,0l0.1,0l0,0l0,0l-0.1,0l-0.1,0l-0.2-0.1l-0.2-0.2l-0.1-0.2l0-0.1
		L21.4,19.8L21.4,19.8z"/>
	<path class="st8" d="M31.5,19.5l0,0.1l0,0l-0.1,0.2L31.3,20l-0.2,0.1l-0.2,0h0l-0.1,0l0,0l0.1,0.1l0.1,0l0.1,0l0.2,0.1l0.1,0.2
		l0.1,0.2l0,0l0,0.1l0.1,0.1l0,0l0-0.1l0,0l0.1-0.2l0.1-0.2l0.2-0.1l0.2-0.1l0.1,0l0-0.1l0,0l-0.1,0l-0.1,0L31.9,20l-0.1-0.1
		l-0.1-0.2l0-0.2L31.5,19.5L31.5,19.5L31.5,19.5z"/>
	<path class="st8" d="M36.9,34.4l0,0.1l0,0l-0.1,0.2l-0.2,0.1L36.4,35l-0.1,0l-0.1,0.1l0,0.1l0.1,0l0.2,0.1l0.2,0.2l0.1,0.2l0,0
		l0,0.1l0,0.1l0,0l0,0l0-0.1l0-0.1l0-0.1l0.1-0.2l0.1-0.1l0.1-0.1l0.1,0l0.1,0l0,0l0,0l0,0l-0.1,0l-0.1,0l-0.1-0.1l-0.1,0l-0.1-0.1
		l-0.1-0.1l0-0.1v0L36.9,34.4L36.9,34.4L36.9,34.4z"/>
	<path class="st8" d="M22.5,39.6l0.1,0.2l0.2,0.2l0.2,0.1l0,0l0.3,0.1l0.2,0l0.2-0.1l0.2-0.2l0.1-0.2l0-0.3l0-0.1h-0.4l0,0.2
		l-0.1,0.2l-0.1,0.1l-0.2,0l-0.2,0l0,0l-0.1-0.1l-0.1-0.1l0-0.2l0-0.2l0.1-0.1l0.1-0.1l0.2,0l0.1,0l0.1,0.1l0.1,0.1l0,0.2H24l0,0
		L24,39.1l-0.1-0.2l-0.2-0.1l-0.1-0.1l-0.3,0L23,38.7l-0.2,0.1L22.6,39l-0.1,0.3l0,0.1l0,0L22.5,39.6z"/>
	<path class="st8" d="M20.3,29.9l0,0.1l0,0.1l-0.1,0.1l-0.1,0.1L20,30.4l-0.1,0l0,0l-0.1,0l-0.1,0l0,0.1l0,0l0.1,0l0.1,0l0,0
		l0.2,0.1l0.1,0.1l0.1,0.2l0,0.1l0,0.1l0,0l0,0l0-0.1l0-0.1l0-0.1l0.1-0.2l0.1-0.1l0.2-0.1l0,0l0.1,0l0.1,0l0,0l0-0.1l-0.1,0l-0.1,0
		l0,0l-0.1-0.1l-0.1-0.1l-0.1-0.1L20.5,30l0,0l0-0.1L20.3,29.9L20.3,29.9z"/>
	<path class="st8" d="M32.9,37.6l-0.2,0.1l-0.1,0l-0.3,0.2l-0.2,0.2l-0.1,0.2L32,38.6l0,0.3l0,0.1l0.1,0.2l0.2,0.2l0.2,0.1l0.1,0.1
		l0.3,0l0.3,0l0.3-0.1l0.3-0.2l0.1-0.1l0.1-0.1l0-0.1l-0.1-0.1l-0.1,0l-0.1,0L33.7,39L33.7,39l-0.2,0.1l-0.2,0.1l-0.2,0.1l-0.1,0
		l-0.2,0l-0.2-0.1l-0.1-0.1l-0.1-0.2l-0.1-0.2l0-0.2l0.1-0.2l0.2-0.2l0.3-0.1l0.1,0l0.1-0.1l0-0.1l0,0l0-0.1l0,0l-0.1,0L32.9,37.6z"
		/>
	<path class="st8" d="M17,32.3l-0.1,0.1l-0.1,0.1l0,0.1l0,0.1l0,0.2l0,0.1l0,0.1l0,0.1l-0.1,0l0,0l-0.1,0l-0.1-0.1l0-0.2l0,0l0-0.1
		l0,0l-0.1,0h0l-0.1,0l0,0l0,0.1l0,0.2l0.1,0.2l0.1,0.2l0.1,0.1l0.2,0l0.2,0l0.1-0.1l0.1-0.2l0-0.2l0-0.1l0-0.1l0.1-0.1l0.1,0
		l0.1,0.1l0,0.2l0,0l0,0.1l0,0l0.1,0h0l0.1,0l0,0l0-0.1l0,0l0-0.2l-0.1-0.2l-0.1-0.1l-0.2-0.1L17,32.3z"/>
	<path class="st8" d="M15.6,29.2l0,0.2l0,0.1l0,0.1l0.1,0.1l0.1,0.2l0.2,0.1l0.2,0.1l0.2,0l0.3,0l0.2,0l0.2-0.1l0.1-0.1l0.1-0.2
		l0.1-0.2l0-0.3l0-0.3l0-0.2h-0.3l0,0.3l0,0.1l-0.1,0.2L17,29.7l-0.1,0.1l-0.1,0l-0.3,0l-0.2,0l-0.2-0.1l-0.1-0.2l0,0l0-0.1l0-0.2
		l0-0.2l0-0.1l0-0.1l0,0l0.1,0l0.2,0l0.2,0l0.2,0l0.7,0h0.3l0-0.4l-0.9,0l-0.1,0l-0.3,0l-0.2,0h-0.2l-0.1,0l-0.1,0l0,0l0,0.1l0,0.2
		l0,0.2l0,0L15.6,29.2z"/>
	<path class="st8" d="M21.5,37.3L21.5,37.3l-0.1,0.1l-0.1,0l-0.1,0l-0.1,0l-0.1,0l-0.1,0.1l0,0.1l0,0.1l0,0l0,0l0,0l0,0l0,0.1L21,38
		l-0.1,0.2l0,0l-0.1,0.2l-0.1,0.2l0,0.1l0.1,0.1l0.1,0.1l0.1,0.1l0.1,0.1l0.1,0l0.1-0.1l0-0.1l0-0.1l-0.1-0.1l0,0l-0.1-0.1l0-0.1
		l0,0l0.1-0.1l0.1-0.1l0.1-0.1l0.1-0.1l0.1-0.1l0,0l0,0l0.1,0l0.1,0.1l0,0l0.1,0l0,0l0-0.1l0-0.1l0-0.1l-0.1-0.1l-0.1-0.1l-0.1-0.1
		l0-0.1l0.1-0.1l0-0.1l0-0.1l0-0.1l-0.1-0.1L21.5,37.3L21.5,37.3z"/>
	<path class="st8" d="M18.4,35.5l-0.2,0.2L18,35.8l-0.1,0.1L17.8,36l0,0.1l0,0l0,0l0,0l0,0l0.1,0.1l0.1,0l0,0l0.1-0.1l0.1-0.1
		l0.1-0.1l0.1-0.1l0.2-0.1l0.1-0.1l0.1,0l0.1,0l0.1,0l0.1,0.1l0,0.1l0,0l0,0.1L19,36.2l-0.1,0.1l-0.2,0.1l-0.1,0.1l-0.1,0.1
		l-0.1,0.1l0,0l0,0l0,0.1l0.1,0.1l0,0l0.1,0.1l0,0l0,0l0.1-0.1l0.1-0.1l0.1-0.1l0.1-0.1l0.1-0.1l0.1-0.1l0.1-0.1l0-0.1l0-0.1l0,0
		l0-0.2l-0.1-0.2l-0.2-0.1l0,0l-0.1-0.1l0,0l0,0l0-0.1L19,35.3l-0.1-0.1L18.4,35.5z"/>
	<path class="st8" d="M27.7,39.1l-0.2,0.1l-0.2,0.1l-0.1,0.2l0,0.2l0,0.1l0,0.1l0.1,0.1l0,0l0.2,0.1l0.2,0.1l0,0l0.2,0.1l0.1,0.1
		l0,0.1l0,0l0,0.1l-0.1,0.1l-0.2,0l-0.2,0l-0.2-0.1l0,0l-0.1,0l0,0l0,0.1l0,0l0,0.1l0.1,0.1l0.1,0.1l0.3,0l0.3,0l0.2-0.1l0.2-0.1
		l0.1-0.1l0-0.1l0-0.2v0l0-0.2l-0.1-0.2L28.1,40l-0.2-0.1l-0.1,0l-0.2-0.1l-0.1-0.1l0-0.1l0,0l0.1-0.1l0.1,0l0.2,0l0.2,0l0.1,0
		l0.1,0l0-0.1l0,0l0-0.1l0,0l0,0l-0.1,0l-0.1,0l-0.1,0l-0.1,0L27.7,39.1z"/>
	<path class="st8" d="M17.7,33.3L17.7,33.3l-0.1,0.1l0,0.1l0,0.1l0,0.1l0,0l-0.1,0l-0.1,0.1l-0.2,0.1l-0.1,0L17,33.9L16.9,34
		l-0.1,0.1l0,0l0,0.2l0,0.2l0.1,0.2l0,0l0.1,0.1l0,0l0,0l0.1,0l0.1,0l0.1,0l0,0l0-0.1l0-0.1l0-0.1l0-0.1l0-0.1l0,0l0.1-0.1l0.1-0.1
		l0.1-0.1l0.1-0.1l0.1,0l0,0l0,0l0,0.1l0.1,0.1l0,0l0.1,0.1l0.1,0l0.1-0.1l0,0l0,0l0-0.1l0-0.1l-0.1-0.2l0.2-0.1l0.1-0.1l0-0.1
		l0-0.1l-0.1-0.1l-0.1-0.1l-0.1,0l-0.1,0l-0.1,0l-0.1-0.1l0-0.1L17.7,33.3L17.7,33.3z"/>
	<path class="st8" d="M19.2,37.5l0,0.1l0.1,0.1l0,0l0.1,0.1l0.1,0.1l0,0l0.1,0l0,0l0,0l0,0.1l0.1,0.1l0.1,0.1l0.1-0.1l0,0l0.1-0.1
		l0.1-0.1l0.1-0.1l0.1-0.2h-0.5L20,37.7l0,0l-0.1,0.1l-0.1,0l-0.1-0.1l-0.1-0.1l0-0.1l0.1-0.1l0,0l0.1,0l0.1,0l0.2,0.1l0.1,0.1
		l0,0.1h0.5l0,0l0.1-0.2l0-0.2L20.7,37l-0.2-0.2l-0.2-0.2l-0.1-0.1l-0.1,0l0,0l0,0l0,0.1l0,0.1l0.1,0.1l0.1,0.1l0.1,0.1l0.1,0.1
		l0,0.1l0,0.1l0,0l-0.1,0l-0.1-0.1l-0.2-0.1l-0.2,0l-0.2,0l-0.1,0.1l-0.1,0.1L19.2,37.5L19.2,37.5L19.2,37.5z"/>
	<path class="st8" d="M24.6,39.1L24.6,39.1l0,0.1l0,0.2l0,0.2l-0.1,0.2l0,0.2l0,0.2l0,0.1l0,0.1l0,0l0,0l0,0l0.1,0l0.1,0l0.1,0
		l0-0.1l0-0.1l0.1-0.2l0-0.1l0.1-0.2l0.1-0.1l0-0.1l0,0l0.1-0.1l0.1,0l0.1,0l0.1,0.1l0,0.1l0,0l0,0.1l0,0.2l0,0.2l0,0l0,0.2l0,0.1
		l0,0.1l0,0l0.1,0l0.1,0l0.1,0l0,0l0-0.1l0-0.1l0-0.2l0-0.2l0-0.2l0-0.2l0-0.1l0-0.2l-0.1-0.2l-0.2-0.1l-0.2-0.1l-0.2,0l-0.1,0
		l-0.1,0l0,0l0,0l0-0.1l-0.1,0l0,0L24.6,39.1L24.6,39.1z"/>
	<path class="st8" d="M16.3,31.1l0,0.1l0,0.2l0,0.2l0,0.1l0,0.2l0,0.1l0,0l0,0l0.1,0l0.1,0l0.1,0l0.1-0.1l0.2-0.2l0.1-0.2l0-0.1
		h-0.3l0,0.1l0,0l-0.1,0.1l-0.1,0l0,0l0,0l0-0.1l0-0.1l0-0.1l0-0.1l0,0l0,0l0.1,0l0.1,0.1l0.1,0.1l0.1,0.1l0,0l0,0.1h0.3l0-0.1
		L17.1,31l0-0.1l-0.2-0.2l-0.2-0.1l-0.3,0l-0.1,0l-0.2,0.1l-0.2,0.1L15.8,31l0,0l-0.1,0.2l0,0.3l0.1,0.3l0,0.1l0,0.1l0,0l0.1,0
		l0.1,0l0,0l0-0.1l0-0.1l0,0L16,31.5l0-0.2l0.1-0.2l0,0L16.3,31.1L16.3,31.1L16.3,31.1L16.3,31.1z"/>
	<path class="st8" d="M30.5,39.7l0,0.2l0,0.3l0,0.2l0,0.2l0,0.1l0,0.1l0,0l0.1,0l0.1,0l0.1,0l0,0l0.1,0l0-0.1l0-0.1l0-0.2l0-0.2
		l0.3-0.1l0.3-0.1l0.2,0.2l0.1,0.1l0.1,0.1l0.1,0l0.1,0l0.1,0l0,0l0.1,0l0,0l0,0l0-0.1L32.1,40L32,39.8l-0.1-0.2l-0.1-0.1h-0.5l0,0
		l-0.1,0l0,0L31,39.6l-0.1,0l0,0l0-0.1l0-0.2l0-0.3l0.2,0.2l0.1,0.1l0.1,0.1l0,0.1h0.5l-0.1-0.1l-0.2-0.2L31.3,39l-0.1-0.2l-0.1-0.1
		L31,38.6l0,0l0,0l-0.1,0l-0.1,0l0,0l-0.1,0l0,0l0,0.1l0,0.1l0,0.1l0,0.2l0,0.2l0,0.2L30.5,39.7z"/>
	<path class="st8" d="M34.1,36.6L34.1,36.6L34,36.7l-0.1,0.1L33.7,37l-0.1,0.1l-0.1,0.1l-0.1,0.1l0,0l0,0l0,0.1l0.1,0.1l0.1,0.2
		l0.2,0.2l0.2,0.2l0,0.1l0.2,0.2l0.2,0.2l0.1,0.1l0.1,0.1l0,0l0,0l0.1-0.1l0.1-0.1l0.1-0.1l0.2-0.1l0.1-0.1l0.1-0.1l0.1-0.1l0,0l0,0
		l-0.1-0.1l-0.1-0.1L35,37.9L34.9,38l-0.1,0.1l-0.1,0.1l-0.1,0.1l-0.2-0.2l-0.2-0.2l0.3-0.3l0.1-0.1l0.1-0.1l0-0.1l0,0l0-0.1
		l-0.1-0.1l-0.1,0l0,0l-0.1,0l-0.1,0.1l-0.1,0.1l0,0l-0.1,0.1l-0.1,0.1l0,0l0,0l-0.1-0.1l-0.1-0.1l-0.1-0.2L34,37l0,0l0.1-0.1
		l0.1-0.1l0-0.1l0,0l0-0.1L34.1,36.6L34.1,36.6L34.1,36.6z"/>
	<path class="st8" d="M22.8,21.7L22.8,21.7l0,0.1l0.1,0.1l0.2,0.1l0.6,0.4l0.6,0.5l0.6,0.6l0.5,0.6l0.4,0.7l0.4,0.7l0.3,0.8l0.2,0.8
		l0.1,0.7l0,0.8l0,0.8l-0.1,0.8l-0.2,0.8l0,0l-0.1,0.3l-0.2,0.4L26,32.2l-0.2,0.4l-0.2,0.4l-0.2,0.3l-0.2,0.3L24.8,34l-0.5,0.5
		l-0.5,0.4l-0.5,0.4l-0.5,0.3l-0.1,0l-0.2,0.1l-0.1,0.1l0,0.1l0,0.1l0,0l0,0l0,0l0.1,0l0.2-0.1l0.2-0.1l0.2-0.1l0.2-0.1l0.2-0.1
		l0.2-0.1l0.7-0.4l0.7-0.5l0.6-0.5l0.5-0.6l0.5-0.6l0.4-0.7l0.3-0.7l0.3-0.7l0-0.1l0.1-0.7l0.1-0.8l0-0.8L28,27.5l-0.2-0.7l-0.1-0.3
		l-0.3-0.7l-0.4-0.7l-0.4-0.7l-0.5-0.6l-0.6-0.6l-0.6-0.5l-0.7-0.4l0,0L24,22.1L23.8,22l-0.2-0.1l-0.2-0.1l-0.2-0.1l-0.1,0
		L22.8,21.7L22.8,21.7z"/>
	<path class="st8" d="M14.8,29.5l0,0.5l0,0.4l0,0.4l0,0.4l0.1,0.4l0.1,0.4l0.1,0.4l0.1,0.4l0.3,1l0.4,1l0.5,0.9l0.6,0.9l0.6,0.8
		l0.7,0.8l0.8,0.7l0.8,0.6l0.9,0.6l0.9,0.5l0.7,0.3l0.9,0.3l0.9,0.3l1,0.2l1,0.1l0,0l0.1,0l0.2,0l0.3,0l0.3,0l0.3,0l0.4,0l0.4,0
		l0.3,0l0.3,0l0.3,0l0.3-0.1l1-0.2l1-0.3l1-0.4l0.9-0.5l0.9-0.5l0.8-0.6l0.8-0.7l0.7-0.7l0.7-0.8l0.6-0.8l0.5-0.9l0.5-0.9l0.4-1
		l0.3-1l0-0.1l0.1-0.4l0.1-0.4l0.1-0.4l0-0.4l0-0.4l0-0.5l0-0.5v0l0-0.1h-0.4l0,0.5l0,0.5l0,0.4l0,0.4l0,0.2l-0.2,1l-0.3,1l-0.4,1
		L38,35.2l-0.5,0.9l-0.6,0.8l-0.2,0.2l-0.2,0.3l-0.3,0.3L35.8,38l-0.3,0.3l-0.3,0.3L35,38.7l-0.5,0.4l-0.8,0.5l-0.8,0.5L32,40.5
		l-0.9,0.3l-0.1,0L30.6,41l-0.4,0.1l-0.4,0.1l-0.3,0.1l-0.3,0l-0.2,0l0.7-0.5l0.2-0.2l0.2-0.2l0.2-0.1l0.1-0.1l0-0.1l0,0l0,0l-0.1,0
		l-0.1,0.1L30,40.3l-0.2,0.1l-0.2,0.1l-0.2,0.1l-0.1,0.1l-0.1,0l0-0.1l0-0.1l0-0.2l0-0.1l0-0.1l0,0l0.1,0l0.2,0l0.2-0.1l0.2-0.1l0,0
		l0.1-0.1l0-0.1l0-0.2v0h-0.4l0,0.1l-0.1,0.1l0,0l-0.1,0.1l-0.1,0l-0.1,0l-0.1,0l0,0l0-0.1l0-0.2l0-0.3l0.2,0l0.1,0l0.2,0l0.1,0.1
		l0.1,0.1l0,0.1h0.4l0-0.1L30,39.2l-0.1-0.1L29.7,39l-0.3,0l-0.1,0l-0.2,0L29,39l-0.1,0l-0.1,0l0,0l0,0.1l0,0l0,0.1l0,0.2l0,0.3
		l0,0.2l0,0.3l0,0.2l0,0.1l0,0.1l0,0.1l0,0l0,0l0,0l0,0l0,0l0,0l-0.1,0.1l-0.1,0.1l-0.1,0.1l-0.1,0.1l-0.1,0l-0.1,0l-0.2,0l-0.1,0
		l-0.3,0l-0.3,0l-0.3,0l-0.3,0l-0.3,0l-0.3,0l-0.2,0l-0.2,0l-0.1,0l0,0l0,0l0.1-0.1l0.1-0.1l0.2-0.1l0.2-0.2l0,0l0.2-0.2l0.2-0.2
		l0.2-0.1l0.1-0.1l0-0.1l0,0l0,0l0,0l0,0l-0.1,0L27,40.2l-0.2,0.1l-0.2,0.2l-0.3,0.2l-0.1,0.1L26,41l-0.2,0.1l-0.1,0.1l-0.1,0.1
		l-0.1,0l-0.1,0l-0.2,0l-0.2,0l-0.3-0.1L24.2,41l-0.9-0.3l-0.9-0.4l-0.9-0.5l-0.9-0.5l-0.8-0.6l-0.2-0.2l-0.3-0.2L19,38.1l-0.3-0.3
		l-0.3-0.3l-0.3-0.3L18,36.9l-0.2-0.2l-0.6-0.9l-0.5-0.9L16.2,34l-0.4-1l-0.3-1l-0.2-1.1l0-0.3l0-0.4l0-0.4l0-0.5l0-0.5l0-0.4l0-0.4
		l0-0.3l0-0.3l0.2-1.1l0.3-1l0.4-1l0.5-0.9l0.5-0.9l0.6-0.8l0.2-0.2l0.2-0.3l0.3-0.3l0.3-0.3l0.3-0.3l0.3-0.3l0.2-0.2l0.2-0.2
		l0.9-0.6l0.9-0.5l0.9-0.4l1-0.4l1-0.3l1.1-0.2l0.3,0l0.4,0l0.4,0l0.5,0l0.5,0l0.4,0l0.4,0l0.3,0l0.4,0.1l1,0.2l1,0.3l0.9,0.4
		l0.9,0.5l0.9,0.5l0.1,0.1l0.2,0.2l0.2,0.2l0.2,0.2l0.2,0.1l0.1,0.1l0.1,0.1l0,0.1l0,0l0,0.1l-0.1,0.1l-0.1,0.1l-0.2,0.1l-0.1,0.1
		L34.6,21l-0.3,0.3L34,21.6l-0.3,0.3l-0.3,0.3l-0.3,0.3l-0.3,0.3L32.6,23l-0.4,0.5l-0.1-0.1L32,23.3l-0.1-0.1l-0.1,0l0,0l-0.1,0.1
		l-0.1,0.1l0,0.2l0,0.2l0,0.2l0,0.1l0,0l0,0.1l0,0.1l0,0.1l-0.1,0.1l-0.1,0.2l-0.1,0.2l-0.4,0.7l-0.3,0.6l-0.3,0.6L30,27.3l-0.1,0.5
		l0,0.2l0,0.3l0.1,0.5l0.1,0.4l0.2,0.4l0.3,0.4l0.4,0.3l0.1,0.1l0.2,0.1l0.2,0.1l0.2,0.1l0.2,0.1l0.4,0.2l0.3,0.3l0.2,0.3L33,32
		l0.1,0.3l0,0.4l0,0.1l0,0.3L33,33.5l-0.1,0.4l-0.2,0.4l-0.2,0.4l-0.4,0.5l-0.4,0.6l-0.5,0.6L30.6,37L30,37.6l-0.7,0.6l-0.2,0.2
		L29,38.6l-0.1,0.1l-0.1,0.1l0,0l0,0l0.1,0l0.1-0.1l0.2-0.1l0.2-0.2l0.3-0.2l0.4-0.4l0.7-0.7l0.6-0.6l0.5-0.6l0.4-0.6l0.4-0.6
		l0.3-0.5l0.2-0.5l0.1-0.5l0.1-0.4l0-0.4l0-0.2l-0.1-0.4l-0.2-0.4l-0.3-0.3l-0.4-0.3l-0.4-0.2l-0.4-0.2L31,30.1l-0.4-0.3l-0.3-0.4
		L30.2,29L30,28.6l0-0.2l0.4,0.3l0.2,0.1l0.1,0.1l0.1,0.1l0,0l0,0l0-0.1l0.1-0.1l0.1-0.2l0.1-0.2l0.3-0.6l0,0.3l0.1,0.4l0.2,0.4
		l0.3,0.4l0.3,0.4l0.4,0.3l0.1,0l0.2,0.1l0.2,0.1l0.2,0.1l0.2,0.1l0.2,0.1l0.2,0.1l0.2,0.1l0.2,0.2l0.1,0.1l0.2,0.3l0.1,0.3l0.1,0.4
		l0,0.4L35,32.8l-0.1,0.5l-0.2,0.5l-0.3,0.5l-0.3,0.5l-0.4,0.6L33.1,36l-0.6,0.6l-0.7,0.7l0,0l-0.2,0.2l-0.2,0.2L31.3,38l-0.1,0.1
		l-0.1,0.1l0,0l0,0l0,0l0.1,0l0.1-0.1l0.2-0.1l0.2-0.2l0.1-0.1l0.5-0.5l0.5-0.5l0.4-0.5l0.4-0.5l0.4-0.5l0.3-0.4l0.2-0.2l0.3-0.6
		l0.2-0.5l0.2-0.5l0.1-0.5l0-0.4l-0.1-0.4L35,31.3l-0.3-0.3l-0.1-0.1l-0.3-0.2L34,30.4l-0.4-0.2L33.3,30l-0.5-0.3l-0.4-0.3L32.1,29
		l-0.2-0.4l-0.1-0.4l0-0.1l0-0.2l0-0.2l0-0.1l0-0.1l0.1-0.2l0.1-0.2l0.1-0.2l0.2-0.3l0.1-0.2l0.2-0.3l0.1-0.2l0.1-0.2l0-0.1l0,0
		l0-0.1l0.1,0l0,0l0.1,0.1l0.1,0.2l0.1,0.1l0.1,0.1l0.1,0l0,0l0,0l0,0l0,0.1l0,0.2l0,0.1l0,0.4l0,0.4l0,0.4l0.1,0.3l0.1,0.3l0.2,0.3
		l0.2,0.3l0.3,0.3l0.3,0.3l0.4,0.3l0.5,0.3l0.2,0.1l0.4,0.2l0.3,0.2l0.2,0.3l0.2,0.3l0,0l0.1,0.1l0,0.1l0,0.2l0,0.2l0,0.1l0,0.2
		l0,0.2l0,0.2l-0.1,0.2l-0.1,0.2l-0.2,0.6L36.1,34l-0.4,0.6l-0.5,0.6l-0.5,0.7L34.6,36l-0.1,0.2l-0.1,0.1l0,0.1l0,0l0,0l0,0l0.1-0.1
		l0.1-0.1l0.2-0.2l0.2-0.2l0.2-0.2l0.2-0.3l0.2-0.3l0.2-0.3l0.2-0.2l0-0.1l0.2-0.3l0.2-0.4l0.2-0.4l0.1-0.3l0.1-0.3l0.1-0.2l0-0.3
		l0-0.3l0-0.3l-0.1-0.3l0-0.1l-0.2-0.3l-0.2-0.3l-0.3-0.2l0,0L36,30.1L35.8,30l-0.2-0.1l-0.2-0.1l-0.1-0.1l-0.5-0.3L34.2,29
		l-0.3-0.3l-0.3-0.4l-0.2-0.4l-0.1-0.4l0-0.4l0-0.1l0-0.2l0-0.2l0-0.2l0-0.2l0-0.1l0-0.1l0,0l0.1-0.1l0.1-0.1l0.2-0.1l-0.1-0.1l0,0
		l-0.1-0.1l0-0.1l0.1-0.1l0.1-0.1h-1.8l0,0l-0.1,0l0,0l0,0l0,0l-0.1,0l-0.1,0.1l-0.1,0.1l-0.1,0.2l-0.1,0.2l-0.2,0.3L31,26.5
		l-0.1,0.2L30.7,27l-0.2,0.3l-0.2,0.2l-0.1,0.2l-0.1,0.1l0,0.1L30,28l0-0.2l0-0.2l0.1-0.4l0.2-0.5l0.2-0.5l0.3-0.5l0.3-0.5l0.3-0.5
		l0.1-0.1l0.1-0.1l0.1,0l0.1,0l0.1,0l0,0.3l0,0l0,0.2L32,25l0,0.1l0,0.1h1.8l0,0l0-0.1l0,0l0-0.1l0.1-0.2l0.1-0.2l0.2-0.2l0.2-0.3
		l0.2-0.3l0.2-0.3l0.2-0.3l0.2-0.3l0,0l0.1-0.2l0.2-0.2l0.2-0.2l0.2-0.2l0.2-0.2l0.2-0.2l0.1-0.1l0.1-0.1l0,0l0,0l0.1,0.1L37,22
		l0.1,0.1l0.5,0.7l0.5,0.9l0.4,0.9l0.4,1l0.3,1l0.2,1.1l0,0.1l0,0.4l0,0.5l0,0.5h0.4l0-0.3l0-0.3l0-0.3l0-0.2l0-0.2l0-0.2l0-0.2
		l-0.1-0.6l-0.3-1l-0.3-1l-0.4-1l-0.5-0.9l-0.6-0.9l-0.3-0.4h-0.6l0,0l0,0l-0.1,0.1l-0.1,0.1L36.3,22l-0.1,0.1l-0.3,0.3l-0.4,0.4
		l-0.3,0.4l-0.3,0.4L34.5,24l0,0l-0.1,0.2l-0.1,0.1l-0.1,0.1l0,0l0,0l0,0L34,24.3l-0.1-0.1l-0.2-0.3l0.3-0.6l0,0l0.1-0.2l0.1-0.2
		l0.1-0.1l0.1-0.1l0.1-0.2l0.2-0.2l0.2-0.2l0,0l0.2-0.2l0.2-0.2l0.2-0.2l0.2-0.1l0.1-0.1l0.2-0.2l0.3,0.3l0,0.1l0.1,0.1l0.1,0.1l0,0
		h0.6L37,21.2l-0.3-0.3H36l-0.7,0.7l-0.1,0.1L35,21.9l-0.2,0.2l-0.1,0.1l-0.1,0.1l0,0h0l-0.1,0l-0.1-0.1l-0.1-0.1l0,0L34,22L34,22
		l0,0l0,0l-0.1,0.1l-0.1,0.2l-0.1,0.2l-0.1,0.2L33.3,23l-0.2,0.3L33,23.5l-0.1,0.2l-0.1,0.2l0,0L32.6,24l0,0l0,0l-0.1,0l-0.1,0
		l-0.2,0l0-0.2l0-0.1l0-0.1l0-0.1l0.1-0.1l0.1-0.1l0.2-0.2l0.1-0.1l0.2-0.2l0.3-0.3l0.3-0.3l0.3-0.3l0.3-0.3l0.3-0.3l0.3-0.3
		l0.2-0.2l0.2-0.2l0.4-0.3l0.3,0.3l0.3,0.3h0.6l-0.4-0.4L35.8,20L35,19.4l-0.9-0.6l-0.9-0.5l-1-0.5l-1-0.4l-1-0.3l-1.1-0.2l-0.4,0
		l-0.5,0l-0.5,0l-0.5,0l-0.5,0l-0.5,0l-0.5,0l-0.4,0L24.9,17l-1,0.3l-1,0.3l-1,0.4L21,18.5l-0.9,0.6l-0.8,0.6l-0.8,0.7l-0.4,0.4
		l-0.7,0.8l-0.6,0.9l-0.5,0.9l-0.5,1l-0.4,1l-0.3,1l-0.2,1.1l0,0l0,0.2l0,0.2l0,0.2l0,0.2l0,0.3l0,0.3l0,0.4L14.8,29.5L14.8,29.5z"
		/>
	<path class="st8" d="M74.2,48.4l0,0.1l0,0.1v0.5h-0.1h0l0,0l0,0l0,0l0,0l0,0l0,0.1l0,0l0,0.1v0.2l-0.3,0.2l-0.1,0l-0.1,0.1l-0.1,0
		l0,0l0,0l0,0l0,0l0,0l0,0l0,0l0,0l0,0l0,0.1l0,0.1l0,0.2l-0.2,0.1l-0.1,0l-0.1,0l0,0l0,0l0,0l0,0l0,0l0,0l0,0l0,0.1l0,0.1l0.1,0.1
		h2h2l0-0.1l0,0l0-0.1l0-0.1l0-0.1l0,0l0,0l0,0l0,0l0,0v0l0,0l-0.1,0l-0.1,0l-0.1,0l-0.1,0l-0.1,0l0,0l0,0l0,0l0,0l0-0.1l0-0.1v-0.2
		l0,0l0,0l0,0l0,0l0,0l0,0l-0.1,0l-0.1,0l-0.1-0.1L76,49.5l0-0.2l0,0l0,0h-0.3h-0.1h-0.1l0,0h-0.1h-0.1h-0.1v-0.4v-0.4H75v0.4v0.4
		h-0.1h-0.1h-0.1h-0.1h-0.1v-0.4v-0.4l0,0l0.1,0l0.1,0l0,0.4l0,0.4h0.1v-0.4v-0.4h0.1H75h0.1h0.1h0.1v0.4v0.4h0.1l0-0.4l0-0.4l0.1,0
		l0.1,0v0.4v0.4H76l0,0l0,0l0,0l0,0l0,0l0,0l0,0l0,0l0,0h-0.1v-0.5v0l0-0.1l0-0.1l0-0.1l0-0.1l0,0l0,0l0,0l0,0l0,0l-0.1,0l-0.1,0
		l-0.1-0.1l0,0l-0.1,0l0,0l0,0l0,0l0,0l0-0.1l0,0l0-0.1l0,0l-0.1,0l0,0l0,0l0,0l0,0l-0.1,0l0,0l-0.1,0l0,0.1l0,0l0,0l0,0l0,0l0,0
		l0,0l0,0.1v0l0,0l0,0l0,0l0,0l0,0l-0.1,0l-0.1,0l0,0l-0.1,0l0,0l0,0l0,0l0,0l0,0l0,0l0,0l0,0l0,0l0,0L74.2,48.4L74.2,48.4
		L74.2,48.4z"/>
</g>
<g>
	<path class="st12" d="M142.4,14.6h-3.6"/>
	<path class="st12" d="M138.8,26.8h3.6"/>
	<path class="st12" d="M3.8,51.5c2.3-1.3,3.7-3.9,3.6-6.5"/>
	<path class="st12" d="M144.2,30.8v27"/>
	<path class="st12" d="M142.4,26.8c1,0,1.8-0.8,1.8-1.8"/>
	<path class="st12" d="M138.8,16.7h3.6"/>
	<path class="st12" d="M137,65H7.4"/>
	<path class="st12" d="M7.4,0.2c-4,0-7.2,3.2-7.2,7.2c0,0,0,0,0,0"/>
	<path class="st12" d="M3.8,51.5c-2.2,1.3-3.6,3.7-3.6,6.2"/>
	<path class="st12" d="M142.4,14.6c1,0,1.8-0.8,1.8-1.8"/>
	<path class="st12" d="M123.9,0.2H7.4"/>
	<path class="st12" d="M0.2,57.8c0,4,3.2,7.2,7.2,7.2"/>
	<path class="st12" d="M144.2,30.8c0-1-0.8-1.8-1.8-1.8"/>
	<path class="st12" d="M138.8,14.6c-0.6,0-1.1,0.5-1.1,1.1c0,0.6,0.5,1.1,1.1,1.1"/>
	<path class="st12" d="M142.4,29h-3.6"/>
	<path class="st12" d="M137,65c4,0,7.2-3.2,7.2-7.2l0,0"/>
	<path class="st12" d="M144.2,18.5V25"/>
	<path class="st12" d="M144.2,7.4v5.4"/>
	<path class="st12" d="M144.2,18.5c0-1-0.8-1.8-1.8-1.8"/>
	<path class="st12" d="M7.3,20.1V45"/>
	<path class="st12" d="M138.8,26.8c-0.6,0-1.1,0.5-1.1,1.1s0.5,1.1,1.1,1.1"/>
	<path class="st12" d="M7.3,20.1c0.1-2.7-1.3-5.2-3.6-6.5"/>
	<path class="st12" d="M144.2,7.4c0-4-3.2-7.2-7.2-7.2l0,0"/>
	<path class="st12" d="M0.2,7.4c0,2.6,1.4,4.9,3.6,6.2"/>
	<path class="st12" d="M137,0.2h-13"/>
</g>
</svg>
