%TF.GenerationSoftware,KiCad,Pcbnew,7.0.11*%
%TF.CreationDate,2024-03-28T16:15:39-04:00*%
%TF.ProjectId,weather-featherwing,77656174-6865-4722-9d66-656174686572,03*%
%TF.SameCoordinates,Original*%
%TF.FileFunction,Copper,L2,Bot*%
%TF.FilePolarity,Positive*%
%FSLAX46Y46*%
G04 Gerber Fmt 4.6, Leading zero omitted, Abs format (unit mm)*
G04 Created by KiCad (PCBNEW 7.0.11) date 2024-03-28 16:15:39*
%MOMM*%
%LPD*%
G01*
G04 APERTURE LIST*
G04 Aperture macros list*
%AMFreePoly0*
4,1,6,1.000000,0.000000,0.500000,-0.750000,-0.500000,-0.750000,-0.500000,0.750000,0.500000,0.750000,1.000000,0.000000,1.000000,0.000000,$1*%
%AMFreePoly1*
4,1,6,0.500000,-0.750000,-0.650000,-0.750000,-0.150000,0.000000,-0.650000,0.750000,0.500000,0.750000,0.500000,-0.750000,0.500000,-0.750000,$1*%
G04 Aperture macros list end*
%TA.AperFunction,ComponentPad*%
%ADD10C,3.140000*%
%TD*%
%TA.AperFunction,ComponentPad*%
%ADD11C,1.700000*%
%TD*%
%TA.AperFunction,SMDPad,CuDef*%
%ADD12FreePoly0,180.000000*%
%TD*%
%TA.AperFunction,SMDPad,CuDef*%
%ADD13FreePoly1,180.000000*%
%TD*%
%TA.AperFunction,ViaPad*%
%ADD14C,0.750000*%
%TD*%
%TA.AperFunction,Conductor*%
%ADD15C,0.200000*%
%TD*%
%TA.AperFunction,Conductor*%
%ADD16C,0.250000*%
%TD*%
G04 APERTURE END LIST*
D10*
%TO.P,H1,*%
%TO.N,*%
X116840000Y-99060000D03*
%TD*%
%TO.P,H2,*%
%TO.N,*%
X116840000Y-116840000D03*
%TD*%
D11*
%TO.P,J2,17,Pin_17*%
%TO.N,/SDA*%
X158750000Y-97790000D03*
%TO.P,J2,18,Pin_18*%
%TO.N,/SCL*%
X156210000Y-97790000D03*
%TO.P,J2,19,Pin_19*%
%TO.N,/CS_SD*%
X153670000Y-97790000D03*
%TO.P,J2,20,Pin_20*%
%TO.N,/CD*%
X151130000Y-97790000D03*
%TO.P,J2,21,Pin_21*%
%TO.N,/EEPROM_SCIO*%
X148590000Y-97790000D03*
%TO.P,J2,22,Pin_22*%
%TO.N,/NP_DIN*%
X146050000Y-97790000D03*
%TO.P,J2,23,3*%
%TO.N,/D11*%
X143510000Y-97790000D03*
%TO.P,J2,24,Pin_24*%
%TO.N,/D12*%
X140970000Y-97790000D03*
%TO.P,J2,25,Pin_25*%
%TO.N,/LPS_INT*%
X138430000Y-97790000D03*
%TO.P,J2,26,Pin_26*%
%TO.N,/USB*%
X135890000Y-97790000D03*
%TO.P,J2,27,Pin_27*%
%TO.N,/EN*%
X133350000Y-97790000D03*
%TO.P,J2,28,Pin_28*%
%TO.N,/BAT*%
X130810000Y-97790000D03*
%TD*%
D12*
%TO.P,JP1,1,A*%
%TO.N,GND*%
X122518000Y-114300000D03*
D13*
%TO.P,JP1,2,B*%
%TO.N,Net-(JP1-B)*%
X121068000Y-114300000D03*
%TD*%
D11*
%TO.P,J1,1,Pin_1*%
%TO.N,/RST*%
X120650000Y-118110000D03*
%TO.P,J1,2,Pin_2*%
%TO.N,+3V3*%
X123190000Y-118110000D03*
%TO.P,J1,3,Pin_3*%
X125730000Y-118110000D03*
%TO.P,J1,4,Pin_4*%
%TO.N,GND*%
X128270000Y-118110000D03*
%TO.P,J1,5,Pin_5*%
%TO.N,/A0*%
X130810000Y-118110000D03*
%TO.P,J1,6,Pin_6*%
%TO.N,/A1*%
X133350000Y-118110000D03*
%TO.P,J1,7,Pin_7*%
%TO.N,/A2*%
X135890000Y-118110000D03*
%TO.P,J1,8,Pin_8*%
%TO.N,/A3*%
X138430000Y-118110000D03*
%TO.P,J1,9,Pin_9*%
%TO.N,/A4*%
X140970000Y-118110000D03*
%TO.P,J1,10,Pin_10*%
%TO.N,/A5*%
X143510000Y-118110000D03*
%TO.P,J1,11,Pin_11*%
%TO.N,/SCK*%
X146050000Y-118110000D03*
%TO.P,J1,12,Pin_12*%
%TO.N,/MOSI*%
X148590000Y-118110000D03*
%TO.P,J1,13,Pin_13*%
%TO.N,/MISO*%
X151130000Y-118110000D03*
%TO.P,J1,14,Pin_14*%
%TO.N,/RX*%
X153670000Y-118110000D03*
%TO.P,J1,15,Pin_15*%
%TO.N,/TX*%
X156210000Y-118110000D03*
%TO.P,J1,16,Pin_16*%
%TO.N,/DBG*%
X158750000Y-118110000D03*
%TD*%
D14*
%TO.N,+3V3*%
X152730200Y-107670600D03*
X149987000Y-103505000D03*
X152730200Y-106248200D03*
X149987000Y-99655500D03*
X118428900Y-109650997D03*
X116560600Y-109651800D03*
%TO.N,GND*%
X149860000Y-110871000D03*
X149860000Y-106045000D03*
X132080000Y-109220000D03*
X152400000Y-114300000D03*
X115850000Y-112200000D03*
X134620000Y-111760000D03*
X157480000Y-104140000D03*
X121092613Y-110422100D03*
X124460000Y-104140000D03*
X117856000Y-101346000D03*
X132080000Y-101600000D03*
X137160000Y-106680000D03*
X160020000Y-104140000D03*
X123063000Y-99441000D03*
X134620000Y-114300000D03*
X124409200Y-107340400D03*
X139700000Y-114300000D03*
X151968200Y-110312200D03*
X132080000Y-114300000D03*
X157607000Y-111760000D03*
X139700000Y-111760000D03*
X138963400Y-101015800D03*
X154940000Y-114300000D03*
X159258000Y-101473000D03*
X134620000Y-109220000D03*
X129540000Y-114300000D03*
X137160000Y-104140000D03*
X160020000Y-106680000D03*
X137160000Y-114300000D03*
X157480000Y-106680000D03*
X157607000Y-109220000D03*
X145796000Y-115443000D03*
X134620000Y-106680000D03*
X139700000Y-109220000D03*
X152400000Y-116840000D03*
X137160000Y-109220000D03*
X115850000Y-109000000D03*
X152400000Y-99060000D03*
X160020000Y-114300000D03*
X160020000Y-111760000D03*
X123698000Y-115417600D03*
X157607000Y-100203000D03*
X124460000Y-99441000D03*
X160020000Y-109220000D03*
X127000000Y-104140000D03*
X157480000Y-116840000D03*
X122555000Y-116586000D03*
X146685000Y-106045000D03*
X129540000Y-111760000D03*
X119380000Y-104140000D03*
X127000000Y-114300000D03*
X142240000Y-116840000D03*
X121920000Y-104140000D03*
X148082000Y-115697000D03*
X157480000Y-101600000D03*
X132080000Y-111760000D03*
X139700000Y-104140000D03*
X137160000Y-111760000D03*
X119735600Y-108229400D03*
X125984000Y-99441000D03*
X139700000Y-106680000D03*
X154940000Y-116840000D03*
X144526000Y-114808000D03*
%TO.N,/SCK*%
X146558000Y-109169200D03*
X149936200Y-109220000D03*
%TO.N,/MOSI*%
X146558000Y-108204000D03*
X149990397Y-108271545D03*
X150749000Y-110236000D03*
%TO.N,/MISO*%
X146304000Y-116586000D03*
%TO.N,/CS_SD*%
X153670000Y-103251000D03*
%TO.N,/DAT1*%
X151053800Y-113080800D03*
X146329400Y-113080800D03*
%TO.N,/CD*%
X145161000Y-110109000D03*
X145161000Y-107529000D03*
X146735800Y-103504500D03*
%TO.N,/SDA*%
X120705959Y-112954442D03*
X144907000Y-101854000D03*
X124968000Y-113792000D03*
X140741400Y-102539800D03*
%TO.N,/SCL*%
X117125056Y-105505944D03*
X145973800Y-100330000D03*
X119165500Y-107315000D03*
X138938000Y-102489000D03*
X119721614Y-112813500D03*
X124968000Y-112776000D03*
%TO.N,Net-(JP1-B)*%
X121579000Y-115824000D03*
%TO.N,/EEPROM_SCIO*%
X136144000Y-101473000D03*
%TD*%
D15*
%TO.N,+3V3*%
X152730200Y-106248200D02*
X152730200Y-107670600D01*
X149987000Y-99655500D02*
X149987000Y-103505000D01*
X118428900Y-109650997D02*
X118428097Y-109651800D01*
X118428097Y-109651800D02*
X116560600Y-109651800D01*
%TO.N,/SCK*%
X146583400Y-109194600D02*
X146558000Y-109169200D01*
X149910800Y-109194600D02*
X146583400Y-109194600D01*
X149936200Y-109220000D02*
X149910800Y-109194600D01*
%TO.N,/MOSI*%
X150749000Y-109030148D02*
X150749000Y-110236000D01*
X149922852Y-108204000D02*
X146558000Y-108204000D01*
X149990397Y-108271545D02*
X149922852Y-108204000D01*
X149990397Y-108271545D02*
X150749000Y-109030148D01*
%TO.N,/MISO*%
X146304000Y-116586000D02*
X149606000Y-116586000D01*
X149606000Y-116586000D02*
X151130000Y-118110000D01*
%TO.N,/CS_SD*%
X153670000Y-97790000D02*
X153670000Y-103251000D01*
D16*
%TO.N,/DAT1*%
X151053800Y-113080800D02*
X146329400Y-113080800D01*
D15*
%TO.N,/CD*%
X145161000Y-107529000D02*
X145161000Y-110109000D01*
X146735800Y-103504500D02*
X146735800Y-101701600D01*
X146735800Y-101701600D02*
X150647400Y-97790000D01*
X150647400Y-97790000D02*
X151130000Y-97790000D01*
%TO.N,/SDA*%
X124129942Y-112953942D02*
X120706459Y-112953942D01*
X124968000Y-113792000D02*
X124129942Y-112953942D01*
X140741400Y-102539800D02*
X141427200Y-101854000D01*
X120706459Y-112953942D02*
X120705959Y-112954442D01*
X141427200Y-101854000D02*
X144907000Y-101854000D01*
%TO.N,/SCL*%
X141097000Y-100330000D02*
X145973800Y-100330000D01*
X124450644Y-112258644D02*
X120276470Y-112258644D01*
X119165500Y-107315000D02*
X117356444Y-105505944D01*
X120276470Y-112258644D02*
X119721614Y-112813500D01*
X138938000Y-102489000D02*
X141097000Y-100330000D01*
X124968000Y-112776000D02*
X124450644Y-112258644D01*
X117356444Y-105505944D02*
X117125056Y-105505944D01*
%TO.N,Net-(JP1-B)*%
X121068000Y-114524264D02*
X121068000Y-114300000D01*
X121579000Y-115824000D02*
X121579000Y-115035264D01*
X121579000Y-115035264D02*
X121068000Y-114524264D01*
%TO.N,/EEPROM_SCIO*%
X147320000Y-99060000D02*
X138557000Y-99060000D01*
X148590000Y-97790000D02*
X147320000Y-99060000D01*
X138557000Y-99060000D02*
X136144000Y-101473000D01*
%TD*%
%TA.AperFunction,Conductor*%
%TO.N,/CD*%
G36*
X150355638Y-97469235D02*
G01*
X150992756Y-97732327D01*
X151123466Y-97786303D01*
X151129805Y-97792628D01*
X151130700Y-97797127D01*
X151130010Y-98627193D01*
X151126576Y-98635463D01*
X151118300Y-98638883D01*
X151117246Y-98638835D01*
X150783974Y-98608404D01*
X150782565Y-98608188D01*
X150618599Y-98572723D01*
X150514228Y-98550148D01*
X150514222Y-98550147D01*
X150514221Y-98550147D01*
X150286621Y-98520605D01*
X150064181Y-98574893D01*
X150064175Y-98574896D01*
X149818758Y-98761994D01*
X149810102Y-98764285D01*
X149803392Y-98760963D01*
X149677207Y-98634778D01*
X149673780Y-98626505D01*
X149676936Y-98618511D01*
X149897249Y-98383043D01*
X150038203Y-98191256D01*
X150132684Y-98005129D01*
X150213983Y-97797127D01*
X150221302Y-97778402D01*
X150221311Y-97778378D01*
X150340346Y-97475791D01*
X150346564Y-97469346D01*
X150355517Y-97469186D01*
X150355638Y-97469235D01*
G37*
%TD.AperFunction*%
%TD*%
%TA.AperFunction,Conductor*%
%TO.N,+3V3*%
G36*
X153065100Y-106386886D02*
G01*
X153071416Y-106393233D01*
X153071394Y-106402188D01*
X153071065Y-106402908D01*
X153003231Y-106538862D01*
X153002537Y-106540067D01*
X152935794Y-106641553D01*
X152880875Y-106730401D01*
X152880875Y-106730402D01*
X152843806Y-106838462D01*
X152843805Y-106838463D01*
X152831112Y-106987493D01*
X152826995Y-106995445D01*
X152819454Y-106998200D01*
X152640946Y-106998200D01*
X152632673Y-106994773D01*
X152629288Y-106987493D01*
X152616593Y-106838463D01*
X152616593Y-106838462D01*
X152579523Y-106730402D01*
X152579523Y-106730401D01*
X152524604Y-106641552D01*
X152457858Y-106540064D01*
X152457164Y-106538858D01*
X152389332Y-106402905D01*
X152388706Y-106393975D01*
X152394579Y-106387215D01*
X152395266Y-106386900D01*
X152725697Y-106249077D01*
X152734649Y-106249056D01*
X153065100Y-106386886D01*
G37*
%TD.AperFunction*%
%TD*%
%TA.AperFunction,Conductor*%
%TO.N,/SCK*%
G36*
X146711911Y-108828190D02*
G01*
X146712791Y-108828600D01*
X146848662Y-108899102D01*
X146850173Y-108900040D01*
X146896430Y-108933884D01*
X146949844Y-108972967D01*
X146949883Y-108972995D01*
X147036483Y-109035278D01*
X147142942Y-109078450D01*
X147292424Y-109093537D01*
X147300310Y-109097777D01*
X147302948Y-109105178D01*
X147302948Y-109283705D01*
X147299521Y-109291978D01*
X147292081Y-109295375D01*
X147145786Y-109305818D01*
X147038079Y-109337100D01*
X146948810Y-109384877D01*
X146847413Y-109445313D01*
X146846501Y-109445804D01*
X146712628Y-109510296D01*
X146703687Y-109510799D01*
X146697009Y-109504833D01*
X146696762Y-109504283D01*
X146558877Y-109173702D01*
X146558856Y-109164750D01*
X146696610Y-108834482D01*
X146702956Y-108828168D01*
X146711911Y-108828190D01*
G37*
%TD.AperFunction*%
%TD*%
%TA.AperFunction,Conductor*%
%TO.N,/SCL*%
G36*
X124444956Y-112159688D02*
G01*
X124609505Y-112173269D01*
X124612232Y-112173827D01*
X124730816Y-112213296D01*
X124733151Y-112214372D01*
X124831658Y-112273659D01*
X124831926Y-112273826D01*
X124891270Y-112312141D01*
X124946246Y-112347637D01*
X124946251Y-112347639D01*
X124946256Y-112347643D01*
X125101731Y-112424700D01*
X125107622Y-112431444D01*
X125107355Y-112439634D01*
X124970852Y-112771496D01*
X124964536Y-112777843D01*
X124964498Y-112777859D01*
X124634530Y-112914142D01*
X124625576Y-112914133D01*
X124619250Y-112907794D01*
X124618620Y-112905764D01*
X124587075Y-112757548D01*
X124586824Y-112754770D01*
X124591239Y-112603921D01*
X124591659Y-112585627D01*
X124594148Y-112477317D01*
X124554754Y-112390723D01*
X124441030Y-112360932D01*
X124433895Y-112355521D01*
X124432295Y-112349614D01*
X124432295Y-112171349D01*
X124435722Y-112163076D01*
X124443995Y-112159649D01*
X124444956Y-112159688D01*
G37*
%TD.AperFunction*%
%TD*%
%TA.AperFunction,Conductor*%
%TO.N,/CS_SD*%
G36*
X153674484Y-97790863D02*
G01*
X154443349Y-98110316D01*
X154449674Y-98116655D01*
X154449665Y-98125610D01*
X154449160Y-98126671D01*
X154271681Y-98456033D01*
X154270477Y-98457842D01*
X154087156Y-98684454D01*
X154087077Y-98684550D01*
X153926578Y-98878662D01*
X153926574Y-98878669D01*
X153813054Y-99120225D01*
X153771205Y-99479653D01*
X153766845Y-99487474D01*
X153759584Y-99490000D01*
X153580416Y-99490000D01*
X153572143Y-99486573D01*
X153568795Y-99479653D01*
X153526944Y-99120225D01*
X153526945Y-99120225D01*
X153413423Y-98878669D01*
X153413422Y-98878667D01*
X153413421Y-98878666D01*
X153413421Y-98878665D01*
X153252896Y-98684522D01*
X153069521Y-98457842D01*
X153068317Y-98456033D01*
X152890838Y-98126669D01*
X152889931Y-98117762D01*
X152895589Y-98110821D01*
X152896637Y-98110322D01*
X153665511Y-97790864D01*
X153674466Y-97790856D01*
X153674484Y-97790863D01*
G37*
%TD.AperFunction*%
%TD*%
%TA.AperFunction,Conductor*%
%TO.N,/CS_SD*%
G36*
X153767527Y-102504427D02*
G01*
X153770912Y-102511707D01*
X153783605Y-102660735D01*
X153783606Y-102660736D01*
X153820675Y-102768795D01*
X153820675Y-102768796D01*
X153875594Y-102857644D01*
X153942337Y-102959130D01*
X153943031Y-102960335D01*
X154010865Y-103096291D01*
X154011492Y-103105224D01*
X154005620Y-103111984D01*
X154004900Y-103112313D01*
X153674504Y-103250121D01*
X153665549Y-103250143D01*
X153665496Y-103250121D01*
X153466853Y-103167267D01*
X153335097Y-103112312D01*
X153328782Y-103105966D01*
X153328804Y-103097011D01*
X153329122Y-103096315D01*
X153396969Y-102960330D01*
X153397652Y-102959142D01*
X153464410Y-102857636D01*
X153519323Y-102768796D01*
X153556393Y-102660737D01*
X153569088Y-102511707D01*
X153573205Y-102503755D01*
X153580746Y-102501000D01*
X153759254Y-102501000D01*
X153767527Y-102504427D01*
G37*
%TD.AperFunction*%
%TD*%
%TA.AperFunction,Conductor*%
%TO.N,/EEPROM_SCIO*%
G36*
X136611217Y-100879558D02*
G01*
X136737441Y-101005782D01*
X136740868Y-101014055D01*
X136738113Y-101021596D01*
X136641710Y-101135950D01*
X136641708Y-101135953D01*
X136591511Y-101238574D01*
X136567521Y-101340223D01*
X136542952Y-101459193D01*
X136542590Y-101460536D01*
X136494423Y-101604632D01*
X136488551Y-101611392D01*
X136479618Y-101612019D01*
X136478876Y-101611743D01*
X136147805Y-101475563D01*
X136141458Y-101469247D01*
X136005256Y-101138122D01*
X136005278Y-101129167D01*
X136011625Y-101122851D01*
X136012338Y-101122585D01*
X136156471Y-101074404D01*
X136157795Y-101074047D01*
X136276776Y-101049476D01*
X136378424Y-101025486D01*
X136481046Y-100975290D01*
X136595403Y-100878885D01*
X136603937Y-100876173D01*
X136611217Y-100879558D01*
G37*
%TD.AperFunction*%
%TD*%
%TA.AperFunction,Conductor*%
%TO.N,+3V3*%
G36*
X152827727Y-106924027D02*
G01*
X152831112Y-106931307D01*
X152843805Y-107080335D01*
X152843806Y-107080336D01*
X152880875Y-107188395D01*
X152880875Y-107188396D01*
X152935794Y-107277244D01*
X153002537Y-107378730D01*
X153003231Y-107379935D01*
X153071065Y-107515891D01*
X153071692Y-107524824D01*
X153065820Y-107531584D01*
X153065100Y-107531913D01*
X152734704Y-107669721D01*
X152725749Y-107669743D01*
X152725696Y-107669721D01*
X152527053Y-107586867D01*
X152395297Y-107531912D01*
X152388982Y-107525566D01*
X152389004Y-107516611D01*
X152389322Y-107515915D01*
X152457169Y-107379930D01*
X152457852Y-107378742D01*
X152524610Y-107277236D01*
X152579523Y-107188396D01*
X152616593Y-107080337D01*
X152629288Y-106931307D01*
X152633405Y-106923355D01*
X152640946Y-106920600D01*
X152819454Y-106920600D01*
X152827727Y-106924027D01*
G37*
%TD.AperFunction*%
%TD*%
%TA.AperFunction,Conductor*%
%TO.N,+3V3*%
G36*
X118289884Y-109315377D02*
G01*
X118290215Y-109316102D01*
X118428021Y-109646493D01*
X118428043Y-109655448D01*
X118428021Y-109655501D01*
X118290211Y-109985902D01*
X118283864Y-109992218D01*
X118274909Y-109992196D01*
X118274194Y-109991870D01*
X118262220Y-109985902D01*
X118138298Y-109924139D01*
X118137115Y-109923459D01*
X118035620Y-109856908D01*
X117946761Y-109802217D01*
X117946758Y-109802215D01*
X117838719Y-109765330D01*
X117838712Y-109765329D01*
X117689772Y-109752707D01*
X117681818Y-109748594D01*
X117679060Y-109741049D01*
X117679060Y-109562540D01*
X117682487Y-109554267D01*
X117689760Y-109550883D01*
X117838803Y-109538113D01*
X117946813Y-109500849D01*
X118035584Y-109445702D01*
X118137038Y-109378746D01*
X118138221Y-109378063D01*
X118274190Y-109310138D01*
X118283121Y-109309508D01*
X118289884Y-109315377D01*
G37*
%TD.AperFunction*%
%TD*%
%TA.AperFunction,Conductor*%
%TO.N,/DAT1*%
G36*
X146483459Y-112739436D02*
G01*
X146484025Y-112739689D01*
X146619079Y-112804604D01*
X146619942Y-112805066D01*
X146722263Y-112865666D01*
X146812349Y-112913427D01*
X146906916Y-112940586D01*
X146920986Y-112944627D01*
X146920990Y-112944628D01*
X147068525Y-112955033D01*
X147076535Y-112959032D01*
X147079400Y-112966703D01*
X147079400Y-113194896D01*
X147075973Y-113203169D01*
X147068523Y-113206567D01*
X146920988Y-113216971D01*
X146920985Y-113216971D01*
X146812349Y-113248172D01*
X146812344Y-113248174D01*
X146722284Y-113295920D01*
X146722247Y-113295941D01*
X146619957Y-113356524D01*
X146619064Y-113357002D01*
X146484024Y-113421910D01*
X146475083Y-113422406D01*
X146468410Y-113416434D01*
X146468157Y-113415869D01*
X146418126Y-113295920D01*
X146330277Y-113085302D01*
X146330256Y-113076350D01*
X146468157Y-112745729D01*
X146474504Y-112739414D01*
X146483459Y-112739436D01*
G37*
%TD.AperFunction*%
%TD*%
%TA.AperFunction,Conductor*%
%TO.N,/SCL*%
G36*
X145834784Y-99994379D02*
G01*
X145835110Y-99995091D01*
X145889046Y-100124404D01*
X145972921Y-100325496D01*
X145972943Y-100334451D01*
X145972921Y-100334504D01*
X145835113Y-100664900D01*
X145828766Y-100671216D01*
X145819811Y-100671194D01*
X145819091Y-100670865D01*
X145683135Y-100603031D01*
X145681930Y-100602337D01*
X145580444Y-100535594D01*
X145491595Y-100480675D01*
X145420606Y-100456322D01*
X145383537Y-100443606D01*
X145383535Y-100443605D01*
X145234507Y-100430911D01*
X145226555Y-100426794D01*
X145223800Y-100419253D01*
X145223800Y-100240745D01*
X145227227Y-100232472D01*
X145234504Y-100229088D01*
X145383537Y-100216393D01*
X145491596Y-100179323D01*
X145580436Y-100124410D01*
X145681942Y-100057652D01*
X145683130Y-100056969D01*
X145819094Y-99989132D01*
X145828024Y-99988506D01*
X145834784Y-99994379D01*
G37*
%TD.AperFunction*%
%TD*%
%TA.AperFunction,Conductor*%
%TO.N,/CD*%
G36*
X145258527Y-109362427D02*
G01*
X145261912Y-109369707D01*
X145274605Y-109518735D01*
X145274606Y-109518736D01*
X145311675Y-109626795D01*
X145311675Y-109626796D01*
X145366594Y-109715644D01*
X145433337Y-109817130D01*
X145434031Y-109818335D01*
X145501865Y-109954291D01*
X145502492Y-109963224D01*
X145496620Y-109969984D01*
X145495900Y-109970313D01*
X145165504Y-110108121D01*
X145156549Y-110108143D01*
X145156496Y-110108121D01*
X144957853Y-110025267D01*
X144826097Y-109970312D01*
X144819782Y-109963966D01*
X144819804Y-109955011D01*
X144820122Y-109954315D01*
X144887969Y-109818330D01*
X144888652Y-109817142D01*
X144955410Y-109715636D01*
X145010323Y-109626796D01*
X145047393Y-109518737D01*
X145060088Y-109369707D01*
X145064205Y-109361755D01*
X145071746Y-109359000D01*
X145250254Y-109359000D01*
X145258527Y-109362427D01*
G37*
%TD.AperFunction*%
%TD*%
%TA.AperFunction,Conductor*%
%TO.N,/CD*%
G36*
X145495900Y-107667686D02*
G01*
X145502216Y-107674033D01*
X145502194Y-107682988D01*
X145501865Y-107683708D01*
X145434031Y-107819662D01*
X145433337Y-107820867D01*
X145366594Y-107922353D01*
X145311675Y-108011201D01*
X145311675Y-108011202D01*
X145274606Y-108119262D01*
X145274605Y-108119263D01*
X145261912Y-108268293D01*
X145257795Y-108276245D01*
X145250254Y-108279000D01*
X145071746Y-108279000D01*
X145063473Y-108275573D01*
X145060088Y-108268293D01*
X145047393Y-108119263D01*
X145047393Y-108119262D01*
X145010323Y-108011202D01*
X145010323Y-108011201D01*
X144955404Y-107922352D01*
X144888658Y-107820864D01*
X144887964Y-107819658D01*
X144820132Y-107683705D01*
X144819506Y-107674775D01*
X144825379Y-107668015D01*
X144826066Y-107667700D01*
X145156497Y-107529877D01*
X145165449Y-107529856D01*
X145495900Y-107667686D01*
G37*
%TD.AperFunction*%
%TD*%
%TA.AperFunction,Conductor*%
%TO.N,/SCL*%
G36*
X139405217Y-101895558D02*
G01*
X139531441Y-102021782D01*
X139534868Y-102030055D01*
X139532113Y-102037596D01*
X139435710Y-102151950D01*
X139435708Y-102151953D01*
X139385511Y-102254574D01*
X139361521Y-102356223D01*
X139336952Y-102475193D01*
X139336590Y-102476536D01*
X139288423Y-102620632D01*
X139282551Y-102627392D01*
X139273618Y-102628019D01*
X139272876Y-102627743D01*
X138941805Y-102491563D01*
X138935458Y-102485247D01*
X138799256Y-102154122D01*
X138799278Y-102145167D01*
X138805625Y-102138851D01*
X138806338Y-102138585D01*
X138950471Y-102090404D01*
X138951795Y-102090047D01*
X139070776Y-102065476D01*
X139172424Y-102041486D01*
X139275046Y-101991290D01*
X139389403Y-101894885D01*
X139397937Y-101892173D01*
X139405217Y-101895558D01*
G37*
%TD.AperFunction*%
%TD*%
%TA.AperFunction,Conductor*%
%TO.N,/MOSI*%
G36*
X149851392Y-107935894D02*
G01*
X149851529Y-107936210D01*
X149989518Y-108267041D01*
X149989540Y-108275996D01*
X149989518Y-108276049D01*
X149851915Y-108605953D01*
X149845568Y-108612269D01*
X149836613Y-108612247D01*
X149835463Y-108611692D01*
X149699452Y-108536625D01*
X149697469Y-108535246D01*
X149600941Y-108452079D01*
X149600744Y-108451905D01*
X149518262Y-108377550D01*
X149518257Y-108377547D01*
X149414593Y-108324329D01*
X149264064Y-108305293D01*
X149256286Y-108300855D01*
X149253832Y-108293685D01*
X149253832Y-108115160D01*
X149257259Y-108106887D01*
X149264978Y-108103473D01*
X149406975Y-108096771D01*
X149406980Y-108096770D01*
X149406983Y-108096770D01*
X149486587Y-108080691D01*
X149513979Y-108075159D01*
X149603718Y-108039269D01*
X149704962Y-107989261D01*
X149705172Y-107989162D01*
X149835913Y-107930052D01*
X149844861Y-107929767D01*
X149851392Y-107935894D01*
G37*
%TD.AperFunction*%
%TD*%
%TA.AperFunction,Conductor*%
%TO.N,/SCL*%
G36*
X117397934Y-105249608D02*
G01*
X117398426Y-105250134D01*
X117472470Y-105334559D01*
X117506481Y-105373339D01*
X117507559Y-105374778D01*
X117574953Y-105480809D01*
X117575431Y-105481632D01*
X117627114Y-105579747D01*
X117695244Y-105686940D01*
X117695246Y-105686942D01*
X117695248Y-105686945D01*
X117804878Y-105811944D01*
X117807757Y-105820423D01*
X117804355Y-105827931D01*
X117678051Y-105954235D01*
X117669778Y-105957662D01*
X117662514Y-105955134D01*
X117565530Y-105878333D01*
X117473802Y-105848968D01*
X117380097Y-105853173D01*
X117269459Y-105870536D01*
X117268483Y-105870647D01*
X117137570Y-105880045D01*
X117129072Y-105877219D01*
X117125062Y-105869213D01*
X117125032Y-105868397D01*
X117125003Y-105853174D01*
X117124358Y-105510113D01*
X117127768Y-105501836D01*
X117381389Y-105249563D01*
X117389670Y-105246159D01*
X117397934Y-105249608D01*
G37*
%TD.AperFunction*%
%TD*%
%TA.AperFunction,Conductor*%
%TO.N,/SDA*%
G36*
X120859948Y-112613244D02*
G01*
X120860656Y-112613567D01*
X120872632Y-112619538D01*
X120996576Y-112681337D01*
X120997776Y-112682027D01*
X121099271Y-112748653D01*
X121188120Y-112803426D01*
X121296173Y-112840382D01*
X121445151Y-112853032D01*
X121453103Y-112857147D01*
X121455860Y-112864690D01*
X121455860Y-113043199D01*
X121452433Y-113051472D01*
X121445157Y-113054856D01*
X121296119Y-113067597D01*
X121296115Y-113067598D01*
X121188093Y-113104786D01*
X121188090Y-113104787D01*
X121188089Y-113104788D01*
X121099292Y-113159847D01*
X121099275Y-113159857D01*
X121099264Y-113159865D01*
X120997830Y-113226717D01*
X120996619Y-113227416D01*
X120860668Y-113295302D01*
X120851735Y-113295932D01*
X120844973Y-113290061D01*
X120844651Y-113289357D01*
X120706836Y-112958944D01*
X120706815Y-112949992D01*
X120844647Y-112619536D01*
X120850993Y-112613222D01*
X120859948Y-112613244D01*
G37*
%TD.AperFunction*%
%TD*%
%TA.AperFunction,Conductor*%
%TO.N,/SCL*%
G36*
X118714096Y-106720886D02*
G01*
X118828450Y-106817288D01*
X118828453Y-106817290D01*
X118931074Y-106867486D01*
X119032723Y-106891476D01*
X119151698Y-106916046D01*
X119153031Y-106916405D01*
X119297133Y-106964576D01*
X119303892Y-106970447D01*
X119304519Y-106979380D01*
X119304243Y-106980122D01*
X119168063Y-107311194D01*
X119161747Y-107317541D01*
X119161694Y-107317563D01*
X118830622Y-107453743D01*
X118821667Y-107453721D01*
X118815351Y-107447374D01*
X118815082Y-107446652D01*
X118766905Y-107302531D01*
X118766545Y-107301193D01*
X118741976Y-107182223D01*
X118717986Y-107080574D01*
X118667790Y-106977953D01*
X118667788Y-106977950D01*
X118571386Y-106863596D01*
X118568673Y-106855062D01*
X118572057Y-106847783D01*
X118698283Y-106721557D01*
X118706555Y-106718131D01*
X118714096Y-106720886D01*
G37*
%TD.AperFunction*%
%TD*%
%TA.AperFunction,Conductor*%
%TO.N,+3V3*%
G36*
X116714588Y-109310604D02*
G01*
X116715293Y-109310926D01*
X116851258Y-109378764D01*
X116852464Y-109379458D01*
X116953952Y-109446204D01*
X116953962Y-109446210D01*
X117042802Y-109501123D01*
X117150862Y-109538193D01*
X117299895Y-109550888D01*
X117307845Y-109555004D01*
X117310600Y-109562545D01*
X117310600Y-109741053D01*
X117307173Y-109749326D01*
X117299893Y-109752711D01*
X117150863Y-109765405D01*
X117150862Y-109765406D01*
X117042802Y-109802475D01*
X117042801Y-109802475D01*
X116953953Y-109857394D01*
X116852467Y-109924137D01*
X116851262Y-109924831D01*
X116715308Y-109992665D01*
X116706375Y-109993292D01*
X116699615Y-109987420D01*
X116699286Y-109986700D01*
X116561477Y-109656302D01*
X116561456Y-109647350D01*
X116699288Y-109316895D01*
X116705633Y-109310582D01*
X116714588Y-109310604D01*
G37*
%TD.AperFunction*%
%TD*%
%TA.AperFunction,Conductor*%
%TO.N,/SDA*%
G36*
X141208617Y-101946358D02*
G01*
X141334841Y-102072582D01*
X141338268Y-102080855D01*
X141335513Y-102088396D01*
X141239110Y-102202750D01*
X141239108Y-102202753D01*
X141188911Y-102305374D01*
X141164921Y-102407023D01*
X141140352Y-102525993D01*
X141139990Y-102527336D01*
X141091823Y-102671432D01*
X141085951Y-102678192D01*
X141077018Y-102678819D01*
X141076276Y-102678543D01*
X140745205Y-102542363D01*
X140738858Y-102536047D01*
X140602656Y-102204922D01*
X140602678Y-102195967D01*
X140609025Y-102189651D01*
X140609738Y-102189385D01*
X140753871Y-102141204D01*
X140755195Y-102140847D01*
X140874176Y-102116276D01*
X140975824Y-102092286D01*
X141078446Y-102042090D01*
X141192803Y-101945685D01*
X141201337Y-101942973D01*
X141208617Y-101946358D01*
G37*
%TD.AperFunction*%
%TD*%
%TA.AperFunction,Conductor*%
%TO.N,/MOSI*%
G36*
X146711988Y-107862804D02*
G01*
X146712693Y-107863126D01*
X146848658Y-107930964D01*
X146849864Y-107931658D01*
X146951352Y-107998404D01*
X146951362Y-107998410D01*
X147040202Y-108053323D01*
X147148262Y-108090393D01*
X147297295Y-108103088D01*
X147305245Y-108107204D01*
X147308000Y-108114745D01*
X147308000Y-108293253D01*
X147304573Y-108301526D01*
X147297293Y-108304911D01*
X147148263Y-108317605D01*
X147148262Y-108317606D01*
X147040202Y-108354675D01*
X147040201Y-108354675D01*
X146951353Y-108409594D01*
X146849867Y-108476337D01*
X146848662Y-108477031D01*
X146712708Y-108544865D01*
X146703775Y-108545492D01*
X146697015Y-108539620D01*
X146696686Y-108538900D01*
X146558877Y-108208502D01*
X146558856Y-108199550D01*
X146696688Y-107869095D01*
X146703033Y-107862782D01*
X146711988Y-107862804D01*
G37*
%TD.AperFunction*%
%TD*%
%TA.AperFunction,Conductor*%
%TO.N,+3V3*%
G36*
X150321900Y-99794186D02*
G01*
X150328216Y-99800533D01*
X150328194Y-99809488D01*
X150327865Y-99810208D01*
X150260031Y-99946162D01*
X150259337Y-99947367D01*
X150192594Y-100048853D01*
X150137675Y-100137701D01*
X150137675Y-100137702D01*
X150100606Y-100245762D01*
X150100605Y-100245763D01*
X150087912Y-100394793D01*
X150083795Y-100402745D01*
X150076254Y-100405500D01*
X149897746Y-100405500D01*
X149889473Y-100402073D01*
X149886088Y-100394793D01*
X149873393Y-100245763D01*
X149873393Y-100245762D01*
X149836323Y-100137702D01*
X149836323Y-100137701D01*
X149781404Y-100048852D01*
X149714658Y-99947364D01*
X149713964Y-99946158D01*
X149646132Y-99810205D01*
X149645506Y-99801275D01*
X149651379Y-99794515D01*
X149652066Y-99794200D01*
X149982497Y-99656377D01*
X149991449Y-99656356D01*
X150321900Y-99794186D01*
G37*
%TD.AperFunction*%
%TD*%
%TA.AperFunction,Conductor*%
%TO.N,/CD*%
G36*
X146833327Y-102757927D02*
G01*
X146836712Y-102765207D01*
X146849405Y-102914235D01*
X146849406Y-102914236D01*
X146886475Y-103022295D01*
X146886475Y-103022296D01*
X146941394Y-103111144D01*
X147008137Y-103212630D01*
X147008831Y-103213835D01*
X147076665Y-103349791D01*
X147077292Y-103358724D01*
X147071420Y-103365484D01*
X147070700Y-103365813D01*
X146740304Y-103503621D01*
X146731349Y-103503643D01*
X146731296Y-103503621D01*
X146532653Y-103420767D01*
X146400897Y-103365812D01*
X146394582Y-103359466D01*
X146394604Y-103350511D01*
X146394922Y-103349815D01*
X146462769Y-103213830D01*
X146463452Y-103212642D01*
X146530210Y-103111136D01*
X146585123Y-103022296D01*
X146622193Y-102914237D01*
X146634888Y-102765207D01*
X146639005Y-102757255D01*
X146646546Y-102754500D01*
X146825054Y-102754500D01*
X146833327Y-102757927D01*
G37*
%TD.AperFunction*%
%TD*%
%TA.AperFunction,Conductor*%
%TO.N,/MOSI*%
G36*
X150334228Y-108132823D02*
G01*
X150340544Y-108139170D01*
X150340820Y-108139912D01*
X150388987Y-108284007D01*
X150389349Y-108285350D01*
X150413917Y-108404312D01*
X150437909Y-108505969D01*
X150488105Y-108608590D01*
X150488107Y-108608593D01*
X150584510Y-108722948D01*
X150587223Y-108731482D01*
X150583838Y-108738762D01*
X150457614Y-108864986D01*
X150449341Y-108868413D01*
X150441800Y-108865658D01*
X150327445Y-108769255D01*
X150327442Y-108769253D01*
X150236629Y-108724832D01*
X150234648Y-108723605D01*
X150226434Y-108717303D01*
X150226435Y-108717303D01*
X150226433Y-108717302D01*
X150226430Y-108717301D01*
X150226424Y-108717297D01*
X150086442Y-108659315D01*
X150086433Y-108659312D01*
X149936200Y-108639534D01*
X149921020Y-108641531D01*
X149915785Y-108641027D01*
X149858764Y-108621967D01*
X149852004Y-108616095D01*
X149851377Y-108607162D01*
X149851641Y-108606451D01*
X149987834Y-108275348D01*
X149994147Y-108269004D01*
X150325274Y-108132801D01*
X150334228Y-108132823D01*
G37*
%TD.AperFunction*%
%TD*%
%TA.AperFunction,Conductor*%
%TO.N,/SDA*%
G36*
X124516596Y-113197886D02*
G01*
X124630950Y-113294288D01*
X124630953Y-113294290D01*
X124733574Y-113344486D01*
X124835223Y-113368476D01*
X124954198Y-113393046D01*
X124955531Y-113393405D01*
X125099633Y-113441576D01*
X125106392Y-113447447D01*
X125107019Y-113456380D01*
X125106743Y-113457122D01*
X124970563Y-113788194D01*
X124964247Y-113794541D01*
X124964194Y-113794563D01*
X124633122Y-113930743D01*
X124624167Y-113930721D01*
X124617851Y-113924374D01*
X124617582Y-113923652D01*
X124569405Y-113779531D01*
X124569045Y-113778193D01*
X124544476Y-113659223D01*
X124520486Y-113557574D01*
X124470290Y-113454953D01*
X124470288Y-113454950D01*
X124373886Y-113340596D01*
X124371173Y-113332062D01*
X124374557Y-113324783D01*
X124500783Y-113198557D01*
X124509055Y-113195131D01*
X124516596Y-113197886D01*
G37*
%TD.AperFunction*%
%TD*%
%TA.AperFunction,Conductor*%
%TO.N,+3V3*%
G36*
X150084527Y-102758427D02*
G01*
X150087912Y-102765707D01*
X150100605Y-102914735D01*
X150100606Y-102914736D01*
X150137675Y-103022795D01*
X150137675Y-103022796D01*
X150192594Y-103111644D01*
X150259337Y-103213130D01*
X150260031Y-103214335D01*
X150327865Y-103350291D01*
X150328492Y-103359224D01*
X150322620Y-103365984D01*
X150321900Y-103366313D01*
X149991504Y-103504121D01*
X149982549Y-103504143D01*
X149982496Y-103504121D01*
X149783853Y-103421267D01*
X149652097Y-103366312D01*
X149645782Y-103359966D01*
X149645804Y-103351011D01*
X149646122Y-103350315D01*
X149713969Y-103214330D01*
X149714652Y-103213142D01*
X149781410Y-103111636D01*
X149836323Y-103022796D01*
X149873393Y-102914737D01*
X149886088Y-102765707D01*
X149890205Y-102757755D01*
X149897746Y-102755000D01*
X150076254Y-102755000D01*
X150084527Y-102758427D01*
G37*
%TD.AperFunction*%
%TD*%
%TA.AperFunction,Conductor*%
%TO.N,/EEPROM_SCIO*%
G36*
X147816654Y-97469654D02*
G01*
X148586215Y-97787438D01*
X148592552Y-97793761D01*
X148592562Y-97793785D01*
X148910342Y-98563337D01*
X148910333Y-98572292D01*
X148903994Y-98578617D01*
X148902887Y-98579011D01*
X148544491Y-98686410D01*
X148542361Y-98686837D01*
X148252518Y-98717446D01*
X148252393Y-98717459D01*
X148001621Y-98741230D01*
X147750545Y-98831763D01*
X147466797Y-99056327D01*
X147458183Y-99058774D01*
X147451263Y-99055426D01*
X147324573Y-98928736D01*
X147321146Y-98920463D01*
X147323671Y-98913204D01*
X147548234Y-98629455D01*
X147638769Y-98378374D01*
X147662540Y-98127586D01*
X147693160Y-97837635D01*
X147693587Y-97835507D01*
X147707992Y-97787437D01*
X147800988Y-97477109D01*
X147806645Y-97470171D01*
X147815554Y-97469263D01*
X147816654Y-97469654D01*
G37*
%TD.AperFunction*%
%TD*%
%TA.AperFunction,Conductor*%
%TO.N,/MISO*%
G36*
X146457988Y-116244804D02*
G01*
X146458693Y-116245126D01*
X146594658Y-116312964D01*
X146595864Y-116313658D01*
X146697352Y-116380404D01*
X146697362Y-116380410D01*
X146786202Y-116435323D01*
X146894262Y-116472393D01*
X147043295Y-116485088D01*
X147051245Y-116489204D01*
X147054000Y-116496745D01*
X147054000Y-116675253D01*
X147050573Y-116683526D01*
X147043293Y-116686911D01*
X146894263Y-116699605D01*
X146894262Y-116699606D01*
X146786202Y-116736675D01*
X146786201Y-116736675D01*
X146697353Y-116791594D01*
X146595867Y-116858337D01*
X146594662Y-116859031D01*
X146458708Y-116926865D01*
X146449775Y-116927492D01*
X146443015Y-116921620D01*
X146442686Y-116920900D01*
X146304877Y-116590502D01*
X146304856Y-116581550D01*
X146442688Y-116251095D01*
X146449033Y-116244782D01*
X146457988Y-116244804D01*
G37*
%TD.AperFunction*%
%TD*%
%TA.AperFunction,Conductor*%
%TO.N,/SCL*%
G36*
X120188831Y-112220058D02*
G01*
X120315055Y-112346282D01*
X120318482Y-112354555D01*
X120315727Y-112362096D01*
X120219324Y-112476450D01*
X120219322Y-112476453D01*
X120169125Y-112579074D01*
X120145135Y-112680723D01*
X120120566Y-112799693D01*
X120120204Y-112801036D01*
X120072037Y-112945132D01*
X120066165Y-112951892D01*
X120057232Y-112952519D01*
X120056490Y-112952243D01*
X119725419Y-112816063D01*
X119719072Y-112809747D01*
X119582870Y-112478622D01*
X119582892Y-112469667D01*
X119589239Y-112463351D01*
X119589952Y-112463085D01*
X119734085Y-112414904D01*
X119735409Y-112414547D01*
X119854390Y-112389976D01*
X119956038Y-112365986D01*
X120058660Y-112315790D01*
X120173017Y-112219385D01*
X120181551Y-112216673D01*
X120188831Y-112220058D01*
G37*
%TD.AperFunction*%
%TD*%
%TA.AperFunction,Conductor*%
%TO.N,/MOSI*%
G36*
X150846527Y-109489427D02*
G01*
X150849912Y-109496707D01*
X150862605Y-109645735D01*
X150862606Y-109645736D01*
X150899675Y-109753795D01*
X150899675Y-109753796D01*
X150954594Y-109842644D01*
X151021337Y-109944130D01*
X151022031Y-109945335D01*
X151089865Y-110081291D01*
X151090492Y-110090224D01*
X151084620Y-110096984D01*
X151083900Y-110097313D01*
X150753504Y-110235121D01*
X150744549Y-110235143D01*
X150744496Y-110235121D01*
X150545853Y-110152267D01*
X150414097Y-110097312D01*
X150407782Y-110090966D01*
X150407804Y-110082011D01*
X150408122Y-110081315D01*
X150475969Y-109945330D01*
X150476652Y-109944142D01*
X150543410Y-109842636D01*
X150598323Y-109753796D01*
X150635393Y-109645737D01*
X150648088Y-109496707D01*
X150652205Y-109488755D01*
X150659746Y-109486000D01*
X150838254Y-109486000D01*
X150846527Y-109489427D01*
G37*
%TD.AperFunction*%
%TD*%
%TA.AperFunction,Conductor*%
%TO.N,/SDA*%
G36*
X144767984Y-101518379D02*
G01*
X144768310Y-101519091D01*
X144822246Y-101648404D01*
X144906121Y-101849496D01*
X144906143Y-101858451D01*
X144906121Y-101858504D01*
X144768313Y-102188900D01*
X144761966Y-102195216D01*
X144753011Y-102195194D01*
X144752291Y-102194865D01*
X144616335Y-102127031D01*
X144615130Y-102126337D01*
X144513644Y-102059594D01*
X144424795Y-102004675D01*
X144353806Y-101980322D01*
X144316737Y-101967606D01*
X144316735Y-101967605D01*
X144167707Y-101954911D01*
X144159755Y-101950794D01*
X144157000Y-101943253D01*
X144157000Y-101764745D01*
X144160427Y-101756472D01*
X144167704Y-101753088D01*
X144316737Y-101740393D01*
X144424796Y-101703323D01*
X144513636Y-101648410D01*
X144615142Y-101581652D01*
X144616330Y-101580969D01*
X144752294Y-101513132D01*
X144761224Y-101512506D01*
X144767984Y-101518379D01*
G37*
%TD.AperFunction*%
%TD*%
%TA.AperFunction,Conductor*%
%TO.N,Net-(JP1-B)*%
G36*
X121676527Y-115077427D02*
G01*
X121679912Y-115084707D01*
X121692605Y-115233735D01*
X121692606Y-115233736D01*
X121729675Y-115341795D01*
X121729675Y-115341796D01*
X121784594Y-115430644D01*
X121851337Y-115532130D01*
X121852031Y-115533335D01*
X121919865Y-115669291D01*
X121920492Y-115678224D01*
X121914620Y-115684984D01*
X121913900Y-115685313D01*
X121583504Y-115823121D01*
X121574549Y-115823143D01*
X121574496Y-115823121D01*
X121375853Y-115740267D01*
X121244097Y-115685312D01*
X121237782Y-115678966D01*
X121237804Y-115670011D01*
X121238122Y-115669315D01*
X121305969Y-115533330D01*
X121306652Y-115532142D01*
X121373410Y-115430636D01*
X121428323Y-115341796D01*
X121465393Y-115233737D01*
X121478088Y-115084707D01*
X121482205Y-115076755D01*
X121489746Y-115074000D01*
X121668254Y-115074000D01*
X121676527Y-115077427D01*
G37*
%TD.AperFunction*%
%TD*%
%TA.AperFunction,Conductor*%
%TO.N,/MISO*%
G36*
X150006797Y-116843672D02*
G01*
X150290545Y-117068235D01*
X150416084Y-117113501D01*
X150541621Y-117158768D01*
X150541624Y-117158769D01*
X150792412Y-117182540D01*
X151077096Y-117212604D01*
X151082361Y-117213160D01*
X151084491Y-117213587D01*
X151442888Y-117320988D01*
X151449828Y-117326645D01*
X151450736Y-117335554D01*
X151450342Y-117336661D01*
X151132562Y-118106214D01*
X151126237Y-118112553D01*
X151126214Y-118112562D01*
X150356661Y-118430342D01*
X150347706Y-118430333D01*
X150341381Y-118423994D01*
X150340992Y-118422902D01*
X150233587Y-118064491D01*
X150233160Y-118062361D01*
X150202551Y-117772518D01*
X150202538Y-117772393D01*
X150178769Y-117521624D01*
X150112075Y-117336661D01*
X150088235Y-117270545D01*
X149992413Y-117149469D01*
X149863671Y-116986796D01*
X149861225Y-116978183D01*
X149864572Y-116971264D01*
X149991264Y-116844572D01*
X149999536Y-116841146D01*
X150006797Y-116843672D01*
G37*
%TD.AperFunction*%
%TD*%
%TA.AperFunction,Conductor*%
%TO.N,GND*%
G36*
X129905585Y-96940185D02*
G01*
X129951340Y-96992989D01*
X129961284Y-97062147D01*
X129937500Y-97119226D01*
X129870328Y-97208175D01*
X129779422Y-97390739D01*
X129779417Y-97390752D01*
X129723602Y-97586917D01*
X129704785Y-97789999D01*
X129704785Y-97790000D01*
X129723602Y-97993082D01*
X129779417Y-98189247D01*
X129779422Y-98189260D01*
X129870327Y-98371821D01*
X129993237Y-98534581D01*
X130143958Y-98671980D01*
X130143960Y-98671982D01*
X130179653Y-98694082D01*
X130317363Y-98779348D01*
X130507544Y-98853024D01*
X130708024Y-98890500D01*
X130708026Y-98890500D01*
X130911974Y-98890500D01*
X130911976Y-98890500D01*
X131112456Y-98853024D01*
X131302637Y-98779348D01*
X131476041Y-98671981D01*
X131626764Y-98534579D01*
X131749673Y-98371821D01*
X131840582Y-98189250D01*
X131896397Y-97993083D01*
X131915215Y-97790000D01*
X131896397Y-97586917D01*
X131840582Y-97390750D01*
X131835520Y-97380585D01*
X131749671Y-97208175D01*
X131682500Y-97119226D01*
X131657808Y-97053865D01*
X131672373Y-96985531D01*
X131721571Y-96935918D01*
X131781454Y-96920500D01*
X132378546Y-96920500D01*
X132445585Y-96940185D01*
X132491340Y-96992989D01*
X132501284Y-97062147D01*
X132477500Y-97119226D01*
X132410328Y-97208175D01*
X132319422Y-97390739D01*
X132319417Y-97390752D01*
X132263602Y-97586917D01*
X132244785Y-97789999D01*
X132244785Y-97790000D01*
X132263602Y-97993082D01*
X132319417Y-98189247D01*
X132319422Y-98189260D01*
X132410327Y-98371821D01*
X132533237Y-98534581D01*
X132683958Y-98671980D01*
X132683960Y-98671982D01*
X132719653Y-98694082D01*
X132857363Y-98779348D01*
X133047544Y-98853024D01*
X133248024Y-98890500D01*
X133248026Y-98890500D01*
X133451974Y-98890500D01*
X133451976Y-98890500D01*
X133652456Y-98853024D01*
X133842637Y-98779348D01*
X134016041Y-98671981D01*
X134166764Y-98534579D01*
X134289673Y-98371821D01*
X134380582Y-98189250D01*
X134436397Y-97993083D01*
X134455215Y-97790000D01*
X134436397Y-97586917D01*
X134380582Y-97390750D01*
X134375520Y-97380585D01*
X134289671Y-97208175D01*
X134222500Y-97119226D01*
X134197808Y-97053865D01*
X134212373Y-96985531D01*
X134261571Y-96935918D01*
X134321454Y-96920500D01*
X134918546Y-96920500D01*
X134985585Y-96940185D01*
X135031340Y-96992989D01*
X135041284Y-97062147D01*
X135017500Y-97119226D01*
X134950328Y-97208175D01*
X134859422Y-97390739D01*
X134859417Y-97390752D01*
X134803602Y-97586917D01*
X134784785Y-97789999D01*
X134784785Y-97790000D01*
X134803602Y-97993082D01*
X134859417Y-98189247D01*
X134859422Y-98189260D01*
X134950327Y-98371821D01*
X135073237Y-98534581D01*
X135223958Y-98671980D01*
X135223960Y-98671982D01*
X135259653Y-98694082D01*
X135397363Y-98779348D01*
X135587544Y-98853024D01*
X135788024Y-98890500D01*
X135788026Y-98890500D01*
X135991974Y-98890500D01*
X135991976Y-98890500D01*
X136192456Y-98853024D01*
X136382637Y-98779348D01*
X136556041Y-98671981D01*
X136706764Y-98534579D01*
X136829673Y-98371821D01*
X136920582Y-98189250D01*
X136976397Y-97993083D01*
X136995215Y-97790000D01*
X136976397Y-97586917D01*
X136920582Y-97390750D01*
X136915520Y-97380585D01*
X136829671Y-97208175D01*
X136762500Y-97119226D01*
X136737808Y-97053865D01*
X136752373Y-96985531D01*
X136801571Y-96935918D01*
X136861454Y-96920500D01*
X137458546Y-96920500D01*
X137525585Y-96940185D01*
X137571340Y-96992989D01*
X137581284Y-97062147D01*
X137557500Y-97119226D01*
X137490328Y-97208175D01*
X137399422Y-97390739D01*
X137399417Y-97390752D01*
X137343602Y-97586917D01*
X137324785Y-97789999D01*
X137324785Y-97790000D01*
X137343602Y-97993082D01*
X137399417Y-98189247D01*
X137399422Y-98189260D01*
X137490327Y-98371821D01*
X137613237Y-98534581D01*
X137763958Y-98671980D01*
X137763960Y-98671982D01*
X137799653Y-98694082D01*
X137937363Y-98779348D01*
X138051542Y-98823580D01*
X138106942Y-98866153D01*
X138130533Y-98931920D01*
X138114822Y-99000000D01*
X138094428Y-99026888D01*
X136458877Y-100662439D01*
X136435633Y-100679919D01*
X136435746Y-100680084D01*
X136431881Y-100682741D01*
X136431105Y-100683325D01*
X136430736Y-100683528D01*
X136430720Y-100683539D01*
X136352161Y-100749765D01*
X136326719Y-100766349D01*
X136304349Y-100777290D01*
X136278351Y-100786584D01*
X136223259Y-100799586D01*
X136219856Y-100800338D01*
X136106149Y-100823820D01*
X136091259Y-100827361D01*
X136089961Y-100827711D01*
X136075460Y-100832086D01*
X135931324Y-100880268D01*
X135928319Y-100881330D01*
X135923064Y-100882904D01*
X135917339Y-100885075D01*
X135916856Y-100885296D01*
X135912757Y-100887431D01*
X135905093Y-100891972D01*
X135786068Y-100954441D01*
X135672367Y-101055171D01*
X135586080Y-101180179D01*
X135586079Y-101180180D01*
X135535845Y-101312638D01*
X135532215Y-101322209D01*
X135513906Y-101473000D01*
X135532215Y-101623791D01*
X135586079Y-101765819D01*
X135672368Y-101890830D01*
X135786066Y-101991557D01*
X135920566Y-102062148D01*
X135957174Y-102071171D01*
X136068050Y-102098500D01*
X136068051Y-102098500D01*
X136219950Y-102098500D01*
X136269110Y-102086382D01*
X136367434Y-102062148D01*
X136501934Y-101991557D01*
X136615632Y-101890830D01*
X136701921Y-101765819D01*
X136720167Y-101717707D01*
X136728428Y-101700191D01*
X136736743Y-101685632D01*
X136784910Y-101541536D01*
X136789285Y-101527032D01*
X136789647Y-101525689D01*
X136793172Y-101510867D01*
X136816674Y-101397060D01*
X136817417Y-101393705D01*
X136823441Y-101368181D01*
X136830412Y-101338640D01*
X136839705Y-101312648D01*
X136850651Y-101290269D01*
X136867231Y-101264837D01*
X136881332Y-101248111D01*
X136933460Y-101186277D01*
X136935056Y-101183523D01*
X136954653Y-101158027D01*
X138665863Y-99446819D01*
X138727186Y-99413334D01*
X138753544Y-99410500D01*
X147270789Y-99410500D01*
X147296234Y-99413138D01*
X147305315Y-99415043D01*
X147330673Y-99411881D01*
X147334123Y-99411452D01*
X147347764Y-99410605D01*
X147349026Y-99410500D01*
X147349040Y-99410500D01*
X147357071Y-99409159D01*
X147368014Y-99407334D01*
X147373063Y-99406597D01*
X147421393Y-99400573D01*
X147421399Y-99400569D01*
X147428456Y-99398468D01*
X147435377Y-99396092D01*
X147435381Y-99396092D01*
X147478216Y-99372909D01*
X147482729Y-99370586D01*
X147526484Y-99349198D01*
X147526486Y-99349195D01*
X147532461Y-99344929D01*
X147538256Y-99340419D01*
X147538255Y-99340419D01*
X147538258Y-99340418D01*
X147571254Y-99304572D01*
X147574756Y-99300924D01*
X147598546Y-99277134D01*
X147620839Y-99260911D01*
X147620233Y-99259968D01*
X147625352Y-99256677D01*
X147625351Y-99256677D01*
X147625356Y-99256675D01*
X147860565Y-99070524D01*
X147895439Y-99051118D01*
X148043151Y-98997856D01*
X148073495Y-98991062D01*
X148276504Y-98971819D01*
X148276553Y-98971814D01*
X148276575Y-98971812D01*
X148278127Y-98971656D01*
X148279226Y-98971546D01*
X148279242Y-98971544D01*
X148279265Y-98971542D01*
X148569168Y-98940927D01*
X148569176Y-98940926D01*
X148569178Y-98940925D01*
X148569194Y-98940924D01*
X148592582Y-98937353D01*
X148592605Y-98937348D01*
X148592613Y-98937347D01*
X148593671Y-98937134D01*
X148594712Y-98936926D01*
X148617833Y-98931157D01*
X148707775Y-98904203D01*
X148777642Y-98903816D01*
X148836629Y-98941263D01*
X148866007Y-99004656D01*
X148856448Y-99073869D01*
X148831050Y-99110666D01*
X146522755Y-101418961D01*
X146502906Y-101435082D01*
X146495131Y-101440162D01*
X146477299Y-101463072D01*
X146468194Y-101473384D01*
X146467424Y-101474294D01*
X146456239Y-101489959D01*
X146453178Y-101494063D01*
X146423282Y-101532473D01*
X146419780Y-101538944D01*
X146416560Y-101545532D01*
X146402671Y-101592182D01*
X146401109Y-101597057D01*
X146385299Y-101643113D01*
X146384096Y-101650317D01*
X146383182Y-101657648D01*
X146385194Y-101706267D01*
X146385300Y-101711392D01*
X146385300Y-102708695D01*
X146381223Y-102737487D01*
X146381421Y-102737524D01*
X146380559Y-102742175D01*
X146380426Y-102743120D01*
X146380311Y-102743516D01*
X146380309Y-102743526D01*
X146371588Y-102845898D01*
X146365326Y-102875609D01*
X146357243Y-102899171D01*
X146345430Y-102924131D01*
X146315698Y-102972232D01*
X146313825Y-102975169D01*
X146249974Y-103072259D01*
X146241947Y-103085298D01*
X146241274Y-103086468D01*
X146234136Y-103099779D01*
X146183328Y-103201610D01*
X146181310Y-103205030D01*
X146181356Y-103205055D01*
X146177093Y-103213177D01*
X146173758Y-103220791D01*
X146166305Y-103235732D01*
X146162532Y-103243630D01*
X146162208Y-103244339D01*
X146158794Y-103252153D01*
X146156568Y-103263201D01*
X146150955Y-103282673D01*
X146124014Y-103353710D01*
X146124014Y-103353712D01*
X146116869Y-103412561D01*
X146105706Y-103504500D01*
X146124015Y-103655291D01*
X146177879Y-103797319D01*
X146264168Y-103922330D01*
X146377866Y-104023057D01*
X146512366Y-104093648D01*
X146586108Y-104111824D01*
X146659850Y-104130000D01*
X146659851Y-104130000D01*
X146811750Y-104130000D01*
X146860910Y-104117882D01*
X146959234Y-104093648D01*
X147093734Y-104023057D01*
X147207432Y-103922330D01*
X147293721Y-103797319D01*
X147347585Y-103655291D01*
X147365894Y-103504500D01*
X147347585Y-103353709D01*
X147313683Y-103264318D01*
X147310010Y-103253023D01*
X147305288Y-103235722D01*
X147297854Y-103220822D01*
X147294517Y-103213199D01*
X147293722Y-103211685D01*
X147293721Y-103211681D01*
X147293718Y-103211677D01*
X147290231Y-103205032D01*
X147290277Y-103205007D01*
X147288258Y-103201591D01*
X147237454Y-103099766D01*
X147230236Y-103086320D01*
X147230232Y-103086313D01*
X147230225Y-103086300D01*
X147229542Y-103085114D01*
X147221610Y-103072240D01*
X147157790Y-102975198D01*
X147155917Y-102972261D01*
X147148152Y-102959699D01*
X147126166Y-102924130D01*
X147114353Y-102899171D01*
X147106269Y-102875606D01*
X147100010Y-102845904D01*
X147091290Y-102743523D01*
X147090469Y-102740441D01*
X147086300Y-102708556D01*
X147086300Y-101898142D01*
X147105985Y-101831103D01*
X147122614Y-101810466D01*
X149171293Y-99761786D01*
X149232614Y-99728303D01*
X149302306Y-99733287D01*
X149358239Y-99775159D01*
X149374914Y-99805498D01*
X149409103Y-99895646D01*
X149412785Y-99906967D01*
X149417507Y-99924269D01*
X149417508Y-99924271D01*
X149417509Y-99924274D01*
X149424931Y-99939149D01*
X149424947Y-99939181D01*
X149428283Y-99946802D01*
X149432565Y-99954961D01*
X149432518Y-99954985D01*
X149434536Y-99958402D01*
X149485341Y-100060227D01*
X149485348Y-100060240D01*
X149485354Y-100060252D01*
X149492508Y-100073585D01*
X149493198Y-100074785D01*
X149497663Y-100082036D01*
X149499726Y-100085386D01*
X149501199Y-100087777D01*
X149565021Y-100184821D01*
X149566885Y-100187742D01*
X149596634Y-100235870D01*
X149608443Y-100260821D01*
X149616527Y-100284386D01*
X149622787Y-100314090D01*
X149631509Y-100416473D01*
X149631512Y-100416488D01*
X149632328Y-100419554D01*
X149636500Y-100451447D01*
X149636500Y-102709195D01*
X149632423Y-102737987D01*
X149632621Y-102738024D01*
X149631759Y-102742675D01*
X149631626Y-102743620D01*
X149631511Y-102744016D01*
X149631509Y-102744026D01*
X149622788Y-102846398D01*
X149616526Y-102876109D01*
X149608443Y-102899671D01*
X149596630Y-102924631D01*
X149566898Y-102972732D01*
X149565025Y-102975669D01*
X149510645Y-103058357D01*
X149501517Y-103072238D01*
X149501174Y-103072759D01*
X149493147Y-103085798D01*
X149492474Y-103086968D01*
X149485336Y-103100279D01*
X149434528Y-103202110D01*
X149432510Y-103205530D01*
X149432556Y-103205555D01*
X149428293Y-103213677D01*
X149424958Y-103221291D01*
X149417505Y-103236232D01*
X149413732Y-103244130D01*
X149413408Y-103244839D01*
X149409994Y-103252653D01*
X149407768Y-103263701D01*
X149402155Y-103283173D01*
X149375214Y-103354210D01*
X149375214Y-103354212D01*
X149368131Y-103412550D01*
X149356906Y-103505000D01*
X149375215Y-103655791D01*
X149429079Y-103797819D01*
X149515368Y-103922830D01*
X149629066Y-104023557D01*
X149763566Y-104094148D01*
X149837308Y-104112324D01*
X149911050Y-104130500D01*
X149911051Y-104130500D01*
X150062950Y-104130500D01*
X150112110Y-104118382D01*
X150210434Y-104094148D01*
X150344934Y-104023557D01*
X150458632Y-103922830D01*
X150544921Y-103797819D01*
X150598785Y-103655791D01*
X150617094Y-103505000D01*
X150598785Y-103354209D01*
X150564883Y-103264818D01*
X150561210Y-103253523D01*
X150556488Y-103236222D01*
X150556396Y-103236039D01*
X150549054Y-103221322D01*
X150545717Y-103213699D01*
X150544922Y-103212185D01*
X150544921Y-103212181D01*
X150544918Y-103212177D01*
X150541431Y-103205532D01*
X150541477Y-103205507D01*
X150539458Y-103202091D01*
X150488654Y-103100266D01*
X150481436Y-103086820D01*
X150481432Y-103086813D01*
X150481425Y-103086800D01*
X150480742Y-103085614D01*
X150472810Y-103072740D01*
X150472486Y-103072248D01*
X150428432Y-103005261D01*
X150408990Y-102975698D01*
X150407117Y-102972761D01*
X150393995Y-102951532D01*
X150377366Y-102924630D01*
X150365553Y-102899671D01*
X150357469Y-102876106D01*
X150351210Y-102846404D01*
X150342490Y-102744023D01*
X150341669Y-102740941D01*
X150337500Y-102709056D01*
X150337500Y-100451301D01*
X150341578Y-100422503D01*
X150341381Y-100422467D01*
X150342241Y-100417821D01*
X150342376Y-100416871D01*
X150342390Y-100416819D01*
X150342490Y-100416476D01*
X150351209Y-100314089D01*
X150357470Y-100284384D01*
X150365553Y-100260823D01*
X150377360Y-100235874D01*
X150407162Y-100187660D01*
X150408987Y-100184802D01*
X150472809Y-100087759D01*
X150480742Y-100074882D01*
X150481436Y-100073677D01*
X150488653Y-100060233D01*
X150539459Y-99958406D01*
X150541476Y-99954992D01*
X150541431Y-99954969D01*
X150544915Y-99948327D01*
X150544921Y-99948319D01*
X150544924Y-99948309D01*
X150545716Y-99946801D01*
X150549056Y-99939169D01*
X150556487Y-99924279D01*
X150560253Y-99916396D01*
X150560582Y-99915676D01*
X150564004Y-99907843D01*
X150566226Y-99896808D01*
X150571836Y-99877344D01*
X150598785Y-99806291D01*
X150617094Y-99655500D01*
X150598785Y-99504709D01*
X150544921Y-99362681D01*
X150458632Y-99237670D01*
X150344934Y-99136943D01*
X150210434Y-99066352D01*
X150210431Y-99066351D01*
X150210429Y-99066350D01*
X150182696Y-99059514D01*
X150122316Y-99024357D01*
X150090528Y-98962137D01*
X150097426Y-98892609D01*
X150137190Y-98840511D01*
X150156021Y-98826155D01*
X150201786Y-98804308D01*
X150278502Y-98785585D01*
X150323853Y-98783081D01*
X150465559Y-98801473D01*
X150475787Y-98803241D01*
X150614628Y-98833271D01*
X150728540Y-98857911D01*
X150743858Y-98860740D01*
X150745231Y-98860950D01*
X150745235Y-98860950D01*
X150745258Y-98860954D01*
X150760741Y-98862846D01*
X150760759Y-98862847D01*
X150760762Y-98862848D01*
X150780391Y-98864640D01*
X150988275Y-98883621D01*
X150999741Y-98885212D01*
X151028024Y-98890500D01*
X151057954Y-98890500D01*
X151069228Y-98891013D01*
X151094013Y-98893277D01*
X151104510Y-98893994D01*
X151105592Y-98894068D01*
X151105594Y-98894068D01*
X151105622Y-98894070D01*
X151106676Y-98894118D01*
X151118088Y-98894383D01*
X151125763Y-98892862D01*
X151149854Y-98890500D01*
X151231974Y-98890500D01*
X151231976Y-98890500D01*
X151432456Y-98853024D01*
X151622637Y-98779348D01*
X151796041Y-98671981D01*
X151946764Y-98534579D01*
X152069673Y-98371821D01*
X152160582Y-98189250D01*
X152216397Y-97993083D01*
X152235215Y-97790000D01*
X152216397Y-97586917D01*
X152160582Y-97390750D01*
X152155520Y-97380585D01*
X152069671Y-97208175D01*
X152002500Y-97119226D01*
X151977808Y-97053865D01*
X151992373Y-96985531D01*
X152041571Y-96935918D01*
X152101454Y-96920500D01*
X152698546Y-96920500D01*
X152765585Y-96940185D01*
X152811340Y-96992989D01*
X152821284Y-97062147D01*
X152797500Y-97119226D01*
X152730328Y-97208175D01*
X152639422Y-97390739D01*
X152639417Y-97390752D01*
X152583602Y-97586917D01*
X152564785Y-97789999D01*
X152564785Y-97790000D01*
X152583602Y-97993082D01*
X152583603Y-97993084D01*
X152639415Y-98189244D01*
X152639417Y-98189249D01*
X152657038Y-98224638D01*
X152664573Y-98243503D01*
X152665914Y-98247871D01*
X152665916Y-98247875D01*
X152700434Y-98311933D01*
X152702250Y-98315435D01*
X152730327Y-98371821D01*
X152732915Y-98375248D01*
X152743122Y-98391154D01*
X152843387Y-98577223D01*
X152843399Y-98577244D01*
X152855611Y-98597582D01*
X152855616Y-98597590D01*
X152855620Y-98597596D01*
X152856824Y-98599405D01*
X152870880Y-98618534D01*
X152914117Y-98671982D01*
X153054201Y-98845148D01*
X153054221Y-98845172D01*
X153054255Y-98845214D01*
X153055988Y-98847333D01*
X153094890Y-98894382D01*
X153185932Y-99004492D01*
X153202591Y-99030765D01*
X153269375Y-99172869D01*
X153280319Y-99211269D01*
X153315011Y-99509212D01*
X153316040Y-99514297D01*
X153315520Y-99514402D01*
X153319500Y-99542308D01*
X153319500Y-102455195D01*
X153315423Y-102483987D01*
X153315621Y-102484024D01*
X153314759Y-102488675D01*
X153314626Y-102489620D01*
X153314511Y-102490016D01*
X153314509Y-102490026D01*
X153305788Y-102592398D01*
X153299526Y-102622109D01*
X153291443Y-102645671D01*
X153279630Y-102670631D01*
X153249898Y-102718732D01*
X153248025Y-102721669D01*
X153184174Y-102818759D01*
X153176147Y-102831798D01*
X153175474Y-102832968D01*
X153168336Y-102846279D01*
X153117528Y-102948110D01*
X153115510Y-102951530D01*
X153115556Y-102951555D01*
X153111293Y-102959677D01*
X153107958Y-102967291D01*
X153100505Y-102982232D01*
X153096732Y-102990130D01*
X153096408Y-102990839D01*
X153092994Y-102998653D01*
X153090768Y-103009701D01*
X153085155Y-103029173D01*
X153058214Y-103100210D01*
X153058214Y-103100212D01*
X153041761Y-103235722D01*
X153039906Y-103251000D01*
X153058215Y-103401791D01*
X153112079Y-103543819D01*
X153198368Y-103668830D01*
X153312066Y-103769557D01*
X153446566Y-103840148D01*
X153520308Y-103858324D01*
X153594050Y-103876500D01*
X153594051Y-103876500D01*
X153745950Y-103876500D01*
X153795110Y-103864382D01*
X153893434Y-103840148D01*
X154027934Y-103769557D01*
X154141632Y-103668830D01*
X154227921Y-103543819D01*
X154281785Y-103401791D01*
X154300094Y-103251000D01*
X154281785Y-103100209D01*
X154247883Y-103010818D01*
X154244210Y-102999523D01*
X154239488Y-102982222D01*
X154236233Y-102975698D01*
X154232054Y-102967322D01*
X154228717Y-102959699D01*
X154227922Y-102958185D01*
X154227921Y-102958181D01*
X154227918Y-102958177D01*
X154224431Y-102951532D01*
X154224477Y-102951507D01*
X154222458Y-102948091D01*
X154171654Y-102846266D01*
X154164436Y-102832820D01*
X154164432Y-102832813D01*
X154164425Y-102832800D01*
X154163742Y-102831614D01*
X154155810Y-102818740D01*
X154091990Y-102721698D01*
X154090117Y-102718761D01*
X154060367Y-102670632D01*
X154048553Y-102645671D01*
X154040469Y-102622106D01*
X154034210Y-102592404D01*
X154025490Y-102490023D01*
X154024669Y-102486941D01*
X154020500Y-102455056D01*
X154020500Y-99542631D01*
X154024790Y-99515394D01*
X154023696Y-99515157D01*
X154024987Y-99509211D01*
X154024991Y-99509202D01*
X154059679Y-99211264D01*
X154070622Y-99172866D01*
X154137405Y-99030762D01*
X154154059Y-99004497D01*
X154161228Y-98995827D01*
X160885813Y-98995827D01*
X160895637Y-99252142D01*
X160944474Y-99503955D01*
X160944474Y-99503957D01*
X161031174Y-99745355D01*
X161055300Y-99789722D01*
X161151041Y-99965787D01*
X161153716Y-99970705D01*
X161243431Y-100088399D01*
X161309213Y-100174697D01*
X161494029Y-100352565D01*
X161703831Y-100500137D01*
X161933701Y-100613952D01*
X162178251Y-100691345D01*
X162431748Y-100730500D01*
X162431752Y-100730500D01*
X162624031Y-100730500D01*
X162624032Y-100730500D01*
X162815751Y-100715781D01*
X163065508Y-100657336D01*
X163303415Y-100561450D01*
X163523898Y-100430372D01*
X163721788Y-100267173D01*
X163892446Y-100075680D01*
X163892448Y-100075675D01*
X163892452Y-100075672D01*
X163998333Y-99912171D01*
X164031873Y-99860379D01*
X164136801Y-99626319D01*
X164204770Y-99378984D01*
X164234187Y-99124173D01*
X164224362Y-98867858D01*
X164224031Y-98866153D01*
X164207344Y-98780108D01*
X164175526Y-98616046D01*
X164175525Y-98616042D01*
X164088825Y-98374644D01*
X164087286Y-98371814D01*
X163966286Y-98149298D01*
X163810787Y-97945303D01*
X163625971Y-97767435D01*
X163416169Y-97619863D01*
X163416170Y-97619863D01*
X163416168Y-97619862D01*
X163186300Y-97506048D01*
X163186297Y-97506047D01*
X162941751Y-97428655D01*
X162840350Y-97412993D01*
X162688252Y-97389500D01*
X162495968Y-97389500D01*
X162495963Y-97389500D01*
X162336202Y-97401765D01*
X162304249Y-97404219D01*
X162304245Y-97404219D01*
X162054494Y-97462663D01*
X162054489Y-97462664D01*
X161816584Y-97558550D01*
X161816577Y-97558554D01*
X161596103Y-97689627D01*
X161398213Y-97852825D01*
X161227554Y-98044319D01*
X161227547Y-98044327D01*
X161088129Y-98259616D01*
X161088126Y-98259620D01*
X160983201Y-98493674D01*
X160983197Y-98493684D01*
X160915230Y-98741013D01*
X160885813Y-98995827D01*
X154161228Y-98995827D01*
X154283986Y-98847360D01*
X154285717Y-98845244D01*
X154469117Y-98618536D01*
X154483174Y-98599405D01*
X154484378Y-98597596D01*
X154496604Y-98577234D01*
X154596870Y-98391161D01*
X154607072Y-98375264D01*
X154609673Y-98371821D01*
X154637754Y-98315424D01*
X154639590Y-98311883D01*
X154649051Y-98294323D01*
X154674083Y-98247872D01*
X154679861Y-98236477D01*
X154680366Y-98235416D01*
X154685618Y-98223623D01*
X154685620Y-98223608D01*
X154686524Y-98220772D01*
X154693687Y-98203095D01*
X154700582Y-98189250D01*
X154756397Y-97993083D01*
X154775215Y-97790000D01*
X154756397Y-97586917D01*
X154700582Y-97390750D01*
X154695520Y-97380585D01*
X154609671Y-97208175D01*
X154542500Y-97119226D01*
X154517808Y-97053865D01*
X154532373Y-96985531D01*
X154581571Y-96935918D01*
X154641454Y-96920500D01*
X155238546Y-96920500D01*
X155305585Y-96940185D01*
X155351340Y-96992989D01*
X155361284Y-97062147D01*
X155337500Y-97119226D01*
X155270328Y-97208175D01*
X155179422Y-97390739D01*
X155179417Y-97390752D01*
X155123602Y-97586917D01*
X155104785Y-97789999D01*
X155104785Y-97790000D01*
X155123602Y-97993082D01*
X155179417Y-98189247D01*
X155179422Y-98189260D01*
X155270327Y-98371821D01*
X155393237Y-98534581D01*
X155543958Y-98671980D01*
X155543960Y-98671982D01*
X155579653Y-98694082D01*
X155717363Y-98779348D01*
X155907544Y-98853024D01*
X156108024Y-98890500D01*
X156108026Y-98890500D01*
X156311974Y-98890500D01*
X156311976Y-98890500D01*
X156512456Y-98853024D01*
X156702637Y-98779348D01*
X156876041Y-98671981D01*
X157026764Y-98534579D01*
X157149673Y-98371821D01*
X157240582Y-98189250D01*
X157296397Y-97993083D01*
X157315215Y-97790000D01*
X157296397Y-97586917D01*
X157240582Y-97390750D01*
X157235520Y-97380585D01*
X157149671Y-97208175D01*
X157082500Y-97119226D01*
X157057808Y-97053865D01*
X157072373Y-96985531D01*
X157121571Y-96935918D01*
X157181454Y-96920500D01*
X157778546Y-96920500D01*
X157845585Y-96940185D01*
X157891340Y-96992989D01*
X157901284Y-97062147D01*
X157877500Y-97119226D01*
X157810328Y-97208175D01*
X157719422Y-97390739D01*
X157719417Y-97390752D01*
X157663602Y-97586917D01*
X157644785Y-97789999D01*
X157644785Y-97790000D01*
X157663602Y-97993082D01*
X157719417Y-98189247D01*
X157719422Y-98189260D01*
X157810327Y-98371821D01*
X157933237Y-98534581D01*
X158083958Y-98671980D01*
X158083960Y-98671982D01*
X158119653Y-98694082D01*
X158257363Y-98779348D01*
X158447544Y-98853024D01*
X158648024Y-98890500D01*
X158648026Y-98890500D01*
X158851974Y-98890500D01*
X158851976Y-98890500D01*
X159052456Y-98853024D01*
X159242637Y-98779348D01*
X159416041Y-98671981D01*
X159566764Y-98534579D01*
X159689673Y-98371821D01*
X159780582Y-98189250D01*
X159836397Y-97993083D01*
X159855215Y-97790000D01*
X159836397Y-97586917D01*
X159780582Y-97390750D01*
X159775520Y-97380585D01*
X159689671Y-97208175D01*
X159622500Y-97119226D01*
X159597808Y-97053865D01*
X159612373Y-96985531D01*
X159661571Y-96935918D01*
X159721454Y-96920500D01*
X162502417Y-96920500D01*
X162555948Y-96920500D01*
X162564028Y-96920764D01*
X162831170Y-96938273D01*
X162847226Y-96940388D01*
X163105778Y-96991817D01*
X163121429Y-96996011D01*
X163371059Y-97080749D01*
X163386037Y-97086953D01*
X163622460Y-97203544D01*
X163636508Y-97211654D01*
X163855691Y-97358108D01*
X163868552Y-97367976D01*
X163894525Y-97390754D01*
X164066744Y-97541786D01*
X164078213Y-97553255D01*
X164252020Y-97751444D01*
X164261894Y-97764312D01*
X164408345Y-97983492D01*
X164416455Y-97997539D01*
X164533046Y-98233962D01*
X164539253Y-98248947D01*
X164623985Y-98498559D01*
X164628183Y-98514227D01*
X164679610Y-98772768D01*
X164681727Y-98788842D01*
X164698999Y-99052351D01*
X164699055Y-99067650D01*
X164685534Y-99300472D01*
X164683870Y-99314754D01*
X164643408Y-99544904D01*
X164640102Y-99558897D01*
X164573269Y-99782821D01*
X164568365Y-99796337D01*
X164476060Y-100011020D01*
X164469624Y-100023877D01*
X164353094Y-100226420D01*
X164345213Y-100238447D01*
X164206010Y-100426153D01*
X164196790Y-100437185D01*
X164036808Y-100607501D01*
X164026373Y-100617393D01*
X163847740Y-100768054D01*
X163836230Y-100776671D01*
X163638370Y-100907618D01*
X163632264Y-100911409D01*
X163578396Y-100942730D01*
X163578205Y-100942858D01*
X163497316Y-100989898D01*
X163497307Y-100989903D01*
X163240205Y-101179388D01*
X163005125Y-101395618D01*
X163005116Y-101395626D01*
X162794863Y-101636011D01*
X162794855Y-101636020D01*
X162611847Y-101897798D01*
X162458270Y-102177849D01*
X162335933Y-102472869D01*
X162335929Y-102472882D01*
X162246258Y-102779430D01*
X162246256Y-102779439D01*
X162190316Y-103093876D01*
X162190313Y-103093897D01*
X162168755Y-103412547D01*
X162168754Y-103412561D01*
X162174840Y-103561330D01*
X162174944Y-103566398D01*
X162174944Y-112333356D01*
X162174840Y-112338424D01*
X162168744Y-112487438D01*
X162168745Y-112487452D01*
X162190303Y-112806104D01*
X162190306Y-112806125D01*
X162246246Y-113120562D01*
X162246248Y-113120571D01*
X162246249Y-113120575D01*
X162328761Y-113402649D01*
X162335919Y-113427121D01*
X162335923Y-113427134D01*
X162432242Y-113659408D01*
X162458264Y-113722160D01*
X162525396Y-113844577D01*
X162611838Y-114002206D01*
X162794847Y-114263985D01*
X162794855Y-114263994D01*
X163005109Y-114504380D01*
X163005116Y-114504386D01*
X163005119Y-114504390D01*
X163240195Y-114720614D01*
X163497305Y-114910108D01*
X163568490Y-114951502D01*
X163577533Y-114956761D01*
X163577594Y-114956803D01*
X163585575Y-114961443D01*
X163585576Y-114961444D01*
X163632251Y-114988581D01*
X163638345Y-114992366D01*
X163836230Y-115123329D01*
X163847738Y-115131944D01*
X163998355Y-115258977D01*
X164026368Y-115282603D01*
X164036800Y-115292491D01*
X164038873Y-115294698D01*
X164196797Y-115462822D01*
X164206017Y-115473856D01*
X164345209Y-115661548D01*
X164353090Y-115673574D01*
X164469623Y-115876122D01*
X164476059Y-115888979D01*
X164568364Y-116103662D01*
X164573268Y-116117178D01*
X164640101Y-116341102D01*
X164643407Y-116355095D01*
X164683869Y-116585245D01*
X164685533Y-116599527D01*
X164699055Y-116832359D01*
X164698998Y-116847658D01*
X164681727Y-117111150D01*
X164679610Y-117127231D01*
X164628183Y-117385772D01*
X164623985Y-117401440D01*
X164539253Y-117651052D01*
X164533046Y-117666037D01*
X164416455Y-117902460D01*
X164408345Y-117916507D01*
X164261894Y-118135687D01*
X164252020Y-118148555D01*
X164078213Y-118346744D01*
X164066744Y-118358213D01*
X163868555Y-118532020D01*
X163855687Y-118541894D01*
X163636507Y-118688345D01*
X163622460Y-118696455D01*
X163386037Y-118813046D01*
X163371052Y-118819253D01*
X163121440Y-118903985D01*
X163105772Y-118908183D01*
X162847231Y-118959610D01*
X162831150Y-118961727D01*
X162564058Y-118979234D01*
X162555948Y-118979500D01*
X159721454Y-118979500D01*
X159654415Y-118959815D01*
X159608660Y-118907011D01*
X159598716Y-118837853D01*
X159622500Y-118780774D01*
X159689671Y-118691824D01*
X159689671Y-118691822D01*
X159689673Y-118691821D01*
X159780582Y-118509250D01*
X159836397Y-118313083D01*
X159855215Y-118110000D01*
X159849393Y-118047174D01*
X159836397Y-117906917D01*
X159825438Y-117868400D01*
X159780582Y-117710750D01*
X159689673Y-117528179D01*
X159588152Y-117393743D01*
X159566762Y-117365418D01*
X159416041Y-117228019D01*
X159416039Y-117228017D01*
X159242642Y-117120655D01*
X159242639Y-117120653D01*
X159242637Y-117120652D01*
X159242636Y-117120651D01*
X159242635Y-117120651D01*
X159103473Y-117066740D01*
X159052456Y-117046976D01*
X158851976Y-117009500D01*
X158648024Y-117009500D01*
X158447544Y-117046976D01*
X158447541Y-117046976D01*
X158447541Y-117046977D01*
X158257364Y-117120651D01*
X158257357Y-117120655D01*
X158083960Y-117228017D01*
X158083958Y-117228019D01*
X157933237Y-117365418D01*
X157810327Y-117528178D01*
X157719422Y-117710739D01*
X157719417Y-117710752D01*
X157663602Y-117906917D01*
X157644785Y-118109999D01*
X157644785Y-118110000D01*
X157663602Y-118313082D01*
X157719417Y-118509247D01*
X157719422Y-118509260D01*
X157810328Y-118691824D01*
X157877500Y-118780774D01*
X157902192Y-118846135D01*
X157887627Y-118914469D01*
X157838429Y-118964082D01*
X157778546Y-118979500D01*
X157181454Y-118979500D01*
X157114415Y-118959815D01*
X157068660Y-118907011D01*
X157058716Y-118837853D01*
X157082500Y-118780774D01*
X157149671Y-118691824D01*
X157149671Y-118691822D01*
X157149673Y-118691821D01*
X157240582Y-118509250D01*
X157296397Y-118313083D01*
X157315215Y-118110000D01*
X157309393Y-118047174D01*
X157296397Y-117906917D01*
X157285438Y-117868400D01*
X157240582Y-117710750D01*
X157149673Y-117528179D01*
X157048152Y-117393743D01*
X157026762Y-117365418D01*
X156876041Y-117228019D01*
X156876039Y-117228017D01*
X156702642Y-117120655D01*
X156702639Y-117120653D01*
X156702637Y-117120652D01*
X156702636Y-117120651D01*
X156702635Y-117120651D01*
X156563473Y-117066740D01*
X156512456Y-117046976D01*
X156311976Y-117009500D01*
X156108024Y-117009500D01*
X155907544Y-117046976D01*
X155907541Y-117046976D01*
X155907541Y-117046977D01*
X155717364Y-117120651D01*
X155717357Y-117120655D01*
X155543960Y-117228017D01*
X155543958Y-117228019D01*
X155393237Y-117365418D01*
X155270327Y-117528178D01*
X155179422Y-117710739D01*
X155179417Y-117710752D01*
X155123602Y-117906917D01*
X155104785Y-118109999D01*
X155104785Y-118110000D01*
X155123602Y-118313082D01*
X155179417Y-118509247D01*
X155179422Y-118509260D01*
X155270328Y-118691824D01*
X155337500Y-118780774D01*
X155362192Y-118846135D01*
X155347627Y-118914469D01*
X155298429Y-118964082D01*
X155238546Y-118979500D01*
X154641454Y-118979500D01*
X154574415Y-118959815D01*
X154528660Y-118907011D01*
X154518716Y-118837853D01*
X154542500Y-118780774D01*
X154609671Y-118691824D01*
X154609671Y-118691822D01*
X154609673Y-118691821D01*
X154700582Y-118509250D01*
X154756397Y-118313083D01*
X154775215Y-118110000D01*
X154769393Y-118047174D01*
X154756397Y-117906917D01*
X154745438Y-117868400D01*
X154700582Y-117710750D01*
X154609673Y-117528179D01*
X154508152Y-117393743D01*
X154486762Y-117365418D01*
X154336041Y-117228019D01*
X154336039Y-117228017D01*
X154162642Y-117120655D01*
X154162639Y-117120653D01*
X154162637Y-117120652D01*
X154162636Y-117120651D01*
X154162635Y-117120651D01*
X154023473Y-117066740D01*
X153972456Y-117046976D01*
X153771976Y-117009500D01*
X153568024Y-117009500D01*
X153367544Y-117046976D01*
X153367541Y-117046976D01*
X153367541Y-117046977D01*
X153177364Y-117120651D01*
X153177357Y-117120655D01*
X153003960Y-117228017D01*
X153003958Y-117228019D01*
X152853237Y-117365418D01*
X152730327Y-117528178D01*
X152639422Y-117710739D01*
X152639417Y-117710752D01*
X152583602Y-117906917D01*
X152564785Y-118109999D01*
X152564785Y-118110000D01*
X152583602Y-118313082D01*
X152639417Y-118509247D01*
X152639422Y-118509260D01*
X152730328Y-118691824D01*
X152797500Y-118780774D01*
X152822192Y-118846135D01*
X152807627Y-118914469D01*
X152758429Y-118964082D01*
X152698546Y-118979500D01*
X152101454Y-118979500D01*
X152034415Y-118959815D01*
X151988660Y-118907011D01*
X151978716Y-118837853D01*
X152002500Y-118780774D01*
X152069671Y-118691824D01*
X152069671Y-118691822D01*
X152069673Y-118691821D01*
X152160582Y-118509250D01*
X152216397Y-118313083D01*
X152235215Y-118110000D01*
X152229393Y-118047174D01*
X152216397Y-117906917D01*
X152205438Y-117868400D01*
X152160582Y-117710750D01*
X152069673Y-117528179D01*
X151968152Y-117393743D01*
X151946762Y-117365418D01*
X151796041Y-117228019D01*
X151796039Y-117228017D01*
X151622640Y-117120653D01*
X151622625Y-117120646D01*
X151545385Y-117090723D01*
X151532096Y-117084652D01*
X151516235Y-117076243D01*
X151516234Y-117076242D01*
X151516231Y-117076241D01*
X151506984Y-117073469D01*
X151484530Y-117066740D01*
X151475339Y-117063588D01*
X151432459Y-117046977D01*
X151432457Y-117046976D01*
X151432456Y-117046976D01*
X151432454Y-117046975D01*
X151432452Y-117046975D01*
X151402033Y-117041288D01*
X151389227Y-117038181D01*
X151157832Y-116968839D01*
X151157822Y-116968836D01*
X151134701Y-116963068D01*
X151134694Y-116963066D01*
X151132613Y-116962649D01*
X151132561Y-116962640D01*
X151109176Y-116959070D01*
X151109163Y-116959069D01*
X150819301Y-116928458D01*
X150816591Y-116928186D01*
X150613502Y-116908936D01*
X150583142Y-116902137D01*
X150435452Y-116848883D01*
X150400561Y-116829469D01*
X150332781Y-116775827D01*
X160885813Y-116775827D01*
X160895637Y-117032142D01*
X160944474Y-117283955D01*
X160944474Y-117283957D01*
X161031174Y-117525355D01*
X161031177Y-117525360D01*
X161093724Y-117640383D01*
X161153716Y-117750705D01*
X161274951Y-117909750D01*
X161309213Y-117954697D01*
X161494029Y-118132565D01*
X161703831Y-118280137D01*
X161933701Y-118393952D01*
X162178251Y-118471345D01*
X162431748Y-118510500D01*
X162431752Y-118510500D01*
X162624031Y-118510500D01*
X162624032Y-118510500D01*
X162815751Y-118495781D01*
X163065508Y-118437336D01*
X163303415Y-118341450D01*
X163523898Y-118210372D01*
X163721788Y-118047173D01*
X163892446Y-117855680D01*
X163892448Y-117855675D01*
X163892452Y-117855672D01*
X164031870Y-117640383D01*
X164031873Y-117640379D01*
X164052886Y-117593505D01*
X164136801Y-117406319D01*
X164204770Y-117158984D01*
X164234187Y-116904173D01*
X164224362Y-116647858D01*
X164175526Y-116396046D01*
X164167233Y-116372955D01*
X164088825Y-116154644D01*
X164068257Y-116116820D01*
X163966286Y-115929298D01*
X163930513Y-115882369D01*
X163886021Y-115824000D01*
X163810787Y-115725303D01*
X163625971Y-115547435D01*
X163422925Y-115404615D01*
X163416168Y-115399862D01*
X163186300Y-115286048D01*
X163186297Y-115286047D01*
X162941751Y-115208655D01*
X162840350Y-115192993D01*
X162688252Y-115169500D01*
X162495968Y-115169500D01*
X162495963Y-115169500D01*
X162350840Y-115180642D01*
X162304249Y-115184219D01*
X162304245Y-115184219D01*
X162054494Y-115242663D01*
X162054489Y-115242664D01*
X161816584Y-115338550D01*
X161816577Y-115338554D01*
X161596103Y-115469627D01*
X161398213Y-115632825D01*
X161227554Y-115824319D01*
X161227547Y-115824327D01*
X161088129Y-116039616D01*
X161088126Y-116039620D01*
X160983201Y-116273674D01*
X160983197Y-116273684D01*
X160915230Y-116521013D01*
X160885813Y-116775827D01*
X150332781Y-116775827D01*
X150165351Y-116643320D01*
X150161030Y-116640453D01*
X150161321Y-116640013D01*
X150138769Y-116623087D01*
X149888637Y-116372955D01*
X149872511Y-116353098D01*
X149867437Y-116345331D01*
X149844524Y-116327497D01*
X149834248Y-116318422D01*
X149833309Y-116317627D01*
X149833307Y-116317625D01*
X149817651Y-116306447D01*
X149813544Y-116303385D01*
X149800434Y-116293181D01*
X149775126Y-116273483D01*
X149775124Y-116273482D01*
X149768640Y-116269973D01*
X149762067Y-116266759D01*
X149715409Y-116252868D01*
X149710532Y-116251306D01*
X149664484Y-116235498D01*
X149657287Y-116234297D01*
X149649951Y-116233382D01*
X149601332Y-116235394D01*
X149596207Y-116235500D01*
X147099807Y-116235500D01*
X147071017Y-116231422D01*
X147070981Y-116231621D01*
X147066308Y-116230755D01*
X147065377Y-116230624D01*
X147064986Y-116230511D01*
X147064979Y-116230509D01*
X146962594Y-116221787D01*
X146932880Y-116215524D01*
X146909326Y-116207443D01*
X146884369Y-116195631D01*
X146836232Y-116165877D01*
X146833294Y-116164003D01*
X146736273Y-116100197D01*
X146736257Y-116100187D01*
X146723299Y-116092207D01*
X146723285Y-116092199D01*
X146723277Y-116092194D01*
X146722087Y-116091509D01*
X146708752Y-116084354D01*
X146708740Y-116084348D01*
X146708727Y-116084341D01*
X146635688Y-116047899D01*
X146572739Y-116016491D01*
X146564877Y-116012736D01*
X146564129Y-116012394D01*
X146556340Y-116008992D01*
X146552444Y-116007765D01*
X146532094Y-115999298D01*
X146527434Y-115996852D01*
X146527432Y-115996851D01*
X146527431Y-115996851D01*
X146379950Y-115960500D01*
X146379949Y-115960500D01*
X146228051Y-115960500D01*
X146228050Y-115960500D01*
X146080567Y-115996851D01*
X145946067Y-116067442D01*
X145832367Y-116168171D01*
X145746080Y-116293179D01*
X145746079Y-116293180D01*
X145692215Y-116435208D01*
X145673906Y-116586000D01*
X145692215Y-116736791D01*
X145746079Y-116878819D01*
X145746081Y-116878824D01*
X145748715Y-116882639D01*
X145770597Y-116948994D01*
X145753130Y-117016645D01*
X145701862Y-117064114D01*
X145691463Y-117068701D01*
X145672002Y-117076241D01*
X145557364Y-117120651D01*
X145557357Y-117120655D01*
X145383960Y-117228017D01*
X145383958Y-117228019D01*
X145233237Y-117365418D01*
X145110327Y-117528178D01*
X145019422Y-117710739D01*
X145019417Y-117710752D01*
X144963602Y-117906917D01*
X144944785Y-118109999D01*
X144944785Y-118110000D01*
X144963602Y-118313082D01*
X145019417Y-118509247D01*
X145019422Y-118509260D01*
X145110328Y-118691824D01*
X145177500Y-118780774D01*
X145202192Y-118846135D01*
X145187627Y-118914469D01*
X145138429Y-118964082D01*
X145078546Y-118979500D01*
X144481454Y-118979500D01*
X144414415Y-118959815D01*
X144368660Y-118907011D01*
X144358716Y-118837853D01*
X144382500Y-118780774D01*
X144449671Y-118691824D01*
X144449671Y-118691822D01*
X144449673Y-118691821D01*
X144540582Y-118509250D01*
X144596397Y-118313083D01*
X144615215Y-118110000D01*
X144609393Y-118047174D01*
X144596397Y-117906917D01*
X144585438Y-117868400D01*
X144540582Y-117710750D01*
X144449673Y-117528179D01*
X144348152Y-117393743D01*
X144326762Y-117365418D01*
X144176041Y-117228019D01*
X144176039Y-117228017D01*
X144002642Y-117120655D01*
X144002639Y-117120653D01*
X144002637Y-117120652D01*
X144002636Y-117120651D01*
X144002635Y-117120651D01*
X143863473Y-117066740D01*
X143812456Y-117046976D01*
X143611976Y-117009500D01*
X143408024Y-117009500D01*
X143207544Y-117046976D01*
X143207541Y-117046976D01*
X143207541Y-117046977D01*
X143017364Y-117120651D01*
X143017357Y-117120655D01*
X142843960Y-117228017D01*
X142843958Y-117228019D01*
X142693237Y-117365418D01*
X142570327Y-117528178D01*
X142479422Y-117710739D01*
X142479417Y-117710752D01*
X142423602Y-117906917D01*
X142404785Y-118109999D01*
X142404785Y-118110000D01*
X142423602Y-118313082D01*
X142479417Y-118509247D01*
X142479422Y-118509260D01*
X142570328Y-118691824D01*
X142637500Y-118780774D01*
X142662192Y-118846135D01*
X142647627Y-118914469D01*
X142598429Y-118964082D01*
X142538546Y-118979500D01*
X141941454Y-118979500D01*
X141874415Y-118959815D01*
X141828660Y-118907011D01*
X141818716Y-118837853D01*
X141842500Y-118780774D01*
X141909671Y-118691824D01*
X141909671Y-118691822D01*
X141909673Y-118691821D01*
X142000582Y-118509250D01*
X142056397Y-118313083D01*
X142075215Y-118110000D01*
X142069393Y-118047174D01*
X142056397Y-117906917D01*
X142045438Y-117868400D01*
X142000582Y-117710750D01*
X141909673Y-117528179D01*
X141808152Y-117393743D01*
X141786762Y-117365418D01*
X141636041Y-117228019D01*
X141636039Y-117228017D01*
X141462642Y-117120655D01*
X141462639Y-117120653D01*
X141462637Y-117120652D01*
X141462636Y-117120651D01*
X141462635Y-117120651D01*
X141323473Y-117066740D01*
X141272456Y-117046976D01*
X141071976Y-117009500D01*
X140868024Y-117009500D01*
X140667544Y-117046976D01*
X140667541Y-117046976D01*
X140667541Y-117046977D01*
X140477364Y-117120651D01*
X140477357Y-117120655D01*
X140303960Y-117228017D01*
X140303958Y-117228019D01*
X140153237Y-117365418D01*
X140030327Y-117528178D01*
X139939422Y-117710739D01*
X139939417Y-117710752D01*
X139883602Y-117906917D01*
X139864785Y-118109999D01*
X139864785Y-118110000D01*
X139883602Y-118313082D01*
X139939417Y-118509247D01*
X139939422Y-118509260D01*
X140030328Y-118691824D01*
X140097500Y-118780774D01*
X140122192Y-118846135D01*
X140107627Y-118914469D01*
X140058429Y-118964082D01*
X139998546Y-118979500D01*
X139401454Y-118979500D01*
X139334415Y-118959815D01*
X139288660Y-118907011D01*
X139278716Y-118837853D01*
X139302500Y-118780774D01*
X139369671Y-118691824D01*
X139369671Y-118691822D01*
X139369673Y-118691821D01*
X139460582Y-118509250D01*
X139516397Y-118313083D01*
X139535215Y-118110000D01*
X139529393Y-118047174D01*
X139516397Y-117906917D01*
X139505438Y-117868400D01*
X139460582Y-117710750D01*
X139369673Y-117528179D01*
X139268152Y-117393743D01*
X139246762Y-117365418D01*
X139096041Y-117228019D01*
X139096039Y-117228017D01*
X138922642Y-117120655D01*
X138922639Y-117120653D01*
X138922637Y-117120652D01*
X138922636Y-117120651D01*
X138922635Y-117120651D01*
X138783473Y-117066740D01*
X138732456Y-117046976D01*
X138531976Y-117009500D01*
X138328024Y-117009500D01*
X138127544Y-117046976D01*
X138127541Y-117046976D01*
X138127541Y-117046977D01*
X137937364Y-117120651D01*
X137937357Y-117120655D01*
X137763960Y-117228017D01*
X137763958Y-117228019D01*
X137613237Y-117365418D01*
X137490327Y-117528178D01*
X137399422Y-117710739D01*
X137399417Y-117710752D01*
X137343602Y-117906917D01*
X137324785Y-118109999D01*
X137324785Y-118110000D01*
X137343602Y-118313082D01*
X137399417Y-118509247D01*
X137399422Y-118509260D01*
X137490328Y-118691824D01*
X137557500Y-118780774D01*
X137582192Y-118846135D01*
X137567627Y-118914469D01*
X137518429Y-118964082D01*
X137458546Y-118979500D01*
X136861454Y-118979500D01*
X136794415Y-118959815D01*
X136748660Y-118907011D01*
X136738716Y-118837853D01*
X136762500Y-118780774D01*
X136829671Y-118691824D01*
X136829671Y-118691822D01*
X136829673Y-118691821D01*
X136920582Y-118509250D01*
X136976397Y-118313083D01*
X136995215Y-118110000D01*
X136989393Y-118047174D01*
X136976397Y-117906917D01*
X136965438Y-117868400D01*
X136920582Y-117710750D01*
X136829673Y-117528179D01*
X136728152Y-117393743D01*
X136706762Y-117365418D01*
X136556041Y-117228019D01*
X136556039Y-117228017D01*
X136382642Y-117120655D01*
X136382639Y-117120653D01*
X136382637Y-117120652D01*
X136382636Y-117120651D01*
X136382635Y-117120651D01*
X136243473Y-117066740D01*
X136192456Y-117046976D01*
X135991976Y-117009500D01*
X135788024Y-117009500D01*
X135587544Y-117046976D01*
X135587541Y-117046976D01*
X135587541Y-117046977D01*
X135397364Y-117120651D01*
X135397357Y-117120655D01*
X135223960Y-117228017D01*
X135223958Y-117228019D01*
X135073237Y-117365418D01*
X134950327Y-117528178D01*
X134859422Y-117710739D01*
X134859417Y-117710752D01*
X134803602Y-117906917D01*
X134784785Y-118109999D01*
X134784785Y-118110000D01*
X134803602Y-118313082D01*
X134859417Y-118509247D01*
X134859422Y-118509260D01*
X134950328Y-118691824D01*
X135017500Y-118780774D01*
X135042192Y-118846135D01*
X135027627Y-118914469D01*
X134978429Y-118964082D01*
X134918546Y-118979500D01*
X134321454Y-118979500D01*
X134254415Y-118959815D01*
X134208660Y-118907011D01*
X134198716Y-118837853D01*
X134222500Y-118780774D01*
X134289671Y-118691824D01*
X134289671Y-118691822D01*
X134289673Y-118691821D01*
X134380582Y-118509250D01*
X134436397Y-118313083D01*
X134455215Y-118110000D01*
X134449393Y-118047174D01*
X134436397Y-117906917D01*
X134425438Y-117868400D01*
X134380582Y-117710750D01*
X134289673Y-117528179D01*
X134188152Y-117393743D01*
X134166762Y-117365418D01*
X134016041Y-117228019D01*
X134016039Y-117228017D01*
X133842642Y-117120655D01*
X133842639Y-117120653D01*
X133842637Y-117120652D01*
X133842636Y-117120651D01*
X133842635Y-117120651D01*
X133703473Y-117066740D01*
X133652456Y-117046976D01*
X133451976Y-117009500D01*
X133248024Y-117009500D01*
X133047544Y-117046976D01*
X133047541Y-117046976D01*
X133047541Y-117046977D01*
X132857364Y-117120651D01*
X132857357Y-117120655D01*
X132683960Y-117228017D01*
X132683958Y-117228019D01*
X132533237Y-117365418D01*
X132410327Y-117528178D01*
X132319422Y-117710739D01*
X132319417Y-117710752D01*
X132263602Y-117906917D01*
X132244785Y-118109999D01*
X132244785Y-118110000D01*
X132263602Y-118313082D01*
X132319417Y-118509247D01*
X132319422Y-118509260D01*
X132410328Y-118691824D01*
X132477500Y-118780774D01*
X132502192Y-118846135D01*
X132487627Y-118914469D01*
X132438429Y-118964082D01*
X132378546Y-118979500D01*
X131781454Y-118979500D01*
X131714415Y-118959815D01*
X131668660Y-118907011D01*
X131658716Y-118837853D01*
X131682500Y-118780774D01*
X131749671Y-118691824D01*
X131749671Y-118691822D01*
X131749673Y-118691821D01*
X131840582Y-118509250D01*
X131896397Y-118313083D01*
X131915215Y-118110000D01*
X131909393Y-118047174D01*
X131896397Y-117906917D01*
X131885438Y-117868400D01*
X131840582Y-117710750D01*
X131749673Y-117528179D01*
X131648152Y-117393743D01*
X131626762Y-117365418D01*
X131476041Y-117228019D01*
X131476039Y-117228017D01*
X131302642Y-117120655D01*
X131302639Y-117120653D01*
X131302637Y-117120652D01*
X131302636Y-117120651D01*
X131302635Y-117120651D01*
X131163473Y-117066740D01*
X131112456Y-117046976D01*
X130911976Y-117009500D01*
X130708024Y-117009500D01*
X130507544Y-117046976D01*
X130507541Y-117046976D01*
X130507541Y-117046977D01*
X130317364Y-117120651D01*
X130317357Y-117120655D01*
X130143960Y-117228017D01*
X130143958Y-117228019D01*
X129993237Y-117365418D01*
X129870327Y-117528178D01*
X129779422Y-117710739D01*
X129779417Y-117710752D01*
X129723602Y-117906917D01*
X129704785Y-118109999D01*
X129704785Y-118110000D01*
X129723602Y-118313082D01*
X129779417Y-118509247D01*
X129779422Y-118509260D01*
X129870328Y-118691824D01*
X129937500Y-118780774D01*
X129962192Y-118846135D01*
X129947627Y-118914469D01*
X129898429Y-118964082D01*
X129838546Y-118979500D01*
X129240827Y-118979500D01*
X129173788Y-118959815D01*
X129128033Y-118907011D01*
X129118089Y-118837853D01*
X129141873Y-118780774D01*
X129209244Y-118691559D01*
X129300113Y-118509069D01*
X129300116Y-118509063D01*
X129355902Y-118312992D01*
X129355903Y-118312989D01*
X129374713Y-118110000D01*
X129374713Y-118109999D01*
X129355903Y-117907010D01*
X129355902Y-117907007D01*
X129300116Y-117710936D01*
X129300113Y-117710930D01*
X129266633Y-117643694D01*
X128770000Y-118140327D01*
X128770000Y-118038111D01*
X128729493Y-117900156D01*
X128651761Y-117779202D01*
X128543100Y-117685048D01*
X128412315Y-117625320D01*
X128305763Y-117610000D01*
X128234237Y-117610000D01*
X128127685Y-117625320D01*
X127996900Y-117685048D01*
X127888239Y-117779202D01*
X127810507Y-117900156D01*
X127770000Y-118038111D01*
X127770000Y-118140329D01*
X127273365Y-117643694D01*
X127239888Y-117710927D01*
X127239881Y-117710943D01*
X127184097Y-117907007D01*
X127184096Y-117907010D01*
X127165287Y-118109999D01*
X127165287Y-118110000D01*
X127184096Y-118312989D01*
X127184097Y-118312992D01*
X127239883Y-118509063D01*
X127239886Y-118509069D01*
X127330755Y-118691559D01*
X127398127Y-118780774D01*
X127422819Y-118846135D01*
X127408254Y-118914470D01*
X127359056Y-118964082D01*
X127299173Y-118979500D01*
X126701454Y-118979500D01*
X126634415Y-118959815D01*
X126588660Y-118907011D01*
X126578716Y-118837853D01*
X126602500Y-118780774D01*
X126669671Y-118691824D01*
X126669671Y-118691822D01*
X126669673Y-118691821D01*
X126760582Y-118509250D01*
X126816397Y-118313083D01*
X126835215Y-118110000D01*
X126829393Y-118047174D01*
X126816397Y-117906917D01*
X126805438Y-117868400D01*
X126760582Y-117710750D01*
X126669673Y-117528179D01*
X126568152Y-117393743D01*
X126546762Y-117365418D01*
X126396041Y-117228019D01*
X126396039Y-117228017D01*
X126222642Y-117120655D01*
X126222639Y-117120653D01*
X126222637Y-117120652D01*
X126222636Y-117120651D01*
X126222635Y-117120651D01*
X126199400Y-117111650D01*
X127801980Y-117111650D01*
X128270000Y-117579670D01*
X128270001Y-117579670D01*
X128738018Y-117111650D01*
X128738018Y-117111649D01*
X128572323Y-117047460D01*
X128572320Y-117047459D01*
X128371928Y-117010000D01*
X128168072Y-117010000D01*
X127967679Y-117047459D01*
X127967676Y-117047460D01*
X127801980Y-117111649D01*
X127801980Y-117111650D01*
X126199400Y-117111650D01*
X126083473Y-117066740D01*
X126032456Y-117046976D01*
X125831976Y-117009500D01*
X125628024Y-117009500D01*
X125427544Y-117046976D01*
X125427541Y-117046976D01*
X125427541Y-117046977D01*
X125237364Y-117120651D01*
X125237357Y-117120655D01*
X125063960Y-117228017D01*
X125063958Y-117228019D01*
X124913237Y-117365418D01*
X124790327Y-117528178D01*
X124699422Y-117710739D01*
X124699417Y-117710752D01*
X124643602Y-117906917D01*
X124624785Y-118109999D01*
X124624785Y-118110000D01*
X124643602Y-118313082D01*
X124699417Y-118509247D01*
X124699422Y-118509260D01*
X124790328Y-118691824D01*
X124857500Y-118780774D01*
X124882192Y-118846135D01*
X124867627Y-118914469D01*
X124818429Y-118964082D01*
X124758546Y-118979500D01*
X124161454Y-118979500D01*
X124094415Y-118959815D01*
X124048660Y-118907011D01*
X124038716Y-118837853D01*
X124062500Y-118780774D01*
X124129671Y-118691824D01*
X124129671Y-118691822D01*
X124129673Y-118691821D01*
X124220582Y-118509250D01*
X124276397Y-118313083D01*
X124295215Y-118110000D01*
X124289393Y-118047174D01*
X124276397Y-117906917D01*
X124265438Y-117868400D01*
X124220582Y-117710750D01*
X124129673Y-117528179D01*
X124028152Y-117393743D01*
X124006762Y-117365418D01*
X123856041Y-117228019D01*
X123856039Y-117228017D01*
X123682642Y-117120655D01*
X123682639Y-117120653D01*
X123682637Y-117120652D01*
X123682636Y-117120651D01*
X123682635Y-117120651D01*
X123543473Y-117066740D01*
X123492456Y-117046976D01*
X123291976Y-117009500D01*
X123088024Y-117009500D01*
X122887544Y-117046976D01*
X122887541Y-117046976D01*
X122887541Y-117046977D01*
X122697364Y-117120651D01*
X122697357Y-117120655D01*
X122523960Y-117228017D01*
X122523958Y-117228019D01*
X122373237Y-117365418D01*
X122250327Y-117528178D01*
X122159422Y-117710739D01*
X122159417Y-117710752D01*
X122103602Y-117906917D01*
X122084785Y-118109999D01*
X122084785Y-118110000D01*
X122103602Y-118313082D01*
X122159417Y-118509247D01*
X122159422Y-118509260D01*
X122250328Y-118691824D01*
X122317500Y-118780774D01*
X122342192Y-118846135D01*
X122327627Y-118914469D01*
X122278429Y-118964082D01*
X122218546Y-118979500D01*
X121621454Y-118979500D01*
X121554415Y-118959815D01*
X121508660Y-118907011D01*
X121498716Y-118837853D01*
X121522500Y-118780774D01*
X121589671Y-118691824D01*
X121589671Y-118691822D01*
X121589673Y-118691821D01*
X121680582Y-118509250D01*
X121736397Y-118313083D01*
X121755215Y-118110000D01*
X121749393Y-118047174D01*
X121736397Y-117906917D01*
X121725438Y-117868400D01*
X121680582Y-117710750D01*
X121589673Y-117528179D01*
X121488152Y-117393743D01*
X121466762Y-117365418D01*
X121316041Y-117228019D01*
X121316039Y-117228017D01*
X121142642Y-117120655D01*
X121142639Y-117120653D01*
X121142637Y-117120652D01*
X121142636Y-117120651D01*
X121142635Y-117120651D01*
X121003473Y-117066740D01*
X120952456Y-117046976D01*
X120751976Y-117009500D01*
X120548024Y-117009500D01*
X120347544Y-117046976D01*
X120347541Y-117046976D01*
X120347541Y-117046977D01*
X120157364Y-117120651D01*
X120157357Y-117120655D01*
X119983960Y-117228017D01*
X119983958Y-117228019D01*
X119833237Y-117365418D01*
X119710327Y-117528178D01*
X119619422Y-117710739D01*
X119619417Y-117710752D01*
X119563602Y-117906917D01*
X119544785Y-118109999D01*
X119544785Y-118110000D01*
X119563602Y-118313082D01*
X119619417Y-118509247D01*
X119619422Y-118509260D01*
X119710328Y-118691824D01*
X119777500Y-118780774D01*
X119802192Y-118846135D01*
X119787627Y-118914469D01*
X119738429Y-118964082D01*
X119678546Y-118979500D01*
X116844052Y-118979500D01*
X116835942Y-118979234D01*
X116568849Y-118961727D01*
X116552768Y-118959610D01*
X116294227Y-118908183D01*
X116278559Y-118903985D01*
X116028947Y-118819253D01*
X116013962Y-118813046D01*
X115777539Y-118696455D01*
X115763492Y-118688345D01*
X115544312Y-118541894D01*
X115531444Y-118532020D01*
X115519458Y-118521509D01*
X115427425Y-118440798D01*
X115333255Y-118358213D01*
X115321786Y-118346744D01*
X115147979Y-118148555D01*
X115138105Y-118135687D01*
X115122687Y-118112613D01*
X114991654Y-117916507D01*
X114983544Y-117902460D01*
X114866953Y-117666037D01*
X114860749Y-117651059D01*
X114776011Y-117401429D01*
X114771816Y-117385772D01*
X114770778Y-117380556D01*
X114720388Y-117127226D01*
X114718273Y-117111170D01*
X114700764Y-116844028D01*
X114700633Y-116840004D01*
X115014395Y-116840004D01*
X115034783Y-117112082D01*
X115034783Y-117112084D01*
X115074012Y-117283957D01*
X115095502Y-117378107D01*
X115195187Y-117632100D01*
X115331614Y-117868400D01*
X115501737Y-118081727D01*
X115701754Y-118267315D01*
X115927198Y-118421020D01*
X116173032Y-118539408D01*
X116433765Y-118619833D01*
X116433766Y-118619833D01*
X116433769Y-118619834D01*
X116703564Y-118660499D01*
X116703569Y-118660499D01*
X116703572Y-118660500D01*
X116703573Y-118660500D01*
X116976427Y-118660500D01*
X116976428Y-118660500D01*
X116976435Y-118660499D01*
X117246230Y-118619834D01*
X117246231Y-118619833D01*
X117246235Y-118619833D01*
X117506968Y-118539408D01*
X117752803Y-118421020D01*
X117978246Y-118267315D01*
X118178263Y-118081727D01*
X118348386Y-117868400D01*
X118484813Y-117632100D01*
X118584498Y-117378107D01*
X118645215Y-117112092D01*
X118645286Y-117111150D01*
X118665605Y-116840004D01*
X118665605Y-116839995D01*
X118645216Y-116567917D01*
X118645216Y-116567915D01*
X118645215Y-116567911D01*
X118645215Y-116567908D01*
X118584498Y-116301893D01*
X118484813Y-116047900D01*
X118348386Y-115811600D01*
X118178263Y-115598273D01*
X117978246Y-115412685D01*
X117752803Y-115258980D01*
X117752797Y-115258977D01*
X117752796Y-115258976D01*
X117752794Y-115258975D01*
X117506970Y-115140593D01*
X117506972Y-115140593D01*
X117246236Y-115060167D01*
X117246230Y-115060165D01*
X116976435Y-115019500D01*
X116976428Y-115019500D01*
X116703572Y-115019500D01*
X116703564Y-115019500D01*
X116433769Y-115060165D01*
X116433763Y-115060167D01*
X116173031Y-115140592D01*
X115927202Y-115258977D01*
X115701753Y-115412685D01*
X115501739Y-115598271D01*
X115501737Y-115598273D01*
X115331614Y-115811600D01*
X115195187Y-116047899D01*
X115095504Y-116301887D01*
X115095499Y-116301904D01*
X115034783Y-116567915D01*
X115034783Y-116567917D01*
X115014395Y-116839995D01*
X115014395Y-116840004D01*
X114700633Y-116840004D01*
X114700500Y-116835948D01*
X114700500Y-112813500D01*
X119091520Y-112813500D01*
X119109829Y-112964291D01*
X119163693Y-113106319D01*
X119249982Y-113231330D01*
X119363680Y-113332057D01*
X119498180Y-113402648D01*
X119571922Y-113420824D01*
X119645664Y-113439000D01*
X119645665Y-113439000D01*
X119797564Y-113439000D01*
X119945044Y-113402649D01*
X119945044Y-113402648D01*
X119945048Y-113402648D01*
X120075521Y-113334170D01*
X120144027Y-113320446D01*
X120209080Y-113345939D01*
X120228993Y-113366976D01*
X120229353Y-113366658D01*
X120234326Y-113372271D01*
X120234327Y-113372272D01*
X120246484Y-113383042D01*
X120277645Y-113410648D01*
X120314772Y-113469837D01*
X120317036Y-113527653D01*
X120312592Y-113550000D01*
X120312592Y-115050000D01*
X120312592Y-115050002D01*
X120312591Y-115050002D01*
X120332033Y-115147738D01*
X120332033Y-115147739D01*
X120332034Y-115147740D01*
X120387399Y-115230601D01*
X120470260Y-115285966D01*
X120494695Y-115290826D01*
X120567997Y-115305408D01*
X120568000Y-115305408D01*
X120933706Y-115305408D01*
X121000745Y-115325093D01*
X121046500Y-115377897D01*
X121056444Y-115447055D01*
X121044661Y-115484771D01*
X121026528Y-115521112D01*
X121024510Y-115524531D01*
X121024556Y-115524555D01*
X121020293Y-115532677D01*
X121016958Y-115540291D01*
X121009505Y-115555232D01*
X121005732Y-115563130D01*
X121005408Y-115563839D01*
X121001994Y-115571653D01*
X120999768Y-115582701D01*
X120994155Y-115602173D01*
X120967214Y-115673210D01*
X120967214Y-115673212D01*
X120960889Y-115725307D01*
X120948906Y-115824000D01*
X120967215Y-115974791D01*
X121021079Y-116116819D01*
X121107368Y-116241830D01*
X121221066Y-116342557D01*
X121355566Y-116413148D01*
X121429308Y-116431324D01*
X121503050Y-116449500D01*
X121503051Y-116449500D01*
X121654950Y-116449500D01*
X121704110Y-116437382D01*
X121802434Y-116413148D01*
X121936934Y-116342557D01*
X122050632Y-116241830D01*
X122136921Y-116116819D01*
X122190785Y-115974791D01*
X122209094Y-115824000D01*
X122190785Y-115673209D01*
X122156883Y-115583818D01*
X122153210Y-115572523D01*
X122148488Y-115555222D01*
X122141054Y-115540322D01*
X122137717Y-115532699D01*
X122136922Y-115531185D01*
X122136921Y-115531181D01*
X122136918Y-115531177D01*
X122133431Y-115524532D01*
X122133477Y-115524507D01*
X122131458Y-115521091D01*
X122080654Y-115419266D01*
X122073436Y-115405820D01*
X122073432Y-115405813D01*
X122073425Y-115405800D01*
X122072742Y-115404614D01*
X122064810Y-115391740D01*
X122000990Y-115294698D01*
X121999117Y-115291761D01*
X121969367Y-115243632D01*
X121957550Y-115218662D01*
X121955439Y-115212507D01*
X121952310Y-115142708D01*
X121958222Y-115124703D01*
X121958793Y-115123329D01*
X121968448Y-115100090D01*
X121968552Y-115000434D01*
X121930512Y-114908325D01*
X121570816Y-114368782D01*
X121550009Y-114302084D01*
X121568564Y-114234723D01*
X121570817Y-114231217D01*
X121585077Y-114209828D01*
X121930512Y-113691675D01*
X121953966Y-113647740D01*
X121973408Y-113550000D01*
X121973408Y-113549997D01*
X121954041Y-113452633D01*
X121960268Y-113383042D01*
X122003131Y-113327864D01*
X122069021Y-113304620D01*
X122075658Y-113304442D01*
X123933398Y-113304442D01*
X124000437Y-113324127D01*
X124021079Y-113340761D01*
X124157441Y-113477123D01*
X124174920Y-113500366D01*
X124175085Y-113500253D01*
X124177745Y-113504121D01*
X124178331Y-113504901D01*
X124178535Y-113505270D01*
X124178540Y-113505278D01*
X124244763Y-113583835D01*
X124261343Y-113609269D01*
X124272287Y-113631641D01*
X124281585Y-113657649D01*
X124294584Y-113712733D01*
X124295336Y-113716133D01*
X124318825Y-113829873D01*
X124322313Y-113844557D01*
X124322680Y-113845920D01*
X124327089Y-113860548D01*
X124375262Y-114004657D01*
X124378151Y-114012833D01*
X124378416Y-114013544D01*
X124381560Y-114021569D01*
X124381562Y-114021573D01*
X124384394Y-114025834D01*
X124397058Y-114050488D01*
X124410079Y-114084819D01*
X124496368Y-114209830D01*
X124610066Y-114310557D01*
X124744566Y-114381148D01*
X124818308Y-114399324D01*
X124892050Y-114417500D01*
X124892051Y-114417500D01*
X125043950Y-114417500D01*
X125093110Y-114405382D01*
X125191434Y-114381148D01*
X125325934Y-114310557D01*
X125439632Y-114209830D01*
X125525921Y-114084819D01*
X125579785Y-113942791D01*
X125598094Y-113792000D01*
X125579785Y-113641209D01*
X125525921Y-113499181D01*
X125439632Y-113374170D01*
X125439630Y-113374167D01*
X125434658Y-113368555D01*
X125436444Y-113366971D01*
X125405493Y-113317631D01*
X125406257Y-113247766D01*
X125436348Y-113200942D01*
X125434658Y-113199445D01*
X125439630Y-113193832D01*
X125439630Y-113193831D01*
X125439632Y-113193830D01*
X125517651Y-113080800D01*
X145699306Y-113080800D01*
X145717615Y-113231591D01*
X145771479Y-113373619D01*
X145857768Y-113498630D01*
X145971466Y-113599357D01*
X146105966Y-113669948D01*
X146179708Y-113688124D01*
X146253450Y-113706300D01*
X146253451Y-113706300D01*
X146405350Y-113706300D01*
X146464668Y-113691679D01*
X146552834Y-113669948D01*
X146566174Y-113662946D01*
X146592915Y-113652651D01*
X146594710Y-113652190D01*
X146729750Y-113587282D01*
X146739640Y-113582261D01*
X146740533Y-113581783D01*
X146750159Y-113576360D01*
X146844768Y-113520324D01*
X146849794Y-113517506D01*
X146897071Y-113492441D01*
X146920901Y-113482823D01*
X146953217Y-113473542D01*
X146978708Y-113469034D01*
X147086496Y-113461434D01*
X147089563Y-113460653D01*
X147091626Y-113460129D01*
X147122201Y-113456300D01*
X150261279Y-113456300D01*
X150293965Y-113460686D01*
X150296695Y-113461432D01*
X150296698Y-113461432D01*
X150296704Y-113461434D01*
X150404484Y-113469034D01*
X150429981Y-113473543D01*
X150462289Y-113482821D01*
X150486132Y-113492443D01*
X150533327Y-113517464D01*
X150538408Y-113520313D01*
X150633050Y-113576365D01*
X150642482Y-113581684D01*
X150642507Y-113581698D01*
X150643342Y-113582146D01*
X150653461Y-113587288D01*
X150670609Y-113595530D01*
X150788490Y-113652190D01*
X150794756Y-113655099D01*
X150795321Y-113655352D01*
X150801385Y-113657973D01*
X150801386Y-113657973D01*
X150801388Y-113657974D01*
X150805970Y-113659408D01*
X150826561Y-113667951D01*
X150830366Y-113669948D01*
X150901941Y-113687589D01*
X150977850Y-113706300D01*
X150977851Y-113706300D01*
X151129750Y-113706300D01*
X151189068Y-113691679D01*
X151277234Y-113669948D01*
X151411734Y-113599357D01*
X151525432Y-113498630D01*
X151611721Y-113373619D01*
X151665585Y-113231591D01*
X151683894Y-113080800D01*
X151665585Y-112930009D01*
X151611721Y-112787981D01*
X151525432Y-112662970D01*
X151411734Y-112562243D01*
X151277234Y-112491652D01*
X151277233Y-112491651D01*
X151277232Y-112491651D01*
X151129750Y-112455300D01*
X151129749Y-112455300D01*
X150977851Y-112455300D01*
X150977850Y-112455300D01*
X150830365Y-112491652D01*
X150817022Y-112498654D01*
X150790316Y-112508938D01*
X150788495Y-112509406D01*
X150653429Y-112574325D01*
X150643769Y-112579223D01*
X150642908Y-112579683D01*
X150633070Y-112585219D01*
X150538440Y-112641265D01*
X150533334Y-112644128D01*
X150486136Y-112669151D01*
X150462283Y-112678778D01*
X150449912Y-112682330D01*
X150429989Y-112688052D01*
X150404489Y-112692562D01*
X150342337Y-112696946D01*
X150296697Y-112700166D01*
X150294979Y-112700603D01*
X150291568Y-112701471D01*
X150260994Y-112705300D01*
X147121925Y-112705300D01*
X147089239Y-112700914D01*
X147086504Y-112700166D01*
X146978712Y-112692563D01*
X146953209Y-112688052D01*
X146920917Y-112678778D01*
X146897064Y-112669152D01*
X146849860Y-112644127D01*
X146844756Y-112641265D01*
X146750141Y-112585229D01*
X146750131Y-112585223D01*
X146740526Y-112579811D01*
X146739643Y-112579338D01*
X146729791Y-112574336D01*
X146594679Y-112509393D01*
X146588305Y-112506439D01*
X146588290Y-112506432D01*
X146588074Y-112506335D01*
X146587696Y-112506166D01*
X146581814Y-112503626D01*
X146577208Y-112502184D01*
X146556635Y-112493647D01*
X146552834Y-112491652D01*
X146552831Y-112491651D01*
X146405350Y-112455300D01*
X146405349Y-112455300D01*
X146253451Y-112455300D01*
X146253450Y-112455300D01*
X146105967Y-112491651D01*
X145971467Y-112562242D01*
X145971466Y-112562243D01*
X145879038Y-112644127D01*
X145857767Y-112662971D01*
X145771480Y-112787979D01*
X145771479Y-112787980D01*
X145764601Y-112806118D01*
X145717615Y-112930009D01*
X145699306Y-113080800D01*
X125517651Y-113080800D01*
X125525921Y-113068819D01*
X125579785Y-112926791D01*
X125598094Y-112776000D01*
X125579785Y-112625209D01*
X125525921Y-112483181D01*
X125439632Y-112358170D01*
X125325934Y-112257443D01*
X125239154Y-112211897D01*
X125221101Y-112200327D01*
X125215192Y-112195774D01*
X125215191Y-112195773D01*
X125078974Y-112128261D01*
X125066780Y-112121332D01*
X125010404Y-112084934D01*
X124970513Y-112059178D01*
X124967050Y-112056981D01*
X124966782Y-112056814D01*
X124966164Y-112056435D01*
X124963351Y-112054712D01*
X124864912Y-111995467D01*
X124864911Y-111995466D01*
X124840086Y-111982326D01*
X124837741Y-111981245D01*
X124811513Y-111970874D01*
X124811501Y-111970870D01*
X124807223Y-111969446D01*
X124692920Y-111931402D01*
X124686696Y-111929736D01*
X124663451Y-111923513D01*
X124663437Y-111923510D01*
X124660750Y-111922960D01*
X124660701Y-111922952D01*
X124630538Y-111918637D01*
X124630523Y-111918635D01*
X124519850Y-111909500D01*
X124509653Y-111908231D01*
X124501869Y-111906932D01*
X124494599Y-111906026D01*
X124491035Y-111906174D01*
X124475733Y-111905859D01*
X124466006Y-111905056D01*
X124455318Y-111904398D01*
X124455102Y-111904389D01*
X124454355Y-111904359D01*
X124443989Y-111904149D01*
X124443988Y-111904149D01*
X124443986Y-111904149D01*
X124435884Y-111905761D01*
X124411693Y-111908144D01*
X120325681Y-111908144D01*
X120300235Y-111905505D01*
X120298084Y-111905054D01*
X120291155Y-111903601D01*
X120291154Y-111903601D01*
X120291153Y-111903601D01*
X120262347Y-111907192D01*
X120248681Y-111908040D01*
X120247435Y-111908143D01*
X120228430Y-111911313D01*
X120223373Y-111912049D01*
X120175077Y-111918070D01*
X120168036Y-111920166D01*
X120161088Y-111922552D01*
X120118282Y-111945716D01*
X120113731Y-111948059D01*
X120069983Y-111969447D01*
X120064036Y-111973691D01*
X120058211Y-111978226D01*
X120037650Y-112000561D01*
X120012927Y-112019964D01*
X120013356Y-112020587D01*
X120008329Y-112024042D01*
X119929774Y-112090265D01*
X119904334Y-112106848D01*
X119881965Y-112117789D01*
X119855965Y-112127084D01*
X119800873Y-112140086D01*
X119797470Y-112140838D01*
X119683763Y-112164320D01*
X119668873Y-112167861D01*
X119667575Y-112168211D01*
X119653074Y-112172586D01*
X119508938Y-112220768D01*
X119505933Y-112221830D01*
X119500678Y-112223404D01*
X119494953Y-112225575D01*
X119494470Y-112225796D01*
X119490371Y-112227931D01*
X119482707Y-112232472D01*
X119363682Y-112294941D01*
X119249981Y-112395671D01*
X119163694Y-112520679D01*
X119163693Y-112520680D01*
X119109829Y-112662708D01*
X119092418Y-112806104D01*
X119091520Y-112813500D01*
X114700500Y-112813500D01*
X114700500Y-109651800D01*
X115930506Y-109651800D01*
X115948815Y-109802591D01*
X116002679Y-109944619D01*
X116088968Y-110069630D01*
X116202666Y-110170357D01*
X116337166Y-110240948D01*
X116410908Y-110259124D01*
X116484650Y-110277300D01*
X116484651Y-110277300D01*
X116636548Y-110277300D01*
X116636549Y-110277300D01*
X116784034Y-110240948D01*
X116800992Y-110232046D01*
X116825982Y-110222214D01*
X116825983Y-110222213D01*
X116829379Y-110221287D01*
X116965333Y-110153453D01*
X116978777Y-110146236D01*
X116979982Y-110145542D01*
X116992859Y-110137609D01*
X117089929Y-110073768D01*
X117092764Y-110071960D01*
X117140973Y-110042161D01*
X117165924Y-110030353D01*
X117189485Y-110022271D01*
X117219190Y-110016010D01*
X117321579Y-110007289D01*
X117324653Y-110006471D01*
X117356543Y-110002300D01*
X117633358Y-110002300D01*
X117662177Y-110006374D01*
X117662212Y-110006188D01*
X117666607Y-110007000D01*
X117667728Y-110007158D01*
X117668197Y-110007294D01*
X117770687Y-110015979D01*
X117800270Y-110022184D01*
X117824055Y-110030304D01*
X117848980Y-110042049D01*
X117897097Y-110071664D01*
X117900032Y-110073529D01*
X117900465Y-110073813D01*
X117997015Y-110137123D01*
X117997806Y-110137609D01*
X118009787Y-110144972D01*
X118010970Y-110145652D01*
X118019874Y-110150424D01*
X118024332Y-110152814D01*
X118057920Y-110169554D01*
X118160223Y-110220542D01*
X118168198Y-110224346D01*
X118168913Y-110224672D01*
X118176554Y-110228006D01*
X118176560Y-110228007D01*
X118180450Y-110229233D01*
X118200817Y-110237705D01*
X118205466Y-110240145D01*
X118316079Y-110267409D01*
X118352950Y-110276497D01*
X118352951Y-110276497D01*
X118504850Y-110276497D01*
X118554010Y-110264379D01*
X118652334Y-110240145D01*
X118786834Y-110169554D01*
X118855186Y-110109000D01*
X144530906Y-110109000D01*
X144549215Y-110259791D01*
X144603079Y-110401819D01*
X144689368Y-110526830D01*
X144803066Y-110627557D01*
X144937566Y-110698148D01*
X145011308Y-110716324D01*
X145085050Y-110734500D01*
X145085051Y-110734500D01*
X145236950Y-110734500D01*
X145286110Y-110722382D01*
X145384434Y-110698148D01*
X145518934Y-110627557D01*
X145632632Y-110526830D01*
X145718921Y-110401819D01*
X145772785Y-110259791D01*
X145791094Y-110109000D01*
X145772785Y-109958209D01*
X145738883Y-109868818D01*
X145735210Y-109857523D01*
X145730488Y-109840222D01*
X145730396Y-109840039D01*
X145723054Y-109825322D01*
X145719717Y-109817699D01*
X145718922Y-109816185D01*
X145718921Y-109816181D01*
X145718918Y-109816177D01*
X145715431Y-109809532D01*
X145715477Y-109809507D01*
X145713458Y-109806091D01*
X145662654Y-109704266D01*
X145655436Y-109690820D01*
X145655432Y-109690813D01*
X145655425Y-109690800D01*
X145654742Y-109689614D01*
X145646810Y-109676740D01*
X145646321Y-109675997D01*
X145600291Y-109606005D01*
X145582990Y-109579698D01*
X145581117Y-109576761D01*
X145569978Y-109558740D01*
X145551366Y-109528630D01*
X145539553Y-109503671D01*
X145531469Y-109480106D01*
X145525210Y-109450404D01*
X145516490Y-109348023D01*
X145515669Y-109344941D01*
X145511500Y-109313056D01*
X145511500Y-109169200D01*
X145927906Y-109169200D01*
X145946215Y-109319991D01*
X146000079Y-109462019D01*
X146086368Y-109587030D01*
X146200066Y-109687757D01*
X146334566Y-109758348D01*
X146408308Y-109776524D01*
X146482050Y-109794700D01*
X146482051Y-109794700D01*
X146633950Y-109794700D01*
X146781431Y-109758349D01*
X146781432Y-109758348D01*
X146781434Y-109758348D01*
X146794979Y-109751238D01*
X146821621Y-109740967D01*
X146823516Y-109740479D01*
X146957389Y-109675987D01*
X146967619Y-109670772D01*
X146968531Y-109670281D01*
X146978226Y-109664786D01*
X147072128Y-109608815D01*
X147077085Y-109606014D01*
X147123594Y-109581123D01*
X147147512Y-109571374D01*
X147178383Y-109562408D01*
X147204134Y-109557803D01*
X147310273Y-109550227D01*
X147312254Y-109549721D01*
X147315288Y-109548948D01*
X147345939Y-109545100D01*
X149141982Y-109545100D01*
X149170029Y-109549293D01*
X149170155Y-109548669D01*
X149176113Y-109549868D01*
X149176121Y-109549871D01*
X149176129Y-109549871D01*
X149176130Y-109549872D01*
X149203253Y-109552609D01*
X149271487Y-109559495D01*
X149305635Y-109567956D01*
X149314059Y-109571373D01*
X149319608Y-109573623D01*
X149345403Y-109587862D01*
X149394032Y-109622836D01*
X149394520Y-109623190D01*
X149493148Y-109695354D01*
X149509325Y-109706267D01*
X149510845Y-109707210D01*
X149523608Y-109714466D01*
X149527861Y-109716884D01*
X149663734Y-109787387D01*
X149673362Y-109792129D01*
X149674239Y-109792539D01*
X149683923Y-109796815D01*
X149683926Y-109796816D01*
X149683933Y-109796819D01*
X149683940Y-109796820D01*
X149687010Y-109797795D01*
X149707132Y-109806191D01*
X149712766Y-109809148D01*
X149778260Y-109825291D01*
X149860250Y-109845500D01*
X149860251Y-109845500D01*
X150012151Y-109845500D01*
X150012151Y-109845499D01*
X150016530Y-109844420D01*
X150019782Y-109843619D01*
X150089584Y-109846686D01*
X150146647Y-109887005D01*
X150172853Y-109951774D01*
X150171015Y-109988511D01*
X150169768Y-109994699D01*
X150164155Y-110014173D01*
X150137214Y-110085210D01*
X150137214Y-110085212D01*
X150126974Y-110169554D01*
X150118906Y-110236000D01*
X150137215Y-110386791D01*
X150191079Y-110528819D01*
X150277368Y-110653830D01*
X150391066Y-110754557D01*
X150525566Y-110825148D01*
X150599308Y-110843324D01*
X150673050Y-110861500D01*
X150673051Y-110861500D01*
X150824950Y-110861500D01*
X150874110Y-110849382D01*
X150972434Y-110825148D01*
X151106934Y-110754557D01*
X151220632Y-110653830D01*
X151306921Y-110528819D01*
X151360785Y-110386791D01*
X151379094Y-110236000D01*
X151360785Y-110085209D01*
X151326883Y-109995818D01*
X151323210Y-109984523D01*
X151318488Y-109967222D01*
X151318396Y-109967039D01*
X151311054Y-109952322D01*
X151307717Y-109944699D01*
X151306922Y-109943185D01*
X151306921Y-109943181D01*
X151306918Y-109943177D01*
X151303431Y-109936532D01*
X151303477Y-109936507D01*
X151301458Y-109933091D01*
X151250654Y-109831266D01*
X151243436Y-109817820D01*
X151243432Y-109817813D01*
X151243425Y-109817800D01*
X151242742Y-109816614D01*
X151234810Y-109803740D01*
X151234054Y-109802591D01*
X151191942Y-109738557D01*
X151170990Y-109706698D01*
X151169117Y-109703761D01*
X151161118Y-109690820D01*
X151139366Y-109655630D01*
X151127553Y-109630672D01*
X151119469Y-109607106D01*
X151113210Y-109577404D01*
X151104490Y-109475023D01*
X151103669Y-109471941D01*
X151099500Y-109440056D01*
X151099500Y-109079359D01*
X151102139Y-109053912D01*
X151104043Y-109044833D01*
X151100452Y-109016025D01*
X151099602Y-109002340D01*
X151099501Y-109001118D01*
X151099500Y-109001112D01*
X151099500Y-109001108D01*
X151096330Y-108982114D01*
X151095595Y-108977066D01*
X151089573Y-108928755D01*
X151087475Y-108921709D01*
X151085092Y-108914767D01*
X151061925Y-108871958D01*
X151059580Y-108867401D01*
X151038200Y-108823669D01*
X151038199Y-108823668D01*
X151038198Y-108823665D01*
X151038195Y-108823662D01*
X151033929Y-108817686D01*
X151029420Y-108811894D01*
X151029418Y-108811890D01*
X150993588Y-108778906D01*
X150989891Y-108775358D01*
X150800954Y-108586421D01*
X150783471Y-108563170D01*
X150783306Y-108563284D01*
X150780636Y-108559401D01*
X150780057Y-108558630D01*
X150779856Y-108558265D01*
X150713630Y-108479706D01*
X150697050Y-108454272D01*
X150686103Y-108431893D01*
X150676808Y-108405892D01*
X150663814Y-108350835D01*
X150663075Y-108347501D01*
X150639569Y-108233675D01*
X150636044Y-108218854D01*
X150635682Y-108217511D01*
X150631307Y-108203006D01*
X150583140Y-108058911D01*
X150583127Y-108058872D01*
X150580312Y-108050899D01*
X150580309Y-108050893D01*
X150580290Y-108050837D01*
X150580014Y-108050095D01*
X150576834Y-108041973D01*
X150574010Y-108037725D01*
X150561335Y-108013051D01*
X150548318Y-107978726D01*
X150462029Y-107853715D01*
X150348331Y-107752988D01*
X150213831Y-107682397D01*
X150213830Y-107682396D01*
X150213829Y-107682396D01*
X150165971Y-107670600D01*
X152100106Y-107670600D01*
X152118415Y-107821391D01*
X152172279Y-107963419D01*
X152258568Y-108088430D01*
X152372266Y-108189157D01*
X152506766Y-108259748D01*
X152580508Y-108277924D01*
X152654250Y-108296100D01*
X152654251Y-108296100D01*
X152806150Y-108296100D01*
X152855310Y-108283982D01*
X152953634Y-108259748D01*
X153088134Y-108189157D01*
X153201832Y-108088430D01*
X153288121Y-107963419D01*
X153341985Y-107821391D01*
X153360294Y-107670600D01*
X153341985Y-107519809D01*
X153308083Y-107430418D01*
X153304410Y-107419123D01*
X153299688Y-107401822D01*
X153292254Y-107386922D01*
X153288917Y-107379299D01*
X153288122Y-107377785D01*
X153288121Y-107377781D01*
X153288118Y-107377777D01*
X153284631Y-107371132D01*
X153284677Y-107371107D01*
X153282658Y-107367691D01*
X153231854Y-107265866D01*
X153224636Y-107252420D01*
X153224632Y-107252413D01*
X153224625Y-107252400D01*
X153223942Y-107251214D01*
X153216010Y-107238340D01*
X153215392Y-107237401D01*
X153178069Y-107180649D01*
X153152190Y-107141298D01*
X153150317Y-107138361D01*
X153133510Y-107111171D01*
X153120566Y-107090230D01*
X153108753Y-107065272D01*
X153100669Y-107041706D01*
X153094410Y-107012004D01*
X153090825Y-106969915D01*
X153090825Y-106948873D01*
X153094409Y-106906789D01*
X153100670Y-106877084D01*
X153108753Y-106853523D01*
X153120560Y-106828574D01*
X153150362Y-106780360D01*
X153152187Y-106777502D01*
X153216009Y-106680459D01*
X153223942Y-106667582D01*
X153224636Y-106666377D01*
X153231853Y-106652933D01*
X153282659Y-106551106D01*
X153284676Y-106547692D01*
X153284631Y-106547669D01*
X153288115Y-106541027D01*
X153288121Y-106541019D01*
X153288124Y-106541009D01*
X153288916Y-106539501D01*
X153292256Y-106531869D01*
X153299687Y-106516979D01*
X153303453Y-106509096D01*
X153303782Y-106508376D01*
X153307204Y-106500543D01*
X153309426Y-106489508D01*
X153315036Y-106470044D01*
X153341985Y-106398991D01*
X153360294Y-106248200D01*
X153341985Y-106097409D01*
X153288121Y-105955381D01*
X153201832Y-105830370D01*
X153088134Y-105729643D01*
X152953634Y-105659052D01*
X152953633Y-105659051D01*
X152953632Y-105659051D01*
X152806150Y-105622700D01*
X152806149Y-105622700D01*
X152654251Y-105622700D01*
X152654250Y-105622700D01*
X152506767Y-105659051D01*
X152372267Y-105729642D01*
X152258567Y-105830371D01*
X152172280Y-105955379D01*
X152172279Y-105955380D01*
X152118415Y-106097408D01*
X152100106Y-106248200D01*
X152118415Y-106398991D01*
X152152303Y-106488346D01*
X152155985Y-106499667D01*
X152160707Y-106516969D01*
X152160708Y-106516971D01*
X152160709Y-106516974D01*
X152164182Y-106523934D01*
X152168147Y-106531881D01*
X152171483Y-106539502D01*
X152175765Y-106547661D01*
X152175718Y-106547685D01*
X152177736Y-106551102D01*
X152228541Y-106652927D01*
X152228548Y-106652940D01*
X152228554Y-106652952D01*
X152235708Y-106666285D01*
X152236398Y-106667485D01*
X152244399Y-106680477D01*
X152308221Y-106777521D01*
X152310085Y-106780442D01*
X152339834Y-106828570D01*
X152351644Y-106853525D01*
X152359725Y-106877082D01*
X152365988Y-106906793D01*
X152369572Y-106948876D01*
X152369572Y-106969922D01*
X152365988Y-107012000D01*
X152359725Y-107041714D01*
X152351643Y-107065272D01*
X152339830Y-107090231D01*
X152310098Y-107138332D01*
X152308225Y-107141269D01*
X152252691Y-107225711D01*
X152245808Y-107236179D01*
X152244374Y-107238359D01*
X152236347Y-107251398D01*
X152235674Y-107252568D01*
X152228536Y-107265879D01*
X152177728Y-107367710D01*
X152175710Y-107371130D01*
X152175756Y-107371155D01*
X152171493Y-107379277D01*
X152168158Y-107386891D01*
X152160705Y-107401832D01*
X152156932Y-107409730D01*
X152156608Y-107410439D01*
X152153194Y-107418253D01*
X152150968Y-107429301D01*
X152145355Y-107448773D01*
X152118414Y-107519810D01*
X152118414Y-107519812D01*
X152104988Y-107630394D01*
X152100106Y-107670600D01*
X150165971Y-107670600D01*
X150066347Y-107646045D01*
X150066346Y-107646045D01*
X149914448Y-107646045D01*
X149914447Y-107646045D01*
X149766961Y-107682397D01*
X149766960Y-107682397D01*
X149759124Y-107686510D01*
X149736326Y-107694982D01*
X149736429Y-107695286D01*
X149730660Y-107697239D01*
X149730656Y-107697240D01*
X149730655Y-107697241D01*
X149690063Y-107715593D01*
X149599853Y-107756378D01*
X149596282Y-107758027D01*
X149596028Y-107758147D01*
X149591824Y-107760176D01*
X149503903Y-107803602D01*
X149495037Y-107807557D01*
X149451100Y-107825129D01*
X149429604Y-107831540D01*
X149384749Y-107840600D01*
X149366046Y-107842917D01*
X149252932Y-107848256D01*
X149247995Y-107849422D01*
X149244765Y-107850184D01*
X149216281Y-107853500D01*
X147353807Y-107853500D01*
X147325017Y-107849422D01*
X147324981Y-107849621D01*
X147320308Y-107848755D01*
X147319377Y-107848624D01*
X147318986Y-107848511D01*
X147318979Y-107848509D01*
X147216594Y-107839787D01*
X147186880Y-107833524D01*
X147163326Y-107825443D01*
X147138369Y-107813631D01*
X147090232Y-107783877D01*
X147087294Y-107782003D01*
X146990273Y-107718197D01*
X146990257Y-107718187D01*
X146977299Y-107710207D01*
X146977285Y-107710199D01*
X146977277Y-107710194D01*
X146976087Y-107709509D01*
X146962752Y-107702354D01*
X146962740Y-107702348D01*
X146962727Y-107702341D01*
X146894607Y-107668353D01*
X146826739Y-107634491D01*
X146818877Y-107630736D01*
X146818129Y-107630394D01*
X146810340Y-107626992D01*
X146806444Y-107625765D01*
X146786094Y-107617298D01*
X146781434Y-107614852D01*
X146781432Y-107614851D01*
X146781431Y-107614851D01*
X146633950Y-107578500D01*
X146633949Y-107578500D01*
X146482051Y-107578500D01*
X146482050Y-107578500D01*
X146334567Y-107614851D01*
X146200067Y-107685442D01*
X146190524Y-107693896D01*
X146092806Y-107780467D01*
X146086367Y-107786171D01*
X146000080Y-107911179D01*
X146000079Y-107911180D01*
X145946215Y-108053208D01*
X145927906Y-108204000D01*
X145946215Y-108354791D01*
X146000079Y-108496819D01*
X146000080Y-108496820D01*
X146082454Y-108616160D01*
X146104337Y-108682515D01*
X146086872Y-108750166D01*
X146082454Y-108757040D01*
X146000080Y-108876379D01*
X146000079Y-108876380D01*
X145946215Y-109018408D01*
X145932369Y-109132440D01*
X145927906Y-109169200D01*
X145511500Y-109169200D01*
X145511500Y-108324801D01*
X145515578Y-108296003D01*
X145515381Y-108295967D01*
X145516241Y-108291321D01*
X145516376Y-108290371D01*
X145516390Y-108290319D01*
X145516490Y-108289976D01*
X145525209Y-108187589D01*
X145531470Y-108157884D01*
X145539553Y-108134323D01*
X145551360Y-108109374D01*
X145581162Y-108061160D01*
X145582987Y-108058302D01*
X145646809Y-107961259D01*
X145654742Y-107948382D01*
X145655436Y-107947177D01*
X145662653Y-107933733D01*
X145713459Y-107831906D01*
X145715476Y-107828492D01*
X145715431Y-107828469D01*
X145718915Y-107821827D01*
X145718921Y-107821819D01*
X145718924Y-107821809D01*
X145719716Y-107820301D01*
X145723056Y-107812669D01*
X145730487Y-107797779D01*
X145734253Y-107789896D01*
X145734582Y-107789176D01*
X145738004Y-107781343D01*
X145740226Y-107770308D01*
X145745836Y-107750844D01*
X145772785Y-107679791D01*
X145791094Y-107529000D01*
X145772785Y-107378209D01*
X145718921Y-107236181D01*
X145632632Y-107111170D01*
X145518934Y-107010443D01*
X145384434Y-106939852D01*
X145384433Y-106939851D01*
X145384432Y-106939851D01*
X145236950Y-106903500D01*
X145236949Y-106903500D01*
X145085051Y-106903500D01*
X145085050Y-106903500D01*
X144937567Y-106939851D01*
X144803067Y-107010442D01*
X144689367Y-107111171D01*
X144603080Y-107236179D01*
X144603079Y-107236180D01*
X144549215Y-107378208D01*
X144543011Y-107429301D01*
X144530906Y-107529000D01*
X144549215Y-107679791D01*
X144578934Y-107758155D01*
X144583103Y-107769146D01*
X144586785Y-107780467D01*
X144591507Y-107797769D01*
X144591508Y-107797771D01*
X144591509Y-107797774D01*
X144594417Y-107803602D01*
X144598947Y-107812681D01*
X144602283Y-107820302D01*
X144606565Y-107828461D01*
X144606518Y-107828485D01*
X144608536Y-107831902D01*
X144659341Y-107933727D01*
X144659348Y-107933740D01*
X144659354Y-107933752D01*
X144666508Y-107947085D01*
X144667198Y-107948285D01*
X144675199Y-107961277D01*
X144739021Y-108058321D01*
X144740885Y-108061242D01*
X144770634Y-108109370D01*
X144782443Y-108134321D01*
X144790527Y-108157886D01*
X144796787Y-108187590D01*
X144805509Y-108289973D01*
X144805512Y-108289988D01*
X144806328Y-108293054D01*
X144810500Y-108324947D01*
X144810500Y-109313195D01*
X144806423Y-109341987D01*
X144806621Y-109342024D01*
X144805759Y-109346675D01*
X144805626Y-109347620D01*
X144805511Y-109348016D01*
X144805509Y-109348026D01*
X144796788Y-109450398D01*
X144790526Y-109480109D01*
X144782443Y-109503671D01*
X144770630Y-109528631D01*
X144740898Y-109576732D01*
X144739025Y-109579669D01*
X144691588Y-109651800D01*
X144675682Y-109675987D01*
X144675174Y-109676759D01*
X144667147Y-109689798D01*
X144666474Y-109690968D01*
X144659336Y-109704279D01*
X144608528Y-109806110D01*
X144606510Y-109809530D01*
X144606556Y-109809555D01*
X144602293Y-109817677D01*
X144598958Y-109825291D01*
X144591505Y-109840232D01*
X144587732Y-109848130D01*
X144587408Y-109848839D01*
X144583994Y-109856653D01*
X144581768Y-109867701D01*
X144576155Y-109887173D01*
X144549214Y-109958210D01*
X144549214Y-109958212D01*
X144533794Y-110085212D01*
X144530906Y-110109000D01*
X118855186Y-110109000D01*
X118900532Y-110068827D01*
X118986821Y-109943816D01*
X119040685Y-109801788D01*
X119058994Y-109650997D01*
X119040685Y-109500206D01*
X118986821Y-109358178D01*
X118900532Y-109233167D01*
X118786834Y-109132440D01*
X118652334Y-109061849D01*
X118652333Y-109061848D01*
X118652332Y-109061848D01*
X118504850Y-109025497D01*
X118504849Y-109025497D01*
X118352951Y-109025497D01*
X118352950Y-109025497D01*
X118205464Y-109061849D01*
X118188381Y-109070815D01*
X118163480Y-109080622D01*
X118160008Y-109081571D01*
X118024015Y-109149508D01*
X118010480Y-109156788D01*
X118009285Y-109157477D01*
X117996308Y-109165496D01*
X117899198Y-109229584D01*
X117896331Y-109231420D01*
X117848188Y-109261328D01*
X117823193Y-109273219D01*
X117799954Y-109281236D01*
X117770102Y-109287562D01*
X117667959Y-109296314D01*
X117667949Y-109296316D01*
X117664937Y-109297118D01*
X117633009Y-109301300D01*
X117356407Y-109301300D01*
X117327617Y-109297222D01*
X117327581Y-109297421D01*
X117322908Y-109296555D01*
X117321977Y-109296424D01*
X117321586Y-109296311D01*
X117321579Y-109296309D01*
X117219194Y-109287587D01*
X117189480Y-109281324D01*
X117165926Y-109273243D01*
X117140969Y-109261431D01*
X117092832Y-109231677D01*
X117089894Y-109229803D01*
X116992873Y-109165997D01*
X116992066Y-109165500D01*
X116979899Y-109158007D01*
X116979885Y-109157999D01*
X116979877Y-109157994D01*
X116978687Y-109157309D01*
X116965352Y-109150154D01*
X116965340Y-109150148D01*
X116965327Y-109150141D01*
X116897207Y-109116153D01*
X116829339Y-109082291D01*
X116821477Y-109078536D01*
X116820729Y-109078194D01*
X116812940Y-109074792D01*
X116809044Y-109073565D01*
X116788694Y-109065098D01*
X116784034Y-109062652D01*
X116784032Y-109062651D01*
X116784031Y-109062651D01*
X116636550Y-109026300D01*
X116636549Y-109026300D01*
X116484651Y-109026300D01*
X116484650Y-109026300D01*
X116337167Y-109062651D01*
X116202667Y-109133242D01*
X116202666Y-109133243D01*
X116089875Y-109233167D01*
X116088967Y-109233971D01*
X116002680Y-109358979D01*
X116002679Y-109358980D01*
X115948815Y-109501008D01*
X115930506Y-109651800D01*
X114700500Y-109651800D01*
X114700500Y-107083400D01*
X114720185Y-107016361D01*
X114772989Y-106970606D01*
X114824500Y-106959400D01*
X116967000Y-106959400D01*
X116967000Y-106255444D01*
X116986685Y-106188405D01*
X117039489Y-106142650D01*
X117091000Y-106131444D01*
X117120640Y-106131444D01*
X117136062Y-106132407D01*
X117155865Y-106134889D01*
X117286778Y-106125491D01*
X117297355Y-106124510D01*
X117298331Y-106124399D01*
X117298342Y-106124397D01*
X117298364Y-106124395D01*
X117304026Y-106123628D01*
X117309071Y-106122947D01*
X117383792Y-106111220D01*
X117453072Y-106120273D01*
X117479994Y-106136508D01*
X117503896Y-106155436D01*
X117503898Y-106155437D01*
X117508231Y-106158314D01*
X117507941Y-106158750D01*
X117530499Y-106175681D01*
X118354941Y-107000123D01*
X118372420Y-107023366D01*
X118372585Y-107023253D01*
X118375245Y-107027121D01*
X118375831Y-107027901D01*
X118376035Y-107028270D01*
X118376040Y-107028278D01*
X118442263Y-107106835D01*
X118458843Y-107132269D01*
X118469787Y-107154641D01*
X118479085Y-107180649D01*
X118492084Y-107235733D01*
X118492836Y-107239133D01*
X118516325Y-107352873D01*
X118519813Y-107367557D01*
X118520180Y-107368920D01*
X118524589Y-107383548D01*
X118572762Y-107527657D01*
X118575651Y-107535833D01*
X118575916Y-107536544D01*
X118579060Y-107544569D01*
X118579062Y-107544573D01*
X118581894Y-107548834D01*
X118594558Y-107573488D01*
X118596459Y-107578500D01*
X118607579Y-107607819D01*
X118693868Y-107732830D01*
X118807566Y-107833557D01*
X118942066Y-107904148D01*
X118970592Y-107911179D01*
X119089550Y-107940500D01*
X119089551Y-107940500D01*
X119241450Y-107940500D01*
X119290610Y-107928382D01*
X119388934Y-107904148D01*
X119523434Y-107833557D01*
X119637132Y-107732830D01*
X119723421Y-107607819D01*
X119777285Y-107465791D01*
X119795594Y-107315000D01*
X119777285Y-107164209D01*
X119723421Y-107022181D01*
X119637132Y-106897170D01*
X119523434Y-106796443D01*
X119388934Y-106725852D01*
X119388932Y-106725851D01*
X119383979Y-106723973D01*
X119383909Y-106724186D01*
X119234027Y-106674083D01*
X119219483Y-106669698D01*
X119218151Y-106669339D01*
X119212233Y-106667932D01*
X119203372Y-106665826D01*
X119089627Y-106642335D01*
X119086229Y-106641584D01*
X119031140Y-106628582D01*
X119005140Y-106619287D01*
X118982778Y-106608349D01*
X118957339Y-106591767D01*
X118878776Y-106525538D01*
X118876009Y-106523934D01*
X118850522Y-106504340D01*
X118018498Y-105672316D01*
X117998794Y-105646639D01*
X117996967Y-105643475D01*
X117996966Y-105643473D01*
X117968234Y-105610713D01*
X117906615Y-105540455D01*
X117895189Y-105525207D01*
X117851032Y-105455732D01*
X117845974Y-105447009D01*
X117801507Y-105362595D01*
X117801486Y-105362555D01*
X117796370Y-105353310D01*
X117795892Y-105352487D01*
X117790582Y-105343754D01*
X117764400Y-105302563D01*
X117723183Y-105237714D01*
X117712055Y-105221607D01*
X117710963Y-105220149D01*
X117698573Y-105204873D01*
X117698571Y-105204870D01*
X117603330Y-105096276D01*
X117599030Y-105090758D01*
X117594163Y-105085263D01*
X117590437Y-105081578D01*
X117585008Y-105075584D01*
X117584562Y-105075108D01*
X117584555Y-105075101D01*
X117584530Y-105075074D01*
X117579083Y-105069426D01*
X117579082Y-105069425D01*
X117579080Y-105069423D01*
X117571497Y-105064328D01*
X117558439Y-105054229D01*
X117482990Y-104987387D01*
X117348490Y-104916796D01*
X117348489Y-104916795D01*
X117348488Y-104916795D01*
X117201006Y-104880444D01*
X117201005Y-104880444D01*
X117091000Y-104880444D01*
X117023961Y-104860759D01*
X116978206Y-104807955D01*
X116967000Y-104756444D01*
X116967000Y-102489000D01*
X138307906Y-102489000D01*
X138326215Y-102639791D01*
X138380079Y-102781819D01*
X138466368Y-102906830D01*
X138580066Y-103007557D01*
X138714566Y-103078148D01*
X138750350Y-103086968D01*
X138862050Y-103114500D01*
X138862051Y-103114500D01*
X139013950Y-103114500D01*
X139063110Y-103102382D01*
X139161434Y-103078148D01*
X139295934Y-103007557D01*
X139409632Y-102906830D01*
X139495921Y-102781819D01*
X139514167Y-102733707D01*
X139522428Y-102716191D01*
X139530743Y-102701632D01*
X139578910Y-102557536D01*
X139583285Y-102543032D01*
X139583647Y-102541689D01*
X139584096Y-102539800D01*
X140111306Y-102539800D01*
X140129615Y-102690591D01*
X140183479Y-102832619D01*
X140269768Y-102957630D01*
X140383466Y-103058357D01*
X140517966Y-103128948D01*
X140591708Y-103147124D01*
X140665450Y-103165300D01*
X140665451Y-103165300D01*
X140817350Y-103165300D01*
X140866510Y-103153182D01*
X140964834Y-103128948D01*
X141099334Y-103058357D01*
X141213032Y-102957630D01*
X141299321Y-102832619D01*
X141317567Y-102784507D01*
X141325828Y-102766991D01*
X141334143Y-102752432D01*
X141382310Y-102608336D01*
X141386685Y-102593832D01*
X141387047Y-102592489D01*
X141387069Y-102592399D01*
X141387805Y-102589300D01*
X141390572Y-102577667D01*
X141414074Y-102463860D01*
X141414817Y-102460505D01*
X141418913Y-102443149D01*
X141427812Y-102405440D01*
X141437105Y-102379448D01*
X141448051Y-102357069D01*
X141464631Y-102331637D01*
X141534362Y-102248923D01*
X141536285Y-102250544D01*
X141582707Y-102213632D01*
X141629412Y-102204500D01*
X144111199Y-102204500D01*
X144139996Y-102208577D01*
X144140033Y-102208380D01*
X144144677Y-102209240D01*
X144145622Y-102209374D01*
X144145946Y-102209467D01*
X144146022Y-102209489D01*
X144248404Y-102218209D01*
X144278107Y-102224469D01*
X144301676Y-102232554D01*
X144326626Y-102244365D01*
X144374770Y-102274123D01*
X144377702Y-102275992D01*
X144472305Y-102338209D01*
X144474740Y-102339810D01*
X144487614Y-102347742D01*
X144488800Y-102348425D01*
X144488813Y-102348432D01*
X144488820Y-102348436D01*
X144502266Y-102355654D01*
X144638222Y-102423488D01*
X144642898Y-102425722D01*
X144646123Y-102427263D01*
X144646670Y-102427512D01*
X144646823Y-102427582D01*
X144654656Y-102431004D01*
X144654672Y-102431007D01*
X144658544Y-102432228D01*
X144678896Y-102440697D01*
X144683566Y-102443148D01*
X144683569Y-102443148D01*
X144683570Y-102443149D01*
X144831050Y-102479500D01*
X144831051Y-102479500D01*
X144982950Y-102479500D01*
X145060014Y-102460505D01*
X145130434Y-102443148D01*
X145264934Y-102372557D01*
X145378632Y-102271830D01*
X145464921Y-102146819D01*
X145518785Y-102004791D01*
X145537094Y-101854000D01*
X145518785Y-101703209D01*
X145464921Y-101561181D01*
X145378632Y-101436170D01*
X145264934Y-101335443D01*
X145130434Y-101264852D01*
X145130433Y-101264851D01*
X145130432Y-101264851D01*
X144982950Y-101228500D01*
X144982949Y-101228500D01*
X144831051Y-101228500D01*
X144831050Y-101228500D01*
X144683566Y-101264851D01*
X144666611Y-101273750D01*
X144641653Y-101283572D01*
X144638226Y-101284507D01*
X144638224Y-101284508D01*
X144502250Y-101352350D01*
X144488995Y-101359459D01*
X144487784Y-101360155D01*
X144474759Y-101368174D01*
X144377669Y-101432025D01*
X144374732Y-101433898D01*
X144326631Y-101463630D01*
X144301671Y-101475443D01*
X144278112Y-101483525D01*
X144248402Y-101489787D01*
X144146018Y-101498509D01*
X144146009Y-101498511D01*
X144142946Y-101499327D01*
X144111050Y-101503500D01*
X141476411Y-101503500D01*
X141450965Y-101500861D01*
X141441885Y-101498957D01*
X141441884Y-101498957D01*
X141441883Y-101498957D01*
X141413077Y-101502548D01*
X141399411Y-101503396D01*
X141398165Y-101503499D01*
X141379160Y-101506669D01*
X141374103Y-101507405D01*
X141325807Y-101513426D01*
X141318770Y-101515520D01*
X141311819Y-101517907D01*
X141269009Y-101541074D01*
X141264458Y-101543417D01*
X141220713Y-101564804D01*
X141214720Y-101569081D01*
X141208942Y-101573580D01*
X141175957Y-101609410D01*
X141172411Y-101613106D01*
X141056278Y-101729239D01*
X141033030Y-101746722D01*
X141033143Y-101746887D01*
X141029282Y-101749541D01*
X141028506Y-101750125D01*
X141028136Y-101750328D01*
X141028116Y-101750342D01*
X140949561Y-101816565D01*
X140924119Y-101833149D01*
X140901749Y-101844090D01*
X140875751Y-101853384D01*
X140820659Y-101866386D01*
X140817256Y-101867138D01*
X140703549Y-101890620D01*
X140688659Y-101894161D01*
X140687361Y-101894511D01*
X140672860Y-101898886D01*
X140528724Y-101947068D01*
X140525719Y-101948130D01*
X140520464Y-101949704D01*
X140514739Y-101951875D01*
X140514256Y-101952096D01*
X140510157Y-101954231D01*
X140502493Y-101958772D01*
X140383468Y-102021241D01*
X140269767Y-102121971D01*
X140183480Y-102246979D01*
X140183479Y-102246980D01*
X140129615Y-102389008D01*
X140119431Y-102472882D01*
X140111306Y-102539800D01*
X139584096Y-102539800D01*
X139587172Y-102526867D01*
X139610674Y-102413060D01*
X139611417Y-102409705D01*
X139624412Y-102354640D01*
X139633705Y-102328648D01*
X139644651Y-102306269D01*
X139661231Y-102280837D01*
X139686769Y-102250544D01*
X139727460Y-102202277D01*
X139729056Y-102199523D01*
X139748653Y-102174027D01*
X141205863Y-100716819D01*
X141267186Y-100683334D01*
X141293544Y-100680500D01*
X145177999Y-100680500D01*
X145206796Y-100684577D01*
X145206833Y-100684380D01*
X145211477Y-100685240D01*
X145212422Y-100685374D01*
X145212746Y-100685467D01*
X145212822Y-100685489D01*
X145315204Y-100694209D01*
X145344907Y-100700469D01*
X145368476Y-100708554D01*
X145393426Y-100720365D01*
X145441570Y-100750123D01*
X145444502Y-100751992D01*
X145516870Y-100799586D01*
X145541540Y-100815810D01*
X145554414Y-100823742D01*
X145555600Y-100824425D01*
X145555613Y-100824432D01*
X145555620Y-100824436D01*
X145569066Y-100831654D01*
X145705022Y-100899488D01*
X145709698Y-100901722D01*
X145712923Y-100903263D01*
X145713470Y-100903512D01*
X145713623Y-100903582D01*
X145721456Y-100907004D01*
X145721472Y-100907007D01*
X145725344Y-100908228D01*
X145745696Y-100916697D01*
X145750366Y-100919148D01*
X145750369Y-100919148D01*
X145750370Y-100919149D01*
X145897850Y-100955500D01*
X145897851Y-100955500D01*
X146049750Y-100955500D01*
X146101559Y-100942730D01*
X146197234Y-100919148D01*
X146331734Y-100848557D01*
X146445432Y-100747830D01*
X146531721Y-100622819D01*
X146585585Y-100480791D01*
X146603894Y-100330000D01*
X146585585Y-100179209D01*
X146531721Y-100037181D01*
X146445432Y-99912170D01*
X146331734Y-99811443D01*
X146197234Y-99740852D01*
X146197233Y-99740851D01*
X146197232Y-99740851D01*
X146049750Y-99704500D01*
X146049749Y-99704500D01*
X145897851Y-99704500D01*
X145897850Y-99704500D01*
X145750366Y-99740851D01*
X145733411Y-99749750D01*
X145708453Y-99759572D01*
X145705026Y-99760507D01*
X145705024Y-99760508D01*
X145569050Y-99828350D01*
X145555795Y-99835459D01*
X145554584Y-99836155D01*
X145541559Y-99844174D01*
X145444469Y-99908025D01*
X145441532Y-99909898D01*
X145393431Y-99939630D01*
X145368471Y-99951443D01*
X145344912Y-99959525D01*
X145315202Y-99965787D01*
X145212818Y-99974509D01*
X145212809Y-99974511D01*
X145209746Y-99975327D01*
X145177850Y-99979500D01*
X141146211Y-99979500D01*
X141120765Y-99976861D01*
X141111685Y-99974957D01*
X141111684Y-99974957D01*
X141111683Y-99974957D01*
X141082877Y-99978548D01*
X141069211Y-99979396D01*
X141067965Y-99979499D01*
X141048960Y-99982669D01*
X141043903Y-99983405D01*
X140995607Y-99989426D01*
X140988566Y-99991522D01*
X140981618Y-99993908D01*
X140938812Y-100017072D01*
X140934261Y-100019415D01*
X140890513Y-100040803D01*
X140884566Y-100045047D01*
X140878738Y-100049584D01*
X140845780Y-100085386D01*
X140842233Y-100089083D01*
X139252877Y-101678439D01*
X139229633Y-101695919D01*
X139229746Y-101696084D01*
X139225881Y-101698741D01*
X139225105Y-101699325D01*
X139224736Y-101699528D01*
X139224720Y-101699539D01*
X139146161Y-101765765D01*
X139120719Y-101782349D01*
X139098349Y-101793290D01*
X139072351Y-101802584D01*
X139017259Y-101815586D01*
X139013856Y-101816338D01*
X138900149Y-101839820D01*
X138885259Y-101843361D01*
X138883961Y-101843711D01*
X138869460Y-101848086D01*
X138725324Y-101896268D01*
X138722319Y-101897330D01*
X138717064Y-101898904D01*
X138711339Y-101901075D01*
X138710856Y-101901296D01*
X138706757Y-101903431D01*
X138699093Y-101907972D01*
X138580068Y-101970441D01*
X138466367Y-102071171D01*
X138380080Y-102196179D01*
X138380079Y-102196180D01*
X138326215Y-102338208D01*
X138315363Y-102427582D01*
X138307906Y-102489000D01*
X116967000Y-102489000D01*
X116967000Y-101320600D01*
X114824500Y-101320600D01*
X114757461Y-101300915D01*
X114711706Y-101248111D01*
X114700500Y-101196600D01*
X114700500Y-99064051D01*
X114700632Y-99060004D01*
X115014395Y-99060004D01*
X115034783Y-99332082D01*
X115034783Y-99332084D01*
X115083358Y-99544904D01*
X115095502Y-99598107D01*
X115195187Y-99852100D01*
X115331614Y-100088400D01*
X115501737Y-100301727D01*
X115701754Y-100487315D01*
X115927198Y-100641020D01*
X116173032Y-100759408D01*
X116433765Y-100839833D01*
X116433766Y-100839833D01*
X116433769Y-100839834D01*
X116703564Y-100880499D01*
X116703569Y-100880499D01*
X116703572Y-100880500D01*
X116703573Y-100880500D01*
X116976427Y-100880500D01*
X116976428Y-100880500D01*
X116976435Y-100880499D01*
X117246230Y-100839834D01*
X117246231Y-100839833D01*
X117246235Y-100839833D01*
X117506968Y-100759408D01*
X117752803Y-100641020D01*
X117978246Y-100487315D01*
X118178263Y-100301727D01*
X118348386Y-100088400D01*
X118484813Y-99852100D01*
X118584498Y-99598107D01*
X118645215Y-99332092D01*
X118645216Y-99332082D01*
X118665605Y-99060004D01*
X118665605Y-99059995D01*
X118645216Y-98787917D01*
X118645216Y-98787915D01*
X118645215Y-98787911D01*
X118645215Y-98787908D01*
X118584498Y-98521893D01*
X118578137Y-98505685D01*
X120205740Y-98505685D01*
X120215755Y-98690406D01*
X120215755Y-98690411D01*
X120265244Y-98868656D01*
X120265247Y-98868662D01*
X120351898Y-99032102D01*
X120414540Y-99105850D01*
X120471663Y-99173100D01*
X120618936Y-99285054D01*
X120786833Y-99362732D01*
X120786834Y-99362732D01*
X120786836Y-99362733D01*
X120833109Y-99372918D01*
X120967503Y-99402500D01*
X120967506Y-99402500D01*
X121106107Y-99402500D01*
X121106113Y-99402500D01*
X121243910Y-99387514D01*
X121419221Y-99328444D01*
X121577736Y-99233070D01*
X121712041Y-99105849D01*
X121815858Y-98952730D01*
X121824150Y-98931920D01*
X121855585Y-98853022D01*
X121884331Y-98780875D01*
X121914260Y-98598317D01*
X121909238Y-98505685D01*
X127035740Y-98505685D01*
X127045755Y-98690406D01*
X127045755Y-98690411D01*
X127095244Y-98868656D01*
X127095247Y-98868662D01*
X127181898Y-99032102D01*
X127244540Y-99105850D01*
X127301663Y-99173100D01*
X127448936Y-99285054D01*
X127616833Y-99362732D01*
X127616834Y-99362732D01*
X127616836Y-99362733D01*
X127663109Y-99372918D01*
X127797503Y-99402500D01*
X127797506Y-99402500D01*
X127936107Y-99402500D01*
X127936113Y-99402500D01*
X128073910Y-99387514D01*
X128249221Y-99328444D01*
X128407736Y-99233070D01*
X128542041Y-99105849D01*
X128645858Y-98952730D01*
X128654150Y-98931920D01*
X128685585Y-98853022D01*
X128714331Y-98780875D01*
X128744260Y-98598317D01*
X128734245Y-98413593D01*
X128734244Y-98413588D01*
X128684755Y-98235343D01*
X128684752Y-98235337D01*
X128598101Y-98071897D01*
X128478337Y-97930900D01*
X128399449Y-97870931D01*
X128331064Y-97818946D01*
X128163167Y-97741268D01*
X128163163Y-97741266D01*
X127982497Y-97701500D01*
X127843887Y-97701500D01*
X127843883Y-97701500D01*
X127706088Y-97716486D01*
X127530776Y-97775557D01*
X127530774Y-97775558D01*
X127372262Y-97870931D01*
X127372261Y-97870932D01*
X127237959Y-97998149D01*
X127134138Y-98151276D01*
X127065669Y-98323122D01*
X127035740Y-98505685D01*
X121909238Y-98505685D01*
X121904245Y-98413593D01*
X121904244Y-98413588D01*
X121854755Y-98235343D01*
X121854752Y-98235337D01*
X121768101Y-98071897D01*
X121648337Y-97930900D01*
X121569449Y-97870931D01*
X121501064Y-97818946D01*
X121333167Y-97741268D01*
X121333163Y-97741266D01*
X121152497Y-97701500D01*
X121013887Y-97701500D01*
X121013883Y-97701500D01*
X120876088Y-97716486D01*
X120700776Y-97775557D01*
X120700774Y-97775558D01*
X120542262Y-97870931D01*
X120542261Y-97870932D01*
X120407959Y-97998149D01*
X120304138Y-98151276D01*
X120235669Y-98323122D01*
X120205740Y-98505685D01*
X118578137Y-98505685D01*
X118484813Y-98267900D01*
X118348386Y-98031600D01*
X118178263Y-97818273D01*
X117978246Y-97632685D01*
X117752803Y-97478980D01*
X117752797Y-97478977D01*
X117752796Y-97478976D01*
X117752794Y-97478975D01*
X117506970Y-97360593D01*
X117506972Y-97360593D01*
X117246236Y-97280167D01*
X117246230Y-97280165D01*
X116976435Y-97239500D01*
X116976428Y-97239500D01*
X116703572Y-97239500D01*
X116703564Y-97239500D01*
X116433769Y-97280165D01*
X116433763Y-97280167D01*
X116173031Y-97360592D01*
X115927202Y-97478977D01*
X115701753Y-97632685D01*
X115501739Y-97818271D01*
X115501737Y-97818273D01*
X115331614Y-98031600D01*
X115195187Y-98267899D01*
X115095504Y-98521887D01*
X115095499Y-98521904D01*
X115034783Y-98787915D01*
X115034783Y-98787917D01*
X115014395Y-99059995D01*
X115014395Y-99060004D01*
X114700632Y-99060004D01*
X114700763Y-99055972D01*
X114718273Y-98788827D01*
X114720387Y-98772775D01*
X114771818Y-98514217D01*
X114776009Y-98498574D01*
X114860750Y-98248935D01*
X114866950Y-98233968D01*
X114983547Y-97997533D01*
X114991650Y-97983498D01*
X115138113Y-97764300D01*
X115147970Y-97751454D01*
X115321791Y-97553249D01*
X115333249Y-97541791D01*
X115531454Y-97367970D01*
X115544300Y-97358113D01*
X115763498Y-97211650D01*
X115777533Y-97203547D01*
X116013968Y-97086950D01*
X116028935Y-97080750D01*
X116278574Y-96996009D01*
X116294217Y-96991818D01*
X116552775Y-96940387D01*
X116568827Y-96938273D01*
X116835971Y-96920764D01*
X116844052Y-96920500D01*
X116897583Y-96920500D01*
X121404481Y-96920500D01*
X129838546Y-96920500D01*
X129905585Y-96940185D01*
G37*
%TD.AperFunction*%
%TD*%
%TA.AperFunction,Conductor*%
%TO.N,/DAT1*%
G36*
X150914789Y-112745166D02*
G01*
X150915042Y-112745730D01*
X151052921Y-113076296D01*
X151052943Y-113085251D01*
X151052921Y-113085304D01*
X150915042Y-113415869D01*
X150908695Y-113422185D01*
X150899740Y-113422163D01*
X150899175Y-113421910D01*
X150812385Y-113380194D01*
X150764128Y-113356999D01*
X150763248Y-113356527D01*
X150660936Y-113295932D01*
X150660922Y-113295925D01*
X150660914Y-113295920D01*
X150570854Y-113248174D01*
X150570853Y-113248173D01*
X150570850Y-113248172D01*
X150543689Y-113240371D01*
X150462212Y-113216971D01*
X150314677Y-113206567D01*
X150306665Y-113202567D01*
X150303800Y-113194896D01*
X150303800Y-112966703D01*
X150307227Y-112958430D01*
X150314674Y-112955033D01*
X150462209Y-112944628D01*
X150462212Y-112944627D01*
X150462213Y-112944627D01*
X150473468Y-112941394D01*
X150570850Y-112913427D01*
X150660936Y-112865666D01*
X150763265Y-112805060D01*
X150764119Y-112804604D01*
X150885138Y-112746436D01*
X150899176Y-112739689D01*
X150908117Y-112739193D01*
X150914789Y-112745166D01*
G37*
%TD.AperFunction*%
%TD*%
%TA.AperFunction,Conductor*%
%TO.N,/SCK*%
G36*
X149797189Y-108884366D02*
G01*
X149797446Y-108884940D01*
X149935321Y-109215496D01*
X149935343Y-109224451D01*
X149935321Y-109224504D01*
X149797590Y-109554715D01*
X149791243Y-109561031D01*
X149782288Y-109561009D01*
X149781403Y-109560596D01*
X149645540Y-109490098D01*
X149644020Y-109489155D01*
X149544355Y-109416232D01*
X149457717Y-109353922D01*
X149457718Y-109353922D01*
X149457716Y-109353921D01*
X149430221Y-109342771D01*
X149351261Y-109310749D01*
X149351257Y-109310748D01*
X149201777Y-109295662D01*
X149193890Y-109291422D01*
X149191252Y-109284021D01*
X149191252Y-109105494D01*
X149194679Y-109097221D01*
X149202118Y-109093824D01*
X149348415Y-109083380D01*
X149456119Y-109052099D01*
X149545385Y-109004322D01*
X149646791Y-108943880D01*
X149647688Y-108943396D01*
X149781571Y-108878902D01*
X149790511Y-108878400D01*
X149797189Y-108884366D01*
G37*
%TD.AperFunction*%
%TD*%
M02*
