%TF.GenerationSoftware,KiCad,Pcbnew,7.0.11*%
%TF.CreationDate,2024-03-26T20:33:29-04:00*%
%TF.ProjectId,weather-featherwing,77656174-6865-4722-9d66-656174686572,03*%
%TF.SameCoordinates,Original*%
%TF.FileFunction,Paste,Top*%
%TF.FilePolarity,Positive*%
%FSLAX46Y46*%
G04 Gerber Fmt 4.6, Leading zero omitted, Abs format (unit mm)*
G04 Created by KiCad (PCBNEW 7.0.11) date 2024-03-26 20:33:29*
%MOMM*%
%LPD*%
G01*
G04 APERTURE LIST*
%ADD10R,0.820000X0.929000*%
%ADD11R,0.300000X0.500000*%
%ADD12R,0.645000X1.173000*%
%ADD13R,0.550000X0.550000*%
%ADD14R,2.000000X0.800000*%
%ADD15R,1.400000X1.800000*%
%ADD16R,1.900000X1.400000*%
%ADD17R,0.929000X0.820000*%
%ADD18R,0.871000X0.970000*%
%ADD19R,0.397000X0.350000*%
%ADD20R,0.350000X0.397000*%
%ADD21R,1.550000X0.600000*%
%ADD22R,1.800000X1.200000*%
%ADD23R,1.200000X2.500000*%
%ADD24R,0.970000X0.871000*%
G04 APERTURE END LIST*
D10*
%TO.C,R5*%
X142120000Y-107950000D03*
X143630000Y-107950000D03*
%TD*%
D11*
%TO.C,U2*%
X115170000Y-104840000D03*
X115970000Y-104840000D03*
X115970000Y-103440000D03*
X115170000Y-103440000D03*
%TD*%
D12*
%TO.C,U3*%
X123505000Y-113488000D03*
X121605000Y-113488000D03*
X122555000Y-115366000D03*
%TD*%
D13*
%TO.C,D1*%
X140683000Y-100932000D03*
X140683000Y-99982000D03*
X139733000Y-99982000D03*
X139733000Y-100932000D03*
%TD*%
D14*
%TO.C,J3*%
X155700000Y-104765000D03*
X155300000Y-105865000D03*
X155700000Y-106965000D03*
X155900000Y-108065000D03*
X155700000Y-109165000D03*
X155900000Y-110265000D03*
X155700000Y-111365000D03*
X155700000Y-112465000D03*
D15*
X145150000Y-111655000D03*
X145150000Y-105955000D03*
D16*
X158300000Y-113255000D03*
X159300000Y-100105000D03*
%TD*%
D17*
%TO.C,R10*%
X124714000Y-110381400D03*
X124714000Y-108871400D03*
%TD*%
D10*
%TO.C,R11*%
X123310000Y-111861600D03*
X121800000Y-111861600D03*
%TD*%
%TO.C,R4*%
X142120000Y-109474000D03*
X143630000Y-109474000D03*
%TD*%
D18*
%TO.C,C1*%
X142125000Y-115570000D03*
X143625000Y-115570000D03*
%TD*%
D10*
%TO.C,R2*%
X142120000Y-112522000D03*
X143630000Y-112522000D03*
%TD*%
D19*
%TO.C,U1*%
X121789000Y-109376400D03*
X121789000Y-109876400D03*
D20*
X122055000Y-110392400D03*
X122555000Y-110392400D03*
X123055000Y-110392400D03*
D19*
X123321000Y-109876400D03*
X123321000Y-109376400D03*
D20*
X123055000Y-108860400D03*
X122555000Y-108860400D03*
X122055000Y-108860400D03*
%TD*%
D21*
%TO.C,J4*%
X119730400Y-109115600D03*
X119730400Y-110115600D03*
X119730400Y-111115600D03*
X119730400Y-112115600D03*
D22*
X115855400Y-107815600D03*
X115855400Y-113415600D03*
%TD*%
D10*
%TO.C,R8*%
X142120000Y-101854000D03*
X143630000Y-101854000D03*
%TD*%
%TO.C,R12*%
X136532000Y-100203000D03*
X138042000Y-100203000D03*
%TD*%
D18*
%TO.C,C2*%
X142125000Y-114046000D03*
X143625000Y-114046000D03*
%TD*%
D10*
%TO.C,R1*%
X142120000Y-106426000D03*
X143630000Y-106426000D03*
%TD*%
D23*
%TO.C,SW1*%
X126960000Y-101302000D03*
X124460000Y-101302000D03*
X121960000Y-101302000D03*
%TD*%
D18*
%TO.C,C3*%
X121805000Y-107442000D03*
X123305000Y-107442000D03*
%TD*%
D10*
%TO.C,R7*%
X142120000Y-103378000D03*
X143630000Y-103378000D03*
%TD*%
%TO.C,R9*%
X142120000Y-100330000D03*
X143630000Y-100330000D03*
%TD*%
%TO.C,R6*%
X142120000Y-104902000D03*
X143630000Y-104902000D03*
%TD*%
%TO.C,R3*%
X142120000Y-110998000D03*
X143630000Y-110998000D03*
%TD*%
D24*
%TO.C,C4*%
X117856000Y-103874000D03*
X117856000Y-102374000D03*
%TD*%
M02*
