M48
; DRILL file {KiCad 7.0.11} date Thu Mar 28 16:15:47 2024
; FORMAT={-:-/ absolute / metric / decimal}
; #@! TF.CreationDate,2024-03-28T16:15:47-04:00
; #@! TF.GenerationSoftware,Kicad,Pcbnew,7.0.11
; #@! TF.FileFunction,Plated,1,2,PTH
FMAT,2
METRIC
; #@! TA.AperFunction,Plated,PTH,ViaDrill
T1C0.350
; #@! TA.AperFunction,Plated,PTH,ComponentDrill
T2C1.000
; #@! TA.AperFunction,Plated,PTH,ComponentDrill
T3C2.540
%
G90
G05
T1
X115.85Y-109.0
X115.85Y-112.2
X116.561Y-109.652
X117.125Y-105.506
X117.856Y-101.346
X118.429Y-109.651
X119.165Y-107.315
X119.38Y-104.14
X119.722Y-112.813
X119.736Y-108.229
X120.706Y-112.954
X121.093Y-110.422
X121.579Y-115.824
X121.92Y-104.14
X122.555Y-116.586
X123.063Y-99.441
X123.698Y-115.418
X124.409Y-107.34
X124.46Y-99.441
X124.46Y-104.14
X124.968Y-112.776
X124.968Y-113.792
X125.984Y-99.441
X127.0Y-104.14
X127.0Y-114.3
X129.54Y-111.76
X129.54Y-114.3
X132.08Y-101.6
X132.08Y-109.22
X132.08Y-111.76
X132.08Y-114.3
X134.62Y-106.68
X134.62Y-109.22
X134.62Y-111.76
X134.62Y-114.3
X136.144Y-101.473
X137.16Y-104.14
X137.16Y-106.68
X137.16Y-109.22
X137.16Y-111.76
X137.16Y-114.3
X138.938Y-102.489
X138.963Y-101.016
X139.7Y-104.14
X139.7Y-106.68
X139.7Y-109.22
X139.7Y-111.76
X139.7Y-114.3
X140.741Y-102.54
X142.24Y-116.84
X144.526Y-114.808
X144.907Y-101.854
X145.161Y-107.529
X145.161Y-110.109
X145.796Y-115.443
X145.974Y-100.33
X146.304Y-116.586
X146.329Y-113.081
X146.558Y-108.204
X146.558Y-109.169
X146.685Y-106.045
X146.736Y-103.504
X148.082Y-115.697
X149.86Y-106.045
X149.86Y-110.871
X149.936Y-109.22
X149.987Y-99.655
X149.987Y-103.505
X149.99Y-108.272
X150.749Y-110.236
X151.054Y-113.081
X151.968Y-110.312
X152.4Y-99.06
X152.4Y-114.3
X152.4Y-116.84
X152.73Y-106.248
X152.73Y-107.671
X153.67Y-103.251
X154.94Y-114.3
X154.94Y-116.84
X157.48Y-101.6
X157.48Y-104.14
X157.48Y-106.68
X157.48Y-116.84
X157.607Y-100.203
X157.607Y-109.22
X157.607Y-111.76
X159.258Y-101.473
X160.02Y-104.14
X160.02Y-106.68
X160.02Y-109.22
X160.02Y-111.76
X160.02Y-114.3
T2
X120.65Y-118.11
X123.19Y-118.11
X125.73Y-118.11
X128.27Y-118.11
X130.81Y-97.79
X130.81Y-118.11
X133.35Y-97.79
X133.35Y-118.11
X135.89Y-97.79
X135.89Y-118.11
X138.43Y-97.79
X138.43Y-118.11
X140.97Y-97.79
X140.97Y-118.11
X143.51Y-97.79
X143.51Y-118.11
X146.05Y-97.79
X146.05Y-118.11
X148.59Y-97.79
X148.59Y-118.11
X151.13Y-97.79
X151.13Y-118.11
X153.67Y-97.79
X153.67Y-118.11
X156.21Y-97.79
X156.21Y-118.11
X158.75Y-97.79
X158.75Y-118.11
T3
X116.84Y-99.06
X116.84Y-116.84
M30
