%TF.GenerationSoftware,KiCad,Pcbnew,7.0.8*%
%TF.CreationDate,2023-11-01T10:58:51-04:00*%
%TF.ProjectId,destinationWeatherStation_v5,64657374-696e-4617-9469-6f6e57656174,01*%
%TF.SameCoordinates,Original*%
%TF.FileFunction,Copper,L2,Bot*%
%TF.FilePolarity,Positive*%
%FSLAX46Y46*%
G04 Gerber Fmt 4.6, Leading zero omitted, Abs format (unit mm)*
G04 Created by KiCad (PCBNEW 7.0.8) date 2023-11-01 10:58:51*
%MOMM*%
%LPD*%
G01*
G04 APERTURE LIST*
G04 Aperture macros list*
%AMFreePoly0*
4,1,6,1.000000,0.000000,0.500000,-0.750000,-0.500000,-0.750000,-0.500000,0.750000,0.500000,0.750000,1.000000,0.000000,1.000000,0.000000,$1*%
%AMFreePoly1*
4,1,6,0.500000,-0.750000,-0.650000,-0.750000,-0.150000,0.000000,-0.650000,0.750000,0.500000,0.750000,0.500000,-0.750000,0.500000,-0.750000,$1*%
G04 Aperture macros list end*
%TA.AperFunction,ComponentPad*%
%ADD10C,1.600000*%
%TD*%
%TA.AperFunction,ComponentPad*%
%ADD11C,3.140000*%
%TD*%
%TA.AperFunction,ComponentPad*%
%ADD12C,1.500000*%
%TD*%
%TA.AperFunction,ComponentPad*%
%ADD13C,1.700000*%
%TD*%
%TA.AperFunction,SMDPad,CuDef*%
%ADD14FreePoly0,180.000000*%
%TD*%
%TA.AperFunction,SMDPad,CuDef*%
%ADD15FreePoly1,180.000000*%
%TD*%
%TA.AperFunction,ViaPad*%
%ADD16C,0.750000*%
%TD*%
%TA.AperFunction,ViaPad*%
%ADD17C,1.000000*%
%TD*%
%TA.AperFunction,ViaPad*%
%ADD18C,0.800000*%
%TD*%
%TA.AperFunction,Conductor*%
%ADD19C,0.250000*%
%TD*%
%TA.AperFunction,Conductor*%
%ADD20C,0.200000*%
%TD*%
G04 APERTURE END LIST*
D10*
%TO.P,BT1,1,+*%
%TO.N,/VBAT*%
X126235000Y-107950000D03*
%TO.P,BT1,2,-*%
%TO.N,GND*%
X133985000Y-107950000D03*
%TD*%
D11*
%TO.P,H1,*%
%TO.N,*%
X116840000Y-99060000D03*
%TD*%
D12*
%TO.P,SW1,*%
%TO.N,*%
X127890000Y-98552000D03*
X121060000Y-98552000D03*
%TD*%
D11*
%TO.P,H2,*%
%TO.N,*%
X116840000Y-116840000D03*
%TD*%
D13*
%TO.P,J2,17,Pin_17*%
%TO.N,/SDA*%
X158750000Y-97790000D03*
%TO.P,J2,18,Pin_18*%
%TO.N,/SCL*%
X156210000Y-97790000D03*
%TO.P,J2,19,Pin_19*%
%TO.N,/CS_SD*%
X153670000Y-97790000D03*
%TO.P,J2,20,Pin_20*%
%TO.N,/CD*%
X151130000Y-97790000D03*
%TO.P,J2,21,Pin_21*%
%TO.N,/LPS_INT*%
X148590000Y-97790000D03*
%TO.P,J2,22,Pin_22*%
%TO.N,/NP_DIN*%
X146050000Y-97790000D03*
%TO.P,J2,23,3*%
%TO.N,/D11*%
X143510000Y-97790000D03*
%TO.P,J2,24,Pin_24*%
%TO.N,/D12*%
X140970000Y-97790000D03*
%TO.P,J2,25,Pin_25*%
%TO.N,/D13*%
X138430000Y-97790000D03*
%TO.P,J2,26,Pin_26*%
%TO.N,/USB*%
X135890000Y-97790000D03*
%TO.P,J2,27,Pin_27*%
%TO.N,/EN*%
X133350000Y-97790000D03*
%TO.P,J2,28,Pin_28*%
%TO.N,/BAT*%
X130810000Y-97790000D03*
%TD*%
D14*
%TO.P,JP1,1,A*%
%TO.N,GND*%
X123788000Y-112776000D03*
D15*
%TO.P,JP1,2,B*%
%TO.N,Net-(JP1-B)*%
X122338000Y-112776000D03*
%TD*%
D13*
%TO.P,J1,1,Pin_1*%
%TO.N,/RST*%
X120650000Y-118110000D03*
%TO.P,J1,2,Pin_2*%
%TO.N,+3V3*%
X123190000Y-118110000D03*
%TO.P,J1,3,Pin_3*%
X125730000Y-118110000D03*
%TO.P,J1,4,Pin_4*%
%TO.N,GND*%
X128270000Y-118110000D03*
%TO.P,J1,5,Pin_5*%
%TO.N,/VIN*%
X130810000Y-118110000D03*
%TO.P,J1,6,Pin_6*%
%TO.N,/A1*%
X133350000Y-118110000D03*
%TO.P,J1,7,Pin_7*%
%TO.N,/A2*%
X135890000Y-118110000D03*
%TO.P,J1,8,Pin_8*%
%TO.N,/A3*%
X138430000Y-118110000D03*
%TO.P,J1,9,Pin_9*%
%TO.N,/A4*%
X140970000Y-118110000D03*
%TO.P,J1,10,Pin_10*%
%TO.N,/A5*%
X143510000Y-118110000D03*
%TO.P,J1,11,Pin_11*%
%TO.N,/SCK*%
X146050000Y-118110000D03*
%TO.P,J1,12,Pin_12*%
%TO.N,/MOSI*%
X148590000Y-118110000D03*
%TO.P,J1,13,Pin_13*%
%TO.N,/MISO*%
X151130000Y-118110000D03*
%TO.P,J1,14,Pin_14*%
%TO.N,/RX*%
X153670000Y-118110000D03*
%TO.P,J1,15,Pin_15*%
%TO.N,/TX*%
X156210000Y-118110000D03*
%TO.P,J1,16,Pin_16*%
%TO.N,/DBG*%
X158750000Y-118110000D03*
%TD*%
D16*
%TO.N,+3V3*%
X149860000Y-102870000D03*
X149860000Y-99568000D03*
X128905000Y-113538000D03*
X132334000Y-113538000D03*
%TO.N,GND*%
X140716000Y-107950000D03*
X159639000Y-113030000D03*
X118364000Y-109093000D03*
X121078500Y-112236944D03*
X157861000Y-111506000D03*
X159766000Y-102743000D03*
X124206000Y-114312948D03*
X119126000Y-101219000D03*
X120269000Y-100076000D03*
D17*
X122174000Y-103759000D03*
D16*
X118999000Y-108077000D03*
X145161000Y-115697000D03*
X159766000Y-100076000D03*
X153670000Y-111633000D03*
X133985000Y-101219000D03*
X133985000Y-114554000D03*
X124206000Y-107569000D03*
X139133600Y-99988500D03*
X125095000Y-114808000D03*
X157861000Y-113030000D03*
X144907000Y-110998000D03*
X117602000Y-107188000D03*
%TO.N,/SCK*%
X147066000Y-109474000D03*
X150495000Y-109474000D03*
%TO.N,/MOSI*%
X152019000Y-108458000D03*
X147066000Y-108458000D03*
X152019000Y-110236000D03*
%TO.N,/MISO*%
X146304000Y-116586000D03*
%TO.N,/CS_SD*%
X153670000Y-105605000D03*
%TO.N,/DAT1*%
X154310000Y-115575000D03*
X146304000Y-115570000D03*
%TO.N,/CD*%
X146812000Y-105156000D03*
X146812000Y-107188000D03*
X145669000Y-110236000D03*
D18*
%TO.N,/SDA*%
X122682000Y-109728000D03*
D16*
X121158000Y-109728000D03*
X144907000Y-101854000D03*
X128905000Y-112522000D03*
X132334000Y-112522000D03*
X141224000Y-101854000D03*
%TO.N,/SCL*%
X132271085Y-109259581D03*
X145460172Y-99988500D03*
X123698000Y-110871000D03*
X130060500Y-109220000D03*
X140081000Y-101941500D03*
X125349000Y-109220000D03*
%TO.N,Net-(JP1-B)*%
X121666000Y-114046000D03*
%TO.N,/LPS_INT*%
X131572000Y-116205000D03*
X136144000Y-101473000D03*
X126492000Y-116205000D03*
X130048000Y-116205000D03*
X124968000Y-116205000D03*
X147320000Y-98806000D03*
%TD*%
D19*
%TO.N,+3V3*%
X128905000Y-113538000D02*
X132334000Y-113538000D01*
D20*
X149860000Y-102870000D02*
X149860000Y-99568000D01*
%TO.N,/SCK*%
X147066000Y-109474000D02*
X150495000Y-109474000D01*
%TO.N,/MOSI*%
X152019000Y-108458000D02*
X152019000Y-110236000D01*
X152019000Y-108458000D02*
X147066000Y-108458000D01*
%TO.N,/MISO*%
X146304000Y-116586000D02*
X149606000Y-116586000D01*
X149606000Y-116586000D02*
X151130000Y-118110000D01*
%TO.N,/CS_SD*%
X153670000Y-105605000D02*
X153670000Y-97790000D01*
D19*
%TO.N,/DAT1*%
X154305000Y-115570000D02*
X154310000Y-115575000D01*
X146304000Y-115570000D02*
X154305000Y-115570000D01*
%TO.N,/CD*%
X146812000Y-105156000D02*
X146812000Y-101626050D01*
X146812000Y-101626050D02*
X150648050Y-97790000D01*
X145669000Y-108331000D02*
X146812000Y-107188000D01*
X150648050Y-97790000D02*
X151130000Y-97790000D01*
X145669000Y-110236000D02*
X145669000Y-108331000D01*
D20*
%TO.N,/SDA*%
X121158000Y-109728000D02*
X122682000Y-109728000D01*
X144907000Y-101854000D02*
X141224000Y-101854000D01*
X132334000Y-112522000D02*
X128905000Y-112522000D01*
%TO.N,/SCL*%
X145118672Y-100330000D02*
X141692500Y-100330000D01*
X132231504Y-109220000D02*
X130060500Y-109220000D01*
X145460172Y-99988500D02*
X145118672Y-100330000D01*
X123698000Y-110871000D02*
X125349000Y-109220000D01*
X141692500Y-100330000D02*
X140081000Y-101941500D01*
X132271085Y-109259581D02*
X132231504Y-109220000D01*
%TO.N,Net-(JP1-B)*%
X121666000Y-114046000D02*
X121666000Y-113665000D01*
X122338000Y-112993000D02*
X122338000Y-112776000D01*
X121666000Y-113665000D02*
X122338000Y-112993000D01*
%TO.N,/LPS_INT*%
X131572000Y-116205000D02*
X130048000Y-116205000D01*
X146812000Y-99314000D02*
X138303000Y-99314000D01*
X126492000Y-116205000D02*
X124968000Y-116205000D01*
X147320000Y-98806000D02*
X146812000Y-99314000D01*
X138303000Y-99314000D02*
X136144000Y-101473000D01*
%TD*%
%TA.AperFunction,Conductor*%
%TO.N,GND*%
G36*
X129919934Y-96921185D02*
G01*
X129965689Y-96973989D01*
X129975633Y-97043147D01*
X129951849Y-97100225D01*
X129918448Y-97144455D01*
X129870327Y-97208178D01*
X129779422Y-97390739D01*
X129779417Y-97390752D01*
X129723602Y-97586917D01*
X129704785Y-97789999D01*
X129704785Y-97790000D01*
X129723602Y-97993082D01*
X129779417Y-98189247D01*
X129779422Y-98189260D01*
X129870327Y-98371821D01*
X129993237Y-98534581D01*
X130143958Y-98671980D01*
X130143960Y-98671982D01*
X130199126Y-98706139D01*
X130317363Y-98779348D01*
X130507544Y-98853024D01*
X130708024Y-98890500D01*
X130708026Y-98890500D01*
X130911974Y-98890500D01*
X130911976Y-98890500D01*
X131112456Y-98853024D01*
X131302637Y-98779348D01*
X131476041Y-98671981D01*
X131626764Y-98534579D01*
X131749673Y-98371821D01*
X131840582Y-98189250D01*
X131896397Y-97993083D01*
X131915215Y-97790000D01*
X131896397Y-97586917D01*
X131840582Y-97390750D01*
X131828630Y-97366748D01*
X131786257Y-97281651D01*
X131749673Y-97208179D01*
X131668150Y-97100225D01*
X131643459Y-97034866D01*
X131658024Y-96966531D01*
X131707221Y-96916919D01*
X131767105Y-96901500D01*
X132392895Y-96901500D01*
X132459934Y-96921185D01*
X132505689Y-96973989D01*
X132515633Y-97043147D01*
X132491849Y-97100225D01*
X132458448Y-97144455D01*
X132410327Y-97208178D01*
X132319422Y-97390739D01*
X132319417Y-97390752D01*
X132263602Y-97586917D01*
X132244785Y-97789999D01*
X132244785Y-97790000D01*
X132263602Y-97993082D01*
X132319417Y-98189247D01*
X132319422Y-98189260D01*
X132410327Y-98371821D01*
X132533237Y-98534581D01*
X132683958Y-98671980D01*
X132683960Y-98671982D01*
X132739126Y-98706139D01*
X132857363Y-98779348D01*
X133047544Y-98853024D01*
X133248024Y-98890500D01*
X133248026Y-98890500D01*
X133451974Y-98890500D01*
X133451976Y-98890500D01*
X133652456Y-98853024D01*
X133842637Y-98779348D01*
X134016041Y-98671981D01*
X134166764Y-98534579D01*
X134289673Y-98371821D01*
X134380582Y-98189250D01*
X134436397Y-97993083D01*
X134455215Y-97790000D01*
X134436397Y-97586917D01*
X134380582Y-97390750D01*
X134368630Y-97366748D01*
X134326257Y-97281651D01*
X134289673Y-97208179D01*
X134208150Y-97100225D01*
X134183459Y-97034866D01*
X134198024Y-96966531D01*
X134247221Y-96916919D01*
X134307105Y-96901500D01*
X134932895Y-96901500D01*
X134999934Y-96921185D01*
X135045689Y-96973989D01*
X135055633Y-97043147D01*
X135031849Y-97100225D01*
X134998448Y-97144455D01*
X134950327Y-97208178D01*
X134859422Y-97390739D01*
X134859417Y-97390752D01*
X134803602Y-97586917D01*
X134784785Y-97789999D01*
X134784785Y-97790000D01*
X134803602Y-97993082D01*
X134859417Y-98189247D01*
X134859422Y-98189260D01*
X134950327Y-98371821D01*
X135073237Y-98534581D01*
X135223958Y-98671980D01*
X135223960Y-98671982D01*
X135279126Y-98706139D01*
X135397363Y-98779348D01*
X135587544Y-98853024D01*
X135788024Y-98890500D01*
X135788026Y-98890500D01*
X135991974Y-98890500D01*
X135991976Y-98890500D01*
X136192456Y-98853024D01*
X136382637Y-98779348D01*
X136556041Y-98671981D01*
X136706764Y-98534579D01*
X136829673Y-98371821D01*
X136920582Y-98189250D01*
X136976397Y-97993083D01*
X136995215Y-97790000D01*
X136976397Y-97586917D01*
X136920582Y-97390750D01*
X136908630Y-97366748D01*
X136866257Y-97281651D01*
X136829673Y-97208179D01*
X136748150Y-97100225D01*
X136723459Y-97034866D01*
X136738024Y-96966531D01*
X136787221Y-96916919D01*
X136847105Y-96901500D01*
X137472895Y-96901500D01*
X137539934Y-96921185D01*
X137585689Y-96973989D01*
X137595633Y-97043147D01*
X137571849Y-97100225D01*
X137538448Y-97144455D01*
X137490327Y-97208178D01*
X137399422Y-97390739D01*
X137399417Y-97390752D01*
X137343602Y-97586917D01*
X137324785Y-97789999D01*
X137324785Y-97790000D01*
X137343602Y-97993082D01*
X137399417Y-98189247D01*
X137399422Y-98189260D01*
X137490327Y-98371821D01*
X137613237Y-98534581D01*
X137763958Y-98671980D01*
X137763960Y-98671982D01*
X137819126Y-98706139D01*
X137937363Y-98779348D01*
X138049780Y-98822898D01*
X138105181Y-98865471D01*
X138128772Y-98931238D01*
X138113061Y-98999318D01*
X138090788Y-99025186D01*
X138091699Y-99026025D01*
X138050042Y-99071275D01*
X136310136Y-100811181D01*
X136248813Y-100844666D01*
X136222455Y-100847500D01*
X136068050Y-100847500D01*
X135920567Y-100883851D01*
X135786067Y-100954442D01*
X135763268Y-100974640D01*
X135673766Y-101053932D01*
X135672367Y-101055171D01*
X135586080Y-101180179D01*
X135586079Y-101180180D01*
X135532215Y-101322208D01*
X135524891Y-101382527D01*
X135513906Y-101473000D01*
X135532215Y-101623791D01*
X135586079Y-101765819D01*
X135672368Y-101890830D01*
X135786066Y-101991557D01*
X135920566Y-102062148D01*
X135994308Y-102080324D01*
X136068050Y-102098500D01*
X136068051Y-102098500D01*
X136219950Y-102098500D01*
X136269110Y-102086382D01*
X136367434Y-102062148D01*
X136501934Y-101991557D01*
X136615632Y-101890830D01*
X136701921Y-101765819D01*
X136755785Y-101623791D01*
X136774094Y-101473000D01*
X136766817Y-101413074D01*
X136778277Y-101344153D01*
X136802229Y-101310451D01*
X138411863Y-99700819D01*
X138473186Y-99667334D01*
X138499544Y-99664500D01*
X144734431Y-99664500D01*
X144801470Y-99684185D01*
X144847225Y-99736989D01*
X144857169Y-99806147D01*
X144850374Y-99832469D01*
X144848386Y-99837708D01*
X144844412Y-99870446D01*
X144816790Y-99934624D01*
X144758856Y-99973681D01*
X144721316Y-99979500D01*
X141741706Y-99979500D01*
X141716261Y-99976861D01*
X141707185Y-99974958D01*
X141707182Y-99974958D01*
X141674568Y-99979023D01*
X141666892Y-99979500D01*
X141663460Y-99979500D01*
X141649119Y-99981892D01*
X141641948Y-99983089D01*
X141625121Y-99985186D01*
X141591107Y-99989427D01*
X141591106Y-99989427D01*
X141591101Y-99989428D01*
X141584075Y-99991519D01*
X141577123Y-99993906D01*
X141532055Y-100018295D01*
X141486012Y-100040803D01*
X141480066Y-100045048D01*
X141474242Y-100049581D01*
X141439542Y-100087275D01*
X140247136Y-101279681D01*
X140185813Y-101313166D01*
X140159455Y-101316000D01*
X140005050Y-101316000D01*
X139857567Y-101352351D01*
X139723067Y-101422942D01*
X139609367Y-101523671D01*
X139523080Y-101648679D01*
X139523079Y-101648680D01*
X139472675Y-101781587D01*
X139469215Y-101790709D01*
X139450906Y-101941500D01*
X139469215Y-102092291D01*
X139523079Y-102234319D01*
X139609368Y-102359330D01*
X139723066Y-102460057D01*
X139857566Y-102530648D01*
X139931308Y-102548824D01*
X140005050Y-102567000D01*
X140005051Y-102567000D01*
X140156950Y-102567000D01*
X140206110Y-102554882D01*
X140304434Y-102530648D01*
X140438934Y-102460057D01*
X140552632Y-102359330D01*
X140586393Y-102310417D01*
X140640674Y-102266429D01*
X140710122Y-102258769D01*
X140770668Y-102288042D01*
X140866066Y-102372557D01*
X141000566Y-102443148D01*
X141069168Y-102460057D01*
X141148050Y-102479500D01*
X141148051Y-102479500D01*
X141299950Y-102479500D01*
X141349110Y-102467382D01*
X141447434Y-102443148D01*
X141581934Y-102372557D01*
X141695632Y-102271830D01*
X141699877Y-102265679D01*
X141705138Y-102258059D01*
X141759421Y-102214069D01*
X141807187Y-102204500D01*
X144323813Y-102204500D01*
X144390852Y-102224185D01*
X144425862Y-102258059D01*
X144435366Y-102271828D01*
X144435367Y-102271829D01*
X144435368Y-102271830D01*
X144549066Y-102372557D01*
X144683566Y-102443148D01*
X144752168Y-102460057D01*
X144831050Y-102479500D01*
X144831051Y-102479500D01*
X144982950Y-102479500D01*
X145032110Y-102467382D01*
X145130434Y-102443148D01*
X145264934Y-102372557D01*
X145378632Y-102271830D01*
X145464921Y-102146819D01*
X145518785Y-102004791D01*
X145537094Y-101854000D01*
X145518785Y-101703209D01*
X145464921Y-101561181D01*
X145378632Y-101436170D01*
X145264934Y-101335443D01*
X145130434Y-101264852D01*
X145130433Y-101264851D01*
X145130432Y-101264851D01*
X144982950Y-101228500D01*
X144982949Y-101228500D01*
X144831051Y-101228500D01*
X144831050Y-101228500D01*
X144683567Y-101264851D01*
X144549067Y-101335442D01*
X144435366Y-101436171D01*
X144425862Y-101449941D01*
X144371579Y-101493931D01*
X144323813Y-101503500D01*
X141807187Y-101503500D01*
X141740148Y-101483815D01*
X141705138Y-101449941D01*
X141695633Y-101436171D01*
X141695632Y-101436170D01*
X141581934Y-101335443D01*
X141469354Y-101276357D01*
X141419144Y-101227773D01*
X141403169Y-101159754D01*
X141426504Y-101093896D01*
X141439295Y-101078886D01*
X141801363Y-100716819D01*
X141862686Y-100683334D01*
X141889044Y-100680500D01*
X145069461Y-100680500D01*
X145094906Y-100683138D01*
X145103987Y-100685043D01*
X145119677Y-100683087D01*
X145136611Y-100680977D01*
X145144287Y-100680500D01*
X145147707Y-100680500D01*
X145147712Y-100680500D01*
X145151280Y-100679904D01*
X145169211Y-100676913D01*
X145196630Y-100673494D01*
X145220065Y-100670573D01*
X145220074Y-100670568D01*
X145227123Y-100668470D01*
X145234049Y-100666092D01*
X145234053Y-100666092D01*
X145279116Y-100641704D01*
X145291752Y-100635527D01*
X145312455Y-100625407D01*
X145376722Y-100614436D01*
X145376722Y-100614000D01*
X145379278Y-100614000D01*
X145381328Y-100613650D01*
X145381857Y-100613713D01*
X145384221Y-100614000D01*
X145384223Y-100614000D01*
X145536122Y-100614000D01*
X145585282Y-100601882D01*
X145683606Y-100577648D01*
X145818106Y-100507057D01*
X145931804Y-100406330D01*
X146018093Y-100281319D01*
X146071957Y-100139291D01*
X146090266Y-99988500D01*
X146071957Y-99837709D01*
X146069970Y-99832469D01*
X146064604Y-99762806D01*
X146097753Y-99701300D01*
X146158891Y-99667480D01*
X146185913Y-99664500D01*
X146762789Y-99664500D01*
X146788234Y-99667138D01*
X146797315Y-99669043D01*
X146813005Y-99667087D01*
X146829939Y-99664977D01*
X146837615Y-99664500D01*
X146841035Y-99664500D01*
X146841040Y-99664500D01*
X146844608Y-99663904D01*
X146862539Y-99660913D01*
X146889958Y-99657494D01*
X146913393Y-99654573D01*
X146913402Y-99654568D01*
X146920451Y-99652470D01*
X146927377Y-99650092D01*
X146927381Y-99650092D01*
X146972444Y-99625704D01*
X147018484Y-99603198D01*
X147018487Y-99603194D01*
X147024453Y-99598935D01*
X147030254Y-99594419D01*
X147030258Y-99594418D01*
X147064957Y-99556724D01*
X147153862Y-99467819D01*
X147215185Y-99434334D01*
X147241543Y-99431500D01*
X147395950Y-99431500D01*
X147445110Y-99419382D01*
X147543434Y-99395148D01*
X147677934Y-99324557D01*
X147791632Y-99223830D01*
X147877921Y-99098819D01*
X147931785Y-98956791D01*
X147940583Y-98884330D01*
X147968203Y-98820155D01*
X148026136Y-98781098D01*
X148095989Y-98779562D01*
X148108461Y-98783647D01*
X148287544Y-98853024D01*
X148488024Y-98890500D01*
X148488026Y-98890500D01*
X148691974Y-98890500D01*
X148691976Y-98890500D01*
X148697500Y-98889467D01*
X148767014Y-98896491D01*
X148821697Y-98939983D01*
X148844185Y-99006134D01*
X148827340Y-99073943D01*
X148807976Y-99099034D01*
X146583108Y-101323902D01*
X146563254Y-101340026D01*
X146554165Y-101345964D01*
X146554164Y-101345965D01*
X146532363Y-101373973D01*
X146527286Y-101379724D01*
X146524484Y-101382527D01*
X146524474Y-101382538D01*
X146510905Y-101401545D01*
X146477192Y-101444858D01*
X146473447Y-101451779D01*
X146469988Y-101458854D01*
X146454329Y-101511453D01*
X146436500Y-101563388D01*
X146435206Y-101571142D01*
X146434231Y-101578961D01*
X146436500Y-101633805D01*
X146436500Y-104597196D01*
X146416815Y-104664235D01*
X146394728Y-104690011D01*
X146340367Y-104738170D01*
X146254080Y-104863179D01*
X146254079Y-104863180D01*
X146200215Y-105005208D01*
X146193845Y-105057673D01*
X146181906Y-105156000D01*
X146200215Y-105306791D01*
X146254079Y-105448819D01*
X146340368Y-105573830D01*
X146454066Y-105674557D01*
X146588566Y-105745148D01*
X146662308Y-105763324D01*
X146736050Y-105781500D01*
X146736051Y-105781500D01*
X146887950Y-105781500D01*
X146937110Y-105769382D01*
X147035434Y-105745148D01*
X147169934Y-105674557D01*
X147283632Y-105573830D01*
X147369921Y-105448819D01*
X147423785Y-105306791D01*
X147442094Y-105156000D01*
X147423785Y-105005209D01*
X147369921Y-104863181D01*
X147283632Y-104738170D01*
X147229272Y-104690011D01*
X147192146Y-104630821D01*
X147187500Y-104597196D01*
X147187500Y-101832949D01*
X147207185Y-101765910D01*
X147223819Y-101745268D01*
X148157906Y-100811181D01*
X149117724Y-99851362D01*
X149179045Y-99817879D01*
X149248737Y-99822863D01*
X149304670Y-99864735D01*
X149307453Y-99868605D01*
X149388368Y-99985830D01*
X149467727Y-100056136D01*
X149504854Y-100115325D01*
X149509500Y-100148951D01*
X149509500Y-102289048D01*
X149489815Y-102356087D01*
X149467728Y-102381863D01*
X149388367Y-102452170D01*
X149302080Y-102577179D01*
X149302079Y-102577180D01*
X149248215Y-102719208D01*
X149240374Y-102783783D01*
X149229906Y-102870000D01*
X149248215Y-103020791D01*
X149302079Y-103162819D01*
X149388368Y-103287830D01*
X149502066Y-103388557D01*
X149636566Y-103459148D01*
X149710308Y-103477324D01*
X149784050Y-103495500D01*
X149784051Y-103495500D01*
X149935950Y-103495500D01*
X149985110Y-103483382D01*
X150083434Y-103459148D01*
X150217934Y-103388557D01*
X150331632Y-103287830D01*
X150417921Y-103162819D01*
X150471785Y-103020791D01*
X150490094Y-102870000D01*
X150471785Y-102719209D01*
X150417921Y-102577181D01*
X150331632Y-102452170D01*
X150285987Y-102411732D01*
X150252272Y-102381863D01*
X150215146Y-102322673D01*
X150210500Y-102289048D01*
X150210500Y-100148951D01*
X150230185Y-100081912D01*
X150252271Y-100056137D01*
X150331632Y-99985830D01*
X150417921Y-99860819D01*
X150471785Y-99718791D01*
X150490094Y-99568000D01*
X150471785Y-99417209D01*
X150417921Y-99275181D01*
X150331632Y-99150170D01*
X150217934Y-99049443D01*
X150171528Y-99025087D01*
X150121317Y-98976505D01*
X150105342Y-98908486D01*
X150128676Y-98842628D01*
X150141468Y-98827617D01*
X150292955Y-98676130D01*
X150354276Y-98642647D01*
X150423968Y-98647631D01*
X150459010Y-98669023D01*
X150459385Y-98668527D01*
X150463960Y-98671982D01*
X150519126Y-98706139D01*
X150637363Y-98779348D01*
X150827544Y-98853024D01*
X151028024Y-98890500D01*
X151028026Y-98890500D01*
X151231974Y-98890500D01*
X151231976Y-98890500D01*
X151432456Y-98853024D01*
X151622637Y-98779348D01*
X151796041Y-98671981D01*
X151946764Y-98534579D01*
X152069673Y-98371821D01*
X152160582Y-98189250D01*
X152216397Y-97993083D01*
X152235215Y-97790000D01*
X152216397Y-97586917D01*
X152160582Y-97390750D01*
X152148630Y-97366748D01*
X152106257Y-97281651D01*
X152069673Y-97208179D01*
X151988150Y-97100225D01*
X151963459Y-97034866D01*
X151978024Y-96966531D01*
X152027221Y-96916919D01*
X152087105Y-96901500D01*
X152712895Y-96901500D01*
X152779934Y-96921185D01*
X152825689Y-96973989D01*
X152835633Y-97043147D01*
X152811849Y-97100225D01*
X152778448Y-97144455D01*
X152730327Y-97208178D01*
X152639422Y-97390739D01*
X152639417Y-97390752D01*
X152583602Y-97586917D01*
X152564785Y-97789999D01*
X152564785Y-97790000D01*
X152583602Y-97993082D01*
X152639417Y-98189247D01*
X152639422Y-98189260D01*
X152730327Y-98371821D01*
X152853237Y-98534581D01*
X153003958Y-98671980D01*
X153003960Y-98671982D01*
X153059126Y-98706139D01*
X153177363Y-98779348D01*
X153177368Y-98779349D01*
X153177370Y-98779351D01*
X153207801Y-98791139D01*
X153240292Y-98803726D01*
X153295694Y-98846298D01*
X153319286Y-98912064D01*
X153319500Y-98919353D01*
X153319500Y-105024048D01*
X153299815Y-105091087D01*
X153277728Y-105116863D01*
X153198367Y-105187170D01*
X153112080Y-105312179D01*
X153112079Y-105312180D01*
X153060259Y-105448820D01*
X153058215Y-105454209D01*
X153039906Y-105605000D01*
X153058215Y-105755791D01*
X153112079Y-105897819D01*
X153198368Y-106022830D01*
X153312066Y-106123557D01*
X153446566Y-106194148D01*
X153520308Y-106212324D01*
X153594050Y-106230500D01*
X153594051Y-106230500D01*
X153745950Y-106230500D01*
X153795110Y-106218382D01*
X153893434Y-106194148D01*
X154027934Y-106123557D01*
X154141632Y-106022830D01*
X154227921Y-105897819D01*
X154281785Y-105755791D01*
X154300094Y-105605000D01*
X154281785Y-105454209D01*
X154227921Y-105312181D01*
X154141632Y-105187170D01*
X154106448Y-105156000D01*
X154062272Y-105116863D01*
X154025146Y-105057673D01*
X154020500Y-105024048D01*
X154020500Y-99060000D01*
X160903393Y-99060000D01*
X160923789Y-99319153D01*
X160984472Y-99571919D01*
X161083951Y-99812084D01*
X161219773Y-100033723D01*
X161219774Y-100033726D01*
X161266470Y-100088400D01*
X161388602Y-100231398D01*
X161541616Y-100362084D01*
X161586273Y-100400225D01*
X161586276Y-100400226D01*
X161807915Y-100536048D01*
X161908347Y-100577648D01*
X162048080Y-100635527D01*
X162300850Y-100696211D01*
X162471234Y-100709620D01*
X162495108Y-100711500D01*
X162495111Y-100711500D01*
X162624892Y-100711500D01*
X162647825Y-100709694D01*
X162819150Y-100696211D01*
X163071920Y-100635527D01*
X163312084Y-100536048D01*
X163533729Y-100400223D01*
X163731398Y-100231398D01*
X163900223Y-100033729D01*
X164036048Y-99812084D01*
X164135527Y-99571920D01*
X164196211Y-99319150D01*
X164216607Y-99060000D01*
X164196211Y-98800850D01*
X164135527Y-98548080D01*
X164071855Y-98394361D01*
X164036048Y-98307915D01*
X163900226Y-98086276D01*
X163900225Y-98086273D01*
X163820961Y-97993467D01*
X163731398Y-97888602D01*
X163600710Y-97776984D01*
X163533726Y-97719774D01*
X163533723Y-97719773D01*
X163312084Y-97583951D01*
X163071919Y-97484472D01*
X162887169Y-97440118D01*
X162819150Y-97423789D01*
X162670759Y-97412110D01*
X162624892Y-97408500D01*
X162624889Y-97408500D01*
X162495111Y-97408500D01*
X162495108Y-97408500D01*
X162445322Y-97412418D01*
X162300850Y-97423789D01*
X162300846Y-97423790D01*
X162048080Y-97484472D01*
X161807915Y-97583951D01*
X161586276Y-97719773D01*
X161586273Y-97719774D01*
X161388602Y-97888602D01*
X161219774Y-98086273D01*
X161219773Y-98086276D01*
X161083951Y-98307915D01*
X160984472Y-98548080D01*
X160923789Y-98800846D01*
X160903393Y-99060000D01*
X154020500Y-99060000D01*
X154020500Y-98919353D01*
X154040185Y-98852314D01*
X154092989Y-98806559D01*
X154099699Y-98803729D01*
X154162637Y-98779348D01*
X154336041Y-98671981D01*
X154486764Y-98534579D01*
X154609673Y-98371821D01*
X154700582Y-98189250D01*
X154756397Y-97993083D01*
X154775215Y-97790000D01*
X154756397Y-97586917D01*
X154700582Y-97390750D01*
X154688630Y-97366748D01*
X154646257Y-97281651D01*
X154609673Y-97208179D01*
X154528150Y-97100225D01*
X154503459Y-97034866D01*
X154518024Y-96966531D01*
X154567221Y-96916919D01*
X154627105Y-96901500D01*
X155252895Y-96901500D01*
X155319934Y-96921185D01*
X155365689Y-96973989D01*
X155375633Y-97043147D01*
X155351849Y-97100225D01*
X155318448Y-97144455D01*
X155270327Y-97208178D01*
X155179422Y-97390739D01*
X155179417Y-97390752D01*
X155123602Y-97586917D01*
X155104785Y-97789999D01*
X155104785Y-97790000D01*
X155123602Y-97993082D01*
X155179417Y-98189247D01*
X155179422Y-98189260D01*
X155270327Y-98371821D01*
X155393237Y-98534581D01*
X155543958Y-98671980D01*
X155543960Y-98671982D01*
X155599126Y-98706139D01*
X155717363Y-98779348D01*
X155907544Y-98853024D01*
X156108024Y-98890500D01*
X156108026Y-98890500D01*
X156311974Y-98890500D01*
X156311976Y-98890500D01*
X156512456Y-98853024D01*
X156702637Y-98779348D01*
X156876041Y-98671981D01*
X157026764Y-98534579D01*
X157149673Y-98371821D01*
X157240582Y-98189250D01*
X157296397Y-97993083D01*
X157315215Y-97790000D01*
X157296397Y-97586917D01*
X157240582Y-97390750D01*
X157228630Y-97366748D01*
X157186257Y-97281651D01*
X157149673Y-97208179D01*
X157068150Y-97100225D01*
X157043459Y-97034866D01*
X157058024Y-96966531D01*
X157107221Y-96916919D01*
X157167105Y-96901500D01*
X157792895Y-96901500D01*
X157859934Y-96921185D01*
X157905689Y-96973989D01*
X157915633Y-97043147D01*
X157891849Y-97100225D01*
X157858448Y-97144455D01*
X157810327Y-97208178D01*
X157719422Y-97390739D01*
X157719417Y-97390752D01*
X157663602Y-97586917D01*
X157644785Y-97789999D01*
X157644785Y-97790000D01*
X157663602Y-97993082D01*
X157719417Y-98189247D01*
X157719422Y-98189260D01*
X157810327Y-98371821D01*
X157933237Y-98534581D01*
X158083958Y-98671980D01*
X158083960Y-98671982D01*
X158139126Y-98706139D01*
X158257363Y-98779348D01*
X158447544Y-98853024D01*
X158648024Y-98890500D01*
X158648026Y-98890500D01*
X158851974Y-98890500D01*
X158851976Y-98890500D01*
X159052456Y-98853024D01*
X159242637Y-98779348D01*
X159416041Y-98671981D01*
X159566764Y-98534579D01*
X159689673Y-98371821D01*
X159780582Y-98189250D01*
X159836397Y-97993083D01*
X159855215Y-97790000D01*
X159836397Y-97586917D01*
X159780582Y-97390750D01*
X159768630Y-97366748D01*
X159726257Y-97281651D01*
X159689673Y-97208179D01*
X159608150Y-97100225D01*
X159583459Y-97034866D01*
X159598024Y-96966531D01*
X159647221Y-96916919D01*
X159707105Y-96901500D01*
X162505149Y-96901500D01*
X162558122Y-96901500D01*
X162561866Y-96901613D01*
X162622372Y-96905272D01*
X162816438Y-96917011D01*
X162823871Y-96917915D01*
X162872748Y-96926871D01*
X163072889Y-96963548D01*
X163080138Y-96965336D01*
X163321838Y-97040652D01*
X163328831Y-97043305D01*
X163455307Y-97100227D01*
X163559687Y-97147204D01*
X163566313Y-97150682D01*
X163634927Y-97192161D01*
X163782961Y-97281651D01*
X163789127Y-97285907D01*
X163988405Y-97442033D01*
X163993993Y-97446983D01*
X164173015Y-97626005D01*
X164177967Y-97631595D01*
X164247051Y-97719773D01*
X164334091Y-97830871D01*
X164338348Y-97837038D01*
X164469314Y-98053681D01*
X164472797Y-98060317D01*
X164576694Y-98291168D01*
X164579350Y-98298170D01*
X164649063Y-98521887D01*
X164654660Y-98539849D01*
X164656454Y-98547125D01*
X164702084Y-98796128D01*
X164702988Y-98803567D01*
X164718277Y-99056334D01*
X164718286Y-99063678D01*
X164704198Y-99306263D01*
X164703365Y-99313409D01*
X164661276Y-99552817D01*
X164659621Y-99559819D01*
X164590101Y-99792748D01*
X164587647Y-99799512D01*
X164491629Y-100022830D01*
X164488408Y-100029264D01*
X164367189Y-100239958D01*
X164363245Y-100245976D01*
X164218454Y-100441217D01*
X164213840Y-100446738D01*
X164047412Y-100623917D01*
X164042190Y-100628867D01*
X163856376Y-100785584D01*
X163850616Y-100789895D01*
X163646412Y-100925042D01*
X163643356Y-100926940D01*
X163593765Y-100955772D01*
X163593570Y-100955903D01*
X163507765Y-101005800D01*
X163507749Y-101005810D01*
X163252303Y-101194075D01*
X163018756Y-101408894D01*
X163018738Y-101408911D01*
X162809843Y-101647743D01*
X162809836Y-101647752D01*
X162809831Y-101647758D01*
X162809831Y-101647759D01*
X162794874Y-101669154D01*
X162628010Y-101907839D01*
X162475426Y-102186080D01*
X162353874Y-102479208D01*
X162264783Y-102783774D01*
X162264781Y-102783783D01*
X162209203Y-103096188D01*
X162209200Y-103096209D01*
X162187782Y-103412800D01*
X162187781Y-103412815D01*
X162193944Y-103563485D01*
X162193944Y-112336269D01*
X162187771Y-112487184D01*
X162187772Y-112487199D01*
X162209190Y-112803791D01*
X162209193Y-112803812D01*
X162264772Y-113116218D01*
X162264774Y-113116227D01*
X162264775Y-113116231D01*
X162278310Y-113162500D01*
X162343196Y-113384322D01*
X162353867Y-113420800D01*
X162368231Y-113455439D01*
X162475418Y-113713929D01*
X162628001Y-113992166D01*
X162771054Y-114196791D01*
X162809824Y-114252247D01*
X163018741Y-114491105D01*
X163252298Y-114705932D01*
X163507747Y-114894201D01*
X163530219Y-114907268D01*
X163593287Y-114943944D01*
X163593359Y-114943993D01*
X163643338Y-114973050D01*
X163646394Y-114974947D01*
X163662870Y-114985851D01*
X163850623Y-115110109D01*
X163856377Y-115114417D01*
X164042193Y-115271137D01*
X164047410Y-115276082D01*
X164186549Y-115424208D01*
X164213832Y-115453253D01*
X164218446Y-115458774D01*
X164363247Y-115654028D01*
X164367190Y-115660044D01*
X164473560Y-115844931D01*
X164488411Y-115870743D01*
X164491631Y-115877177D01*
X164587649Y-116100494D01*
X164590098Y-116107243D01*
X164659621Y-116340181D01*
X164661275Y-116347183D01*
X164703364Y-116586590D01*
X164704197Y-116593736D01*
X164718285Y-116836333D01*
X164718276Y-116843677D01*
X164702988Y-117096432D01*
X164702084Y-117103871D01*
X164656454Y-117352874D01*
X164654660Y-117360150D01*
X164579352Y-117601824D01*
X164576694Y-117608831D01*
X164472797Y-117839682D01*
X164469314Y-117846318D01*
X164338348Y-118062961D01*
X164334091Y-118069128D01*
X164216811Y-118218824D01*
X164178822Y-118267315D01*
X164177977Y-118268393D01*
X164173008Y-118274002D01*
X163994002Y-118453008D01*
X163988396Y-118457974D01*
X163965119Y-118476211D01*
X163789128Y-118614091D01*
X163782961Y-118618348D01*
X163566318Y-118749314D01*
X163559682Y-118752797D01*
X163328831Y-118856694D01*
X163321824Y-118859352D01*
X163080150Y-118934660D01*
X163072874Y-118936454D01*
X162823871Y-118982084D01*
X162816432Y-118982988D01*
X162561867Y-118998387D01*
X162558122Y-118998500D01*
X159707105Y-118998500D01*
X159640066Y-118978815D01*
X159594311Y-118926011D01*
X159584367Y-118856853D01*
X159608150Y-118799774D01*
X159689673Y-118691821D01*
X159780582Y-118509250D01*
X159836397Y-118313083D01*
X159855215Y-118110000D01*
X159851153Y-118066168D01*
X159836397Y-117906917D01*
X159825438Y-117868400D01*
X159780582Y-117710750D01*
X159769313Y-117688119D01*
X159704076Y-117557104D01*
X159689673Y-117528179D01*
X159566764Y-117365421D01*
X159566762Y-117365418D01*
X159416041Y-117228019D01*
X159416039Y-117228017D01*
X159242642Y-117120655D01*
X159242635Y-117120651D01*
X159098734Y-117064904D01*
X159052456Y-117046976D01*
X158851976Y-117009500D01*
X158648024Y-117009500D01*
X158447544Y-117046976D01*
X158447541Y-117046976D01*
X158447541Y-117046977D01*
X158257364Y-117120651D01*
X158257357Y-117120655D01*
X158083960Y-117228017D01*
X158083958Y-117228019D01*
X157933237Y-117365418D01*
X157810327Y-117528178D01*
X157719422Y-117710739D01*
X157719417Y-117710752D01*
X157663602Y-117906917D01*
X157644785Y-118109999D01*
X157644785Y-118110000D01*
X157663602Y-118313082D01*
X157719417Y-118509247D01*
X157719422Y-118509260D01*
X157794731Y-118660500D01*
X157810327Y-118691821D01*
X157891849Y-118799774D01*
X157916541Y-118865134D01*
X157901976Y-118933469D01*
X157852779Y-118983081D01*
X157792895Y-118998500D01*
X157167105Y-118998500D01*
X157100066Y-118978815D01*
X157054311Y-118926011D01*
X157044367Y-118856853D01*
X157068150Y-118799774D01*
X157149673Y-118691821D01*
X157240582Y-118509250D01*
X157296397Y-118313083D01*
X157315215Y-118110000D01*
X157311153Y-118066168D01*
X157296397Y-117906917D01*
X157285438Y-117868400D01*
X157240582Y-117710750D01*
X157229313Y-117688119D01*
X157164076Y-117557104D01*
X157149673Y-117528179D01*
X157026764Y-117365421D01*
X157026762Y-117365418D01*
X156876041Y-117228019D01*
X156876039Y-117228017D01*
X156702642Y-117120655D01*
X156702635Y-117120651D01*
X156558734Y-117064904D01*
X156512456Y-117046976D01*
X156311976Y-117009500D01*
X156108024Y-117009500D01*
X155907544Y-117046976D01*
X155907541Y-117046976D01*
X155907541Y-117046977D01*
X155717364Y-117120651D01*
X155717357Y-117120655D01*
X155543960Y-117228017D01*
X155543958Y-117228019D01*
X155393237Y-117365418D01*
X155270327Y-117528178D01*
X155179422Y-117710739D01*
X155179417Y-117710752D01*
X155123602Y-117906917D01*
X155104785Y-118109999D01*
X155104785Y-118110000D01*
X155123602Y-118313082D01*
X155179417Y-118509247D01*
X155179422Y-118509260D01*
X155254731Y-118660500D01*
X155270327Y-118691821D01*
X155351849Y-118799774D01*
X155376541Y-118865134D01*
X155361976Y-118933469D01*
X155312779Y-118983081D01*
X155252895Y-118998500D01*
X154627105Y-118998500D01*
X154560066Y-118978815D01*
X154514311Y-118926011D01*
X154504367Y-118856853D01*
X154528150Y-118799774D01*
X154609673Y-118691821D01*
X154700582Y-118509250D01*
X154756397Y-118313083D01*
X154775215Y-118110000D01*
X154771153Y-118066168D01*
X154756397Y-117906917D01*
X154745438Y-117868400D01*
X154700582Y-117710750D01*
X154689313Y-117688119D01*
X154624076Y-117557104D01*
X154609673Y-117528179D01*
X154486764Y-117365421D01*
X154486762Y-117365418D01*
X154336041Y-117228019D01*
X154336039Y-117228017D01*
X154162642Y-117120655D01*
X154162635Y-117120651D01*
X154018734Y-117064904D01*
X153972456Y-117046976D01*
X153771976Y-117009500D01*
X153568024Y-117009500D01*
X153367544Y-117046976D01*
X153367541Y-117046976D01*
X153367541Y-117046977D01*
X153177364Y-117120651D01*
X153177357Y-117120655D01*
X153003960Y-117228017D01*
X153003958Y-117228019D01*
X152853237Y-117365418D01*
X152730327Y-117528178D01*
X152639422Y-117710739D01*
X152639417Y-117710752D01*
X152583602Y-117906917D01*
X152564785Y-118109999D01*
X152564785Y-118110000D01*
X152583602Y-118313082D01*
X152639417Y-118509247D01*
X152639422Y-118509260D01*
X152714731Y-118660500D01*
X152730327Y-118691821D01*
X152811849Y-118799774D01*
X152836541Y-118865134D01*
X152821976Y-118933469D01*
X152772779Y-118983081D01*
X152712895Y-118998500D01*
X152087105Y-118998500D01*
X152020066Y-118978815D01*
X151974311Y-118926011D01*
X151964367Y-118856853D01*
X151988150Y-118799774D01*
X152069673Y-118691821D01*
X152160582Y-118509250D01*
X152216397Y-118313083D01*
X152235215Y-118110000D01*
X152231153Y-118066168D01*
X152216397Y-117906917D01*
X152205438Y-117868400D01*
X152160582Y-117710750D01*
X152149313Y-117688119D01*
X152084076Y-117557104D01*
X152069673Y-117528179D01*
X151946764Y-117365421D01*
X151946762Y-117365418D01*
X151796041Y-117228019D01*
X151796039Y-117228017D01*
X151622642Y-117120655D01*
X151622635Y-117120651D01*
X151478734Y-117064904D01*
X151432456Y-117046976D01*
X151231976Y-117009500D01*
X151028024Y-117009500D01*
X150827544Y-117046976D01*
X150827541Y-117046976D01*
X150827541Y-117046977D01*
X150711963Y-117091752D01*
X150642339Y-117097614D01*
X150580599Y-117064904D01*
X150579488Y-117063806D01*
X150355682Y-116840000D01*
X160903393Y-116840000D01*
X160923789Y-117099153D01*
X160984472Y-117351919D01*
X161083951Y-117592084D01*
X161219773Y-117813723D01*
X161219774Y-117813726D01*
X161266470Y-117868400D01*
X161388602Y-118011398D01*
X161541616Y-118142084D01*
X161586273Y-118180225D01*
X161586276Y-118180226D01*
X161807915Y-118316048D01*
X162048080Y-118415527D01*
X162300850Y-118476211D01*
X162471234Y-118489620D01*
X162495108Y-118491500D01*
X162495111Y-118491500D01*
X162624892Y-118491500D01*
X162647825Y-118489694D01*
X162819150Y-118476211D01*
X163071920Y-118415527D01*
X163312084Y-118316048D01*
X163533729Y-118180223D01*
X163731398Y-118011398D01*
X163900223Y-117813729D01*
X164036048Y-117592084D01*
X164135527Y-117351920D01*
X164196211Y-117099150D01*
X164216607Y-116840000D01*
X164196211Y-116580850D01*
X164135527Y-116328080D01*
X164111460Y-116269977D01*
X164036048Y-116087915D01*
X163900226Y-115866276D01*
X163900225Y-115866273D01*
X163832664Y-115787170D01*
X163731398Y-115668602D01*
X163600710Y-115556984D01*
X163533726Y-115499774D01*
X163533723Y-115499773D01*
X163312084Y-115363951D01*
X163071919Y-115264472D01*
X162887169Y-115220118D01*
X162819150Y-115203789D01*
X162670759Y-115192110D01*
X162624892Y-115188500D01*
X162624889Y-115188500D01*
X162495111Y-115188500D01*
X162495108Y-115188500D01*
X162445322Y-115192418D01*
X162300850Y-115203789D01*
X162300846Y-115203790D01*
X162048080Y-115264472D01*
X161807915Y-115363951D01*
X161586276Y-115499773D01*
X161586273Y-115499774D01*
X161388602Y-115668602D01*
X161219774Y-115866273D01*
X161219773Y-115866276D01*
X161083951Y-116087915D01*
X160984472Y-116328080D01*
X160923789Y-116580846D01*
X160903393Y-116840000D01*
X150355682Y-116840000D01*
X149888637Y-116372955D01*
X149872511Y-116353098D01*
X149867437Y-116345331D01*
X149841487Y-116325133D01*
X149835741Y-116320059D01*
X149833307Y-116317625D01*
X149833306Y-116317624D01*
X149833305Y-116317623D01*
X149826848Y-116313013D01*
X149815561Y-116304955D01*
X149775126Y-116273483D01*
X149775122Y-116273481D01*
X149768648Y-116269977D01*
X149762069Y-116266760D01*
X149712954Y-116252138D01*
X149664486Y-116235498D01*
X149657269Y-116234294D01*
X149649953Y-116233382D01*
X149600725Y-116235419D01*
X149598769Y-116235500D01*
X146887187Y-116235500D01*
X146820148Y-116215815D01*
X146785138Y-116181941D01*
X146775631Y-116168169D01*
X146770658Y-116162555D01*
X146772444Y-116160971D01*
X146741493Y-116111631D01*
X146742257Y-116041766D01*
X146772348Y-115994942D01*
X146770658Y-115993444D01*
X146776126Y-115987272D01*
X146778056Y-115986061D01*
X146778622Y-115985181D01*
X146781250Y-115982853D01*
X146781936Y-115983627D01*
X146835316Y-115950146D01*
X146868941Y-115945500D01*
X153740629Y-115945500D01*
X153807668Y-115965185D01*
X153833442Y-115987271D01*
X153838361Y-115992824D01*
X153859424Y-116011483D01*
X153952066Y-116093557D01*
X154086566Y-116164148D01*
X154158755Y-116181941D01*
X154234050Y-116200500D01*
X154234051Y-116200500D01*
X154385950Y-116200500D01*
X154461245Y-116181941D01*
X154533434Y-116164148D01*
X154667934Y-116093557D01*
X154781632Y-115992830D01*
X154867921Y-115867819D01*
X154921785Y-115725791D01*
X154940094Y-115575000D01*
X154921785Y-115424209D01*
X154867921Y-115282181D01*
X154781632Y-115157170D01*
X154667934Y-115056443D01*
X154533434Y-114985852D01*
X154533433Y-114985851D01*
X154533432Y-114985851D01*
X154385950Y-114949500D01*
X154385949Y-114949500D01*
X154234051Y-114949500D01*
X154234050Y-114949500D01*
X154086567Y-114985851D01*
X153952067Y-115056442D01*
X153952066Y-115056443D01*
X153838398Y-115157144D01*
X153832754Y-115162144D01*
X153830800Y-115159939D01*
X153783132Y-115189849D01*
X153749489Y-115194500D01*
X146868941Y-115194500D01*
X146801902Y-115174815D01*
X146781260Y-115157127D01*
X146781246Y-115157144D01*
X146780255Y-115156266D01*
X146776126Y-115152728D01*
X146775632Y-115152170D01*
X146671781Y-115060167D01*
X146661934Y-115051443D01*
X146527434Y-114980852D01*
X146527433Y-114980851D01*
X146527432Y-114980851D01*
X146379950Y-114944500D01*
X146379949Y-114944500D01*
X146228051Y-114944500D01*
X146228050Y-114944500D01*
X146080567Y-114980851D01*
X145946067Y-115051442D01*
X145832367Y-115152171D01*
X145746080Y-115277179D01*
X145746079Y-115277180D01*
X145713172Y-115363951D01*
X145692215Y-115419209D01*
X145673906Y-115570000D01*
X145692215Y-115720791D01*
X145746079Y-115862819D01*
X145780151Y-115912181D01*
X145832369Y-115987832D01*
X145837342Y-115993445D01*
X145835558Y-115995025D01*
X145866513Y-116044391D01*
X145865735Y-116114257D01*
X145835655Y-116161061D01*
X145837342Y-116162555D01*
X145832369Y-116168167D01*
X145746080Y-116293179D01*
X145746079Y-116293180D01*
X145692215Y-116435208D01*
X145673906Y-116586000D01*
X145692215Y-116736791D01*
X145746079Y-116878819D01*
X145746081Y-116878824D01*
X145748715Y-116882639D01*
X145770597Y-116948994D01*
X145753130Y-117016645D01*
X145701862Y-117064114D01*
X145691463Y-117068701D01*
X145667082Y-117078147D01*
X145557364Y-117120651D01*
X145557357Y-117120655D01*
X145383960Y-117228017D01*
X145383958Y-117228019D01*
X145233237Y-117365418D01*
X145110327Y-117528178D01*
X145019422Y-117710739D01*
X145019417Y-117710752D01*
X144963602Y-117906917D01*
X144944785Y-118109999D01*
X144944785Y-118110000D01*
X144963602Y-118313082D01*
X145019417Y-118509247D01*
X145019422Y-118509260D01*
X145094731Y-118660500D01*
X145110327Y-118691821D01*
X145191849Y-118799774D01*
X145216541Y-118865134D01*
X145201976Y-118933469D01*
X145152779Y-118983081D01*
X145092895Y-118998500D01*
X144467105Y-118998500D01*
X144400066Y-118978815D01*
X144354311Y-118926011D01*
X144344367Y-118856853D01*
X144368150Y-118799774D01*
X144449673Y-118691821D01*
X144540582Y-118509250D01*
X144596397Y-118313083D01*
X144615215Y-118110000D01*
X144611153Y-118066168D01*
X144596397Y-117906917D01*
X144585438Y-117868400D01*
X144540582Y-117710750D01*
X144529313Y-117688119D01*
X144464076Y-117557104D01*
X144449673Y-117528179D01*
X144326764Y-117365421D01*
X144326762Y-117365418D01*
X144176041Y-117228019D01*
X144176039Y-117228017D01*
X144002642Y-117120655D01*
X144002635Y-117120651D01*
X143858734Y-117064904D01*
X143812456Y-117046976D01*
X143611976Y-117009500D01*
X143408024Y-117009500D01*
X143207544Y-117046976D01*
X143207541Y-117046976D01*
X143207541Y-117046977D01*
X143017364Y-117120651D01*
X143017357Y-117120655D01*
X142843960Y-117228017D01*
X142843958Y-117228019D01*
X142693237Y-117365418D01*
X142570327Y-117528178D01*
X142479422Y-117710739D01*
X142479417Y-117710752D01*
X142423602Y-117906917D01*
X142404785Y-118109999D01*
X142404785Y-118110000D01*
X142423602Y-118313082D01*
X142479417Y-118509247D01*
X142479422Y-118509260D01*
X142554731Y-118660500D01*
X142570327Y-118691821D01*
X142651849Y-118799774D01*
X142676541Y-118865134D01*
X142661976Y-118933469D01*
X142612779Y-118983081D01*
X142552895Y-118998500D01*
X141927105Y-118998500D01*
X141860066Y-118978815D01*
X141814311Y-118926011D01*
X141804367Y-118856853D01*
X141828150Y-118799774D01*
X141909673Y-118691821D01*
X142000582Y-118509250D01*
X142056397Y-118313083D01*
X142075215Y-118110000D01*
X142071153Y-118066168D01*
X142056397Y-117906917D01*
X142045438Y-117868400D01*
X142000582Y-117710750D01*
X141989313Y-117688119D01*
X141924076Y-117557104D01*
X141909673Y-117528179D01*
X141786764Y-117365421D01*
X141786762Y-117365418D01*
X141636041Y-117228019D01*
X141636039Y-117228017D01*
X141462642Y-117120655D01*
X141462635Y-117120651D01*
X141318734Y-117064904D01*
X141272456Y-117046976D01*
X141071976Y-117009500D01*
X140868024Y-117009500D01*
X140667544Y-117046976D01*
X140667541Y-117046976D01*
X140667541Y-117046977D01*
X140477364Y-117120651D01*
X140477357Y-117120655D01*
X140303960Y-117228017D01*
X140303958Y-117228019D01*
X140153237Y-117365418D01*
X140030327Y-117528178D01*
X139939422Y-117710739D01*
X139939417Y-117710752D01*
X139883602Y-117906917D01*
X139864785Y-118109999D01*
X139864785Y-118110000D01*
X139883602Y-118313082D01*
X139939417Y-118509247D01*
X139939422Y-118509260D01*
X140014731Y-118660500D01*
X140030327Y-118691821D01*
X140111849Y-118799774D01*
X140136541Y-118865134D01*
X140121976Y-118933469D01*
X140072779Y-118983081D01*
X140012895Y-118998500D01*
X139387105Y-118998500D01*
X139320066Y-118978815D01*
X139274311Y-118926011D01*
X139264367Y-118856853D01*
X139288150Y-118799774D01*
X139369673Y-118691821D01*
X139460582Y-118509250D01*
X139516397Y-118313083D01*
X139535215Y-118110000D01*
X139531153Y-118066168D01*
X139516397Y-117906917D01*
X139505438Y-117868400D01*
X139460582Y-117710750D01*
X139449313Y-117688119D01*
X139384076Y-117557104D01*
X139369673Y-117528179D01*
X139246764Y-117365421D01*
X139246762Y-117365418D01*
X139096041Y-117228019D01*
X139096039Y-117228017D01*
X138922642Y-117120655D01*
X138922635Y-117120651D01*
X138778734Y-117064904D01*
X138732456Y-117046976D01*
X138531976Y-117009500D01*
X138328024Y-117009500D01*
X138127544Y-117046976D01*
X138127541Y-117046976D01*
X138127541Y-117046977D01*
X137937364Y-117120651D01*
X137937357Y-117120655D01*
X137763960Y-117228017D01*
X137763958Y-117228019D01*
X137613237Y-117365418D01*
X137490327Y-117528178D01*
X137399422Y-117710739D01*
X137399417Y-117710752D01*
X137343602Y-117906917D01*
X137324785Y-118109999D01*
X137324785Y-118110000D01*
X137343602Y-118313082D01*
X137399417Y-118509247D01*
X137399422Y-118509260D01*
X137474731Y-118660500D01*
X137490327Y-118691821D01*
X137571849Y-118799774D01*
X137596541Y-118865134D01*
X137581976Y-118933469D01*
X137532779Y-118983081D01*
X137472895Y-118998500D01*
X136847105Y-118998500D01*
X136780066Y-118978815D01*
X136734311Y-118926011D01*
X136724367Y-118856853D01*
X136748150Y-118799774D01*
X136829673Y-118691821D01*
X136920582Y-118509250D01*
X136976397Y-118313083D01*
X136995215Y-118110000D01*
X136991153Y-118066168D01*
X136976397Y-117906917D01*
X136965438Y-117868400D01*
X136920582Y-117710750D01*
X136909313Y-117688119D01*
X136844076Y-117557104D01*
X136829673Y-117528179D01*
X136706764Y-117365421D01*
X136706762Y-117365418D01*
X136556041Y-117228019D01*
X136556039Y-117228017D01*
X136382642Y-117120655D01*
X136382635Y-117120651D01*
X136238734Y-117064904D01*
X136192456Y-117046976D01*
X135991976Y-117009500D01*
X135788024Y-117009500D01*
X135587544Y-117046976D01*
X135587541Y-117046976D01*
X135587541Y-117046977D01*
X135397364Y-117120651D01*
X135397357Y-117120655D01*
X135223960Y-117228017D01*
X135223958Y-117228019D01*
X135073237Y-117365418D01*
X134950327Y-117528178D01*
X134859422Y-117710739D01*
X134859417Y-117710752D01*
X134803602Y-117906917D01*
X134784785Y-118109999D01*
X134784785Y-118110000D01*
X134803602Y-118313082D01*
X134859417Y-118509247D01*
X134859422Y-118509260D01*
X134934731Y-118660500D01*
X134950327Y-118691821D01*
X135031849Y-118799774D01*
X135056541Y-118865134D01*
X135041976Y-118933469D01*
X134992779Y-118983081D01*
X134932895Y-118998500D01*
X134307105Y-118998500D01*
X134240066Y-118978815D01*
X134194311Y-118926011D01*
X134184367Y-118856853D01*
X134208150Y-118799774D01*
X134289673Y-118691821D01*
X134380582Y-118509250D01*
X134436397Y-118313083D01*
X134455215Y-118110000D01*
X134451153Y-118066168D01*
X134436397Y-117906917D01*
X134425438Y-117868400D01*
X134380582Y-117710750D01*
X134369313Y-117688119D01*
X134304076Y-117557104D01*
X134289673Y-117528179D01*
X134166764Y-117365421D01*
X134166762Y-117365418D01*
X134016041Y-117228019D01*
X134016039Y-117228017D01*
X133842642Y-117120655D01*
X133842635Y-117120651D01*
X133698734Y-117064904D01*
X133652456Y-117046976D01*
X133451976Y-117009500D01*
X133248024Y-117009500D01*
X133047544Y-117046976D01*
X133047541Y-117046976D01*
X133047541Y-117046977D01*
X132857364Y-117120651D01*
X132857357Y-117120655D01*
X132683960Y-117228017D01*
X132683958Y-117228019D01*
X132533237Y-117365418D01*
X132410327Y-117528178D01*
X132319422Y-117710739D01*
X132319417Y-117710752D01*
X132263602Y-117906917D01*
X132244785Y-118109999D01*
X132244785Y-118110000D01*
X132263602Y-118313082D01*
X132319417Y-118509247D01*
X132319422Y-118509260D01*
X132394731Y-118660500D01*
X132410327Y-118691821D01*
X132491849Y-118799774D01*
X132516541Y-118865134D01*
X132501976Y-118933469D01*
X132452779Y-118983081D01*
X132392895Y-118998500D01*
X131767105Y-118998500D01*
X131700066Y-118978815D01*
X131654311Y-118926011D01*
X131644367Y-118856853D01*
X131668150Y-118799774D01*
X131749673Y-118691821D01*
X131840582Y-118509250D01*
X131896397Y-118313083D01*
X131915215Y-118110000D01*
X131911153Y-118066168D01*
X131896397Y-117906917D01*
X131885438Y-117868400D01*
X131840582Y-117710750D01*
X131829313Y-117688119D01*
X131764076Y-117557104D01*
X131749673Y-117528179D01*
X131626764Y-117365421D01*
X131626762Y-117365418D01*
X131476041Y-117228019D01*
X131476039Y-117228017D01*
X131302642Y-117120655D01*
X131302635Y-117120651D01*
X131158734Y-117064904D01*
X131112456Y-117046976D01*
X130911976Y-117009500D01*
X130708024Y-117009500D01*
X130507544Y-117046976D01*
X130507541Y-117046976D01*
X130507541Y-117046977D01*
X130317364Y-117120651D01*
X130317357Y-117120655D01*
X130143960Y-117228017D01*
X130143958Y-117228019D01*
X129993237Y-117365418D01*
X129870327Y-117528178D01*
X129779422Y-117710739D01*
X129779417Y-117710752D01*
X129723602Y-117906917D01*
X129704785Y-118109999D01*
X129704785Y-118110000D01*
X129723602Y-118313082D01*
X129779417Y-118509247D01*
X129779422Y-118509260D01*
X129854731Y-118660500D01*
X129870327Y-118691821D01*
X129951849Y-118799774D01*
X129976541Y-118865134D01*
X129961976Y-118933469D01*
X129912779Y-118983081D01*
X129852895Y-118998500D01*
X129226478Y-118998500D01*
X129159439Y-118978815D01*
X129113684Y-118926011D01*
X129103740Y-118856853D01*
X129127524Y-118799773D01*
X129209245Y-118691556D01*
X129300113Y-118509069D01*
X129300116Y-118509063D01*
X129355902Y-118312992D01*
X129355903Y-118312989D01*
X129374713Y-118110000D01*
X129374713Y-118109999D01*
X129355903Y-117907010D01*
X129355902Y-117907007D01*
X129300116Y-117710936D01*
X129300113Y-117710930D01*
X129266633Y-117643694D01*
X128822824Y-118087503D01*
X128823877Y-118072114D01*
X128793116Y-117924085D01*
X128723558Y-117789844D01*
X128620362Y-117679348D01*
X128491181Y-117600791D01*
X128345596Y-117560000D01*
X128289671Y-117560000D01*
X128738018Y-117111650D01*
X128738018Y-117111649D01*
X128572323Y-117047460D01*
X128572320Y-117047459D01*
X128371928Y-117010000D01*
X128168072Y-117010000D01*
X127967679Y-117047459D01*
X127967676Y-117047460D01*
X127801980Y-117111649D01*
X127801980Y-117111650D01*
X128250330Y-117560000D01*
X128232378Y-117560000D01*
X128120217Y-117575416D01*
X127981542Y-117635651D01*
X127864261Y-117731066D01*
X127777072Y-117854585D01*
X127726441Y-117997047D01*
X127720056Y-118090385D01*
X127273365Y-117643694D01*
X127239888Y-117710927D01*
X127239881Y-117710943D01*
X127184097Y-117907007D01*
X127184096Y-117907010D01*
X127165287Y-118109999D01*
X127165287Y-118110000D01*
X127184096Y-118312989D01*
X127184097Y-118312992D01*
X127239883Y-118509063D01*
X127239886Y-118509069D01*
X127330754Y-118691556D01*
X127412476Y-118799773D01*
X127437168Y-118865134D01*
X127422603Y-118933469D01*
X127373406Y-118983081D01*
X127313522Y-118998500D01*
X126687105Y-118998500D01*
X126620066Y-118978815D01*
X126574311Y-118926011D01*
X126564367Y-118856853D01*
X126588150Y-118799774D01*
X126669673Y-118691821D01*
X126760582Y-118509250D01*
X126816397Y-118313083D01*
X126835215Y-118110000D01*
X126831153Y-118066168D01*
X126816397Y-117906917D01*
X126805438Y-117868400D01*
X126760582Y-117710750D01*
X126749313Y-117688119D01*
X126684076Y-117557104D01*
X126669673Y-117528179D01*
X126546764Y-117365421D01*
X126546762Y-117365418D01*
X126396041Y-117228019D01*
X126396039Y-117228017D01*
X126222642Y-117120655D01*
X126222635Y-117120651D01*
X126078734Y-117064904D01*
X126032456Y-117046976D01*
X125831976Y-117009500D01*
X125628024Y-117009500D01*
X125427544Y-117046976D01*
X125427541Y-117046976D01*
X125427541Y-117046977D01*
X125237364Y-117120651D01*
X125237357Y-117120655D01*
X125063960Y-117228017D01*
X125063958Y-117228019D01*
X124913237Y-117365418D01*
X124790327Y-117528178D01*
X124699422Y-117710739D01*
X124699417Y-117710752D01*
X124643602Y-117906917D01*
X124624785Y-118109999D01*
X124624785Y-118110000D01*
X124643602Y-118313082D01*
X124699417Y-118509247D01*
X124699422Y-118509260D01*
X124774731Y-118660500D01*
X124790327Y-118691821D01*
X124871849Y-118799774D01*
X124896541Y-118865134D01*
X124881976Y-118933469D01*
X124832779Y-118983081D01*
X124772895Y-118998500D01*
X124147105Y-118998500D01*
X124080066Y-118978815D01*
X124034311Y-118926011D01*
X124024367Y-118856853D01*
X124048150Y-118799774D01*
X124129673Y-118691821D01*
X124220582Y-118509250D01*
X124276397Y-118313083D01*
X124295215Y-118110000D01*
X124291153Y-118066168D01*
X124276397Y-117906917D01*
X124265438Y-117868400D01*
X124220582Y-117710750D01*
X124209313Y-117688119D01*
X124144076Y-117557104D01*
X124129673Y-117528179D01*
X124006764Y-117365421D01*
X124006762Y-117365418D01*
X123856041Y-117228019D01*
X123856039Y-117228017D01*
X123682642Y-117120655D01*
X123682635Y-117120651D01*
X123538734Y-117064904D01*
X123492456Y-117046976D01*
X123291976Y-117009500D01*
X123088024Y-117009500D01*
X122887544Y-117046976D01*
X122887541Y-117046976D01*
X122887541Y-117046977D01*
X122697364Y-117120651D01*
X122697357Y-117120655D01*
X122523960Y-117228017D01*
X122523958Y-117228019D01*
X122373237Y-117365418D01*
X122250327Y-117528178D01*
X122159422Y-117710739D01*
X122159417Y-117710752D01*
X122103602Y-117906917D01*
X122084785Y-118109999D01*
X122084785Y-118110000D01*
X122103602Y-118313082D01*
X122159417Y-118509247D01*
X122159422Y-118509260D01*
X122234731Y-118660500D01*
X122250327Y-118691821D01*
X122331849Y-118799774D01*
X122356541Y-118865134D01*
X122341976Y-118933469D01*
X122292779Y-118983081D01*
X122232895Y-118998500D01*
X121607105Y-118998500D01*
X121540066Y-118978815D01*
X121494311Y-118926011D01*
X121484367Y-118856853D01*
X121508150Y-118799774D01*
X121589673Y-118691821D01*
X121680582Y-118509250D01*
X121736397Y-118313083D01*
X121755215Y-118110000D01*
X121751153Y-118066168D01*
X121736397Y-117906917D01*
X121725438Y-117868400D01*
X121680582Y-117710750D01*
X121669313Y-117688119D01*
X121604076Y-117557104D01*
X121589673Y-117528179D01*
X121466764Y-117365421D01*
X121466762Y-117365418D01*
X121316041Y-117228019D01*
X121316039Y-117228017D01*
X121142642Y-117120655D01*
X121142635Y-117120651D01*
X120998734Y-117064904D01*
X120952456Y-117046976D01*
X120751976Y-117009500D01*
X120548024Y-117009500D01*
X120347544Y-117046976D01*
X120347541Y-117046976D01*
X120347541Y-117046977D01*
X120157364Y-117120651D01*
X120157357Y-117120655D01*
X119983960Y-117228017D01*
X119983958Y-117228019D01*
X119833237Y-117365418D01*
X119710327Y-117528178D01*
X119619422Y-117710739D01*
X119619417Y-117710752D01*
X119563602Y-117906917D01*
X119544785Y-118109999D01*
X119544785Y-118110000D01*
X119563602Y-118313082D01*
X119619417Y-118509247D01*
X119619422Y-118509260D01*
X119694731Y-118660500D01*
X119710327Y-118691821D01*
X119791849Y-118799774D01*
X119816541Y-118865134D01*
X119801976Y-118933469D01*
X119752779Y-118983081D01*
X119692895Y-118998500D01*
X116841878Y-118998500D01*
X116838133Y-118998387D01*
X116583567Y-118982988D01*
X116576128Y-118982084D01*
X116358727Y-118942245D01*
X116327122Y-118936453D01*
X116319849Y-118934660D01*
X116292093Y-118926011D01*
X116078170Y-118859350D01*
X116071168Y-118856694D01*
X115840317Y-118752797D01*
X115833681Y-118749314D01*
X115617038Y-118618348D01*
X115610871Y-118614091D01*
X115517133Y-118540652D01*
X115411595Y-118457967D01*
X115406005Y-118453015D01*
X115226983Y-118273993D01*
X115222033Y-118268405D01*
X115065907Y-118069127D01*
X115061651Y-118062961D01*
X114930685Y-117846318D01*
X114927202Y-117839682D01*
X114915520Y-117813726D01*
X114878318Y-117731066D01*
X114823305Y-117608831D01*
X114820652Y-117601838D01*
X114745336Y-117360138D01*
X114743548Y-117352889D01*
X114700990Y-117120651D01*
X114697915Y-117103871D01*
X114697011Y-117096432D01*
X114695056Y-117064114D01*
X114683848Y-116878819D01*
X114681613Y-116841866D01*
X114681557Y-116840004D01*
X115014395Y-116840004D01*
X115034783Y-117112082D01*
X115034783Y-117112084D01*
X115090584Y-117356563D01*
X115095502Y-117378107D01*
X115195187Y-117632100D01*
X115331614Y-117868400D01*
X115501737Y-118081727D01*
X115701754Y-118267315D01*
X115927198Y-118421020D01*
X116173032Y-118539408D01*
X116433765Y-118619833D01*
X116433766Y-118619833D01*
X116433769Y-118619834D01*
X116703564Y-118660499D01*
X116703569Y-118660499D01*
X116703572Y-118660500D01*
X116703573Y-118660500D01*
X116976427Y-118660500D01*
X116976428Y-118660500D01*
X116976435Y-118660499D01*
X117246230Y-118619834D01*
X117246231Y-118619833D01*
X117246235Y-118619833D01*
X117506968Y-118539408D01*
X117752803Y-118421020D01*
X117978246Y-118267315D01*
X118178263Y-118081727D01*
X118348386Y-117868400D01*
X118484813Y-117632100D01*
X118584498Y-117378107D01*
X118645215Y-117112092D01*
X118645780Y-117104557D01*
X118665605Y-116840004D01*
X118665605Y-116839995D01*
X118645216Y-116567917D01*
X118645216Y-116567915D01*
X118645215Y-116567911D01*
X118645215Y-116567908D01*
X118584498Y-116301893D01*
X118546470Y-116205000D01*
X124337906Y-116205000D01*
X124356215Y-116355791D01*
X124410079Y-116497819D01*
X124496368Y-116622830D01*
X124610066Y-116723557D01*
X124744566Y-116794148D01*
X124818308Y-116812324D01*
X124892050Y-116830500D01*
X124892051Y-116830500D01*
X125043950Y-116830500D01*
X125093110Y-116818382D01*
X125191434Y-116794148D01*
X125325934Y-116723557D01*
X125439632Y-116622830D01*
X125449138Y-116609059D01*
X125503421Y-116565069D01*
X125551187Y-116555500D01*
X125908813Y-116555500D01*
X125975852Y-116575185D01*
X126010862Y-116609059D01*
X126020366Y-116622828D01*
X126020367Y-116622829D01*
X126020368Y-116622830D01*
X126134066Y-116723557D01*
X126268566Y-116794148D01*
X126342308Y-116812324D01*
X126416050Y-116830500D01*
X126416051Y-116830500D01*
X126567950Y-116830500D01*
X126617110Y-116818382D01*
X126715434Y-116794148D01*
X126849934Y-116723557D01*
X126963632Y-116622830D01*
X127049921Y-116497819D01*
X127103785Y-116355791D01*
X127122094Y-116205000D01*
X129417906Y-116205000D01*
X129436215Y-116355791D01*
X129490079Y-116497819D01*
X129576368Y-116622830D01*
X129690066Y-116723557D01*
X129824566Y-116794148D01*
X129898308Y-116812324D01*
X129972050Y-116830500D01*
X129972051Y-116830500D01*
X130123950Y-116830500D01*
X130173110Y-116818382D01*
X130271434Y-116794148D01*
X130405934Y-116723557D01*
X130519632Y-116622830D01*
X130529138Y-116609059D01*
X130583421Y-116565069D01*
X130631187Y-116555500D01*
X130988813Y-116555500D01*
X131055852Y-116575185D01*
X131090862Y-116609059D01*
X131100366Y-116622828D01*
X131100367Y-116622829D01*
X131100368Y-116622830D01*
X131214066Y-116723557D01*
X131348566Y-116794148D01*
X131422308Y-116812324D01*
X131496050Y-116830500D01*
X131496051Y-116830500D01*
X131647950Y-116830500D01*
X131697110Y-116818382D01*
X131795434Y-116794148D01*
X131929934Y-116723557D01*
X132043632Y-116622830D01*
X132129921Y-116497819D01*
X132183785Y-116355791D01*
X132202094Y-116205000D01*
X132183785Y-116054209D01*
X132129921Y-115912181D01*
X132043632Y-115787170D01*
X131929934Y-115686443D01*
X131795434Y-115615852D01*
X131795433Y-115615851D01*
X131795432Y-115615851D01*
X131647950Y-115579500D01*
X131647949Y-115579500D01*
X131496051Y-115579500D01*
X131496050Y-115579500D01*
X131348567Y-115615851D01*
X131214067Y-115686442D01*
X131100366Y-115787171D01*
X131090862Y-115800941D01*
X131036579Y-115844931D01*
X130988813Y-115854500D01*
X130631187Y-115854500D01*
X130564148Y-115834815D01*
X130529138Y-115800941D01*
X130519633Y-115787171D01*
X130519632Y-115787170D01*
X130405934Y-115686443D01*
X130271434Y-115615852D01*
X130271433Y-115615851D01*
X130271432Y-115615851D01*
X130123950Y-115579500D01*
X130123949Y-115579500D01*
X129972051Y-115579500D01*
X129972050Y-115579500D01*
X129824567Y-115615851D01*
X129690067Y-115686442D01*
X129576367Y-115787171D01*
X129490080Y-115912179D01*
X129490079Y-115912180D01*
X129438608Y-116047900D01*
X129436215Y-116054209D01*
X129417906Y-116205000D01*
X127122094Y-116205000D01*
X127103785Y-116054209D01*
X127049921Y-115912181D01*
X126963632Y-115787170D01*
X126849934Y-115686443D01*
X126715434Y-115615852D01*
X126715433Y-115615851D01*
X126715432Y-115615851D01*
X126567950Y-115579500D01*
X126567949Y-115579500D01*
X126416051Y-115579500D01*
X126416050Y-115579500D01*
X126268567Y-115615851D01*
X126134067Y-115686442D01*
X126020366Y-115787171D01*
X126010862Y-115800941D01*
X125956579Y-115844931D01*
X125908813Y-115854500D01*
X125551187Y-115854500D01*
X125484148Y-115834815D01*
X125449138Y-115800941D01*
X125439633Y-115787171D01*
X125439632Y-115787170D01*
X125325934Y-115686443D01*
X125191434Y-115615852D01*
X125191433Y-115615851D01*
X125191432Y-115615851D01*
X125043950Y-115579500D01*
X125043949Y-115579500D01*
X124892051Y-115579500D01*
X124892050Y-115579500D01*
X124744567Y-115615851D01*
X124610067Y-115686442D01*
X124496367Y-115787171D01*
X124410080Y-115912179D01*
X124410079Y-115912180D01*
X124358608Y-116047900D01*
X124356215Y-116054209D01*
X124337906Y-116205000D01*
X118546470Y-116205000D01*
X118484813Y-116047900D01*
X118348386Y-115811600D01*
X118178263Y-115598273D01*
X117978246Y-115412685D01*
X117752803Y-115258980D01*
X117752797Y-115258977D01*
X117752796Y-115258976D01*
X117752794Y-115258975D01*
X117506970Y-115140593D01*
X117506972Y-115140593D01*
X117246236Y-115060167D01*
X117246230Y-115060165D01*
X116976435Y-115019500D01*
X116976428Y-115019500D01*
X116703572Y-115019500D01*
X116703564Y-115019500D01*
X116433769Y-115060165D01*
X116433763Y-115060167D01*
X116173031Y-115140592D01*
X115927202Y-115258977D01*
X115701753Y-115412685D01*
X115501739Y-115598271D01*
X115501737Y-115598273D01*
X115331614Y-115811600D01*
X115195187Y-116047899D01*
X115095504Y-116301887D01*
X115095499Y-116301904D01*
X115034783Y-116567915D01*
X115034783Y-116567917D01*
X115014395Y-116839995D01*
X115014395Y-116840004D01*
X114681557Y-116840004D01*
X114681500Y-116838122D01*
X114681500Y-114046000D01*
X121035906Y-114046000D01*
X121054215Y-114196791D01*
X121108079Y-114338819D01*
X121194368Y-114463830D01*
X121308066Y-114564557D01*
X121442566Y-114635148D01*
X121516308Y-114653324D01*
X121590050Y-114671500D01*
X121590051Y-114671500D01*
X121741950Y-114671500D01*
X121791110Y-114659382D01*
X121889434Y-114635148D01*
X122023934Y-114564557D01*
X122137632Y-114463830D01*
X122223921Y-114338819D01*
X122277785Y-114196791D01*
X122296094Y-114046000D01*
X122280838Y-113920353D01*
X122292299Y-113851431D01*
X122339202Y-113799645D01*
X122403934Y-113781408D01*
X122987991Y-113781408D01*
X122988000Y-113781408D01*
X123037566Y-113776552D01*
X123129675Y-113738512D01*
X123200215Y-113668119D01*
X123238448Y-113576090D01*
X123238488Y-113538000D01*
X128274906Y-113538000D01*
X128293215Y-113688791D01*
X128347079Y-113830819D01*
X128433368Y-113955830D01*
X128547066Y-114056557D01*
X128681566Y-114127148D01*
X128755308Y-114145324D01*
X128829050Y-114163500D01*
X128829051Y-114163500D01*
X128980950Y-114163500D01*
X129030110Y-114151382D01*
X129128434Y-114127148D01*
X129262934Y-114056557D01*
X129376632Y-113955830D01*
X129376635Y-113955825D01*
X129377126Y-113955272D01*
X129377589Y-113954981D01*
X129382246Y-113950856D01*
X129382931Y-113951630D01*
X129436316Y-113918146D01*
X129469941Y-113913500D01*
X131769059Y-113913500D01*
X131836098Y-113933185D01*
X131856739Y-113950872D01*
X131856754Y-113950856D01*
X131857744Y-113951733D01*
X131861874Y-113955272D01*
X131862367Y-113955829D01*
X131862368Y-113955830D01*
X131976066Y-114056557D01*
X132110566Y-114127148D01*
X132184308Y-114145324D01*
X132258050Y-114163500D01*
X132258051Y-114163500D01*
X132409950Y-114163500D01*
X132459110Y-114151382D01*
X132557434Y-114127148D01*
X132691934Y-114056557D01*
X132805632Y-113955830D01*
X132891921Y-113830819D01*
X132945785Y-113688791D01*
X132964094Y-113538000D01*
X132945785Y-113387209D01*
X132891921Y-113245181D01*
X132806017Y-113120728D01*
X132805630Y-113120167D01*
X132800658Y-113114555D01*
X132802444Y-113112971D01*
X132771493Y-113063631D01*
X132772257Y-112993766D01*
X132802348Y-112946942D01*
X132800658Y-112945445D01*
X132805630Y-112939832D01*
X132805630Y-112939831D01*
X132805632Y-112939830D01*
X132891921Y-112814819D01*
X132945785Y-112672791D01*
X132964094Y-112522000D01*
X132945785Y-112371209D01*
X132891921Y-112229181D01*
X132805632Y-112104170D01*
X132691934Y-112003443D01*
X132557434Y-111932852D01*
X132557433Y-111932851D01*
X132557432Y-111932851D01*
X132409950Y-111896500D01*
X132409949Y-111896500D01*
X132258051Y-111896500D01*
X132258050Y-111896500D01*
X132110567Y-111932851D01*
X131976067Y-112003442D01*
X131862366Y-112104171D01*
X131852862Y-112117941D01*
X131798579Y-112161931D01*
X131750813Y-112171500D01*
X129488187Y-112171500D01*
X129421148Y-112151815D01*
X129386138Y-112117941D01*
X129376633Y-112104171D01*
X129376632Y-112104170D01*
X129262934Y-112003443D01*
X129128434Y-111932852D01*
X129128433Y-111932851D01*
X129128432Y-111932851D01*
X128980950Y-111896500D01*
X128980949Y-111896500D01*
X128829051Y-111896500D01*
X128829050Y-111896500D01*
X128681567Y-111932851D01*
X128547067Y-112003442D01*
X128433367Y-112104171D01*
X128347080Y-112229179D01*
X128347079Y-112229180D01*
X128293215Y-112371208D01*
X128274906Y-112522000D01*
X128293215Y-112672791D01*
X128347079Y-112814819D01*
X128347080Y-112814820D01*
X128433369Y-112939832D01*
X128438342Y-112945445D01*
X128436558Y-112947025D01*
X128467513Y-112996391D01*
X128466735Y-113066257D01*
X128436655Y-113113061D01*
X128438342Y-113114555D01*
X128433369Y-113120167D01*
X128347080Y-113245179D01*
X128347079Y-113245180D01*
X128293215Y-113387208D01*
X128282381Y-113476434D01*
X128274906Y-113538000D01*
X123238488Y-113538000D01*
X123238552Y-113476434D01*
X123200512Y-113384325D01*
X122840816Y-112844782D01*
X122820009Y-112778084D01*
X122838564Y-112710723D01*
X122840817Y-112707217D01*
X122898993Y-112619954D01*
X123200512Y-112167675D01*
X123223966Y-112123740D01*
X123243408Y-112026000D01*
X123243408Y-112025997D01*
X123223966Y-111928261D01*
X123223966Y-111928260D01*
X123168601Y-111845399D01*
X123085740Y-111790034D01*
X123085739Y-111790033D01*
X123085738Y-111790033D01*
X122988002Y-111770592D01*
X122988000Y-111770592D01*
X121838000Y-111770592D01*
X121837998Y-111770592D01*
X121740261Y-111790033D01*
X121657399Y-111845399D01*
X121602033Y-111928261D01*
X121582592Y-112025997D01*
X121582592Y-113201362D01*
X121562907Y-113268401D01*
X121546273Y-113289044D01*
X121452952Y-113382364D01*
X121433102Y-113398484D01*
X121425332Y-113403560D01*
X121425332Y-113403561D01*
X121405143Y-113429498D01*
X121400067Y-113435248D01*
X121397634Y-113437681D01*
X121397623Y-113437695D01*
X121384953Y-113455439D01*
X121359783Y-113487778D01*
X121319563Y-113521408D01*
X121308068Y-113527441D01*
X121308066Y-113527443D01*
X121194367Y-113628171D01*
X121108080Y-113753179D01*
X121108079Y-113753180D01*
X121054215Y-113895208D01*
X121042442Y-113992169D01*
X121035906Y-114046000D01*
X114681500Y-114046000D01*
X114681500Y-110871000D01*
X123067906Y-110871000D01*
X123086215Y-111021791D01*
X123140079Y-111163819D01*
X123226368Y-111288830D01*
X123340066Y-111389557D01*
X123474566Y-111460148D01*
X123548308Y-111478324D01*
X123622050Y-111496500D01*
X123622051Y-111496500D01*
X123773950Y-111496500D01*
X123823110Y-111484382D01*
X123921434Y-111460148D01*
X124055934Y-111389557D01*
X124169632Y-111288830D01*
X124255921Y-111163819D01*
X124309785Y-111021791D01*
X124328094Y-110871000D01*
X124320817Y-110811074D01*
X124332277Y-110742153D01*
X124356229Y-110708451D01*
X124828681Y-110236000D01*
X145038906Y-110236000D01*
X145057215Y-110386791D01*
X145111079Y-110528819D01*
X145197368Y-110653830D01*
X145311066Y-110754557D01*
X145445566Y-110825148D01*
X145519308Y-110843324D01*
X145593050Y-110861500D01*
X145593051Y-110861500D01*
X145744950Y-110861500D01*
X145794110Y-110849382D01*
X145892434Y-110825148D01*
X146026934Y-110754557D01*
X146140632Y-110653830D01*
X146226921Y-110528819D01*
X146280785Y-110386791D01*
X146299094Y-110236000D01*
X146280785Y-110085209D01*
X146226921Y-109943181D01*
X146140632Y-109818170D01*
X146095445Y-109778138D01*
X146086272Y-109770011D01*
X146049146Y-109710821D01*
X146044500Y-109677196D01*
X146044500Y-108537898D01*
X146064185Y-108470859D01*
X146080815Y-108450221D01*
X146231966Y-108299070D01*
X146293288Y-108265586D01*
X146362980Y-108270570D01*
X146418913Y-108312442D01*
X146443330Y-108377906D01*
X146442742Y-108401698D01*
X146436877Y-108450000D01*
X146435906Y-108458000D01*
X146445431Y-108536450D01*
X146454215Y-108608791D01*
X146508079Y-108750819D01*
X146508080Y-108750820D01*
X146594369Y-108875832D01*
X146599342Y-108881445D01*
X146597558Y-108883025D01*
X146628513Y-108932391D01*
X146627735Y-109002257D01*
X146597655Y-109049061D01*
X146599342Y-109050555D01*
X146594369Y-109056167D01*
X146508080Y-109181179D01*
X146508079Y-109181180D01*
X146454215Y-109323208D01*
X146440619Y-109435181D01*
X146435906Y-109474000D01*
X146454215Y-109624791D01*
X146508079Y-109766819D01*
X146594368Y-109891830D01*
X146708066Y-109992557D01*
X146842566Y-110063148D01*
X146904851Y-110078500D01*
X146990050Y-110099500D01*
X146990051Y-110099500D01*
X147141950Y-110099500D01*
X147191110Y-110087382D01*
X147289434Y-110063148D01*
X147423934Y-109992557D01*
X147537632Y-109891830D01*
X147544542Y-109881819D01*
X147547138Y-109878059D01*
X147601421Y-109834069D01*
X147649187Y-109824500D01*
X149911813Y-109824500D01*
X149978852Y-109844185D01*
X150013862Y-109878059D01*
X150023366Y-109891828D01*
X150023367Y-109891829D01*
X150023368Y-109891830D01*
X150137066Y-109992557D01*
X150271566Y-110063148D01*
X150333851Y-110078500D01*
X150419050Y-110099500D01*
X150419051Y-110099500D01*
X150570950Y-110099500D01*
X150620110Y-110087382D01*
X150718434Y-110063148D01*
X150852934Y-109992557D01*
X150966632Y-109891830D01*
X151052921Y-109766819D01*
X151106785Y-109624791D01*
X151125094Y-109474000D01*
X151106785Y-109323209D01*
X151052921Y-109181181D01*
X150966632Y-109056170D01*
X150931802Y-109025314D01*
X150894678Y-108966127D01*
X150895445Y-108896261D01*
X150933862Y-108837901D01*
X150997732Y-108809576D01*
X151014031Y-108808500D01*
X151435813Y-108808500D01*
X151502852Y-108828185D01*
X151537862Y-108862059D01*
X151547366Y-108875828D01*
X151547367Y-108875829D01*
X151547368Y-108875830D01*
X151626727Y-108946136D01*
X151663854Y-109005325D01*
X151668500Y-109038951D01*
X151668500Y-109655048D01*
X151648815Y-109722087D01*
X151626728Y-109747863D01*
X151547367Y-109818170D01*
X151461080Y-109943179D01*
X151461079Y-109943180D01*
X151415582Y-110063148D01*
X151407215Y-110085209D01*
X151388906Y-110236000D01*
X151407215Y-110386791D01*
X151461079Y-110528819D01*
X151547368Y-110653830D01*
X151661066Y-110754557D01*
X151795566Y-110825148D01*
X151869308Y-110843324D01*
X151943050Y-110861500D01*
X151943051Y-110861500D01*
X152094950Y-110861500D01*
X152144110Y-110849382D01*
X152242434Y-110825148D01*
X152376934Y-110754557D01*
X152490632Y-110653830D01*
X152576921Y-110528819D01*
X152630785Y-110386791D01*
X152649094Y-110236000D01*
X152630785Y-110085209D01*
X152576921Y-109943181D01*
X152490632Y-109818170D01*
X152445445Y-109778138D01*
X152411272Y-109747863D01*
X152374146Y-109688673D01*
X152369500Y-109655048D01*
X152369500Y-109038951D01*
X152389185Y-108971912D01*
X152411271Y-108946137D01*
X152490632Y-108875830D01*
X152576921Y-108750819D01*
X152630785Y-108608791D01*
X152649094Y-108458000D01*
X152630785Y-108307209D01*
X152576921Y-108165181D01*
X152490632Y-108040170D01*
X152376934Y-107939443D01*
X152242434Y-107868852D01*
X152242433Y-107868851D01*
X152242432Y-107868851D01*
X152094950Y-107832500D01*
X152094949Y-107832500D01*
X151943051Y-107832500D01*
X151943050Y-107832500D01*
X151795567Y-107868851D01*
X151661067Y-107939442D01*
X151547366Y-108040171D01*
X151537862Y-108053941D01*
X151483579Y-108097931D01*
X151435813Y-108107500D01*
X147649187Y-108107500D01*
X147582148Y-108087815D01*
X147547138Y-108053941D01*
X147537633Y-108040171D01*
X147535120Y-108037945D01*
X147423934Y-107939443D01*
X147289434Y-107868852D01*
X147289433Y-107868851D01*
X147289432Y-107868851D01*
X147282022Y-107867025D01*
X147221641Y-107831869D01*
X147189853Y-107769649D01*
X147196749Y-107700121D01*
X147229471Y-107653812D01*
X147283631Y-107605831D01*
X147283632Y-107605830D01*
X147369921Y-107480819D01*
X147423785Y-107338791D01*
X147442094Y-107188000D01*
X147423785Y-107037209D01*
X147369921Y-106895181D01*
X147283632Y-106770170D01*
X147169934Y-106669443D01*
X147035434Y-106598852D01*
X147035433Y-106598851D01*
X147035432Y-106598851D01*
X146887950Y-106562500D01*
X146887949Y-106562500D01*
X146736051Y-106562500D01*
X146736050Y-106562500D01*
X146588567Y-106598851D01*
X146454067Y-106669442D01*
X146340367Y-106770171D01*
X146254080Y-106895179D01*
X146254079Y-106895180D01*
X146200215Y-107037208D01*
X146181906Y-107187999D01*
X146181906Y-107188003D01*
X146185353Y-107216399D01*
X146173891Y-107285322D01*
X146149938Y-107319023D01*
X145440108Y-108028852D01*
X145420254Y-108044976D01*
X145411165Y-108050914D01*
X145411164Y-108050915D01*
X145389363Y-108078923D01*
X145384286Y-108084674D01*
X145381484Y-108087477D01*
X145381474Y-108087488D01*
X145367905Y-108106495D01*
X145334192Y-108149808D01*
X145330447Y-108156729D01*
X145326988Y-108163804D01*
X145311329Y-108216403D01*
X145293500Y-108268338D01*
X145292206Y-108276092D01*
X145291231Y-108283911D01*
X145293500Y-108338755D01*
X145293500Y-109677196D01*
X145273815Y-109744235D01*
X145251728Y-109770011D01*
X145197367Y-109818170D01*
X145111080Y-109943179D01*
X145111079Y-109943180D01*
X145065582Y-110063148D01*
X145057215Y-110085209D01*
X145038906Y-110236000D01*
X124828681Y-110236000D01*
X125182862Y-109881819D01*
X125244185Y-109848334D01*
X125270543Y-109845500D01*
X125424950Y-109845500D01*
X125474110Y-109833382D01*
X125572434Y-109809148D01*
X125706934Y-109738557D01*
X125820632Y-109637830D01*
X125906921Y-109512819D01*
X125960785Y-109370791D01*
X125979094Y-109220000D01*
X129430406Y-109220000D01*
X129448715Y-109370791D01*
X129502579Y-109512819D01*
X129588868Y-109637830D01*
X129702566Y-109738557D01*
X129837066Y-109809148D01*
X129899351Y-109824500D01*
X129984550Y-109845500D01*
X129984551Y-109845500D01*
X130136450Y-109845500D01*
X130185610Y-109833382D01*
X130283934Y-109809148D01*
X130418434Y-109738557D01*
X130532132Y-109637830D01*
X130536377Y-109631679D01*
X130541638Y-109624059D01*
X130595921Y-109580069D01*
X130643687Y-109570500D01*
X131660578Y-109570500D01*
X131727617Y-109590185D01*
X131762626Y-109624058D01*
X131782651Y-109653070D01*
X131799451Y-109677409D01*
X131799453Y-109677411D01*
X131913151Y-109778138D01*
X132047651Y-109848729D01*
X132121393Y-109866905D01*
X132195135Y-109885081D01*
X132195136Y-109885081D01*
X132347035Y-109885081D01*
X132396195Y-109872963D01*
X132494519Y-109848729D01*
X132629019Y-109778138D01*
X132742717Y-109677411D01*
X132829006Y-109552400D01*
X132882870Y-109410372D01*
X132901179Y-109259581D01*
X132882870Y-109108790D01*
X132829006Y-108966762D01*
X132790239Y-108910599D01*
X133554729Y-108910599D01*
X133581235Y-108924766D01*
X133779165Y-108984808D01*
X133985000Y-109005080D01*
X134190834Y-108984808D01*
X134388763Y-108924767D01*
X134415268Y-108910598D01*
X134415269Y-108910598D01*
X133985001Y-108480330D01*
X133985000Y-108480330D01*
X133554729Y-108910599D01*
X132790239Y-108910599D01*
X132742717Y-108841751D01*
X132629019Y-108741024D01*
X132494519Y-108670433D01*
X132494518Y-108670432D01*
X132494517Y-108670432D01*
X132347035Y-108634081D01*
X132347034Y-108634081D01*
X132195136Y-108634081D01*
X132195135Y-108634081D01*
X132047652Y-108670432D01*
X131913152Y-108741023D01*
X131895266Y-108756867D01*
X131803329Y-108838316D01*
X131740098Y-108868037D01*
X131721104Y-108869500D01*
X130643687Y-108869500D01*
X130576648Y-108849815D01*
X130541638Y-108815941D01*
X130532133Y-108802171D01*
X130474168Y-108750819D01*
X130418434Y-108701443D01*
X130283934Y-108630852D01*
X130283933Y-108630851D01*
X130283932Y-108630851D01*
X130136450Y-108594500D01*
X130136449Y-108594500D01*
X129984551Y-108594500D01*
X129984550Y-108594500D01*
X129837067Y-108630851D01*
X129702567Y-108701442D01*
X129588867Y-108802171D01*
X129502580Y-108927179D01*
X129502579Y-108927180D01*
X129448715Y-109069208D01*
X129435119Y-109181181D01*
X129430406Y-109220000D01*
X125979094Y-109220000D01*
X125968285Y-109130981D01*
X125979745Y-109062060D01*
X126026649Y-109010274D01*
X126094105Y-108992067D01*
X126103516Y-108992632D01*
X126235000Y-109005583D01*
X126440934Y-108985300D01*
X126638954Y-108925232D01*
X126821450Y-108827685D01*
X126981410Y-108696410D01*
X127112685Y-108536450D01*
X127210232Y-108353954D01*
X127270300Y-108155934D01*
X127290583Y-107950000D01*
X132929919Y-107950000D01*
X132950191Y-108155833D01*
X133010234Y-108353765D01*
X133024400Y-108380268D01*
X133024401Y-108380269D01*
X133382781Y-108021889D01*
X133485000Y-108021889D01*
X133525507Y-108159844D01*
X133603239Y-108280798D01*
X133711900Y-108374952D01*
X133842685Y-108434680D01*
X133949237Y-108450000D01*
X134020763Y-108450000D01*
X134127315Y-108434680D01*
X134258100Y-108374952D01*
X134366761Y-108280798D01*
X134444493Y-108159844D01*
X134485000Y-108021889D01*
X134485000Y-107950001D01*
X134515330Y-107950001D01*
X134945598Y-108380269D01*
X134945598Y-108380268D01*
X134959767Y-108353763D01*
X135019808Y-108155834D01*
X135040080Y-107950000D01*
X135019808Y-107744165D01*
X134959766Y-107546235D01*
X134945599Y-107519730D01*
X134515330Y-107949999D01*
X134515330Y-107950001D01*
X134485000Y-107950001D01*
X134485000Y-107878111D01*
X134444493Y-107740156D01*
X134366761Y-107619202D01*
X134258100Y-107525048D01*
X134127315Y-107465320D01*
X134020763Y-107450000D01*
X133949237Y-107450000D01*
X133842685Y-107465320D01*
X133711900Y-107525048D01*
X133603239Y-107619202D01*
X133525507Y-107740156D01*
X133485000Y-107878111D01*
X133485000Y-108021889D01*
X133382781Y-108021889D01*
X133454670Y-107950000D01*
X133454670Y-107949999D01*
X133024401Y-107519730D01*
X133024400Y-107519730D01*
X133010231Y-107546239D01*
X132950191Y-107744165D01*
X132929919Y-107950000D01*
X127290583Y-107950000D01*
X127270300Y-107744066D01*
X127210232Y-107546046D01*
X127112685Y-107363550D01*
X127024474Y-107256064D01*
X126981410Y-107203589D01*
X126863677Y-107106969D01*
X126821450Y-107072315D01*
X126666330Y-106989401D01*
X133554730Y-106989401D01*
X133985000Y-107419670D01*
X133985001Y-107419670D01*
X134415269Y-106989401D01*
X134415268Y-106989400D01*
X134388765Y-106975234D01*
X134190833Y-106915191D01*
X133985000Y-106894919D01*
X133779165Y-106915191D01*
X133581239Y-106975231D01*
X133554730Y-106989400D01*
X133554730Y-106989401D01*
X126666330Y-106989401D01*
X126638954Y-106974768D01*
X126440934Y-106914700D01*
X126440932Y-106914699D01*
X126440934Y-106914699D01*
X126235000Y-106894417D01*
X126029067Y-106914699D01*
X125831043Y-106974769D01*
X125731129Y-107028175D01*
X125648550Y-107072315D01*
X125648548Y-107072316D01*
X125648547Y-107072317D01*
X125488589Y-107203589D01*
X125357317Y-107363547D01*
X125259769Y-107546043D01*
X125259768Y-107546045D01*
X125259768Y-107546046D01*
X125252898Y-107568692D01*
X125199699Y-107744067D01*
X125179417Y-107950000D01*
X125199699Y-108155932D01*
X125202505Y-108165181D01*
X125255157Y-108338755D01*
X125259769Y-108353956D01*
X125299728Y-108428713D01*
X125313970Y-108497116D01*
X125288970Y-108562360D01*
X125232666Y-108603731D01*
X125220046Y-108607564D01*
X125125567Y-108630851D01*
X124991067Y-108701442D01*
X124877367Y-108802171D01*
X124791080Y-108927179D01*
X124791079Y-108927180D01*
X124737215Y-109069208D01*
X124718906Y-109219999D01*
X124718906Y-109220002D01*
X124726181Y-109279926D01*
X124714720Y-109348849D01*
X124690766Y-109382551D01*
X123864137Y-110209181D01*
X123802814Y-110242666D01*
X123776456Y-110245500D01*
X123622050Y-110245500D01*
X123474567Y-110281851D01*
X123340067Y-110352442D01*
X123226367Y-110453171D01*
X123140080Y-110578179D01*
X123140079Y-110578180D01*
X123086215Y-110720208D01*
X123082459Y-110751141D01*
X123067906Y-110871000D01*
X114681500Y-110871000D01*
X114681500Y-109728000D01*
X120527906Y-109728000D01*
X120546215Y-109878791D01*
X120600079Y-110020819D01*
X120686368Y-110145830D01*
X120800066Y-110246557D01*
X120934566Y-110317148D01*
X121008308Y-110335324D01*
X121082050Y-110353500D01*
X121082051Y-110353500D01*
X121233950Y-110353500D01*
X121285897Y-110340696D01*
X121381434Y-110317148D01*
X121515934Y-110246557D01*
X121629632Y-110145830D01*
X121633877Y-110139679D01*
X121639138Y-110132059D01*
X121693421Y-110088069D01*
X121741187Y-110078500D01*
X122068436Y-110078500D01*
X122135475Y-110098185D01*
X122170487Y-110132062D01*
X122191515Y-110162528D01*
X122191516Y-110162529D01*
X122191517Y-110162530D01*
X122309760Y-110267283D01*
X122309762Y-110267284D01*
X122449634Y-110340696D01*
X122603014Y-110378500D01*
X122603015Y-110378500D01*
X122760985Y-110378500D01*
X122914365Y-110340696D01*
X123026481Y-110281852D01*
X123054240Y-110267283D01*
X123172483Y-110162530D01*
X123262220Y-110032523D01*
X123318237Y-109884818D01*
X123337278Y-109728000D01*
X123331136Y-109677411D01*
X123318237Y-109571181D01*
X123281381Y-109474000D01*
X123262220Y-109423477D01*
X123172483Y-109293470D01*
X123054240Y-109188717D01*
X123054238Y-109188716D01*
X123054237Y-109188715D01*
X122914365Y-109115303D01*
X122760986Y-109077500D01*
X122760985Y-109077500D01*
X122603015Y-109077500D01*
X122603014Y-109077500D01*
X122449634Y-109115303D01*
X122309762Y-109188715D01*
X122191515Y-109293471D01*
X122170487Y-109323938D01*
X122116205Y-109367930D01*
X122068436Y-109377500D01*
X121741187Y-109377500D01*
X121674148Y-109357815D01*
X121639138Y-109323941D01*
X121629633Y-109310171D01*
X121629632Y-109310170D01*
X121515934Y-109209443D01*
X121381434Y-109138852D01*
X121381433Y-109138851D01*
X121381432Y-109138851D01*
X121233950Y-109102500D01*
X121233949Y-109102500D01*
X121082051Y-109102500D01*
X121082050Y-109102500D01*
X120934567Y-109138851D01*
X120800067Y-109209442D01*
X120686367Y-109310171D01*
X120600080Y-109435179D01*
X120600079Y-109435180D01*
X120546215Y-109577208D01*
X120532681Y-109688673D01*
X120527906Y-109728000D01*
X114681500Y-109728000D01*
X114681500Y-107324756D01*
X114683025Y-107305371D01*
X114690835Y-107256055D01*
X114702822Y-107219167D01*
X114720998Y-107183494D01*
X114743799Y-107152110D01*
X114772110Y-107123799D01*
X114803492Y-107100999D01*
X114839167Y-107082821D01*
X114876057Y-107070835D01*
X114925369Y-107063025D01*
X114944757Y-107061500D01*
X116285142Y-107061500D01*
X116441923Y-107028175D01*
X116588350Y-106962982D01*
X116718022Y-106868769D01*
X116825273Y-106749655D01*
X116905415Y-106610845D01*
X116954946Y-106458406D01*
X116971700Y-106299000D01*
X116969079Y-106274069D01*
X116967340Y-106257511D01*
X116967000Y-106251027D01*
X116967000Y-102028971D01*
X116967340Y-102022486D01*
X116970590Y-101991557D01*
X116971700Y-101981000D01*
X116954946Y-101821594D01*
X116905415Y-101669155D01*
X116825273Y-101530345D01*
X116773639Y-101473000D01*
X116718027Y-101411235D01*
X116718024Y-101411233D01*
X116718023Y-101411232D01*
X116718022Y-101411231D01*
X116628192Y-101345965D01*
X116588348Y-101317016D01*
X116471180Y-101264851D01*
X116441923Y-101251825D01*
X116441921Y-101251824D01*
X116285142Y-101218500D01*
X116268661Y-101218500D01*
X114944757Y-101218500D01*
X114925359Y-101216973D01*
X114911158Y-101214723D01*
X114876062Y-101209165D01*
X114839167Y-101197177D01*
X114803494Y-101179001D01*
X114772107Y-101156197D01*
X114743802Y-101127892D01*
X114720998Y-101096505D01*
X114702822Y-101060832D01*
X114690835Y-101023942D01*
X114683025Y-100974629D01*
X114681500Y-100955243D01*
X114681500Y-99061877D01*
X114681557Y-99060004D01*
X115014395Y-99060004D01*
X115034783Y-99332082D01*
X115034783Y-99332084D01*
X115089524Y-99571919D01*
X115095502Y-99598107D01*
X115195187Y-99852100D01*
X115331614Y-100088400D01*
X115501737Y-100301727D01*
X115701754Y-100487315D01*
X115927198Y-100641020D01*
X116173032Y-100759408D01*
X116433765Y-100839833D01*
X116433766Y-100839833D01*
X116433769Y-100839834D01*
X116703564Y-100880499D01*
X116703569Y-100880499D01*
X116703572Y-100880500D01*
X116703573Y-100880500D01*
X116976427Y-100880500D01*
X116976428Y-100880500D01*
X116976435Y-100880499D01*
X117246230Y-100839834D01*
X117246231Y-100839833D01*
X117246235Y-100839833D01*
X117506968Y-100759408D01*
X117752803Y-100641020D01*
X117978246Y-100487315D01*
X118178263Y-100301727D01*
X118348386Y-100088400D01*
X118484813Y-99852100D01*
X118584498Y-99598107D01*
X118645215Y-99332092D01*
X118649480Y-99275179D01*
X118665605Y-99060004D01*
X118665605Y-99059995D01*
X118645216Y-98787917D01*
X118645216Y-98787915D01*
X118645215Y-98787911D01*
X118645215Y-98787908D01*
X118591370Y-98552000D01*
X120054659Y-98552000D01*
X120073975Y-98748129D01*
X120089656Y-98799822D01*
X120118980Y-98896491D01*
X120131188Y-98936733D01*
X120224086Y-99110532D01*
X120224090Y-99110539D01*
X120349116Y-99262883D01*
X120501460Y-99387909D01*
X120501467Y-99387913D01*
X120675266Y-99480811D01*
X120675269Y-99480811D01*
X120675273Y-99480814D01*
X120863868Y-99538024D01*
X121060000Y-99557341D01*
X121256132Y-99538024D01*
X121444727Y-99480814D01*
X121618538Y-99387910D01*
X121770883Y-99262883D01*
X121895910Y-99110538D01*
X121966802Y-98977908D01*
X121988811Y-98936733D01*
X121988811Y-98936732D01*
X121988814Y-98936727D01*
X122046024Y-98748132D01*
X122065341Y-98552000D01*
X126884659Y-98552000D01*
X126903975Y-98748129D01*
X126919656Y-98799822D01*
X126948980Y-98896491D01*
X126961188Y-98936733D01*
X127054086Y-99110532D01*
X127054090Y-99110539D01*
X127179116Y-99262883D01*
X127331460Y-99387909D01*
X127331467Y-99387913D01*
X127505266Y-99480811D01*
X127505269Y-99480811D01*
X127505273Y-99480814D01*
X127693868Y-99538024D01*
X127890000Y-99557341D01*
X128086132Y-99538024D01*
X128274727Y-99480814D01*
X128448538Y-99387910D01*
X128600883Y-99262883D01*
X128725910Y-99110538D01*
X128796802Y-98977908D01*
X128818811Y-98936733D01*
X128818811Y-98936732D01*
X128818814Y-98936727D01*
X128876024Y-98748132D01*
X128895341Y-98552000D01*
X128876024Y-98355868D01*
X128818814Y-98167273D01*
X128818811Y-98167269D01*
X128818811Y-98167266D01*
X128725913Y-97993467D01*
X128725909Y-97993460D01*
X128600883Y-97841116D01*
X128448539Y-97716090D01*
X128448532Y-97716086D01*
X128274733Y-97623188D01*
X128274727Y-97623186D01*
X128086132Y-97565976D01*
X128086129Y-97565975D01*
X127890000Y-97546659D01*
X127693870Y-97565975D01*
X127505266Y-97623188D01*
X127331467Y-97716086D01*
X127331460Y-97716090D01*
X127179116Y-97841116D01*
X127054090Y-97993460D01*
X127054086Y-97993467D01*
X126961188Y-98167266D01*
X126903975Y-98355870D01*
X126884659Y-98552000D01*
X122065341Y-98552000D01*
X122046024Y-98355868D01*
X121988814Y-98167273D01*
X121988811Y-98167269D01*
X121988811Y-98167266D01*
X121895913Y-97993467D01*
X121895909Y-97993460D01*
X121770883Y-97841116D01*
X121618539Y-97716090D01*
X121618532Y-97716086D01*
X121444733Y-97623188D01*
X121444727Y-97623186D01*
X121256132Y-97565976D01*
X121256129Y-97565975D01*
X121060000Y-97546659D01*
X120863870Y-97565975D01*
X120675266Y-97623188D01*
X120501467Y-97716086D01*
X120501460Y-97716090D01*
X120349116Y-97841116D01*
X120224090Y-97993460D01*
X120224086Y-97993467D01*
X120131188Y-98167266D01*
X120073975Y-98355870D01*
X120054659Y-98552000D01*
X118591370Y-98552000D01*
X118584498Y-98521893D01*
X118484813Y-98267900D01*
X118348386Y-98031600D01*
X118178263Y-97818273D01*
X117978246Y-97632685D01*
X117752803Y-97478980D01*
X117752797Y-97478977D01*
X117752796Y-97478976D01*
X117752794Y-97478975D01*
X117506970Y-97360593D01*
X117506972Y-97360593D01*
X117246236Y-97280167D01*
X117246230Y-97280165D01*
X116976435Y-97239500D01*
X116976428Y-97239500D01*
X116703572Y-97239500D01*
X116703564Y-97239500D01*
X116433769Y-97280165D01*
X116433763Y-97280167D01*
X116173031Y-97360592D01*
X115927202Y-97478977D01*
X115701753Y-97632685D01*
X115501739Y-97818271D01*
X115501737Y-97818273D01*
X115331614Y-98031600D01*
X115195187Y-98267899D01*
X115095504Y-98521887D01*
X115095499Y-98521904D01*
X115034783Y-98787915D01*
X115034783Y-98787917D01*
X115014395Y-99059995D01*
X115014395Y-99060004D01*
X114681557Y-99060004D01*
X114681613Y-99058133D01*
X114684818Y-99005149D01*
X114697011Y-98803559D01*
X114697915Y-98796128D01*
X114714406Y-98706139D01*
X114743549Y-98547106D01*
X114745334Y-98539865D01*
X114820654Y-98298155D01*
X114823305Y-98291168D01*
X114869170Y-98189260D01*
X114927208Y-98060305D01*
X114930678Y-98053692D01*
X115061651Y-97837038D01*
X115065901Y-97830879D01*
X115222040Y-97631585D01*
X115226975Y-97626014D01*
X115406014Y-97446975D01*
X115411585Y-97442040D01*
X115610879Y-97285901D01*
X115617038Y-97281651D01*
X115686764Y-97239500D01*
X115833692Y-97150678D01*
X115840305Y-97147208D01*
X116071168Y-97043305D01*
X116078155Y-97040654D01*
X116319865Y-96965334D01*
X116327106Y-96963549D01*
X116576128Y-96917915D01*
X116583559Y-96917011D01*
X116783786Y-96904900D01*
X116838134Y-96901613D01*
X116841878Y-96901500D01*
X116894851Y-96901500D01*
X129852895Y-96901500D01*
X129919934Y-96921185D01*
G37*
%TD.AperFunction*%
%TD*%
M02*
