%TF.GenerationSoftware,KiCad,Pcbnew,7.0.8*%
%TF.CreationDate,2023-11-01T10:58:51-04:00*%
%TF.ProjectId,destinationWeatherStation_v5,64657374-696e-4617-9469-6f6e57656174,01*%
%TF.SameCoordinates,Original*%
%TF.FileFunction,Paste,Top*%
%TF.FilePolarity,Positive*%
%FSLAX46Y46*%
G04 Gerber Fmt 4.6, Leading zero omitted, Abs format (unit mm)*
G04 Created by KiCad (PCBNEW 7.0.8) date 2023-11-01 10:58:51*
%MOMM*%
%LPD*%
G01*
G04 APERTURE LIST*
%ADD10R,0.970000X0.871000*%
%ADD11R,0.820000X0.929000*%
%ADD12R,0.350000X0.397000*%
%ADD13R,0.397000X0.350000*%
%ADD14R,0.300000X0.500000*%
%ADD15R,2.000000X0.800000*%
%ADD16R,1.400000X1.800000*%
%ADD17R,1.900000X1.400000*%
%ADD18R,0.929000X0.820000*%
%ADD19R,1.800000X1.200000*%
%ADD20R,1.550000X0.600000*%
%ADD21R,0.871000X0.970000*%
%ADD22R,0.760000X0.790000*%
%ADD23R,1.465000X0.985000*%
%ADD24R,0.550000X0.550000*%
%ADD25R,1.200000X2.500000*%
%ADD26R,0.833000X0.609000*%
G04 APERTURE END LIST*
D10*
%TO.C,C5*%
X117602000Y-104787000D03*
X117602000Y-106287000D03*
%TD*%
D11*
%TO.C,R5*%
X142374000Y-107950000D03*
X143884000Y-107950000D03*
%TD*%
D12*
%TO.C,U2*%
X123313000Y-112137000D03*
X122813000Y-112137000D03*
D13*
X122297000Y-112403000D03*
X122297000Y-112903000D03*
X122297000Y-113403000D03*
D12*
X122813000Y-113669000D03*
X123313000Y-113669000D03*
D13*
X123829000Y-113403000D03*
X123829000Y-112903000D03*
X123829000Y-112403000D03*
%TD*%
D14*
%TO.C,U3*%
X115970000Y-103440000D03*
X115170000Y-103440000D03*
X115170000Y-104840000D03*
X115970000Y-104840000D03*
%TD*%
D15*
%TO.C,J3*%
X156150000Y-106035000D03*
X155750000Y-107135000D03*
X156150000Y-108235000D03*
X156350000Y-109335000D03*
X156150000Y-110435000D03*
X156350000Y-111535000D03*
X156150000Y-112635000D03*
X156150000Y-113735000D03*
D16*
X145600000Y-112925000D03*
X145600000Y-107225000D03*
D17*
X158750000Y-114525000D03*
X159750000Y-101375000D03*
%TD*%
D11*
%TO.C,R10*%
X122435000Y-115316000D03*
X123945000Y-115316000D03*
%TD*%
D18*
%TO.C,R11*%
X120777000Y-115309000D03*
X120777000Y-113799000D03*
%TD*%
D11*
%TO.C,R4*%
X142374000Y-109474000D03*
X143884000Y-109474000D03*
%TD*%
D19*
%TO.C,J4*%
X115854000Y-107817000D03*
X115854000Y-113417000D03*
D20*
X119729000Y-109117000D03*
X119729000Y-110117000D03*
X119729000Y-111117000D03*
X119729000Y-112117000D03*
%TD*%
D11*
%TO.C,R2*%
X142374000Y-114046000D03*
X143884000Y-114046000D03*
%TD*%
%TO.C,R8*%
X142374000Y-101854000D03*
X143884000Y-101854000D03*
%TD*%
%TO.C,R12*%
X136405000Y-100203000D03*
X137915000Y-100203000D03*
%TD*%
D21*
%TO.C,C2*%
X142379000Y-115570000D03*
X143879000Y-115570000D03*
%TD*%
D22*
%TO.C,D1*%
X130018500Y-115189000D03*
X126408500Y-115189000D03*
%TD*%
D10*
%TO.C,C1*%
X120269000Y-102731000D03*
X120269000Y-101231000D03*
%TD*%
D11*
%TO.C,R1*%
X142374000Y-106426000D03*
X143884000Y-106426000D03*
%TD*%
D23*
%TO.C,L1*%
X125984000Y-103733000D03*
X125984000Y-105563000D03*
%TD*%
D24*
%TO.C,D2*%
X139943000Y-100932000D03*
X140893000Y-100932000D03*
X140893000Y-99982000D03*
X139943000Y-99982000D03*
%TD*%
D25*
%TO.C,SW1*%
X126960000Y-101302000D03*
X124460000Y-101302000D03*
X121960000Y-101302000D03*
%TD*%
D21*
%TO.C,C3*%
X142379000Y-110998000D03*
X143879000Y-110998000D03*
%TD*%
D11*
%TO.C,R7*%
X142374000Y-103378000D03*
X143884000Y-103378000D03*
%TD*%
D26*
%TO.C,U1*%
X123465000Y-105852000D03*
X123465000Y-104902000D03*
X123465000Y-103952000D03*
X120883000Y-103952000D03*
X120883000Y-105852000D03*
%TD*%
D11*
%TO.C,R9*%
X142374000Y-100330000D03*
X143884000Y-100330000D03*
%TD*%
%TO.C,R6*%
X142374000Y-104902000D03*
X143884000Y-104902000D03*
%TD*%
%TO.C,R3*%
X142374000Y-112522000D03*
X143884000Y-112522000D03*
%TD*%
D10*
%TO.C,C4*%
X125095000Y-112153000D03*
X125095000Y-113653000D03*
%TD*%
M02*
