M48
; DRILL file {KiCad 7.0.8} date Fri Jan  5 08:02:55 2024
; FORMAT={-:-/ absolute / metric / decimal}
; #@! TF.CreationDate,2024-01-05T08:02:55-05:00
; #@! TF.GenerationSoftware,Kicad,Pcbnew,7.0.8
; #@! TF.FileFunction,Plated,1,2,PTH
FMAT,2
METRIC
; #@! TA.AperFunction,Plated,PTH,ViaDrill
T1C0.310
; #@! TA.AperFunction,Plated,PTH,ViaDrill
T2C0.500
; #@! TA.AperFunction,Plated,PTH,ComponentDrill
T3C0.900
; #@! TA.AperFunction,Plated,PTH,ComponentDrill
T4C1.000
; #@! TA.AperFunction,Plated,PTH,ComponentDrill
T5C1.100
; #@! TA.AperFunction,Plated,PTH,ComponentDrill
T6C2.540
%
G90
G05
T1
X115.85Y-109.0
X115.85Y-112.2
X116.561Y-109.652
X117.125Y-105.506
X117.856Y-101.346
X118.429Y-109.651
X119.165Y-107.315
X119.507Y-101.346
X119.722Y-112.813
X119.736Y-108.229
X120.65Y-102.362
X120.706Y-112.954
X121.082Y-110.436
X121.658Y-115.697
X122.555Y-116.586
X123.698Y-115.418
X124.384Y-112.259
X124.409Y-107.34
X124.409Y-113.208
X124.587Y-104.902
X125.281Y-107.772
X127.327Y-113.75
X127.33Y-112.674
X127.343Y-111.709
X128.397Y-101.854
X128.436Y-107.772
X128.854Y-113.349
X129.424Y-111.709
X130.099Y-112.674
X133.985Y-114.046
X136.144Y-101.473
X138.963Y-101.016
X139.319Y-108.712
X139.777Y-102.489
X140.741Y-102.54
X144.526Y-114.808
X144.907Y-101.854
X145.669Y-107.275
X145.669Y-109.982
X145.796Y-115.443
X145.974Y-100.33
X146.304Y-116.586
X146.329Y-113.081
X146.558Y-107.95
X146.558Y-109.169
X146.736Y-103.504
X149.936Y-109.22
X149.987Y-99.655
X149.987Y-103.505
X149.987Y-107.95
X150.749Y-110.236
X151.054Y-113.081
X151.968Y-110.312
X152.375Y-113.259
X152.375Y-117.196
X152.73Y-106.248
X152.73Y-107.671
X153.67Y-103.251
X157.48Y-117.196
X157.607Y-100.203
X157.607Y-109.347
X157.607Y-111.379
X159.258Y-101.473
X159.893Y-113.03
T2
X122.174Y-103.759
X126.898Y-115.468
X130.175Y-115.443
T3
X121.06Y-98.552
X127.89Y-98.552
T4
X133.985Y-100.962
X133.985Y-108.712
T5
X120.65Y-118.11
X123.19Y-118.11
X125.73Y-118.11
X128.27Y-118.11
X130.81Y-97.79
X130.81Y-118.11
X133.35Y-97.79
X133.35Y-118.11
X135.89Y-97.79
X135.89Y-118.11
X138.43Y-97.79
X138.43Y-118.11
X140.97Y-97.79
X140.97Y-118.11
X143.51Y-97.79
X143.51Y-118.11
X146.05Y-97.79
X146.05Y-118.11
X148.59Y-97.79
X148.59Y-118.11
X151.13Y-97.79
X151.13Y-118.11
X153.67Y-97.79
X153.67Y-118.11
X156.21Y-97.79
X156.21Y-118.11
X158.75Y-97.79
X158.75Y-118.11
T6
X116.84Y-99.06
X116.84Y-116.84
T0
M30
