%TF.GenerationSoftware,KiCad,Pcbnew,7.0.8*%
%TF.CreationDate,2024-01-07T13:30:35-05:00*%
%TF.ProjectId,weather-featherwing,77656174-6865-4722-9d66-656174686572,02*%
%TF.SameCoordinates,Original*%
%TF.FileFunction,Profile,NP*%
%FSLAX46Y46*%
G04 Gerber Fmt 4.6, Leading zero omitted, Abs format (unit mm)*
G04 Created by KiCad (PCBNEW 7.0.8) date 2024-01-07 13:30:35*
%MOMM*%
%LPD*%
G01*
G04 APERTURE LIST*
%TA.AperFunction,Profile*%
%ADD10C,0.120000*%
%TD*%
G04 APERTURE END LIST*
D10*
X114935000Y-101600000D02*
X116205000Y-101600000D01*
X116205000Y-105918000D02*
X114935000Y-105918000D01*
X162575435Y-112344287D02*
G75*
G03*
X163836656Y-114644151I2537865J-104013D01*
G01*
X114300000Y-107315000D02*
X114300000Y-116840000D01*
X114300000Y-105283000D02*
G75*
G03*
X114935000Y-105918000I635000J0D01*
G01*
X116205000Y-102362000D02*
X114935000Y-102362000D01*
X116840000Y-119380000D02*
X162560000Y-119380000D01*
X165100000Y-99060000D02*
G75*
G03*
X162560000Y-96520000I-2540000J0D01*
G01*
X165099999Y-116840000D02*
G75*
G03*
X163836656Y-114644153I-2539999J0D01*
G01*
X114300000Y-100965000D02*
G75*
G03*
X114935000Y-101600000I635000J0D01*
G01*
X121436000Y-96520000D02*
X162560000Y-96520000D01*
X162560000Y-119380000D02*
G75*
G03*
X165100000Y-116840000I0J2540000D01*
G01*
X114935000Y-106680000D02*
G75*
G03*
X114300000Y-107315000I0J-635000D01*
G01*
X116205000Y-102362000D02*
G75*
G03*
X116205000Y-101600000I0J381000D01*
G01*
X114935000Y-106680000D02*
X116205000Y-106680000D01*
X114300000Y-116840000D02*
G75*
G03*
X116840000Y-119380000I2540000J0D01*
G01*
X114300000Y-102997000D02*
X114300000Y-105283000D01*
X114300000Y-99060000D02*
X114300000Y-100965000D01*
X114935000Y-102362000D02*
G75*
G03*
X114300000Y-102997000I0J-635000D01*
G01*
X162575444Y-103555713D02*
X162575444Y-112344287D01*
X116205000Y-106680000D02*
G75*
G03*
X116205000Y-105918000I0J381000D01*
G01*
X163836661Y-101255858D02*
G75*
G03*
X162575445Y-103555713I1276639J-2195842D01*
G01*
X116840000Y-96520000D02*
G75*
G03*
X114300000Y-99060000I0J-2540000D01*
G01*
X163836656Y-101255848D02*
G75*
G03*
X165100000Y-99060000I-1276656J2195848D01*
G01*
X116840000Y-96520000D02*
X121436000Y-96520000D01*
M02*
